<?xml version="1.0" standalone="no"?>
<!DOCTYPE svg PUBLIC "-//W3C//DTD SVG 20010904//EN"
 "http://www.w3.org/TR/2001/REC-SVG-20010904/DTD/svg10.dtd">
<svg version="1.0" xmlns="http://www.w3.org/2000/svg"
 width="700.000000pt" height="700.000000pt" viewBox="0 0 700.000000 700.000000"
 preserveAspectRatio="xMidYMid meet">
<metadata>
Created by potrace 1.11, written by Peter Selinger 2001-2013
</metadata>
<g transform="translate(0.000000,700.000000) scale(0.100000,-0.100000)"
fill="#000000" stroke="none">
<path d="M3309 6066 c-2 -2 -40 -7 -84 -11 -44 -4 -82 -8 -85 -10 -3 -2 -25
-6 -50 -9 -25 -3 -56 -8 -70 -11 -14 -3 -37 -7 -51 -10 -58 -11 -224 -57 -304
-84 -208 -72 -419 -177 -583 -288 -35 -24 -67 -43 -72 -43 -4 0 -10 -4 -12 -9
-1 -5 -41 -37 -88 -72 -104 -78 -323 -294 -414 -409 -263 -332 -444 -726 -521
-1134 -34 -185 -40 -245 -40 -471 0 -254 10 -354 62 -580 58 -257 170 -536
306 -760 22 -36 140 -210 146 -215 3 -3 19 -23 36 -45 55 -75 247 -275 351
-366 178 -157 484 -338 739 -436 154 -60 384 -124 500 -138 28 -4 57 -8 65
-10 77 -20 489 -28 620 -12 36 4 85 10 110 13 268 33 677 174 912 315 60 37
216 137 232 150 6 5 49 39 96 76 168 133 333 307 468 493 34 47 67 90 72 97 6
7 10 15 10 18 0 4 15 30 34 58 146 223 304 643 342 912 3 28 8 58 10 67 20
111 26 482 11 624 -26 246 -96 515 -195 746 -46 108 -137 286 -158 309 -8 8
-14 19 -14 23 0 13 -102 159 -175 252 -273 344 -644 623 -1035 778 -52 21
-108 44 -125 51 -30 12 -193 62 -231 70 -10 2 -50 10 -89 18 -72 16 -101 21
-170 31 -22 3 -56 9 -75 12 -40 7 -475 16 -481 10z"/>
</g>
</svg>
