<svg xmlns="http://www.w3.org/2000/svg" xmlns:xlink="http://www.w3.org/1999/xlink" preserveAspectRatio="xMidYMid" width="51" height="74" viewBox="0 0 51 74">
  <defs>
    <style>

      .cls-2 {
        fill: #ffa033;
      }
    </style>

  </defs>
  <path d="M23.858,72.854 C24.240,73.288 24.607,73.564 24.962,73.758 C24.962,73.758 24.980,73.767 24.980,73.767 C24.980,73.767 25.695,73.993 25.695,73.993 C25.695,73.993 26.408,73.767 26.408,73.767 C26.408,73.767 26.428,73.758 26.428,73.758 C26.781,73.564 27.150,73.288 27.532,72.854 C27.532,72.854 48.676,49.443 50.800,29.157 C50.929,28.110 51.013,27.049 51.013,25.971 C51.013,11.631 39.596,0.006 25.513,0.006 C11.427,0.006 0.010,11.631 0.010,25.971 C0.010,27.068 0.097,28.139 0.228,29.200 C2.407,49.479 23.858,72.854 23.858,72.854 ZM25.513,9.270 C34.558,9.270 41.915,16.764 41.915,25.971 C41.915,35.177 34.558,42.672 25.513,42.672 C16.470,42.672 9.108,35.177 9.108,25.971 C9.108,16.764 16.470,9.270 25.513,9.270 Z" id="path-1" class="cls-2" fill-rule="evenodd"/>
</svg>
