<?xml version="1.0" standalone="no"?>
<!DOCTYPE svg PUBLIC "-//W3C//DTD SVG 1.1//EN" "http://www.w3.org/Graphics/SVG/1.1/DTD/svg11.dtd" >
<svg>
<metadata>
Created by FontForge 20120731 at Thu Jun 30 19:24:59 2016
 By ,,,
(c) 2012 Linotype GmbH. This font software may not be reproduced, modified, disclosed or transferred without the express written approval of Linotype GmbH. This typeface is original artwork of Jackson Burke. The design may be protected in certain jurisdictions. Trade Gothic is a trademark of Linotype GmbH registered in the U.S. Patent and Trademark Office and may be registered in certain other jurisdictions.
</metadata>
<defs>
<font id="TradeGothicW10-BdCn20" horiz-adv-x="444" >
  <font-face 
    font-family="Trade Gothic W10 BdCn20"
    font-weight="700"
    font-stretch="condensed"
    units-per-em="1000"
    panose-1="2 11 8 6 4 3 3 2 0 4"
    ascent="740"
    descent="-260"
    x-height="538"
    cap-height="722"
    bbox="-52 -236 1000 964"
    underline-thickness="50"
    underline-position="-75"
    unicode-range="U+000D-2122"
  />
<missing-glyph horiz-adv-x="512" 
d="M512 718v-718h-512v718h512zM462 50v617h-412v-617h412zM259 609q27 0 49.5 -9.5t39 -27t26 -41.5t9.5 -53q0 -35 -14.5 -62t-49.5 -59q-18 -16 -27.5 -27.5t-14 -23.5t-5.5 -28.5t-1 -43.5h-46q-2 10 -2 16v11q0 4 0.5 12.5t2 19t4 21t6.5 18.5q8 16 20.5 31t29.5 32
q21 21 33.5 38t12.5 41q0 36 -22.5 60.5t-53.5 24.5q-70 0 -82 -95l-50 8q6 66 41 101.5t94 35.5zM222 184h56v-67h-56v67z" />
    <glyph glyph-name=".notdef" horiz-adv-x="512" 
d="M512 718v-718h-512v718h512zM462 50v617h-412v-617h412zM259 609q27 0 49.5 -9.5t39 -27t26 -41.5t9.5 -53q0 -35 -14.5 -62t-49.5 -59q-18 -16 -27.5 -27.5t-14 -23.5t-5.5 -28.5t-1 -43.5h-46q-2 10 -2 16v11q0 4 0.5 12.5t2 19t4 21t6.5 18.5q8 16 20.5 31t29.5 32
q21 21 33.5 38t12.5 41q0 36 -22.5 60.5t-53.5 24.5q-70 0 -82 -95l-50 8q6 66 41 101.5t94 35.5zM222 184h56v-67h-56v67z" />
    <glyph glyph-name=".null" horiz-adv-x="0" 
 />
    <glyph glyph-name="nonmarkingreturn" unicode="&#xd;" horiz-adv-x="222" 
 />
    <glyph glyph-name="space" unicode=" " horiz-adv-x="222" 
 />
    <glyph glyph-name="exclam" unicode="!" horiz-adv-x="278" 
d="M202 722l-22 -510h-82l-22 510h126zM198 118v-118h-118v118h118z" />
    <glyph glyph-name="quotedbl" unicode="&#x22;" horiz-adv-x="333" 
d="M134 722v-274h-94v274h94zM293 722v-274h-94v274h94z" />
    <glyph glyph-name="numbersign" unicode="#" 
d="M225 722l-25 -214h81l25 214h89l-25 -214h64v-78h-72l-16 -138h62v-78h-72l-24 -214h-90l25 214h-81l-24 -214h-91l25 214h-66v78h76l15 138h-66v78h76l25 214h89zM192 430l-16 -138h80l16 138h-80z" />
    <glyph glyph-name="dollar" unicode="$" 
d="M192 810h60v-88q43 -8 78.5 -32t60.5 -59l-76 -65q-20 32 -33.5 42.5t-29.5 15.5v-207q34 -21 63.5 -43.5t51.5 -48.5t34.5 -58t12.5 -73q0 -39 -11.5 -73.5t-32.5 -60t-51 -41.5t-67 -19v-116h-60v116q-43 4 -85.5 32.5t-76.5 80.5l83 63q10 -26 30 -49t49 -31v235
q-79 48 -115.5 97.5t-36.5 108.5q0 36 10.5 67.5t30 56.5t48 41t63.5 20v88zM142 549q0 -32 13.5 -54.5t36.5 -44.5v174q-23 -8 -36.5 -28.5t-13.5 -46.5zM252 96q31 12 43.5 35t12.5 58q0 29 -11 51t-45 53v-197z" />
    <glyph glyph-name="percent" unicode="%" horiz-adv-x="778" 
d="M632 732l-409 -742h-75l409 742h75zM214 722q33 0 62.5 -12.5t52 -34.5t36 -52t13.5 -65q0 -34 -12.5 -64t-35 -52t-52.5 -35t-64 -13q-35 0 -65 13t-52 35.5t-34.5 52.5t-12.5 63q0 34 13 63.5t35 52t52 35.5t64 13zM130 558q0 -17 6.5 -32t18 -26.5t26.5 -18.5t33 -7
q34 0 59 25t25 59q0 17 -6.5 32.5t-18 27t-27 18t-33.5 6.5q-17 0 -32 -6.5t-26 -18t-18 -26.5t-7 -33zM564 328q33 0 63 -13t52.5 -35t35.5 -52t13 -64q0 -33 -13 -63t-35.5 -52.5t-52.5 -35.5t-63 -13q-34 0 -64 13t-52 35.5t-35 52.5t-13 63q0 34 13 63.5t35.5 52
t52 35.5t63.5 13zM480 164q0 -17 6.5 -32t18 -26.5t27 -18.5t32.5 -7q34 0 59 25t25 59q0 17 -6.5 32.5t-18 27t-27 18t-33.5 6.5q-16 0 -31 -6.5t-26.5 -17.5t-18.5 -26.5t-7 -33.5z" />
    <glyph glyph-name="ampersand" unicode="&#x26;" horiz-adv-x="556" 
d="M247 732q68 0 107.5 -41t39.5 -109q0 -35 -11.5 -64.5t-29.5 -56t-40 -51t-43 -47.5q19 -38 41.5 -75.5t48.5 -71.5q13 34 24.5 66.5t19.5 67.5l102 -27q-11 -50 -29.5 -96.5t-38.5 -92.5q14 -12 31.5 -21.5t37.5 -12.5v-110q-39 1 -75.5 15t-64.5 40q-32 -31 -65.5 -43
t-75.5 -12q-40 0 -72 12.5t-54.5 34.5t-35 53t-12.5 69q0 48 24 100.5t71 103.5q-30 66 -43.5 114.5t-13.5 85.5q0 77 41 123t116 46zM192 589q0 -55 34 -139q33 43 46.5 73.5t13.5 59.5q0 41 -11 59t-34 18q-22 0 -35.5 -17.5t-13.5 -53.5zM197 264q-10 -15 -16 -26.5
t-9.5 -21t-4.5 -19.5t-1 -22q0 -32 20.5 -54.5t52.5 -22.5q17 0 30 4.5t27 16.5q-29 34 -54 69t-45 76z" />
    <glyph glyph-name="quotesingle" unicode="'" horiz-adv-x="222" 
d="M158 722v-274h-94v274h94z" />
    <glyph glyph-name="parenleft" unicode="(" horiz-adv-x="278" 
d="M246 732q-57 -88 -87.5 -192t-30.5 -217t30.5 -217t87.5 -192h-96q-29 44 -51 93.5t-37 102t-22.5 106.5t-7.5 107q0 106 30.5 213.5t87.5 195.5h96z" />
    <glyph glyph-name="parenright" unicode=")" horiz-adv-x="278" 
d="M128 732q28 -44 50 -93.5t37 -102t23 -107t8 -106.5q0 -106 -30.5 -212.5t-87.5 -196.5h-96q57 88 87.5 192t30.5 217q0 109 -29.5 214t-88.5 195h96z" />
    <glyph glyph-name="asterisk" unicode="*" 
d="M269 722q-8 -36 -14.5 -71.5t-9.5 -72.5q33 15 65.5 32t61.5 35l30 -89q-40 -2 -75 -7t-76 -10q26 -29 53 -56t58 -51l-79 -55q-13 36 -29 70.5t-32 69.5q-16 -35 -32 -69.5t-29 -70.5l-79 55q31 24 58 51t53 56q-41 5 -76 10t-75 7l30 89q32 -19 62.5 -35.5t64.5 -31.5
q-3 36 -9.5 71.5t-14.5 72.5h94z" />
    <glyph glyph-name="plus" unicode="+" horiz-adv-x="600" 
d="M349 506v-204h204v-98h-204v-204h-98v204h-204v98h204v204h98z" />
    <glyph glyph-name="comma" unicode="," horiz-adv-x="222" 
d="M170 118v-118l-69 -124h-53l49 124h-45v118h118z" />
    <glyph glyph-name="hyphen" unicode="-" horiz-adv-x="333" 
d="M289 315v-92h-245v92h245z" />
    <glyph glyph-name="period" unicode="." horiz-adv-x="222" 
d="M170 118v-118h-118v118h118z" />
    <glyph glyph-name="slash" unicode="/" horiz-adv-x="278" 
d="M299 732l-222 -742h-98l222 742h98z" />
    <glyph glyph-name="zero" unicode="0" 
d="M222 732q94 0 135 -48t41 -145v-356q0 -96 -41 -144.5t-135 -48.5q-96 0 -136 49.5t-40 143.5v356q0 97 41 145t135 48zM164 154q0 -32 15 -49t43 -17q29 0 43.5 17t14.5 49v414q0 31 -14.5 48.5t-43.5 17.5q-27 0 -42.5 -17t-15.5 -49v-414z" />
    <glyph glyph-name="one" unicode="1" 
d="M289 732v-732h-112v572h-98v67q45 23 80.5 45t66.5 48h63z" />
    <glyph glyph-name="two" unicode="2" 
d="M232 732q37 0 68 -13t53 -35t34.5 -51t12.5 -62q0 -48 -10.5 -88t-27.5 -78q-12 -26 -28 -54.5t-31 -53t-27 -42t-15 -22.5l-91 -131h219v-102h-345v97q29 43 58 85.5t58 86.5q57 88 89.5 157.5t32.5 125.5q0 43 -15 62.5t-41 19.5q-30 0 -45 -20.5t-15 -55.5v-48h-118
v27q0 45 13 81.5t37 61.5t58 38.5t76 13.5z" />
    <glyph glyph-name="three" unicode="3" 
d="M219 732q37 0 67 -14.5t51 -39.5t32 -59t11 -73q0 -38 -4.5 -64t-14 -45t-24.5 -32t-35 -24q24 -12 40.5 -26t27.5 -34t16 -48t5 -70q0 -109 -43.5 -161t-136.5 -52q-165 0 -165 176v43h112v-48q0 -35 14 -54t42 -19q27 0 43 20t16 64v57q0 57 -24 79t-82 22v98h2
q28 0 47.5 6t30.5 19t16 34t5 52q0 50 -11 72.5t-39 22.5q-31 0 -43.5 -19t-12.5 -54v-31h-112v30q0 43 13 75.5t35.5 54t53.5 32t67 10.5z" />
    <glyph glyph-name="four" unicode="4" 
d="M346 722v-456h66v-92h-66v-174h-114v174h-216v92l210 456h120zM232 548l-121 -282h123v282h-2z" />
    <glyph glyph-name="five" unicode="5" 
d="M373 722l-4 -102h-195l-7 -156l2 -2q22 25 42 33.5t51 8.5q73 0 103.5 -48.5t30.5 -136.5v-111q0 -105 -38 -161.5t-130 -56.5q-86 0 -132 41t-46 123v55h112v-58q0 -29 15 -46t40 -17q33 0 47 22.5t14 61.5v170q0 29 -13.5 46.5t-38.5 17.5q-48 0 -67 -55h-96q1 31 2 63
t2.5 74t3 98.5t1.5 135.5h301z" />
    <glyph glyph-name="six" unicode="6" 
d="M224 732q37 0 66.5 -12t50 -33.5t31.5 -51.5t11 -65v-42h-108v39q0 32 -12 49.5t-41 17.5t-43.5 -17.5t-14.5 -48.5v-172q27 28 48.5 38t53.5 10q63 0 97.5 -39t34.5 -105v-95q0 -109 -41 -162t-135 -53t-135 48t-41 145v356q0 95 40.5 144t137.5 49zM164 154
q0 -32 15 -49t43 -17q29 0 43.5 17t14.5 49v126q0 31 -13.5 48.5t-38.5 17.5q-14 0 -29.5 -9t-34.5 -24v-159z" />
    <glyph glyph-name="seven" unicode="7" 
d="M382 722v-70l-147 -652h-117l145 620h-207v102h326z" />
    <glyph glyph-name="eight" unicode="8" 
d="M222 732q81 0 123.5 -51t42.5 -151q0 -44 -15.5 -82t-49.5 -63q19 -13 33.5 -28.5t23.5 -37t13.5 -50.5t4.5 -68q0 -103 -44 -157t-132 -54t-132 54t-44 157q0 39 4.5 68t13.5 50t23 36.5t34 29.5q-33 24 -49 63t-16 82q0 100 42.5 151t123.5 51zM168 535q0 -53 12.5 -76
t41.5 -23t41.5 23t12.5 76t-12.5 76t-41.5 23t-41.5 -24t-12.5 -75zM158 208q0 -57 14 -88.5t50 -31.5t50 31.5t14 88.5q0 63 -16 91.5t-48 28.5q-33 0 -48.5 -29t-15.5 -91z" />
    <glyph glyph-name="nine" unicode="9" 
d="M222 732q94 0 135 -48t41 -145v-356q0 -97 -41 -145t-135 -48q-39 0 -69 12.5t-50.5 34t-31 50t-10.5 60.5v47h108v-37q0 -69 53 -69q29 0 43.5 17t14.5 49v172q-26 -28 -47.5 -38t-54.5 -10q-63 0 -97.5 39t-34.5 105v96q0 109 41.5 161.5t134.5 52.5zM280 568
q0 31 -14.5 48.5t-43.5 17.5q-27 0 -42.5 -17t-15.5 -49v-117q0 -75 52 -75q24 0 64 33v159z" />
    <glyph glyph-name="colon" unicode=":" horiz-adv-x="222" 
d="M170 396v-118h-118v118h118zM170 118v-118h-118v118h118z" />
    <glyph glyph-name="semicolon" unicode=";" horiz-adv-x="222" 
d="M170 396v-118h-118v118h118zM170 118v-118l-69 -124h-53l49 124h-45v118h118z" />
    <glyph glyph-name="less" unicode="&#x3c;" horiz-adv-x="600" 
d="M553 402l-365 -149l365 -149v-104l-506 211v84l506 211v-104z" />
    <glyph glyph-name="equal" unicode="=" horiz-adv-x="600" 
d="M553 406v-98h-506v98h506zM553 198v-98h-506v98h506z" />
    <glyph glyph-name="greater" unicode="&#x3e;" horiz-adv-x="600" 
d="M553 295v-84l-506 -211v104l365 149l-365 148v105z" />
    <glyph glyph-name="question" unicode="?" horiz-adv-x="389" 
d="M212 732q30 0 56 -10.5t46 -28.5t31.5 -42.5t11.5 -52.5q0 -30 -5.5 -52.5t-15.5 -41t-22.5 -35.5t-25.5 -36q-19 -27 -37 -64t-18 -92v-65h-96v88q0 42 15 87t52 110t37 98q0 19 -12 32t-30 13q-24 0 -42.5 -19t-28.5 -57l-96 36q23 66 66.5 99t113.5 33zM242 118v-118
h-118v118h118z" />
    <glyph glyph-name="at" unicode="@" horiz-adv-x="800" 
d="M416 732q71 0 133.5 -23t109.5 -63.5t74 -96t27 -120.5q0 -73 -27 -126.5t-65 -89t-81 -53t-74 -17.5q-23 0 -39 13t-18 41l-2 1q-25 -26 -53 -40.5t-55 -14.5q-31 0 -59 12.5t-49.5 35t-34 53t-12.5 66.5q0 50 16.5 95.5t45.5 80t68 55t85 20.5q37 0 67 -15.5t50 -49.5
l16 52h81l-64 -261q-2 -6 -4 -18t-2 -17q0 -11 3 -19t13 -8q22 0 43 14.5t37 39.5t26 58.5t10 70.5q0 55 -19 100.5t-54 78t-84 50t-110 17.5q-62 0 -114 -21.5t-90 -60.5t-59.5 -93t-21.5 -120q0 -65 22.5 -118.5t62 -92t94 -59.5t118.5 -21q63 0 118 21.5t95 61.5h83
q-52 -78 -130 -119.5t-172 -41.5q-81 0 -150.5 27t-120.5 76t-80.5 117t-29.5 151q0 80 29.5 148t80.5 117.5t119.5 77.5t146.5 28zM291 322q0 -38 21.5 -63.5t56.5 -25.5q26 0 48.5 13.5t39 35.5t26 48.5t9.5 53.5q0 36 -21.5 61.5t-55.5 25.5q-26 0 -48.5 -13t-39 -34
t-26.5 -48t-10 -54z" />
    <glyph glyph-name="A" unicode="A" 
d="M299 722l133 -722h-120l-22 160h-136l-22 -160h-120l133 722h154zM221 578l-49 -310h100l-49 310h-2z" />
    <glyph glyph-name="B" unicode="B" horiz-adv-x="500" 
d="M249 722q94 0 140.5 -48.5t46.5 -142.5q0 -54 -22.5 -95t-63.5 -56q53 -23 76.5 -65.5t23.5 -105.5q0 -103 -50.5 -156t-139.5 -53h-200v722h189zM184 426h45q38 0 60.5 24.5t22.5 68.5t-17.5 72.5t-66.5 28.5h-44v-194zM184 102h56q49 0 67.5 31t18.5 80
q0 54 -22.5 82.5t-79.5 28.5h-40v-222z" />
    <glyph glyph-name="C" unicode="C" horiz-adv-x="484" 
d="M250 732q43 0 77 -14.5t58 -40.5t36.5 -62t12.5 -79v-55h-124v55q0 41 -15.5 64.5t-44.5 23.5q-35 0 -50.5 -18t-15.5 -58v-373q0 -40 15.5 -58.5t50.5 -18.5q37 0 48.5 20.5t11.5 49.5v90h124v-86q0 -38 -12 -71.5t-35.5 -58t-57.5 -38.5t-79 -14q-47 0 -82.5 14
t-59.5 38.5t-36 57.5t-12 72v378q0 39 12.5 72.5t36.5 58t59.5 38t81.5 13.5z" />
    <glyph glyph-name="D" unicode="D" horiz-adv-x="500" 
d="M248 722q93 0 142.5 -53.5t49.5 -159.5v-296q0 -106 -49.5 -159.5t-142.5 -53.5h-188v722h188zM184 102h42q53 0 71.5 23.5t18.5 73.5v324q0 54 -19.5 75.5t-70.5 21.5h-42v-518z" />
    <glyph glyph-name="E" unicode="E" 
d="M392 722v-108h-208v-186h160v-108h-160v-212h222v-108h-346v722h332z" />
    <glyph glyph-name="F" unicode="F" 
d="M406 722v-108h-222v-186h166v-108h-166v-320h-124v722h346z" />
    <glyph glyph-name="G" unicode="G" horiz-adv-x="500" 
d="M242 732q45 0 79.5 -15.5t58.5 -41.5t36 -62t12 -76v-49h-118v4q0 68 -14.5 100t-56.5 32q-29 0 -42 -21.5t-13 -54.5v-377q0 -30 12 -51.5t46 -21.5q39 0 53.5 24t14.5 72v74h-79v98h203v-366h-60l-23 54q-16 -19 -30 -31t-28.5 -19.5t-30.5 -10.5t-35 -3q-40 0 -71 14
t-52.5 38t-32.5 57t-11 72v379q0 38 12 71.5t35 58t57 38.5t78 14z" />
    <glyph glyph-name="H" unicode="H" horiz-adv-x="500" 
d="M184 722v-294h132v294h124v-722h-124v320h-132v-320h-124v722h124z" />
    <glyph glyph-name="I" unicode="I" horiz-adv-x="278" 
d="M201 722v-722h-124v722h124z" />
    <glyph glyph-name="J" unicode="J" horiz-adv-x="278" 
d="M218 722v-579q0 -34 -8 -62t-28 -48.5t-54 -31.5t-87 -11h-38v108h24q24 0 37.5 6t20 14.5t8 18.5t1.5 19v566h124z" />
    <glyph glyph-name="K" unicode="K" 
d="M178 722v-267h2l130 267h124l-134 -269l151 -453h-126l-102 338l-45 -82v-256h-124v722h124z" />
    <glyph glyph-name="L" unicode="L" horiz-adv-x="389" 
d="M178 722v-614h195v-108h-319v722h124z" />
    <glyph glyph-name="M" unicode="M" horiz-adv-x="611" 
d="M216 722l88 -422h2l88 422h163v-722h-108v564h-2l-112 -564h-60l-112 564h-2v-564h-108v722h163z" />
    <glyph glyph-name="N" unicode="N" horiz-adv-x="500" 
d="M175 722l151 -413h2v413h112v-722h-108l-158 451h-2v-451h-112v722h115z" />
    <glyph glyph-name="O" unicode="O" horiz-adv-x="500" 
d="M250 732q46 0 81.5 -13.5t59.5 -38t36.5 -58t12.5 -72.5v-378q0 -38 -12 -71.5t-36 -58t-59.5 -38.5t-82.5 -14t-82.5 14t-59.5 38.5t-36 57.5t-12 72v377q0 39 12 72.5t36 58t59.5 38.5t82.5 14zM184 175q0 -40 15.5 -58.5t50.5 -18.5q39 0 52.5 21t13.5 56v372
q0 16 -2.5 30t-9.5 24.5t-20 16.5t-34 6q-33 0 -49.5 -17t-16.5 -59v-373z" />
    <glyph glyph-name="P" unicode="P" horiz-adv-x="500" 
d="M242 722q110 0 165 -49t55 -164q0 -63 -16 -104t-44.5 -65t-69.5 -34t-90 -10h-58v-296h-124v722h182zM184 398h42q30 0 51.5 4.5t35 16.5t19.5 33.5t6 56.5q0 36 -6.5 58t-20.5 34t-36 15.5t-52 3.5h-39v-222z" />
    <glyph glyph-name="Q" unicode="Q" horiz-adv-x="500" 
d="M250 732q48 0 83.5 -14.5t59 -39t35.5 -58t12 -71.5v-377q0 -20 -5 -44t-16 -46q14 -12 28 -19.5t30 -8.5v-108h-2q-43 0 -70 15.5t-54 51.5q-41 -23 -101 -23q-47 0 -82.5 14t-59.5 38.5t-36 57.5t-12 72v377q0 39 12 72.5t36 58t59.5 38.5t82.5 14zM184 175
q0 -40 15.5 -58.5t50.5 -18.5q28 0 42 11q-8 15 -14.5 22.5t-18.5 16.5v110q18 -9 32 -20t25 -24v332q0 16 -2.5 30t-9.5 24.5t-19.5 17t-33.5 6.5q-35 0 -51 -17.5t-16 -59.5v-372z" />
    <glyph glyph-name="R" unicode="R" horiz-adv-x="500" 
d="M239 722q101 0 153 -49.5t52 -163.5q0 -141 -87 -182l105 -327h-126l-88 299q-24 -3 -64 -3v-296h-124v722h179zM184 398h47q50 0 69.5 24t19.5 87q0 31 -4.5 52.5t-15 34.5t-29 18.5t-45.5 5.5h-42v-222z" />
    <glyph glyph-name="S" unicode="S" 
d="M231 732q73 0 118 -46t55 -129l-118 -13q-3 40 -21.5 60t-44.5 20q-30 0 -46 -18.5t-16 -51.5t21.5 -63.5t66.5 -66.5q54 -44 86.5 -79.5t50 -65t22.5 -55t5 -49.5q0 -88 -52.5 -136.5t-143.5 -48.5q-39 0 -72 14t-57.5 40.5t-39.5 63.5t-17 82l118 17q4 -56 24 -82.5
t51 -26.5q32 0 51.5 17t19.5 49q0 37 -22.5 70t-65.5 68q-41 33 -72 62t-51.5 58.5t-30.5 60.5t-10 69q0 87 50 133.5t141 46.5z" />
    <glyph glyph-name="T" unicode="T" horiz-adv-x="389" 
d="M376 722v-108h-120v-614h-124v614h-120v108h364z" />
    <glyph glyph-name="U" unicode="U" horiz-adv-x="500" 
d="M184 722v-548q0 -36 16 -56t50 -20t50 20t16 56v548h124v-544q0 -42 -12.5 -76.5t-36.5 -59t-59.5 -38.5t-81.5 -14q-91 0 -140.5 50.5t-49.5 137.5v544h124z" />
    <glyph glyph-name="V" unicode="V" 
d="M131 722l90 -500h2l90 500h122l-151 -722h-124l-151 722h122z" />
    <glyph glyph-name="W" unicode="W" horiz-adv-x="667" 
d="M116 722l76 -460h2l81 460h102l84 -460h2l69 460h116l-127 -722h-104l-90 477h-2l-84 -477h-104l-137 722h116z" />
    <glyph glyph-name="X" unicode="X" 
d="M146 722l76 -229h2l69 229h122l-125 -344l140 -378h-122l-84 263h-2l-86 -263h-122l142 378l-132 344h122z" />
    <glyph glyph-name="Y" unicode="Y" 
d="M136 722l87 -275h2l83 275h126l-150 -422v-300h-124v300l-150 422h126z" />
    <glyph glyph-name="Z" unicode="Z" 
d="M400 722v-118l-228 -496h228v-108h-356v118l231 496h-203v108h328z" />
    <glyph glyph-name="bracketleft" unicode="[" horiz-adv-x="278" 
d="M250 722v-48h-118v-702h118v-48h-214v798h214z" />
    <glyph glyph-name="backslash" unicode="\" horiz-adv-x="278" 
d="M77 732l222 -742h-98l-222 742h98z" />
    <glyph glyph-name="bracketright" unicode="]" horiz-adv-x="278" 
d="M242 722v-798h-214v48h118v702h-118v48h214z" />
    <glyph glyph-name="asciicircum" unicode="^" horiz-adv-x="600" 
d="M354 722l190 -420h-109l-136 302l-136 -302h-107l190 420h108z" />
    <glyph glyph-name="underscore" unicode="_" horiz-adv-x="500" 
d="M500 -75v-50h-500v50h500z" />
    <glyph glyph-name="grave" unicode="`" horiz-adv-x="222" 
d="M103 746l79 -144h-83l-131 144h135z" />
    <glyph glyph-name="a" unicode="a" 
d="M222 548q82 0 122.5 -37.5t40.5 -106.5v-346q0 -6 0.5 -15.5t6.5 -42.5h-107q0 5 -2 15.5t-4 26.5q-35 -29 -64.5 -40.5t-66.5 -11.5q-54 0 -84 32.5t-30 88.5q0 43 13.5 77.5t43 63.5t74.5 54t108 49v32q0 28 -11.5 48.5t-44.5 20.5q-32 0 -46.5 -17t-16.5 -59h-112
q4 79 51.5 123.5t128.5 44.5zM146 131q0 -26 13.5 -37.5t38.5 -11.5q23 0 42 15t33 35v141q-29 -17 -52.5 -32.5t-40 -32t-25.5 -35.5t-9 -42z" />
    <glyph glyph-name="b" unicode="b" 
d="M166 722v-230q21 18 36 29t28 17t25.5 8t26.5 2q54 0 84 -39t30 -108v-263q0 -69 -29.5 -108.5t-84.5 -39.5q-19 0 -34.5 3t-29.5 10.5t-27.5 20t-28.5 32.5h-2v-56h-106v722h112zM166 110q17 -12 32 -20t32 -8q32 0 43 24t11 62v201q0 10 -1 25t-6 28.5t-16 23.5t-30 10
q-20 0 -35.5 -9t-29.5 -19v-318z" />
    <glyph glyph-name="c" unicode="c" 
d="M222 548q170 0 174 -194h-112v9q0 52 -16 72.5t-46 20.5q-62 0 -62 -84v-206q0 -84 62 -84q31 0 46.5 21t15.5 66v35h112v-11q0 -203 -174 -203q-88 0 -131 51t-43 145v160q0 202 174 202z" />
    <glyph glyph-name="d" unicode="d" 
d="M390 722v-722h-106v56h-2q-15 -20 -29 -32.5t-27.5 -20t-29 -10.5t-33.5 -3q-55 0 -85 38.5t-30 107.5v266q0 68 30 107t84 39q14 0 26 -2t25 -8t28.5 -17t36.5 -29v230h112zM160 165q0 -39 12.5 -61t41.5 -22q17 0 32 8t32 20v318q-18 13 -33 20.5t-32 7.5
q-53 0 -53 -83v-208z" />
    <glyph glyph-name="e" unicode="e" 
d="M222 548q89 0 131.5 -51t42.5 -144v-105h-236v-82q0 -84 62 -84q11 0 22 3t20 12.5t14.5 27.5t5.5 47v10h112q-2 -100 -46 -146t-128 -46q-88 0 -131 51t-43 145v160q0 202 174 202zM284 340v23q0 55 -17 74t-45 19q-29 0 -45.5 -20.5t-16.5 -63.5v-32h124z" />
    <glyph glyph-name="f" unicode="f" horiz-adv-x="278" 
d="M257 640h-31q-22 0 -30 -8.5t-8 -25.5v-68h64v-92h-64v-446h-112v446h-66v92h66v69q0 61 31.5 93t93.5 32h56v-92z" />
    <glyph glyph-name="g" unicode="g" 
d="M203 548q45 0 75 -13.5t56 -44.5q12 18 22 29.5t20 17.5t21.5 8.5t25.5 2.5h3v-93q-3 1 -8.5 1h-7.5q-18 0 -30.5 -3.5t-25.5 -13.5q6 -21 9 -46t3 -50q0 -66 -14.5 -106.5t-37.5 -62t-53 -29t-60 -7.5h-38q-8 0 -16.5 -7t-8.5 -18q0 -19 26.5 -25t76.5 -7q54 -1 90 -9.5
t57 -24.5t29.5 -38.5t8.5 -50.5q0 -128 -230 -128q-85 0 -131.5 22t-46.5 64q0 29 20 52.5t53 31.5v2q-23 9 -37 25.5t-14 42.5q0 23 18 46t50 41q-23 16 -37.5 32t-22 37.5t-10 51t-2.5 71.5q0 55 9.5 93.5t30 61.5t52 33.5t75.5 10.5zM142 343q0 -59 12 -86t44 -27
q18 0 29 5.5t17 19t8 35t2 53.5q0 34 -2.5 56t-8.5 34.5t-17 17.5t-28 5q-32 0 -44 -26.5t-12 -86.5zM136 -50q0 -24 22 -32t73 -8q56 0 75.5 9t19.5 31q0 23 -22.5 31.5t-74.5 8.5q-39 0 -66 -6.5t-27 -33.5z" />
    <glyph glyph-name="h" unicode="h" 
d="M166 722v-234q20 19 36.5 31t31.5 18.5t29.5 8.5t31.5 2q47 0 71 -30.5t24 -79.5v-438h-112v419q0 37 -40 37q-18 0 -35 -10t-37 -24v-422h-112v722h112z" />
    <glyph glyph-name="i" unicode="i" horiz-adv-x="222" 
d="M167 722v-102h-112v102h112zM167 538v-538h-112v538h112z" />
    <glyph glyph-name="j" unicode="j" horiz-adv-x="222" 
d="M173 722v-102h-112v102h112zM173 538v-573q0 -62 -31.5 -98.5t-100.5 -36.5h-41v102h18q25 0 34 12t9 28v566h112z" />
    <glyph glyph-name="k" unicode="k" 
d="M166 722v-378l125 194h120l-117 -170l130 -368h-113l-90 270l-55 -82v-188h-112v722h112z" />
    <glyph glyph-name="l" unicode="l" horiz-adv-x="222" 
d="M167 722v-722h-112v722h112z" />
    <glyph glyph-name="m" unicode="m" horiz-adv-x="667" 
d="M284 548q38 0 58.5 -13.5t39.5 -50.5q36 35 63 49.5t62 14.5q55 0 80 -31t25 -79v-438h-112v419q0 17 -11.5 27t-28.5 10q-18 0 -35.5 -10t-35.5 -24v-422h-112v419q0 17 -11 27t-28 10q-18 0 -35 -10t-37 -24v-422h-112v538h106v-54q22 20 39 32.5t30.5 19.5t26.5 9.5
t28 2.5z" />
    <glyph glyph-name="n" unicode="n" 
d="M295 548q47 0 71 -31t24 -80v-437h-112v419q0 37 -40 37q-18 0 -35 -10t-37 -24v-422h-112v538h106v-54q23 21 40.5 33.5t32.5 19t29.5 9t32.5 2.5z" />
    <glyph glyph-name="o" unicode="o" 
d="M222 548q90 0 132 -52t42 -144v-161q0 -201 -174 -201q-88 0 -131 51t-43 145v160q0 202 174 202zM160 166q0 -84 62 -84q32 0 47 22t15 62v206q0 41 -15 62.5t-47 21.5q-28 0 -45 -19.5t-17 -64.5v-206z" />
    <glyph glyph-name="p" unicode="p" 
d="M282 548q54 0 84 -39t30 -107v-266q0 -69 -30 -107.5t-84 -38.5q-15 0 -27.5 2.5t-25.5 8.5t-28 17t-35 28v-216h-112v708h106v-56h2q28 37 53.5 51.5t66.5 14.5zM166 110q17 -12 32 -20t32 -8q30 0 42 22.5t12 60.5v207q0 45 -13.5 64.5t-41.5 19.5q-17 0 -33.5 -9.5
t-29.5 -18.5v-318z" />
    <glyph glyph-name="q" unicode="q" 
d="M163 548q20 0 35.5 -3.5t29 -11t26.5 -20t28 -31.5h2v56h106v-708h-112v216q-20 -17 -34.5 -28t-27.5 -17t-25.5 -8.5t-28.5 -2.5q-54 0 -84 39t-30 108v265q0 68 29.5 107t85.5 39zM160 165q0 -38 12 -60.5t42 -22.5q17 0 32 8t32 20v318q-18 13 -33 20.5t-32 7.5
q-53 0 -53 -83v-208z" />
    <glyph glyph-name="r" unicode="r" horiz-adv-x="333" 
d="M313 431q-23 6 -39.5 8.5t-31.5 2.5q-34 0 -55 -20t-21 -49v-373h-112v538h107v-63h2q19 30 49.5 51.5t83.5 21.5h17v-117z" />
    <glyph glyph-name="s" unicode="s" horiz-adv-x="389" 
d="M189 548q63 0 106 -37.5t58 -105.5l-95 -16q-12 67 -64 67q-22 0 -35.5 -11t-13.5 -32q0 -23 21.5 -44.5t66.5 -53.5q67 -47 94.5 -89t27.5 -91q0 -69 -41.5 -107t-115.5 -38t-116 39.5t-55 110.5l98 27q6 -45 24 -65t50 -20q23 0 36.5 12t13.5 35q0 29 -25.5 54.5
t-76.5 60.5q-49 34 -78.5 73t-29.5 87q0 30 11 56t31 45.5t47.5 31t60.5 11.5z" />
    <glyph glyph-name="t" unicode="t" horiz-adv-x="278" 
d="M184 683v-145h75v-92h-75v-312q0 -18 8.5 -30t30.5 -12h36v-96q-12 -3 -24 -4.5t-31 -1.5q-67 0 -99.5 31t-32.5 88v337h-62v92h62v145h112z" />
    <glyph glyph-name="u" unicode="u" 
d="M166 538v-419q0 -37 40 -37q18 0 35 10t37 24v422h112v-538h-106v54q-23 -21 -40.5 -33.5t-32.5 -19t-30 -9t-33 -2.5q-47 0 -70.5 31t-23.5 79v438h112z" />
    <glyph glyph-name="v" unicode="v" horiz-adv-x="389" 
d="M124 538l69 -360h2l70 360h114l-130 -538h-109l-130 538h114z" />
    <glyph glyph-name="w" unicode="w" horiz-adv-x="556" 
d="M114 538l49 -336h2l71 336h83l60 -335h2l61 335h108l-124 -538h-90l-61 340h-2l-73 -340h-90l-104 538h108z" />
    <glyph glyph-name="x" unicode="x" horiz-adv-x="389" 
d="M137 538l57 -150l60 150h116l-116 -251l122 -287h-116l-65 182h-2l-65 -182h-116l120 285l-111 253h116z" />
    <glyph glyph-name="y" unicode="y" horiz-adv-x="389" 
d="M124 538l72 -344h2l68 344h113l-141 -577q-9 -39 -22.5 -64t-33 -40t-45 -20.5t-59.5 -5.5h-40v92h29q38 0 55 20.5t17 65.5q0 14 -2.5 29t-10.5 46l-116 454h114z" />
    <glyph glyph-name="z" unicode="z" horiz-adv-x="389" 
d="M359 538v-92l-209 -354h209v-92h-329v92l205 354h-191v92h315z" />
    <glyph glyph-name="braceleft" unicode="{" horiz-adv-x="278" 
d="M270 732v-48h-84q-18 0 -26 -13.5t-8 -34.5v-199q0 -42 -21 -72.5t-54 -38.5v-3q35 -8 55 -39.5t20 -74.5v-199q0 -21 8 -34.5t26 -13.5h84v-48h-113q-53 0 -77 21.5t-24 70.5v213q0 32 -14 54t-42 23v58q28 1 42 23t14 54v209q0 49 24.5 70.5t75.5 21.5h114z" />
    <glyph glyph-name="bar" unicode="|" horiz-adv-x="222" 
d="M160 732v-742h-98v742h98z" />
    <glyph glyph-name="braceright" unicode="}" horiz-adv-x="278" 
d="M122 732q51 0 75.5 -21.5t24.5 -70.5v-213q0 -32 14.5 -54.5t41.5 -22.5v-58q-26 0 -41 -22t-15 -55v-209q0 -49 -24.5 -70.5t-75.5 -21.5h-114v48h84q18 0 26 13.5t8 34.5v199q0 40 20.5 72t55.5 39v3q-37 8 -56.5 39.5t-19.5 74.5v199q0 21 -8 34.5t-26 13.5h-84v48
h114z" />
    <glyph glyph-name="asciitilde" unicode="~" horiz-adv-x="600" 
d="M194 335q27 0 55 -10t55 -22t53 -22t50 -10q23 0 41.5 13.5t46.5 50.5l44 -86q-13 -12 -27 -25.5t-30 -25.5t-35 -19.5t-41 -7.5q-30 0 -53.5 10t-46.5 22t-50.5 22t-66.5 10q-53 0 -84 -64l-44 86q21 25 39.5 40.5t34.5 24t30.5 11t28.5 2.5z" />
    <glyph glyph-name="uni00A0" unicode="&#xa0;" horiz-adv-x="222" 
 />
    <glyph glyph-name="Agrave" unicode="&#xc0;" 
d="M299 722l133 -722h-120l-22 160h-136l-22 -160h-120l133 722h154zM221 578l-49 -310h100l-49 310h-2zM214 903l79 -144h-83l-131 144h135z" />
    <glyph glyph-name="Aacute" unicode="&#xc1;" 
d="M299 722l133 -722h-120l-22 160h-136l-22 -160h-120l133 722h154zM221 578l-49 -310h100l-49 310h-2zM365 903l-131 -144h-83l79 144h135z" />
    <glyph glyph-name="Acircumflex" unicode="&#xc2;" 
d="M299 722l133 -722h-120l-22 160h-136l-22 -160h-120l133 722h154zM221 578l-49 -310h100l-49 310h-2zM277 903l96 -144h-92l-59 89l-59 -89h-92l96 144h110z" />
    <glyph glyph-name="Atilde" unicode="&#xc3;" 
d="M299 722l133 -722h-120l-22 160h-136l-22 -160h-120l133 722h154zM221 578l-49 -310h100l-49 310h-2zM385 891q-11 -57 -36.5 -87.5t-66.5 -30.5q-18 0 -33.5 6t-30.5 13.5t-30 13.5t-31 6q-23 0 -32 -10.5t-10 -33.5h-56q22 118 103 118q16 0 33 -6t33 -13.5t31 -13.5
t28 -6q23 0 31.5 10.5t10.5 33.5h56z" />
    <glyph glyph-name="Adieresis" unicode="&#xc4;" 
d="M299 722l133 -722h-120l-22 160h-136l-22 -160h-120l133 722h154zM221 578l-49 -310h100l-49 310h-2zM197 879v-108h-108v108h108zM355 879v-108h-108v108h108z" />
    <glyph glyph-name="Aring" unicode="&#xc5;" 
d="M299 722l133 -722h-120l-22 160h-136l-22 -160h-120l133 722h154zM221 578l-49 -310h100l-49 310h-2zM222 964q22 0 41 -8.5t32.5 -22.5t21 -32.5t7.5 -38.5q0 -21 -8 -39.5t-21.5 -32.5t-32.5 -22t-40 -8t-39.5 8t-32.5 22t-22 32.5t-8 39.5q0 20 8 38.5t21.5 32.5
t32 22.5t40.5 8.5zM170 862q0 -22 15 -37t37 -15q21 0 36.5 15t15.5 37q0 21 -15 36.5t-38 15.5q-20 0 -35.5 -15t-15.5 -37z" />
    <glyph glyph-name="AE" unicode="&#xc6;" horiz-adv-x="722" 
d="M670 722v-108h-212v-186h164v-108h-164v-212h226v-108h-350v170h-144l-52 -170h-126l233 722h425zM224 278h110v354h-2z" />
    <glyph glyph-name="Ccedilla" unicode="&#xc7;" horiz-adv-x="484" 
d="M250 732q46 0 80.5 -15.5t57.5 -42.5t34.5 -62.5t11.5 -75.5v-55h-124v55q0 41 -15.5 64.5t-44.5 23.5q-35 0 -50.5 -18t-15.5 -58v-373q0 -40 15.5 -58.5t50.5 -18.5q36 0 48 20.5t12 49.5v90h124v-87q0 -72 -41.5 -122t-116.5 -58l-35 -51q8 1 11 1.5t8 0.5
q16 0 32.5 -4.5t30 -14t22 -24t8.5 -33.5q0 -45 -35.5 -73.5t-88.5 -28.5q-51 0 -99 23l17 50q3 -2 11 -5t18 -5.5t19.5 -4.5t16.5 -2q26 0 42.5 12t16.5 29q0 19 -14 27t-34 8q-19 0 -35 -6l-22 18l61 83q-41 3 -72 18t-52 39t-32 55.5t-11 67.5v379q0 39 12.5 72.5
t36.5 58t59.5 38t81.5 13.5z" />
    <glyph glyph-name="Eth" unicode="&#xd0;" horiz-adv-x="500" 
d="M248 722q93 0 142.5 -53.5t49.5 -159.5v-296q0 -106 -49.5 -159.5t-142.5 -53.5h-188v320h-40v108h40v294h188zM258 428v-108h-74v-218h42q53 0 71.5 23.5t18.5 73.5v324q0 54 -19.5 75.5t-70.5 21.5h-42v-192h74z" />
    <glyph glyph-name="Egrave" unicode="&#xc8;" 
d="M392 722v-108h-208v-186h160v-108h-160v-212h222v-108h-346v722h332zM226 903l79 -144h-83l-131 144h135z" />
    <glyph glyph-name="Eacute" unicode="&#xc9;" 
d="M392 722v-108h-208v-186h160v-108h-160v-212h222v-108h-346v722h332zM377 904l-131 -144h-83l79 144h135z" />
    <glyph glyph-name="Ecircumflex" unicode="&#xca;" 
d="M392 722v-108h-208v-186h160v-108h-160v-212h222v-108h-346v722h332zM289 903l96 -144h-92l-59 89l-59 -89h-92l96 144h110z" />
    <glyph glyph-name="Edieresis" unicode="&#xcb;" 
d="M392 722v-108h-208v-186h160v-108h-160v-212h222v-108h-346v722h332zM208 879v-108h-108v108h108zM366 879v-108h-108v108h108z" />
    <glyph glyph-name="Igrave" unicode="&#xcc;" horiz-adv-x="278" 
d="M201 722v-722h-124v722h124zM131 904l79 -144h-83l-131 144h135z" />
    <glyph glyph-name="Iacute" unicode="&#xcd;" horiz-adv-x="278" 
d="M201 722v-722h-124v722h124zM281 903l-131 -144h-83l79 144h135z" />
    <glyph glyph-name="Icircumflex" unicode="&#xce;" horiz-adv-x="278" 
d="M201 722v-722h-124v722h124zM194 903l96 -144h-92l-59 89l-59 -89h-92l96 144h110z" />
    <glyph glyph-name="Idieresis" unicode="&#xcf;" horiz-adv-x="278" 
d="M201 722v-722h-124v722h124zM114 880v-108h-108v108h108zM272 880v-108h-108v108h108z" />
    <glyph glyph-name="Ntilde" unicode="&#xd1;" horiz-adv-x="500" 
d="M175 722l151 -413h2v413h112v-722h-108l-158 451h-2v-451h-112v722h115zM413 891q-11 -57 -36.5 -87.5t-66.5 -30.5q-18 0 -33.5 6t-30.5 13.5t-30 13.5t-31 6q-23 0 -32 -10.5t-10 -33.5h-56q22 118 103 118q16 0 33 -6t33 -13.5t31 -13.5t28 -6q23 0 31.5 10.5
t10.5 33.5h56z" />
    <glyph glyph-name="Ograve" unicode="&#xd2;" horiz-adv-x="500" 
d="M250 732q46 0 81.5 -13.5t59.5 -38t36.5 -58t12.5 -72.5v-378q0 -38 -12 -71.5t-36 -58t-59.5 -38.5t-82.5 -14t-82.5 14t-59.5 38.5t-36 57.5t-12 72v377q0 39 12 72.5t36 58t59.5 38.5t82.5 14zM184 175q0 -40 15.5 -58.5t50.5 -18.5q39 0 52.5 21t13.5 56v372
q0 16 -2.5 30t-9.5 24.5t-20 16.5t-34 6q-33 0 -49.5 -17t-16.5 -59v-373zM242 904l79 -144h-83l-131 144h135z" />
    <glyph glyph-name="Oacute" unicode="&#xd3;" horiz-adv-x="500" 
d="M250 732q46 0 81.5 -13.5t59.5 -38t36.5 -58t12.5 -72.5v-378q0 -38 -12 -71.5t-36 -58t-59.5 -38.5t-82.5 -14t-82.5 14t-59.5 38.5t-36 57.5t-12 72v377q0 39 12 72.5t36 58t59.5 38.5t82.5 14zM184 175q0 -40 15.5 -58.5t50.5 -18.5q39 0 52.5 21t13.5 56v372
q0 16 -2.5 30t-9.5 24.5t-20 16.5t-34 6q-33 0 -49.5 -17t-16.5 -59v-373zM392 903l-131 -144h-83l79 144h135z" />
    <glyph glyph-name="Ocircumflex" unicode="&#xd4;" horiz-adv-x="500" 
d="M250 732q46 0 81.5 -13.5t59.5 -38t36.5 -58t12.5 -72.5v-378q0 -38 -12 -71.5t-36 -58t-59.5 -38.5t-82.5 -14t-82.5 14t-59.5 38.5t-36 57.5t-12 72v377q0 39 12 72.5t36 58t59.5 38.5t82.5 14zM184 175q0 -40 15.5 -58.5t50.5 -18.5q39 0 52.5 21t13.5 56v372
q0 16 -2.5 30t-9.5 24.5t-20 16.5t-34 6q-33 0 -49.5 -17t-16.5 -59v-373zM305 903l96 -144h-92l-59 89l-59 -89h-92l96 144h110z" />
    <glyph glyph-name="Otilde" unicode="&#xd5;" horiz-adv-x="500" 
d="M250 732q46 0 81.5 -13.5t59.5 -38t36.5 -58t12.5 -72.5v-378q0 -38 -12 -71.5t-36 -58t-59.5 -38.5t-82.5 -14t-82.5 14t-59.5 38.5t-36 57.5t-12 72v377q0 39 12 72.5t36 58t59.5 38.5t82.5 14zM184 175q0 -40 15.5 -58.5t50.5 -18.5q39 0 52.5 21t13.5 56v372
q0 16 -2.5 30t-9.5 24.5t-20 16.5t-34 6q-33 0 -49.5 -17t-16.5 -59v-373zM413 891q-11 -57 -36.5 -87.5t-66.5 -30.5q-18 0 -33.5 6t-30.5 13.5t-30 13.5t-31 6q-23 0 -32 -10.5t-10 -33.5h-56q22 118 103 118q16 0 33 -6t33 -13.5t31 -13.5t28 -6q23 0 31.5 10.5
t10.5 33.5h56z" />
    <glyph glyph-name="Odieresis" unicode="&#xd6;" horiz-adv-x="500" 
d="M250 732q46 0 81.5 -13.5t59.5 -38t36.5 -58t12.5 -72.5v-378q0 -38 -12 -71.5t-36 -58t-59.5 -38.5t-82.5 -14t-82.5 14t-59.5 38.5t-36 57.5t-12 72v377q0 39 12 72.5t36 58t59.5 38.5t82.5 14zM184 175q0 -40 15.5 -58.5t50.5 -18.5q39 0 52.5 21t13.5 56v372
q0 16 -2.5 30t-9.5 24.5t-20 16.5t-34 6q-33 0 -49.5 -17t-16.5 -59v-373zM225 879v-108h-108v108h108zM383 879v-108h-108v108h108z" />
    <glyph glyph-name="Oslash" unicode="&#xd8;" horiz-adv-x="500" 
d="M472 804l-59 -152q15 -24 21 -51t6 -51v-378q0 -39 -12 -72t-36 -57.5t-59.5 -38.5t-82.5 -14q-50 0 -90 17l-50 -127h-82l69 176q-20 26 -28.5 56t-8.5 59v378q0 39 12.5 72.5t36.5 58t59.5 38.5t81.5 14q61 0 103 -24l38 96h81zM184 257h2l126 325q-5 21 -19.5 31.5
t-42.5 10.5q-32 0 -49 -17t-17 -59v-291zM314 424l-117 -303q6 -12 19.5 -17.5t33.5 -5.5q39 0 52.5 21t13.5 56v249h-2z" />
    <glyph glyph-name="Thorn" unicode="&#xde;" horiz-adv-x="500" 
d="M184 722v-140h57q112 0 166.5 -49t54.5 -164q0 -60 -14.5 -100.5t-42.5 -65.5t-68 -36t-92 -11h-61v-156h-124v722h124zM184 258h54q25 0 43.5 4.5t31 16.5t19 33.5t6.5 56.5q0 29 -4 50t-16 34.5t-33 20t-55 6.5h-46v-222z" />
    <glyph glyph-name="Ugrave" unicode="&#xd9;" horiz-adv-x="500" 
d="M184 722v-548q0 -36 16 -56t50 -20t50 20t16 56v548h124v-544q0 -42 -12.5 -76.5t-36.5 -59t-59.5 -38.5t-81.5 -14q-91 0 -140.5 50.5t-49.5 137.5v544h124zM242 904l79 -144h-83l-131 144h135z" />
    <glyph glyph-name="Uacute" unicode="&#xda;" horiz-adv-x="500" 
d="M184 722v-548q0 -36 16 -56t50 -20t50 20t16 56v548h124v-544q0 -42 -12.5 -76.5t-36.5 -59t-59.5 -38.5t-81.5 -14q-91 0 -140.5 50.5t-49.5 137.5v544h124zM393 904l-131 -144h-83l79 144h135z" />
    <glyph glyph-name="Ucircumflex" unicode="&#xdb;" horiz-adv-x="500" 
d="M184 722v-548q0 -36 16 -56t50 -20t50 20t16 56v548h124v-544q0 -42 -12.5 -76.5t-36.5 -59t-59.5 -38.5t-81.5 -14q-91 0 -140.5 50.5t-49.5 137.5v544h124zM305 903l96 -144h-92l-59 89l-59 -89h-92l96 144h110z" />
    <glyph glyph-name="Udieresis" unicode="&#xdc;" horiz-adv-x="500" 
d="M184 722v-548q0 -36 16 -56t50 -20t50 20t16 56v548h124v-544q0 -42 -12.5 -76.5t-36.5 -59t-59.5 -38.5t-81.5 -14q-91 0 -140.5 50.5t-49.5 137.5v544h124zM226 879v-108h-108v108h108zM384 879v-108h-108v108h108z" />
    <glyph glyph-name="Yacute" unicode="&#xdd;" 
d="M136 722l87 -275h2l83 275h126l-150 -422v-300h-124v300l-150 422h126zM364 903l-131 -144h-83l79 144h135z" />
    <glyph glyph-name="agrave" unicode="&#xe0;" 
d="M222 548q82 0 122.5 -37.5t40.5 -106.5v-346q0 -6 0.5 -15.5t6.5 -42.5h-107q0 5 -2 15.5t-4 26.5q-35 -29 -64.5 -40.5t-66.5 -11.5q-54 0 -84 32.5t-30 88.5q0 43 13.5 77.5t43 63.5t74.5 54t108 49v32q0 28 -11.5 48.5t-44.5 20.5q-32 0 -46.5 -17t-16.5 -59h-112
q4 79 51.5 123.5t128.5 44.5zM146 131q0 -26 13.5 -37.5t38.5 -11.5q23 0 42 15t33 35v141q-29 -17 -52.5 -32.5t-40 -32t-25.5 -35.5t-9 -42zM214 746l79 -144h-83l-131 144h135z" />
    <glyph glyph-name="aacute" unicode="&#xe1;" 
d="M222 548q82 0 122.5 -37.5t40.5 -106.5v-346q0 -6 0.5 -15.5t6.5 -42.5h-107q0 5 -2 15.5t-4 26.5q-35 -29 -64.5 -40.5t-66.5 -11.5q-54 0 -84 32.5t-30 88.5q0 43 13.5 77.5t43 63.5t74.5 54t108 49v32q0 28 -11.5 48.5t-44.5 20.5q-32 0 -46.5 -17t-16.5 -59h-112
q4 79 51.5 123.5t128.5 44.5zM146 131q0 -26 13.5 -37.5t38.5 -11.5q23 0 42 15t33 35v141q-29 -17 -52.5 -32.5t-40 -32t-25.5 -35.5t-9 -42zM365 746l-131 -144h-83l79 144h135z" />
    <glyph glyph-name="acircumflex" unicode="&#xe2;" 
d="M222 548q82 0 122.5 -37.5t40.5 -106.5v-346q0 -6 0.5 -15.5t6.5 -42.5h-107q0 5 -2 15.5t-4 26.5q-35 -29 -64.5 -40.5t-66.5 -11.5q-54 0 -84 32.5t-30 88.5q0 43 13.5 77.5t43 63.5t74.5 54t108 49v32q0 28 -11.5 48.5t-44.5 20.5q-32 0 -46.5 -17t-16.5 -59h-112
q4 79 51.5 123.5t128.5 44.5zM146 131q0 -26 13.5 -37.5t38.5 -11.5q23 0 42 15t33 35v141q-29 -17 -52.5 -32.5t-40 -32t-25.5 -35.5t-9 -42zM277 746l96 -144h-92l-59 89l-59 -89h-92l96 144h110z" />
    <glyph glyph-name="atilde" unicode="&#xe3;" 
d="M222 548q82 0 122.5 -37.5t40.5 -106.5v-346q0 -6 0.5 -15.5t6.5 -42.5h-107q0 5 -2 15.5t-4 26.5q-35 -29 -64.5 -40.5t-66.5 -11.5q-54 0 -84 32.5t-30 88.5q0 43 13.5 77.5t43 63.5t74.5 54t108 49v32q0 28 -11.5 48.5t-44.5 20.5q-32 0 -46.5 -17t-16.5 -59h-112
q4 79 51.5 123.5t128.5 44.5zM146 131q0 -26 13.5 -37.5t38.5 -11.5q23 0 42 15t33 35v141q-29 -17 -52.5 -32.5t-40 -32t-25.5 -35.5t-9 -42zM385 733q-23 -118 -103 -118q-17 0 -33 6t-31 13.5t-30 13.5t-31 6q-23 0 -31.5 -10.5t-10.5 -33.5h-56q22 118 103 118
q18 0 34.5 -6t31.5 -13.5t29.5 -13.5t29.5 -6q23 0 31.5 10.5t10.5 33.5h56z" />
    <glyph glyph-name="adieresis" unicode="&#xe4;" 
d="M222 548q82 0 122.5 -37.5t40.5 -106.5v-346q0 -6 0.5 -15.5t6.5 -42.5h-107q0 5 -2 15.5t-4 26.5q-35 -29 -64.5 -40.5t-66.5 -11.5q-54 0 -84 32.5t-30 88.5q0 43 13.5 77.5t43 63.5t74.5 54t108 49v32q0 28 -11.5 48.5t-44.5 20.5q-32 0 -46.5 -17t-16.5 -59h-112
q4 79 51.5 123.5t128.5 44.5zM146 131q0 -26 13.5 -37.5t38.5 -11.5q23 0 42 15t33 35v141q-29 -17 -52.5 -32.5t-40 -32t-25.5 -35.5t-9 -42zM197 722v-108h-108v108h108zM355 722v-108h-108v108h108z" />
    <glyph glyph-name="aring" unicode="&#xe5;" 
d="M222 548q82 0 122.5 -37.5t40.5 -106.5v-346q0 -6 0.5 -15.5t6.5 -42.5h-107q0 5 -2 15.5t-4 26.5q-35 -29 -64.5 -40.5t-66.5 -11.5q-54 0 -84 32.5t-30 88.5q0 43 13.5 77.5t43 63.5t74.5 54t108 49v32q0 28 -11.5 48.5t-44.5 20.5q-32 0 -46.5 -17t-16.5 -59h-112
q4 79 51.5 123.5t128.5 44.5zM146 131q0 -26 13.5 -37.5t38.5 -11.5q23 0 42 15t33 35v141q-29 -17 -52.5 -32.5t-40 -32t-25.5 -35.5t-9 -42zM222 806q22 0 40.5 -8.5t32 -22.5t21.5 -32.5t8 -38.5t-7.5 -38.5t-21 -32.5t-32.5 -22.5t-41 -8.5t-41 8.5t-32.5 22.5t-21 32.5
t-7.5 38.5q0 21 8 39.5t22 32.5t32.5 22t39.5 8zM170 704q0 -22 15.5 -37t36.5 -15t36.5 15t15.5 37q0 21 -15 36.5t-38 15.5q-21 0 -36 -15t-15 -37z" />
    <glyph glyph-name="ae" unicode="&#xe6;" horiz-adv-x="667" 
d="M207 548q86 0 128 -50q20 26 50.5 38t68.5 12q83 0 124 -51t41 -144v-105h-235v-81q0 -85 61 -85q30 0 46 20t16 71v9h112q-2 -100 -46 -146t-128 -46q-49 0 -83 19t-53 51q-35 -32 -70 -51t-79 -19q-60 0 -93 31.5t-33 89.5q0 42 13 76t41.5 63.5t74 55t109.5 49.5v36
q0 28 -12.5 46.5t-42.5 18.5q-33 0 -47 -17.5t-16 -58.5h-112q1 39 14 70t35 53t51.5 33.5t64.5 11.5zM507 340v25q0 51 -16 71t-47 20q-28 0 -44 -19.5t-16 -63.5v-33h123zM146 131q0 -26 13.5 -37.5t38.5 -11.5q40 0 74 50v141q-38 -23 -62.5 -41t-38.5 -34.5t-19.5 -32.5
t-5.5 -34z" />
    <glyph glyph-name="ccedilla" unicode="&#xe7;" 
d="M222 548q171 0 174 -194h-112v11q0 52 -16.5 71.5t-45.5 19.5q-62 0 -62 -84v-206q0 -84 62 -84q31 0 46.5 21t15.5 66v35h112v-10q0 -98 -37.5 -146.5t-110.5 -56.5l-35 -51q7 1 12 1.5t7 0.5q17 0 34 -5t30 -15t21 -24t8 -32q0 -23 -9.5 -41.5t-26.5 -32t-39.5 -21
t-48.5 -7.5q-54 0 -99 23l17 50q10 -6 31 -11.5t35 -5.5q26 0 42 12t16 29t-12.5 26t-35.5 9q-19 0 -35 -6l-22 18l61 83q-77 7 -114 56.5t-37 138.5v160q0 202 174 202z" />
    <glyph glyph-name="eth" unicode="&#xf0;" 
d="M230 722q26 -18 47 -46l109 42l30 -70l-95 -37q35 -64 55 -140t20 -151v-146q0 -184 -174 -184q-89 0 -131.5 47t-42.5 132v146q0 96 46 139.5t130 43.5q5 0 17 -0.5t18 -1.5q-3 23 -11.5 43.5t-17.5 36.5l-105 -40l-27 72l93 35q-11 15 -22 29t-25 26zM160 160
q0 -78 62 -78t62 78v169q0 77 -62 77q-29 0 -45.5 -18.5t-16.5 -59.5v-168z" />
    <glyph glyph-name="egrave" unicode="&#xe8;" 
d="M222 548q89 0 131.5 -51t42.5 -144v-105h-236v-82q0 -84 62 -84q11 0 22 3t20 12.5t14.5 27.5t5.5 47v10h112q-2 -100 -46 -146t-128 -46q-88 0 -131 51t-43 145v160q0 202 174 202zM284 340v23q0 55 -17 74t-45 19q-29 0 -45.5 -20.5t-16.5 -63.5v-32h124zM214 746
l79 -144h-83l-131 144h135z" />
    <glyph glyph-name="eacute" unicode="&#xe9;" 
d="M222 548q89 0 131.5 -51t42.5 -144v-105h-236v-82q0 -84 62 -84q11 0 22 3t20 12.5t14.5 27.5t5.5 47v10h112q-2 -100 -46 -146t-128 -46q-88 0 -131 51t-43 145v160q0 202 174 202zM284 340v23q0 55 -17 74t-45 19q-29 0 -45.5 -20.5t-16.5 -63.5v-32h124zM365 746
l-131 -144h-83l79 144h135z" />
    <glyph glyph-name="ecircumflex" unicode="&#xea;" 
d="M222 548q89 0 131.5 -51t42.5 -144v-105h-236v-82q0 -84 62 -84q11 0 22 3t20 12.5t14.5 27.5t5.5 47v10h112q-2 -100 -46 -146t-128 -46q-88 0 -131 51t-43 145v160q0 202 174 202zM284 340v23q0 55 -17 74t-45 19q-29 0 -45.5 -20.5t-16.5 -63.5v-32h124zM277 746
l96 -144h-92l-59 89l-59 -89h-92l96 144h110z" />
    <glyph glyph-name="edieresis" unicode="&#xeb;" 
d="M222 548q89 0 131.5 -51t42.5 -144v-105h-236v-82q0 -84 62 -84q11 0 22 3t20 12.5t14.5 27.5t5.5 47v10h112q-2 -100 -46 -146t-128 -46q-88 0 -131 51t-43 145v160q0 202 174 202zM284 340v23q0 55 -17 74t-45 19q-29 0 -45.5 -20.5t-16.5 -63.5v-32h124zM197 722v-108
h-108v108h108zM355 722v-108h-108v108h108z" />
    <glyph glyph-name="dotlessi" horiz-adv-x="222" 
d="M167 538v-538h-112v538h112z" />
    <glyph glyph-name="igrave" unicode="&#xec;" horiz-adv-x="222" 
d="M167 538v-538h-112v538h112zM103 746l79 -144h-83l-131 144h135z" />
    <glyph glyph-name="iacute" unicode="&#xed;" horiz-adv-x="222" 
d="M167 538v-538h-112v538h112zM254 746l-131 -144h-83l79 144h135z" />
    <glyph glyph-name="icircumflex" unicode="&#xee;" horiz-adv-x="222" 
d="M167 538v-538h-112v538h112zM166 746l96 -144h-92l-59 89l-59 -89h-92l96 144h110z" />
    <glyph glyph-name="idieresis" unicode="&#xef;" horiz-adv-x="222" 
d="M167 538v-538h-112v538h112zM86 722v-108h-108v108h108zM244 722v-108h-108v108h108z" />
    <glyph glyph-name="ntilde" unicode="&#xf1;" 
d="M295 548q47 0 71 -31t24 -80v-437h-112v419q0 37 -40 37q-18 0 -35 -10t-37 -24v-422h-112v538h106v-54q23 21 40.5 33.5t32.5 19t29.5 9t32.5 2.5zM385 733q-23 -118 -103 -118q-17 0 -33 6t-31 13.5t-30 13.5t-31 6q-23 0 -31.5 -10.5t-10.5 -33.5h-56q22 118 103 118
q18 0 34.5 -6t31.5 -13.5t29.5 -13.5t29.5 -6q23 0 31.5 10.5t10.5 33.5h56z" />
    <glyph glyph-name="ograve" unicode="&#xf2;" 
d="M222 548q90 0 132 -52t42 -144v-161q0 -201 -174 -201q-88 0 -131 51t-43 145v160q0 202 174 202zM160 166q0 -84 62 -84q32 0 47 22t15 62v206q0 41 -15 62.5t-47 21.5q-28 0 -45 -19.5t-17 -64.5v-206zM214 746l79 -144h-83l-131 144h135z" />
    <glyph glyph-name="oacute" unicode="&#xf3;" 
d="M222 548q90 0 132 -52t42 -144v-161q0 -201 -174 -201q-88 0 -131 51t-43 145v160q0 202 174 202zM160 166q0 -84 62 -84q32 0 47 22t15 62v206q0 41 -15 62.5t-47 21.5q-28 0 -45 -19.5t-17 -64.5v-206zM365 746l-131 -144h-83l79 144h135z" />
    <glyph glyph-name="ocircumflex" unicode="&#xf4;" 
d="M222 548q90 0 132 -52t42 -144v-161q0 -201 -174 -201q-88 0 -131 51t-43 145v160q0 202 174 202zM160 166q0 -84 62 -84q32 0 47 22t15 62v206q0 41 -15 62.5t-47 21.5q-28 0 -45 -19.5t-17 -64.5v-206zM277 746l96 -144h-92l-59 89l-59 -89h-92l96 144h110z" />
    <glyph glyph-name="otilde" unicode="&#xf5;" 
d="M222 548q90 0 132 -52t42 -144v-161q0 -201 -174 -201q-88 0 -131 51t-43 145v160q0 202 174 202zM160 166q0 -84 62 -84q32 0 47 22t15 62v206q0 41 -15 62.5t-47 21.5q-28 0 -45 -19.5t-17 -64.5v-206zM385 733q-23 -118 -103 -118q-17 0 -33 6t-31 13.5t-30 13.5
t-31 6q-23 0 -31.5 -10.5t-10.5 -33.5h-56q22 118 103 118q18 0 34.5 -6t31.5 -13.5t29.5 -13.5t29.5 -6q23 0 31.5 10.5t10.5 33.5h56z" />
    <glyph glyph-name="odieresis" unicode="&#xf6;" 
d="M222 548q90 0 132 -52t42 -144v-161q0 -201 -174 -201q-88 0 -131 51t-43 145v160q0 202 174 202zM160 166q0 -84 62 -84q32 0 47 22t15 62v206q0 41 -15 62.5t-47 21.5q-28 0 -45 -19.5t-17 -64.5v-206zM197 722v-108h-108v108h108zM355 722v-108h-108v108h108z" />
    <glyph glyph-name="oslash" unicode="&#xf8;" 
d="M402 646l-54 -143q27 -29 37.5 -69t10.5 -81v-162q0 -201 -174 -201q-38 0 -69 11l-45 -121h-66l58 153q-30 30 -41 70.5t-11 82.5v160q0 202 174 202q18 0 36 -2.5t35 -8.5l41 109h68zM160 173h2l100 269q-14 14 -40 14q-28 0 -45 -19.5t-17 -64.5v-199zM282 353
l-98 -259q16 -12 38 -12q62 0 62 84v187h-2z" />
    <glyph glyph-name="germandbls" unicode="&#xdf;" 
d="M213 728q85 0 127.5 -46.5t42.5 -150.5q0 -60 -17 -94t-55 -40v-2q46 -15 68.5 -59.5t22.5 -131.5q0 -106 -26 -155t-87 -49h-69v95q12 -3 27 -3q23 0 31 17.5t8 45.5v105q0 78 -62 78v92q28 3 37.5 17t9.5 51v79q0 59 -52 59q-29 0 -41 -18t-12 -53v-565h-112v545
q0 88 40.5 135.5t118.5 47.5z" />
    <glyph glyph-name="thorn" unicode="&#xfe;" 
d="M282 548q54 0 84 -38.5t30 -107.5v-266q0 -69 -30 -107.5t-84 -38.5q-15 0 -27.5 2.5t-25.5 8.5t-28 17t-35 28v-216h-112v892h112v-235h2q22 29 46 45t68 16zM166 110q17 -12 32 -20t32 -8q30 0 42 22.5t12 60.5v208q0 16 -2.5 31.5t-8.5 26.5t-16.5 18t-27.5 7
t-33.5 -9.5t-29.5 -18.5v-318z" />
    <glyph glyph-name="ugrave" unicode="&#xf9;" 
d="M166 538v-419q0 -37 40 -37q18 0 35 10t37 24v422h112v-538h-106v54q-23 -21 -40.5 -33.5t-32.5 -19t-30 -9t-33 -2.5q-47 0 -70.5 31t-23.5 79v438h112zM214 746l79 -144h-83l-131 144h135z" />
    <glyph glyph-name="uacute" unicode="&#xfa;" 
d="M166 538v-419q0 -37 40 -37q18 0 35 10t37 24v422h112v-538h-106v54q-23 -21 -40.5 -33.5t-32.5 -19t-30 -9t-33 -2.5q-47 0 -70.5 31t-23.5 79v438h112zM365 746l-131 -144h-83l79 144h135z" />
    <glyph glyph-name="ucircumflex" unicode="&#xfb;" 
d="M166 538v-419q0 -37 40 -37q18 0 35 10t37 24v422h112v-538h-106v54q-23 -21 -40.5 -33.5t-32.5 -19t-30 -9t-33 -2.5q-47 0 -70.5 31t-23.5 79v438h112zM277 746l96 -144h-92l-59 89l-59 -89h-92l96 144h110z" />
    <glyph glyph-name="udieresis" unicode="&#xfc;" 
d="M166 538v-419q0 -37 40 -37q18 0 35 10t37 24v422h112v-538h-106v54q-23 -21 -40.5 -33.5t-32.5 -19t-30 -9t-33 -2.5q-47 0 -70.5 31t-23.5 79v438h112zM197 722v-108h-108v108h108zM355 722v-108h-108v108h108z" />
    <glyph glyph-name="yacute" unicode="&#xfd;" horiz-adv-x="389" 
d="M124 538l72 -344h2l68 344h113l-141 -577q-9 -39 -22.5 -64t-33 -40t-45 -20.5t-59.5 -5.5h-40v92h29q38 0 55 20.5t17 65.5q0 14 -2.5 29t-10.5 46l-116 454h114zM338 746l-131 -144h-83l79 144h135z" />
    <glyph glyph-name="ydieresis" unicode="&#xff;" horiz-adv-x="389" 
d="M124 538l72 -344h2l68 344h113l-141 -577q-9 -39 -22.5 -64t-33 -40t-45 -20.5t-59.5 -5.5h-40v92h29q38 0 55 20.5t17 65.5q0 14 -2.5 29t-10.5 46l-116 454h114zM170 722v-108h-108v108h108zM328 722v-108h-108v108h108z" />
    <glyph glyph-name="grave.cap" horiz-adv-x="222" 
d="M103 903l79 -144h-83l-131 144h135z" />
    <glyph glyph-name="acute" unicode="&#xb4;" horiz-adv-x="222" 
d="M254 746l-131 -144h-83l79 144h135z" />
    <glyph glyph-name="acute.cap" horiz-adv-x="222" 
d="M254 903l-131 -144h-83l79 144h135z" />
    <glyph glyph-name="circumflex" horiz-adv-x="222" 
d="M166 746l96 -144h-92l-59 89l-59 -89h-92l96 144h110z" />
    <glyph glyph-name="circumflex.cap" horiz-adv-x="222" 
d="M166 903l96 -144h-92l-59 89l-59 -89h-92l96 144h110z" />
    <glyph glyph-name="tilde" horiz-adv-x="222" 
d="M274 733q-23 -118 -103 -118q-17 0 -33 6t-31 13.5t-30 13.5t-31 6q-23 0 -31.5 -10.5t-10.5 -33.5h-56q22 118 103 118q18 0 34.5 -6t31.5 -13.5t29.5 -13.5t29.5 -6q23 0 31.5 10.5t10.5 33.5h56z" />
    <glyph glyph-name="tilde.cap" horiz-adv-x="222" 
d="M274 890q-11 -57 -36.5 -87.5t-66.5 -30.5q-18 0 -33.5 6t-30.5 13.5t-30 13.5t-31 6q-23 0 -32 -10.5t-10 -33.5h-56q22 118 103 118q16 0 33 -6t33 -13.5t31 -13.5t28 -6q23 0 31.5 10.5t10.5 33.5h56z" />
    <glyph glyph-name="dieresis" unicode="&#xa8;" horiz-adv-x="222" 
d="M86 722v-108h-108v108h108zM244 722v-108h-108v108h108z" />
    <glyph glyph-name="dieresis.cap" horiz-adv-x="222" 
d="M86 879v-108h-108v108h108zM244 879v-108h-108v108h108z" />
    <glyph glyph-name="macron" unicode="&#xaf;" horiz-adv-x="222" 
d="M258 701v-64h-294v64h294z" />
    <glyph glyph-name="ring" horiz-adv-x="222" 
d="M111 806q22 0 40.5 -8.5t32 -22.5t21.5 -32.5t8 -38.5t-7.5 -38.5t-21 -32.5t-32.5 -22.5t-41 -8.5t-41 8.5t-32.5 22.5t-21 32.5t-7.5 38.5q0 21 8 39.5t22 32.5t32.5 22t39.5 8zM59 704q0 -22 15.5 -37t36.5 -15t36.5 15t15.5 37q0 21 -15 36.5t-38 15.5q-21 0 -36 -15
t-15 -37z" />
    <glyph glyph-name="ring.cap" horiz-adv-x="222" 
d="M111 962q22 0 41 -8.5t32.5 -22.5t21 -32.5t7.5 -38.5q0 -21 -8 -39.5t-21.5 -32.5t-32.5 -22t-40 -8t-39.5 8t-32.5 22t-22 32.5t-8 39.5q0 20 8 38.5t21.5 32.5t32 22.5t40.5 8.5zM59 860q0 -22 15 -37t37 -15q21 0 36.5 15t15.5 37q0 21 -15 36.5t-38 15.5
q-20 0 -35.5 -15t-15.5 -37z" />
    <glyph glyph-name="cedilla" unicode="&#xb8;" horiz-adv-x="222" 
d="M95 0h48l-41 -60q4 1 7.5 1.5t8.5 0.5q18 0 35.5 -5.5t31 -15t21.5 -23.5t8 -32q0 -45 -36 -73.5t-89 -28.5q-27 0 -52 6t-46 17l17 50q3 -2 11 -5t18 -5.5t20 -4.5t17 -2q25 0 41.5 12t16.5 29q0 18 -13.5 26.5t-34.5 8.5q-19 0 -35 -6l-22 18z" />
    <glyph glyph-name="ellipsis" unicode="&#x2026;" horiz-adv-x="1000" 
d="M224 118v-118h-114v118h114zM557 118v-118h-114v118h114zM890 118v-118h-114v118h114z" />
    <glyph glyph-name="uni00AD" unicode="&#xad;" horiz-adv-x="333" 
d="M289 315v-92h-245v92h245z" />
    <glyph glyph-name="exclamdown" unicode="&#xa1;" horiz-adv-x="278" 
d="M198 538v-118h-118v118h118zM180 326l23 -510h-127l22 510h82z" />
    <glyph glyph-name="questiondown" unicode="&#xbf;" horiz-adv-x="389" 
d="M265 538v-118h-118v118h118zM252 326v-88q0 -42 -15.5 -88t-51.5 -109q-18 -32 -27.5 -56t-9.5 -42t11.5 -31.5t30.5 -13.5q24 0 42.5 18.5t28.5 57.5l96 -36q-23 -66 -66.5 -99t-114.5 -33q-29 0 -55.5 10.5t-46 28.5t-31 42.5t-11.5 52.5q0 33 8 58.5t19.5 46t24.5 37
t22 30.5q19 27 29 51.5t14.5 46t5.5 39t1 30.5v47h96z" />
    <glyph glyph-name="quoteleft" unicode="&#x2018;" horiz-adv-x="222" 
d="M121 732h53l-49 -124h45v-118h-118v118z" />
    <glyph glyph-name="quoteright" unicode="&#x2019;" horiz-adv-x="222" 
d="M170 722v-118l-69 -124h-53l49 124h-45v118h118z" />
    <glyph glyph-name="quotedblleft" unicode="&#x201c;" 
d="M139 732h53l-49 -124h45v-118h-118v118zM324 732h53l-49 -124h45v-118h-118v118z" />
    <glyph glyph-name="quotedblright" unicode="&#x201d;" 
d="M189 722v-118l-69 -124h-53l49 124h-45v118h118zM374 722v-118l-69 -124h-53l49 124h-45v118h118z" />
    <glyph glyph-name="quotesinglbase" unicode="&#x201a;" horiz-adv-x="222" 
d="M170 118v-118l-69 -124h-53l49 124h-45v118h118z" />
    <glyph glyph-name="quotedblbase" unicode="&#x201e;" 
d="M189 118v-118l-69 -124h-53l49 124h-45v118h118zM374 118v-118l-69 -124h-53l49 124h-45v118h118z" />
    <glyph glyph-name="guilsinglleft" unicode="&#x2039;" horiz-adv-x="333" 
d="M277 423l-117 -154l114 -154h-96l-115 155l115 153h99z" />
    <glyph glyph-name="guilsinglright" unicode="&#x203a;" horiz-adv-x="333" 
d="M155 423l115 -153l-115 -155h-96l114 154l-117 154h99z" />
    <glyph glyph-name="guillemotleft" unicode="&#xab;" horiz-adv-x="500" 
d="M277 423l-117 -154l114 -154h-96l-115 155l115 153h99zM444 423l-117 -154l114 -154h-96l-115 155l115 153h99z" />
    <glyph glyph-name="guillemotright" unicode="&#xbb;" horiz-adv-x="500" 
d="M155 423l115 -153l-115 -155h-96l114 154l-117 154h99zM322 423l115 -153l-115 -155h-96l114 154l-117 154h99z" />
    <glyph glyph-name="endash" unicode="&#x2013;" horiz-adv-x="500" 
d="M500 305v-72h-500v72h500z" />
    <glyph glyph-name="emdash" unicode="&#x2014;" horiz-adv-x="1000" 
d="M1000 305v-72h-1000v72h1000z" />
    <glyph glyph-name="bullet" unicode="&#x2022;" horiz-adv-x="500" 
d="M249 541q38 0 71 -14.5t57.5 -39t38.5 -57t14 -69.5q0 -36 -14 -69t-38.5 -58t-57.5 -39.5t-71 -14.5q-39 0 -72 15t-57 39.5t-37.5 57.5t-13.5 69q0 37 14 69.5t38 57t57 39t71 14.5z" />
    <glyph glyph-name="periodcentered" unicode="&#xb7;" horiz-adv-x="222" 
d="M111 320q27 0 47 -20t20 -47q0 -28 -19.5 -47.5t-47.5 -19.5q-29 0 -48 19t-19 48q0 28 19.5 47.5t47.5 19.5z" />
    <glyph glyph-name="dagger" unicode="&#x2020;" horiz-adv-x="500" 
d="M310 732l-39 -200l163 42v-124l-167 42l45 -169q-8 -24 -15 -73.5t-12 -108t-9 -118t-7 -103.5h-38q-3 43 -7 102t-9.5 117t-12 108t-14.5 76l45 169l-167 -42v124l163 -42l-39 200h120z" />
    <glyph glyph-name="daggerdbl" unicode="&#x2021;" horiz-adv-x="500" 
d="M310 732l-39 -200l163 42v-124l-167 42l45 -166l-45 -166l167 42v-124l-163 42l39 -200h-120l39 200l-163 -42v124l167 -42l-45 166l45 166l-167 -42v124l163 -42l-39 200h120z" />
    <glyph glyph-name="section" unicode="&#xa7;" horiz-adv-x="500" 
d="M256 732q43 0 81 -21.5t65 -58.5l-69 -50q-26 31 -43 41.5t-34 10.5q-51 0 -51 -46q0 -26 27.5 -56.5t87.5 -83.5q58 -51 93 -95.5t35 -92.5q0 -53 -30 -84.5t-78 -33.5q28 -27 39 -51.5t11 -56.5q0 -60 -37 -97t-96 -37q-47 0 -85 18.5t-84 62.5l73 57q17 -32 36 -46
t43 -14q26 0 42 12t16 38q0 16 -11 34.5t-28 38t-38 39t-42 39.5q-42 39 -67.5 69t-38.5 52.5t-17 40t-4 31.5q0 46 28.5 76.5t82.5 36.5q-50 38 -50 105q0 58 38.5 90t104.5 32zM144 399q0 -10 17 -35t52 -63q70 -75 98 -75q17 0 31 13t14 31q0 11 -18 36t-52 62
q-12 13 -26 26.5t-27.5 23.5t-25.5 16.5t-21 6.5q-20 0 -31 -12.5t-11 -29.5z" />
    <glyph glyph-name="paragraph" unicode="&#xb6;" horiz-adv-x="500" 
d="M502 722v-64h-56v-738h-82v738h-87v-738h-82v432q-44 0 -78.5 13.5t-59.5 38t-38 58t-13 73.5q0 94 52.5 140.5t150.5 46.5h293z" />
    <glyph glyph-name="brokenbar" unicode="&#xa6;" horiz-adv-x="222" 
d="M160 732v-306h-98v306h98zM160 296v-306h-98v306h98z" />
    <glyph glyph-name="copyright" unicode="&#xa9;" horiz-adv-x="800" 
d="M400 732q80 0 149.5 -28t120.5 -77.5t80.5 -117.5t29.5 -148t-29.5 -148t-80.5 -117.5t-120.5 -77.5t-149.5 -28t-149.5 28t-120.5 77.5t-80.5 117.5t-29.5 148q0 81 30 149t81.5 117.5t120.5 77t148 27.5zM118 361q0 -62 21.5 -115.5t59 -93t89 -62t112.5 -22.5
q60 0 111.5 22.5t89.5 62t59.5 93t21.5 115.5t-21.5 115.5t-59.5 93t-89.5 62t-112.5 22.5q-59 0 -110.5 -22t-89.5 -61.5t-59.5 -93t-21.5 -116.5zM412 584q72 0 120 -40.5t60 -113.5h-78q-8 37 -36 56.5t-66 19.5q-55 0 -85.5 -37.5t-30.5 -103.5q0 -31 8.5 -57.5
t24.5 -46t37.5 -30.5t47.5 -11q42 0 68.5 20.5t31.5 58.5h81q-6 -36 -22.5 -65t-40.5 -49.5t-54 -31.5t-64 -11q-48 0 -87 17t-67 47t-43 70.5t-15 86.5q0 49 15 89.5t42.5 70t66 45.5t86.5 16z" />
    <glyph glyph-name="registered" unicode="&#xae;" horiz-adv-x="800" 
d="M400 732q80 0 149.5 -28t120.5 -77.5t80.5 -117.5t29.5 -148q0 -81 -29.5 -149t-81 -117.5t-121 -77t-148.5 -27.5q-80 0 -149.5 28t-120.5 77.5t-80.5 117.5t-29.5 148q0 81 29.5 149t81 117.5t120.5 77t149 27.5zM118 361q0 -62 21.5 -115.5t59.5 -93t89.5 -62
t111.5 -22.5t111.5 22.5t89.5 62t59.5 93t21.5 115.5t-21.5 115.5t-59.5 93t-90 62t-112 22.5q-59 0 -110.5 -22t-89.5 -61.5t-59.5 -93t-21.5 -116.5zM414 569q78 0 117 -29.5t39 -93.5q0 -49 -24.5 -77.5t-74.5 -33.5l99 -181h-91l-93 177h-52v-177h-82v415h162zM409 395
q77 0 77 58q0 30 -20.5 41t-60.5 11h-71v-110h75z" />
    <glyph glyph-name="trademark" unicode="&#x2122;" horiz-adv-x="990" 
d="M370 722v-75h-120v-337h-96v337h-120v75h336zM559 722l103 -271l103 271h135v-412h-92v302h-2l-110 -302h-69l-110 302h-2v-302h-92v412h136z" />
    <glyph glyph-name="currency" unicode="&#xa4;" 
d="M58 576l47 -48q25 17 54.5 26.5t62.5 9.5q32 0 62.5 -9.5t53.5 -26.5l48 48l50 -53l-47 -46q17 -25 27 -54.5t10 -61.5t-10 -62t-27 -54l47 -46l-50 -53l-48 48q-24 -17 -54 -26.5t-62 -9.5q-33 0 -62.5 9.5t-54.5 26.5l-47 -48l-50 53l47 46q-17 24 -27 54t-10 62
t10 61.5t27 54.5l-47 46zM110 361q0 -25 9 -46.5t24 -37t35.5 -24.5t43.5 -9q24 0 44.5 9.5t35.5 25t23.5 37t8.5 45.5q0 23 -8 44t-23 37.5t-35.5 26t-45.5 9.5q-24 0 -44.5 -9t-35.5 -25t-23.5 -37.5t-8.5 -45.5z" />
    <glyph glyph-name="Euro" unicode="&#x20ac;" 
d="M277 732q42 0 83 -14t73 -43l-31 -114q-25 32 -56.5 47.5t-63.5 15.5q-40 0 -62 -22t-22 -56v-67h181l-23 -84h-158v-80h138l-23 -84h-115v-53q0 -33 21.5 -57t65.5 -24q32 0 61 9.5t56 34.5v-116q-33 -19 -66 -27t-66 -8q-42 0 -78 14t-62 38.5t-41 57.5t-15 71v60h-60
l23 84h37v80h-60l23 84h37v71q0 38 15.5 71.5t42.5 58t64 38.5t81 14z" />
    <glyph glyph-name="cent" unicode="&#xa2;" 
d="M364 684l-41 -150q41 -25 59 -68t19 -102h-104q0 18 -1 29.5t-3 19.5t-4.5 13.5t-6.5 10.5l-91 -337q12 -8 32 -8q30 0 50.5 19t20.5 72v31h112v-11q0 -105 -46 -154t-137 -49q-27 0 -43 4l-33 -120h-75l40 145q-21 13 -35 31.5t-23 40.5t-12.5 46t-3.5 49v161
q0 201 185 201q9 0 17 -0.5t15 -1.5l35 128h74zM150 183q0 -16 6 -35h2l81 317q-2 0 -5.5 0.5t-7.5 0.5q-21 0 -35.5 -7t-23.5 -19t-13 -27.5t-4 -32.5v-197z" />
    <glyph glyph-name="sterling" unicode="&#xa3;" 
d="M235 732q82 0 121.5 -49t39.5 -153h-102q-3 54 -13.5 82t-48.5 28q-25 0 -37.5 -15t-12.5 -49q0 -20 2.5 -38.5t6.5 -39t9.5 -43.5t10.5 -52h99v-84h-90q-1 -53 -4 -86.5t-7.5 -55t-10.5 -35t-13 -26.5q35 -24 70 -24q26 0 38.5 25.5t12.5 81.5h100v-62
q0 -66 -33.5 -106.5t-99.5 -40.5q-37 0 -69.5 13t-58.5 35q-26 -18 -52.5 -31.5t-57.5 -16.5v107q22 8 37 22t24 39t12.5 64t3.5 97h-77v84h63q-15 65 -21.5 102t-6.5 62q0 80 41 122.5t124 42.5z" />
    <glyph glyph-name="yen" unicode="&#xa5;" 
d="M122 722l101 -299h2l97 299h100l-91 -254h87v-84h-121l-27 -80h148v-84h-148v-220h-96v220h-148v84h148l-27 80h-121v84h87l-91 254h100z" />
    <glyph glyph-name="ordfeminine" unicode="&#xaa;" horiz-adv-x="266" 
d="M136 732q54 0 80 -22.5t26 -62.5v-213q0 -8 1.5 -15.5t3.5 -16.5h-70q-2 8 -3 12.5t-1 8.5q-20 -16 -39.5 -21.5t-45.5 -5.5q-37 0 -55.5 20.5t-18.5 52.5q0 25 8 45t26 37.5t46.5 33t69.5 31.5v16q0 23 -8.5 31.5t-25.5 8.5q-21 0 -29 -11t-9 -30h-78q3 48 34.5 74.5
t87.5 26.5zM92 482q0 -14 8 -20t21 -6q15 0 26.5 9t16.5 21v73q-38 -19 -55 -35.5t-17 -41.5z" />
    <glyph glyph-name="ordmasculine" unicode="&#xba;" horiz-adv-x="266" 
d="M133 732q57 0 85 -30t28 -87v-103q0 -56 -28 -86t-85 -30t-85 30.5t-28 87.5v102q0 56 28 86t85 30zM164 619q0 49 -32 49q-14 0 -22 -12.5t-8 -33.5v-112q0 -50 31 -50q16 0 23.5 13t7.5 33v113z" />
    <glyph glyph-name="onesuperior" unicode="&#xb9;" horiz-adv-x="266" 
d="M190 882v-440h-96v335h-52v48q29 11 53.5 25.5t45.5 31.5h49z" />
    <glyph glyph-name="twosuperior" unicode="&#xb2;" horiz-adv-x="266" 
d="M143 882q47 0 78 -27.5t31 -69.5q0 -36 -8 -68t-24 -63t-40.5 -63t-56.5 -69h126v-80h-235v81q77 88 111.5 146.5t34.5 104.5q0 28 -28 28q-14 0 -23 -10t-9 -22v-21h-86v16q0 28 10 49.5t27.5 36.5t41 23t50.5 8z" />
    <glyph glyph-name="threesuperior" unicode="&#xb3;" horiz-adv-x="266" 
d="M137 882q52 0 82.5 -30.5t30.5 -81.5q0 -43 -11 -63.5t-36 -34.5q17 -9 27.5 -18.5t16 -22t7.5 -28.5t2 -38q0 -66 -29.5 -97.5t-94.5 -31.5q-51 0 -81.5 25t-30.5 86v21h86v-16q0 -20 6.5 -28t20.5 -8q11 0 19 7t8 35v25q0 23 -9.5 37t-42.5 14h-5v74h2q32 0 42.5 13.5
t10.5 44.5q0 18 -6 29t-20 11q-25 0 -25 -32v-13h-84v17q0 51 32 77.5t82 26.5z" />
    <glyph glyph-name="onequarter" unicode="&#xbc;" horiz-adv-x="666" 
d="M575 732l-410 -742h-91l410 742h91zM198 731v-439h-96v335h-52v48q29 11 53.5 25t45.5 31h49zM594 433v-257h38v-76h-38v-100h-82v100h-142v80l129 253h95zM448 176h64v133h-2z" />
    <glyph glyph-name="onehalf" unicode="&#xbd;" horiz-adv-x="666" 
d="M196 732v-440h-96v335h-52v48q29 11 53.5 25.5t45.5 31.5h49zM567 732l-410 -742h-91l410 742h91zM527 440q47 0 78 -27.5t31 -69.5q0 -36 -8 -68t-24 -63t-40.5 -63t-56.5 -69h126v-80h-235v81q77 88 111.5 146.5t34.5 104.5q0 28 -28 28q-14 0 -23 -10t-9 -22v-21h-86
v16q0 28 10 49.5t27.5 36.5t41 23t50.5 8z" />
    <glyph glyph-name="threequarters" unicode="&#xbe;" horiz-adv-x="666" 
d="M594 732l-410 -742h-91l410 742h91zM594 433v-257h38v-76h-38v-100h-82v100h-142v80l129 253h95zM448 176h64v133h-2zM147 732q52 0 82.5 -30.5t30.5 -81.5q0 -43 -11 -63.5t-36 -34.5q17 -9 27.5 -18.5t16 -22t7.5 -28.5t2 -38q0 -66 -29.5 -97.5t-94.5 -31.5
q-51 0 -81.5 25t-30.5 86v21h86v-16q0 -20 6.5 -28t20.5 -8q11 0 19 7t8 35v25q0 23 -9.5 37t-42.5 14h-5v74h2q32 0 42.5 13.5t10.5 44.5q0 18 -6 29t-20 11q-25 0 -25 -32v-13h-84v17q0 51 32 77.5t82 26.5z" />
    <glyph glyph-name="perthousand" unicode="&#x2030;" horiz-adv-x="1000" 
d="M577 732l-411 -742h-70l411 742h70zM164 722q32 0 59.5 -12t47.5 -32.5t31.5 -48t11.5 -57.5q0 -31 -11.5 -58t-32 -47.5t-48 -32.5t-58.5 -12t-58.5 12t-47.5 32t-32 47.5t-12 58.5t11.5 58t32 47.5t47.5 32.5t59 12zM94 572q0 -30 20.5 -50t49.5 -20q31 0 50.5 21
t19.5 49q0 29 -20 49.5t-50 20.5q-32 0 -51 -21.5t-19 -48.5zM482 300q31 0 58.5 -12t48 -32.5t32 -47.5t11.5 -58t-12 -58.5t-32 -47.5t-47.5 -32t-58.5 -12q-32 0 -59 12t-47.5 32.5t-32 47.5t-11.5 58t11.5 58t32 47.5t47.5 32.5t59 12zM836 300q31 0 58.5 -12t48 -32.5
t32 -47.5t11.5 -58t-12 -58.5t-32 -47.5t-47.5 -32t-58.5 -12q-32 0 -59 12t-47.5 32.5t-32 47.5t-11.5 58t11.5 58t32 47.5t47.5 32.5t59 12zM412 150q0 -29 20.5 -49.5t49.5 -20.5q30 0 50 20.5t20 49.5t-20 49.5t-51 20.5q-30 0 -49.5 -21t-19.5 -49zM766 150
q0 -29 20.5 -49.5t49.5 -20.5q30 0 50 20.5t20 49.5t-20 49.5t-51 20.5q-30 0 -49.5 -21t-19.5 -49z" />
    <glyph glyph-name="plusminus" unicode="&#xb1;" horiz-adv-x="600" 
d="M349 506v-137h204v-98h-204v-137h-98v137h-204v98h204v137h98zM553 98v-98h-506v98h506z" />
    <glyph glyph-name="multiply" unicode="&#xd7;" horiz-adv-x="600" 
d="M116 506l184 -184l184 184l69 -69l-183 -184l183 -183l-69 -70l-184 184l-184 -184l-69 70l184 183l-184 184z" />
    <glyph glyph-name="divide" unicode="&#xf7;" horiz-adv-x="600" 
d="M300 540q16 0 31 -6.5t25.5 -18t17 -26t6.5 -29.5q0 -16 -6.5 -30.5t-17 -25.5t-25.5 -17.5t-31 -6.5q-17 0 -31.5 6.5t-25 17.5t-17 25.5t-6.5 30.5q0 15 6.5 29.5t17 26t25 18t31.5 6.5zM553 302v-98h-506v98h506zM300 126q16 0 31 -6.5t25.5 -18t17 -26t6.5 -29.5
q0 -16 -6.5 -30.5t-17 -25.5t-25.5 -17.5t-31 -6.5q-17 0 -31.5 6.5t-25 17.5t-17 25.5t-6.5 30.5q0 15 6.5 29.5t17 26t25 18t31.5 6.5z" />
    <glyph glyph-name="logicalnot" unicode="&#xac;" horiz-adv-x="600" 
d="M553 406v-307h-98v209h-408v98h506z" />
    <glyph glyph-name="mu" unicode="&#xb5;" 
d="M166 538v-403q0 -53 40 -53q18 0 35 8t37 22v426h112v-538h-106v54q-7 -11 -16.5 -22.5t-21 -21t-24.5 -16t-26 -6.5q-11 0 -21 4q-4 2 -9 4v-166h-112v708h112z" />
    <glyph glyph-name="degree" unicode="&#xb0;" horiz-adv-x="400" 
d="M200 732q30 0 56 -11t45.5 -30.5t31 -45.5t11.5 -56q0 -29 -11 -55t-30.5 -45.5t-45.5 -31t-57 -11.5q-30 0 -56.5 11t-46 30.5t-30.5 45.5t-11 56t11.5 56t31 45.5t46 30.5t55.5 11zM118 589q0 -36 23.5 -61.5t58.5 -25.5t58.5 25.5t23.5 61.5q0 37 -23.5 62t-58.5 25
q-17 0 -32 -7t-26 -19t-17.5 -27.5t-6.5 -33.5z" />
    <glyph glyph-name="uni0410" unicode="&#x410;" 
d="M299 722l133 -722h-120l-22 160h-136l-22 -160h-120l133 722h154zM221 578l-49 -310h100l-49 310h-2z" />
    <glyph glyph-name="uni0411" unicode="&#x411;" horiz-adv-x="500" 
d="M406 722v-108h-222v-188h76q89 0 139.5 -55t50.5 -158t-50.5 -158t-139.5 -55h-200v722h346zM184 102h56q49 0 67.5 31t18.5 80q0 54 -22.5 82.5t-79.5 28.5h-40v-222z" />
    <glyph glyph-name="uni0412" unicode="&#x412;" horiz-adv-x="500" 
d="M249 722q94 0 140.5 -48.5t46.5 -142.5q0 -54 -22.5 -95t-63.5 -56q53 -23 76.5 -65.5t23.5 -105.5q0 -103 -50.5 -156t-139.5 -53h-200v722h189zM184 426h45q38 0 60.5 24.5t22.5 68.5t-17.5 72.5t-66.5 28.5h-44v-194zM184 102h56q49 0 67.5 31t18.5 80
q0 54 -22.5 82.5t-79.5 28.5h-40v-222z" />
    <glyph glyph-name="uni0413" unicode="&#x413;" horiz-adv-x="392" 
d="M379 722v-108h-195v-614h-124v722h319z" />
    <glyph glyph-name="uni0414" unicode="&#x414;" horiz-adv-x="515" 
d="M5 -180v288q27 0 43 22t25 56.5t12 76.5t3 81v378h357v-614h57v-288h-122v180h-253v-180h-122zM210 614v-280q0 -68 -8.5 -122.5t-31.5 -103.5h151v506h-111z" />
    <glyph glyph-name="uni0415" unicode="&#x415;" 
d="M392 722v-108h-208v-186h160v-108h-160v-212h222v-108h-346v722h332z" />
    <glyph glyph-name="uni0416" unicode="&#x416;" horiz-adv-x="640" 
d="M379 722v-271h2l129 271h120l-131 -269l148 -453h-124l-100 338l-44 -80v-258h-118v258l-45 80l-100 -338h-123l148 453l-131 269h119l130 -271h2v271h118z" />
    <glyph glyph-name="uni0417" unicode="&#x417;" horiz-adv-x="496" 
d="M239 98q27 0 42.5 8t24 23t11 35.5t2.5 45.5q0 55 -22 83.5t-79 28.5h-40v104h50q38 0 60.5 25.5t22.5 73.5q0 42 -14 70.5t-54 28.5q-32 0 -48 -23.5t-16 -64.5v-13h-122v13q0 43 12 79t36 62t59 40.5t81 14.5q97 0 143.5 -53t46.5 -146q0 -54 -25 -96.5t-66 -57.5
q53 -23 76.5 -65.5t23.5 -107.5q0 -100 -51 -158t-154 -58q-47 0 -82 14t-59 38.5t-36 58t-12 71.5v44h124v-44q0 -14 3 -27.5t10.5 -24t20 -16.5t31.5 -6z" />
    <glyph glyph-name="uni0418" unicode="&#x418;" horiz-adv-x="500" 
d="M440 722v-722h-112v451h-2l-158 -451h-108v722h112v-413h2l151 413h115z" />
    <glyph glyph-name="uni041A" unicode="&#x41a;" horiz-adv-x="450" 
d="M184 722v-267h2l130 267h124l-134 -269l151 -453h-126l-102 338l-45 -82v-256h-124v722h124z" />
    <glyph glyph-name="uni041B" unicode="&#x41b;" horiz-adv-x="505" 
d="M5 116q30 0 47.5 28t25.5 66t10 76.5t2 59.5l-2 376h357v-722h-124v614h-111v-280q0 -51 -3.5 -96t-15.5 -84q-10 -33 -26.5 -63t-39.5 -52.5t-53 -35.5t-67 -13v126z" />
    <glyph glyph-name="uni041C" unicode="&#x41c;" horiz-adv-x="611" 
d="M216 722l88 -422h2l88 422h163v-722h-108v564h-2l-112 -564h-60l-112 564h-2v-564h-108v722h163z" />
    <glyph glyph-name="uni041D" unicode="&#x41d;" horiz-adv-x="500" 
d="M184 722v-294h132v294h124v-722h-124v320h-132v-320h-124v722h124z" />
    <glyph glyph-name="uni041E" unicode="&#x41e;" horiz-adv-x="500" 
d="M250 732q46 0 81.5 -13.5t59.5 -38t36.5 -58t12.5 -72.5v-378q0 -38 -12 -71.5t-36 -58t-59.5 -38.5t-82.5 -14t-82.5 14t-59.5 38.5t-36 57.5t-12 72v377q0 39 12 72.5t36 58t59.5 38.5t82.5 14zM184 175q0 -40 15.5 -58.5t50.5 -18.5q39 0 52.5 21t13.5 56v372
q0 16 -2.5 30t-9.5 24.5t-20 16.5t-34 6q-33 0 -49.5 -17t-16.5 -59v-373z" />
    <glyph glyph-name="uni041F" unicode="&#x41f;" horiz-adv-x="500" 
d="M440 722v-722h-124v614h-132v-614h-124v722h380z" />
    <glyph glyph-name="uni0420" unicode="&#x420;" horiz-adv-x="500" 
d="M242 722q110 0 165 -49t55 -164q0 -63 -16 -104t-44.5 -65t-69.5 -34t-90 -10h-58v-296h-124v722h182zM184 398h42q30 0 51.5 4.5t35 16.5t19.5 33.5t6 56.5q0 36 -6.5 58t-20.5 34t-36 15.5t-52 3.5h-39v-222z" />
    <glyph glyph-name="uni0421" unicode="&#x421;" horiz-adv-x="484" 
d="M250 732q43 0 77 -14.5t58 -40.5t36.5 -62t12.5 -79v-55h-124v55q0 41 -15.5 64.5t-44.5 23.5q-35 0 -50.5 -18t-15.5 -58v-373q0 -40 15.5 -58.5t50.5 -18.5q37 0 48.5 20.5t11.5 49.5v90h124v-86q0 -38 -12 -71.5t-35.5 -58t-57.5 -38.5t-79 -14q-47 0 -82.5 14
t-59.5 38.5t-36 57.5t-12 72v378q0 39 12.5 72.5t36.5 58t59.5 38t81.5 13.5z" />
    <glyph glyph-name="uni0422" unicode="&#x422;" horiz-adv-x="389" 
d="M376 722v-108h-120v-614h-124v614h-120v108h364z" />
    <glyph glyph-name="uni0423" unicode="&#x423;" 
d="M136 722l93 -356h2l80 356h124l-145 -543q-15 -57 -31.5 -94t-39 -58t-53.5 -29t-76 -8h-45v95h33q20 0 34 3.5t23.5 14t17 28.5t15.5 47l-158 544h126z" />
    <glyph glyph-name="uni0424" unicode="&#x424;" horiz-adv-x="716" 
d="M419 722v-68h30q112 0 166.5 -49t54.5 -164v-144q0 -60 -14.5 -100.5t-42.5 -65.5t-68 -36t-92 -11h-34v-84h-122v84h-34q-52 0 -92.5 11t-68 36t-42 65.5t-14.5 100.5v144q0 115 54 164t167 49h30v68h122zM419 185h28q25 0 43.5 4.5t31 16.5t19 34t6.5 57v144
q0 29 -4 50.5t-16 35t-33 20t-55 6.5h-20v-368zM297 553h-20q-34 0 -55 -6.5t-33 -20t-16 -35t-4 -50.5v-144q0 -35 6.5 -57t19 -34t31 -16.5t43.5 -4.5h28v368z" />
    <glyph glyph-name="uni0425" unicode="&#x425;" 
d="M146 722l76 -229h2l69 229h122l-125 -344l140 -378h-122l-84 263h-2l-86 -263h-122l142 378l-132 344h122z" />
    <glyph glyph-name="uni0426" unicode="&#x426;" horiz-adv-x="510" 
d="M60 0v722h124v-614h132v614h124v-614h57v-288h-122v180h-315z" />
    <glyph glyph-name="uni0427" unicode="&#x427;" horiz-adv-x="500" 
d="M184 722v-285q0 -36 16 -60t50 -24q30 0 44 7.5t22 16.5v345h124v-722h-124v267q-38 -22 -89 -22q-80 0 -123.5 50.5t-43.5 137.5v289h124z" />
    <glyph glyph-name="uni0428" unicode="&#x428;" horiz-adv-x="704" 
d="M182 722v-614h109v614h122v-614h109v614h122v-722h-584v722h122z" />
    <glyph glyph-name="uni0429" unicode="&#x429;" horiz-adv-x="714" 
d="M60 0v722h122v-614h109v614h122v-614h109v614h122v-614h57v-288h-122v180h-519z" />
    <glyph glyph-name="uni042A" unicode="&#x42a;" horiz-adv-x="536" 
d="M102 0v614h-90v108h90h124v-296h52q49 0 90 -10t69.5 -34t44.5 -65t16 -104q0 -58 -13.5 -98.5t-41 -66t-69 -37t-96.5 -11.5h-176zM226 102h33q30 0 52 3.5t36 15.5t20.5 34t6.5 58q0 35 -6 56.5t-19.5 33.5t-35 16.5t-51.5 4.5h-36v-222z" />
    <glyph glyph-name="uni042B" unicode="&#x42b;" horiz-adv-x="728" 
d="M668 722v-722h-124v722h124zM60 0v722h124v-296h52q49 0 90 -10t69.5 -34t44.5 -65t16 -104q0 -58 -13.5 -98.5t-41 -66t-69 -37t-96.5 -11.5h-176zM184 102h33q30 0 52 3.5t36 15.5t20.5 34t6.5 58q0 35 -6 56.5t-19.5 33.5t-35 16.5t-51.5 4.5h-36v-222z" />
    <glyph glyph-name="uni042C" unicode="&#x42c;" horiz-adv-x="494" 
d="M60 0v722h124v-296h52q49 0 90 -10t69.5 -34t44.5 -65t16 -104q0 -58 -13.5 -98.5t-41 -66t-69 -37t-96.5 -11.5h-176zM184 102h33q30 0 52 3.5t36 15.5t20.5 34t6.5 58q0 35 -6 56.5t-19.5 33.5t-35 16.5t-51.5 4.5h-36v-222z" />
    <glyph glyph-name="uni042D" unicode="&#x42d;" horiz-adv-x="484" 
d="M168 428h132v120q0 76 -66 76q-29 0 -44.5 -18t-15.5 -56v-27h-120v27q0 39 12 72.5t35 58t56.5 38t76.5 13.5q46 0 81.5 -13.5t59.5 -38t36.5 -58t12.5 -72.5v-378q0 -39 -12 -72t-36 -57.5t-59.5 -38.5t-82.5 -14q-45 0 -79 14t-57.5 38.5t-35.5 58t-12 71.5v44h124
v-48q0 -29 11.5 -49.5t48.5 -20.5q35 0 50.5 18.5t15.5 58.5v145h-132v108z" />
    <glyph glyph-name="uni042E" unicode="&#x42e;" horiz-adv-x="724" 
d="M478 732q45 0 80 -13.5t58.5 -38t35.5 -58t12 -72.5v-378q0 -38 -11.5 -71.5t-35 -58t-58.5 -38.5t-81 -14t-80.5 14t-58 38.5t-35.5 57.5t-12 72v148h-108v-320h-124v722h124v-294h108v121q0 39 12 72.5t35.5 58t58.5 38.5t80 14zM416 175q0 -40 14 -58.5t48 -18.5
q38 0 50 21t12 56v372q0 16 -2 30t-8.5 24.5t-19 16.5t-32.5 6q-32 0 -47 -17t-15 -59v-373z" />
    <glyph glyph-name="uni042F" unicode="&#x42f;" horiz-adv-x="500" 
d="M316 620h-42q-27 0 -45.5 -5.5t-29 -18.5t-15 -34.5t-4.5 -52.5q0 -63 19.5 -87t69.5 -24h47v222zM440 722v-722h-124v296q-40 0 -64 3l-88 -299h-126l105 327q-87 41 -87 182q0 114 52 163.5t153 49.5h179z" />
    <glyph glyph-name="uni0404" unicode="&#x404;" horiz-adv-x="484" 
d="M316 320h-132v-145q0 -40 15.5 -58.5t50.5 -18.5q37 0 48.5 20.5t11.5 49.5v48h124v-44q0 -38 -12 -71.5t-35.5 -58t-57.5 -38.5t-79 -14q-47 0 -82.5 14t-59.5 38.5t-36 57.5t-12 72v378q0 39 12.5 72.5t36.5 58t59.5 38t81.5 13.5q43 0 76.5 -13.5t56.5 -38t35 -58
t12 -72.5v-27h-120v27q0 38 -15.5 56t-44.5 18q-66 0 -66 -76v-120h132v-108z" />
    <glyph glyph-name="uni0430" unicode="&#x430;" 
d="M222 548q82 0 122.5 -37.5t40.5 -106.5v-346q0 -6 0.5 -15.5t6.5 -42.5h-107q0 5 -2 15.5t-4 26.5q-35 -29 -64.5 -40.5t-66.5 -11.5q-54 0 -84 32.5t-30 88.5q0 43 13.5 77.5t43 63.5t74.5 54t108 49v32q0 28 -11.5 48.5t-44.5 20.5q-32 0 -46.5 -17t-16.5 -59h-112
q4 79 51.5 123.5t128.5 44.5zM146 131q0 -26 13.5 -37.5t38.5 -11.5q23 0 42 15t33 35v141q-29 -17 -52.5 -32.5t-40 -32t-25.5 -35.5t-9 -42z" />
    <glyph glyph-name="uni0431" unicode="&#x431;" 
d="M160 166q0 -84 62 -84q32 0 47 22t15 62v188q0 41 -15 62.5t-47 21.5q-28 0 -45 -19.5t-17 -64.5v-188zM382 654q-43 -21 -87 -40.5t-91 -42.5q-25 -13 -42 -34.5t-19 -48.5h1q40 42 101 42q75 0 113 -48.5t38 -127.5v-163q0 -201 -174 -201q-88 0 -131 51t-43 145v155
q0 68 5.5 127t26.5 101q15 30 46 54t68 43.5t75 35.5t68 30z" />
    <glyph glyph-name="uni0432" unicode="&#x432;" horiz-adv-x="447" 
d="M223 538q167 0 167 -145q0 -38 -16.5 -66.5t-45.5 -44.5q38 -20 56 -49t18 -74q0 -79 -45 -119t-124 -40h-179v538h169zM166 323h39q33 0 53 16t20 45t-15.5 47.5t-58.5 18.5h-38v-127zM166 88h49q43 0 59 20.5t16 53.5q0 35 -19.5 54t-69.5 19h-35v-147z" />
    <glyph glyph-name="uni0433" unicode="&#x433;" horiz-adv-x="355" 
d="M339 538v-92h-173v-446h-112v538h285z" />
    <glyph glyph-name="uni0434" unicode="&#x434;" horiz-adv-x="461" 
d="M5 -131v223q24 0 38.5 15.5t22.5 39.5t10.5 53.5t2.5 56.5v281h318v-446h54v-223h-110v131h-226v-131h-110zM187 446v-197q0 -44 -7 -83t-23 -74h128v354h-98z" />
    <glyph glyph-name="uni0435" unicode="&#x435;" 
d="M222 548q89 0 131.5 -51t42.5 -144v-105h-236v-82q0 -84 62 -84q11 0 22 3t20 12.5t14.5 27.5t5.5 47v10h112q-2 -100 -46 -146t-128 -46q-88 0 -131 51t-43 145v160q0 202 174 202zM284 340v23q0 55 -17 74t-45 19q-29 0 -45.5 -20.5t-16.5 -63.5v-32h124z" />
    <glyph glyph-name="uni0436" unicode="&#x436;" horiz-adv-x="637" 
d="M372 538v-198l124 198h117l-115 -173l126 -365h-113l-86 264l-53 -80v-184h-107v184l-54 80l-85 -264h-114l126 365l-114 173h116l125 -198v198h107z" />
    <glyph glyph-name="uni0437" unicode="&#x437;" horiz-adv-x="442" 
d="M215 82q44 0 57.5 21.5t13.5 54.5q0 36 -20 56t-71 20h-41v90h50q34 0 54 16.5t20 48.5q0 29 -12.5 48t-47.5 19q-28 0 -42.5 -16t-14.5 -43v-17h-110v17q0 67 44 109t125 42q85 0 128.5 -41t43.5 -112q0 -38 -20 -67.5t-50 -45.5q38 -20 58 -50t20 -76
q0 -77 -45.5 -121.5t-139.5 -44.5q-42 0 -74 12.5t-53 33.5t-32 48t-11 57v30h114v-30q0 -9 2.5 -19.5t9 -19.5t17.5 -14.5t27 -5.5z" />
    <glyph glyph-name="uni0438" unicode="&#x438;" 
d="M390 538v-538h-102v326h-2l-136 -326h-96v538h102v-299h2l128 299h104z" />
    <glyph glyph-name="uni043A" unicode="&#x43a;" horiz-adv-x="437" 
d="M166 538v-194l125 194h121l-117 -173l129 -365h-116l-87 264l-55 -82v-182h-112v538h112z" />
    <glyph glyph-name="uni043B" unicode="&#x43b;" horiz-adv-x="451" 
d="M5 98q27 0 42 19.5t22.5 46t9 53.5t1.5 41l-1 280h318v-538h-112v446h-98v-197q0 -38 -3 -69.5t-14 -60.5q-9 -26 -23.5 -48.5t-35 -40t-47 -27.5t-59.5 -10v105z" />
    <glyph glyph-name="uni043C" unicode="&#x43c;" horiz-adv-x="557" 
d="M200 538l79 -307l79 307h145v-538h-98v404l-100 -404h-53l-100 404v-404h-98v538h146z" />
    <glyph glyph-name="uni043D" unicode="&#x43d;" 
d="M166 538v-213h112v213h112v-538h-112v232h-112v-232h-112v538h112z" />
    <glyph glyph-name="uni043E" unicode="&#x43e;" 
d="M222 548q90 0 132 -52t42 -144v-161q0 -201 -174 -201q-88 0 -131 51t-43 145v160q0 202 174 202zM160 166q0 -84 62 -84q32 0 47 22t15 62v206q0 41 -15 62.5t-47 21.5q-28 0 -45 -19.5t-17 -64.5v-206z" />
    <glyph glyph-name="uni043F" unicode="&#x43f;" 
d="M390 538v-538h-112v446h-112v-446h-112v538h336z" />
    <glyph glyph-name="uni0440" unicode="&#x440;" 
d="M282 548q54 0 84 -39t30 -107v-266q0 -69 -30 -107.5t-84 -38.5q-15 0 -27.5 2.5t-25.5 8.5t-28 17t-35 28v-216h-112v708h106v-56h2q28 37 53.5 51.5t66.5 14.5zM166 110q17 -12 32 -20t32 -8q30 0 42 22.5t12 60.5v207q0 45 -13.5 64.5t-41.5 19.5q-17 0 -33.5 -9.5
t-29.5 -18.5v-318z" />
    <glyph glyph-name="uni0441" unicode="&#x441;" 
d="M222 548q170 0 174 -194h-112v9q0 52 -16 72.5t-46 20.5q-62 0 -62 -84v-206q0 -84 62 -84q31 0 46.5 21t15.5 66v35h112v-11q0 -203 -174 -203q-88 0 -131 51t-43 145v160q0 202 174 202z" />
    <glyph glyph-name="uni0442" unicode="&#x442;" horiz-adv-x="357" 
d="M341 538v-92h-107v-446h-112v446h-106v92h325z" />
    <glyph glyph-name="uni0443" unicode="&#x443;" horiz-adv-x="389" 
d="M124 538l72 -344h2l68 344h113l-141 -577q-9 -39 -22.5 -64t-33 -40t-45 -20.5t-59.5 -5.5h-40v92h29q38 0 55 20.5t17 65.5q0 14 -2.5 29t-10.5 46l-116 454h114z" />
    <glyph glyph-name="uni0444" unicode="&#x444;" horiz-adv-x="650" 
d="M490 548q54 -1 83 -40t29 -106v-266q0 -69 -30 -107.5t-84 -38.5q-15 0 -27 2t-24 8t-25.5 16t-31.5 25v-211h-110v213q-27 -32 -50 -42.5t-57 -10.5q-55 0 -85 38.5t-30 107.5v266q0 68 30 107t84 39q13 0 24.5 -2t23.5 -7.5t26 -15.5t34 -26v225h110v-228
q25 30 48.5 42t61.5 12zM158 165q0 -39 12.5 -61t41.5 -22q15 0 28.5 6.5t29.5 17.5v326q-16 11 -29.5 17.5t-29.5 6.5q-53 0 -53 -83v-208zM437 456q-15 0 -30 -8t-27 -16v-326q15 -11 29 -17.5t29 -6.5q30 0 42 22.5t12 60.5v207q0 45 -13.5 64.5t-41.5 19.5z" />
    <glyph glyph-name="uni0445" unicode="&#x445;" horiz-adv-x="389" 
d="M137 538l57 -150l60 150h116l-116 -251l122 -287h-116l-65 182h-2l-65 -182h-116l120 285l-111 253h116z" />
    <glyph glyph-name="uni0446" unicode="&#x446;" horiz-adv-x="454" 
d="M166 538v-446h112v446h112v-446h54v-223h-110v131h-280v538h112z" />
    <glyph glyph-name="uni0447" unicode="&#x447;" 
d="M163 538v-214q0 -23 14.5 -38.5t43.5 -15.5q25 0 38 5.5t19 10.5v252h112v-538h-112v194q-31 -16 -77 -16q-72 0 -111 38.5t-39 104.5v217h112z" />
    <glyph glyph-name="uni0448" unicode="&#x448;" horiz-adv-x="628" 
d="M164 538v-446h95v446h110v-446h95v446h110v-538h-520v538h110z" />
    <glyph glyph-name="uni0449" unicode="&#x449;" horiz-adv-x="638" 
d="M164 538v-446h95v446h110v-446h95v446h110v-446h54v-223h-110v131h-464v538h110z" />
    <glyph glyph-name="uni044A" unicode="&#x44a;" horiz-adv-x="482" 
d="M95 0v446h-79v92h191v-215h46q44 0 80.5 -7.5t62 -26t39.5 -49.5t14 -78q0 -88 -48.5 -125t-147.5 -37h-158zM207 88h29q27 0 46 2.5t31 10t18 22.5t6 39q0 23 -5.5 37t-17.5 22t-30.5 11t-45.5 3h-31v-147z" />
    <glyph glyph-name="uni044B" unicode="&#x44b;" horiz-adv-x="649" 
d="M595 538v-538h-112v538h112zM54 0v538h112v-215h45q44 0 80.5 -7.5t62.5 -26t40 -49.5t14 -78q0 -88 -48.5 -125t-148.5 -37h-157zM166 88h29q26 0 45 2.5t31.5 10t18.5 22.5t6 39q0 23 -5.5 37t-17.5 22t-30.5 11t-45.5 3h-31v-147z" />
    <glyph glyph-name="uni044C" unicode="&#x44c;" horiz-adv-x="441" 
d="M54 0v538h112v-215h45q44 0 80.5 -7.5t62.5 -26t40 -49.5t14 -78q0 -88 -48.5 -125t-148.5 -37h-157zM166 88h29q26 0 45 2.5t31.5 10t18.5 22.5t6 39q0 23 -5.5 37t-17.5 22t-30.5 11t-45.5 3h-31v-147z" />
    <glyph glyph-name="uni044D" unicode="&#x44d;" 
d="M152 325h132v47q0 84 -62 84q-29 0 -45.5 -17t-16.5 -59h-109q0 85 45 126.5t126 41.5q174 0 174 -202v-160q0 -94 -43 -145t-131 -51q-84 0 -129 43.5t-45 137.5h112v-2q0 -45 15 -66t47 -21q62 0 62 84v66h-132v93z" />
    <glyph glyph-name="uni044E" unicode="&#x44e;" horiz-adv-x="650" 
d="M432 548q87 0 128.5 -49.5t41.5 -138.5v-177q0 -97 -43 -145t-127 -48q-85 0 -128 48.5t-43 139.5v54h-95v-232h-112v538h112v-213h95v29q0 98 43 146t128 48zM373 166q0 -84 59 -84q30 0 44 22t14 62v206q0 41 -14 62.5t-44 21.5q-27 0 -43 -19.5t-16 -64.5v-206z" />
    <glyph glyph-name="uni044F" unicode="&#x44f;" horiz-adv-x="446" 
d="M280 450h-36q-48 0 -65 -15.5t-17 -57.5t17 -58t61 -16h40v147zM392 538v-538h-112v215q-13 0 -30 0.5t-25 1.5l1 5l-81 -222h-115l94 239q-39 16 -56.5 50t-17.5 88q0 87 46 124t137 37h159z" />
    <glyph glyph-name="uni0454" unicode="&#x454;" 
d="M292 232h-132v-66q0 -84 62 -84q32 0 47 21t15 66v2h112q0 -94 -45 -137.5t-129 -43.5q-88 0 -131 51t-43 145v160q0 202 174 202q81 0 126 -41.5t45 -126.5h-109q0 42 -16.5 59t-45.5 17q-62 0 -62 -84v-47h132v-93z" />
    <glyph glyph-name="uni0490" unicode="&#x490;" horiz-adv-x="392" 
d="M379 902v-288h-195v-614h-124v722h197v180h122z" />
    <glyph glyph-name="uni040F" unicode="&#x40f;" horiz-adv-x="500" 
d="M60 0v722h124v-614h132v614h124v-722h-129v-180h-122v180h-129z" />
    <glyph glyph-name="uni0409" unicode="&#x409;" horiz-adv-x="755" 
d="M321 0v614h-111v-280q0 -51 -3.5 -94.5t-15.5 -82.5q-10 -33 -26.5 -63.5t-39.5 -53.5t-53 -36.5t-67 -13.5v126q30 0 47.5 28t25.5 66t10 76.5t2 59.5l-2 376h357v-296h52q49 0 90 -10t69.5 -34t44.5 -65t16 -104q0 -58 -13.5 -98.5t-41 -66t-69 -37t-96.5 -11.5h-176z
M445 102h33q30 0 52 3.5t36 15.5t20.5 34t6.5 58q0 35 -6 56.5t-19.5 33.5t-35 16.5t-51.5 4.5h-36v-222z" />
    <glyph glyph-name="uni040A" unicode="&#x40a;" horiz-adv-x="750" 
d="M316 0v320h-132v-320h-124v722h124v-294h132v294h124v-296h52q49 0 90 -10t69.5 -34t44.5 -65t16 -104q0 -58 -13.5 -98.5t-41 -66t-69 -37t-96.5 -11.5h-176zM440 102h33q30 0 52 3.5t36 15.5t20.5 34t6.5 58q0 35 -6 56.5t-19.5 33.5t-35 16.5t-51.5 4.5h-36v-222z" />
    <glyph glyph-name="uni040B" unicode="&#x40b;" horiz-adv-x="574" 
d="M256 0h-124v614h-120v108h364v-108h-120v-188h58q112 0 161 -52t49 -161v-213h-124v209q0 31 -4.5 53t-16 35.5t-31.5 20t-50 6.5h-42v-324z" />
    <glyph glyph-name="uni0402" unicode="&#x402;" horiz-adv-x="574" 
d="M256 0h-124v614h-120v108h364v-108h-120v-188h58q112 0 161 -52t49 -161v-238q0 -31 -9.5 -57.5t-28 -46t-45.5 -30.5t-61 -11h-41v108h18q25 0 34 17t9 33v221q0 31 -4.5 53t-16 35.5t-31.5 20t-50 6.5h-42v-324z" />
    <glyph glyph-name="uni0491" unicode="&#x491;" horiz-adv-x="355" 
d="M339 669v-223h-173v-446h-112v538h175v131h110z" />
    <glyph glyph-name="uni045F" unicode="&#x45f;" 
d="M54 0v538h112v-446h112v446h112v-538h-113v-153h-110v153h-113z" />
    <glyph glyph-name="uni0459" unicode="&#x459;" horiz-adv-x="672" 
d="M285 0v446h-96v-197q0 -38 -3 -69.5t-14 -60.5q-9 -26 -24 -48.5t-35.5 -40t-47.5 -27.5t-60 -10v105q27 0 42 19.5t22.5 46t9 53.5t1.5 41l-1 280h318v-215h45q45 0 81 -7.5t62 -26t40 -49.5t14 -78q0 -88 -48.5 -125t-148.5 -37h-157zM397 88h29q26 0 45 2.5t31.5 10
t18.5 22.5t6 39q0 23 -5.5 37t-17.5 22t-30.5 11t-45.5 3h-31v-147z" />
    <glyph glyph-name="uni045A" unicode="&#x45a;" horiz-adv-x="668" 
d="M281 0v232h-115v-232h-112v538h112v-213h115v213h112v-215h45q45 0 81 -7.5t62 -26t40 -49.5t14 -78q0 -88 -48.5 -125t-148.5 -37h-157zM393 88h29q26 0 45 2.5t31.5 10t18.5 22.5t6 39q0 23 -5.5 37t-17.5 22t-30.5 11t-45.5 3h-31v-147z" />
    <glyph glyph-name="uni045B" unicode="&#x45b;" 
d="M166 722v-55h112v-78h-112v-107q20 19 36 31t31 18.5t30 8.5t32 2q48 0 71.5 -30.5t23.5 -78.5v-433h-112v413q0 37 -40 37q-18 0 -34.5 -9.5t-37.5 -24.5v-416h-112v589h-53v78h53v55h112z" />
    <glyph glyph-name="uni0452" unicode="&#x452;" 
d="M166 722v-55h112v-78h-112v-107q20 19 36 31t31 18.5t30 8.5t32 2q48 0 71.5 -30.5t23.5 -78.5v-458q0 -31 -8 -57.5t-24 -46t-41 -30.5t-59 -11h-41v102h18q25 0 34 17t9 33v431q0 37 -40 37q-18 0 -34.5 -9.5t-37.5 -24.5v-416h-112v589h-53v78h53v55h112z" />
    <glyph glyph-name="uni2116" unicode="&#x2116;" horiz-adv-x="766" 
d="M175 722l151 -413h2v413h112v-722h-108l-158 451h-2v-451h-112v722h115zM633 732q57 0 85 -30t28 -87v-103q0 -56 -28 -86t-85 -30t-85 30.5t-28 87.5v102q0 56 28 86t85 30zM664 619q0 49 -32 49q-14 0 -22 -12.5t-8 -33.5v-112q0 -50 31 -50q16 0 23.5 13t7.5 33v113z
M746 315v-92h-226v92h226z" />
    <glyph glyph-name="uni0406" unicode="&#x406;" horiz-adv-x="278" 
d="M201 722v-722h-124v722h124z" />
    <glyph glyph-name="uni0408" unicode="&#x408;" horiz-adv-x="278" 
d="M218 722v-579q0 -34 -8 -62t-28 -48.5t-54 -31.5t-87 -11h-38v108h24q24 0 37.5 6t20 14.5t8 18.5t1.5 19v566h124z" />
    <glyph glyph-name="uni0405" unicode="&#x405;" 
d="M231 732q73 0 118 -46t55 -129l-118 -13q-3 40 -21.5 60t-44.5 20q-30 0 -46 -18.5t-16 -51.5t21.5 -63.5t66.5 -66.5q54 -44 86.5 -79.5t50 -65t22.5 -55t5 -49.5q0 -88 -52.5 -136.5t-143.5 -48.5q-39 0 -72 14t-57.5 40.5t-39.5 63.5t-17 82l118 17q4 -56 24 -82.5
t51 -26.5q32 0 51.5 17t19.5 49q0 37 -22.5 70t-65.5 68q-41 33 -72 62t-51.5 58.5t-30.5 60.5t-10 69q0 87 50 133.5t141 46.5z" />
    <glyph glyph-name="uni0407" unicode="&#x407;" horiz-adv-x="278" 
d="M201 722v-722h-124v722h124zM114 880v-108h-108v108h108zM272 880v-108h-108v108h108z" />
    <glyph glyph-name="uni0401" unicode="&#x401;" 
d="M392 722v-108h-208v-186h160v-108h-160v-212h222v-108h-346v722h332zM208 879v-108h-108v108h108zM366 879v-108h-108v108h108z" />
    <glyph glyph-name="uni0419" unicode="&#x419;" horiz-adv-x="500" 
d="M440 722v-722h-112v451h-2l-158 -451h-108v722h112v-413h2l151 413h115zM161 906q5 -40 27 -57t62 -17t62 17t27 57h58q-6 -67 -43.5 -104.5t-103.5 -37.5t-104 37.5t-43 104.5h58z" />
    <glyph glyph-name="uni040C" unicode="&#x40c;" horiz-adv-x="450" 
d="M184 722v-267h2l130 267h124l-134 -269l151 -453h-126l-102 338l-45 -82v-256h-124v722h124zM390 903l-131 -144h-83l79 144h135z" />
    <glyph glyph-name="uni0403" unicode="&#x403;" horiz-adv-x="392" 
d="M379 722v-108h-195v-614h-124v722h319zM355 903l-131 -144h-83l79 144h135z" />
    <glyph glyph-name="uni040E" unicode="&#x40e;" 
d="M136 722l93 -356h2l80 356h124l-145 -543q-15 -57 -31.5 -94t-39 -58t-53.5 -29t-76 -8h-45v95h33q20 0 34 3.5t23.5 14t17 28.5t15.5 47l-158 544h126zM133 906q5 -40 27 -57t62 -17t62 17t27 57h58q-6 -67 -43.5 -104.5t-103.5 -37.5t-104 37.5t-43 104.5h58z" />
    <glyph glyph-name="uni0456" unicode="&#x456;" horiz-adv-x="222" 
d="M167 722v-102h-112v102h112zM167 538v-538h-112v538h112z" />
    <glyph glyph-name="uni0458" unicode="&#x458;" horiz-adv-x="222" 
d="M173 722v-102h-112v102h112zM173 538v-573q0 -62 -31.5 -98.5t-100.5 -36.5h-41v102h18q25 0 34 12t9 28v566h112z" />
    <glyph glyph-name="uni0455" unicode="&#x455;" horiz-adv-x="389" 
d="M189 548q63 0 106 -37.5t58 -105.5l-95 -16q-12 67 -64 67q-22 0 -35.5 -11t-13.5 -32q0 -23 21.5 -44.5t66.5 -53.5q67 -47 94.5 -89t27.5 -91q0 -69 -41.5 -107t-115.5 -38t-116 39.5t-55 110.5l98 27q6 -45 24 -65t50 -20q23 0 36.5 12t13.5 35q0 29 -25.5 54.5
t-76.5 60.5q-49 34 -78.5 73t-29.5 87q0 30 11 56t31 45.5t47.5 31t60.5 11.5z" />
    <glyph glyph-name="uni0457" unicode="&#x457;" horiz-adv-x="222" 
d="M167 538v-538h-112v538h112zM86 722v-108h-108v108h108zM244 722v-108h-108v108h108z" />
    <glyph glyph-name="uni0451" unicode="&#x451;" 
d="M222 548q89 0 131.5 -51t42.5 -144v-105h-236v-82q0 -84 62 -84q11 0 22 3t20 12.5t14.5 27.5t5.5 47v10h112q-2 -100 -46 -146t-128 -46q-88 0 -131 51t-43 145v160q0 202 174 202zM284 340v23q0 55 -17 74t-45 19q-29 0 -45.5 -20.5t-16.5 -63.5v-32h124zM197 722v-108
h-108v108h108zM355 722v-108h-108v108h108z" />
    <glyph glyph-name="uni0439" unicode="&#x439;" 
d="M390 538v-538h-102v326h-2l-136 -326h-96v538h102v-299h2l128 299h104zM134 749q5 -40 27 -57t62 -17t62 17t27 57h58q-6 -67 -43.5 -104.5t-103.5 -37.5t-104 38t-43 104h58z" />
    <glyph glyph-name="uni045C" unicode="&#x45c;" 
d="M166 538v-194l125 194h121l-117 -173l129 -365h-116l-87 264l-55 -82v-182h-112v538h112zM374 746l-131 -144h-83l79 144h135z" />
    <glyph glyph-name="uni0453" unicode="&#x453;" horiz-adv-x="355" 
d="M339 538v-92h-173v-446h-112v538h285zM333 746l-131 -144h-83l79 144h135z" />
    <glyph glyph-name="uni045E" unicode="&#x45e;" horiz-adv-x="389" 
d="M124 538l72 -344h2l68 344h113l-141 -577q-9 -39 -22.5 -64t-33 -40t-45 -20.5t-59.5 -5.5h-40v92h29q38 0 55 20.5t17 65.5q0 14 -2.5 29t-10.5 46l-116 454h114zM105 749q5 -40 27 -57t62 -17t62 17t27 57h58q-6 -67 -43.5 -104.5t-103.5 -37.5t-104 38t-43 104h58z
" />
    </font>
</defs>
</svg>
