<svg xmlns="http://www.w3.org/2000/svg" width="65" height="99" viewBox="0 0 65 99"><defs><clipPath id="a"><path fill="#fff" d="M533.32 441c-18.2 0-22.32 16.05-22.32 19.04v44.6c0 20.75 22.12 25.15 24.64 25.15h4.63c2.51 0 24.63-4.4 24.63-25.15v-44.6c0-2.99-4.11-19.04-22.32-19.04z"/></clipPath><clipPath id="b"><path fill="#fff" d="M533.67 436c-21.3 0-27.67 18.33-27.67 23.92v45.42c0 23.47 24.38 29.6 30.08 29.6h4.84c5.7 0 30.08-6.13 30.08-29.6v-45.42c0-5.59-6.37-23.92-27.67-23.92z"/></clipPath></defs><path fill="none" stroke="#fff" stroke-miterlimit="50" stroke-width="6" d="M533.32 441c-18.2 0-22.32 16.05-22.32 19.04v44.6c0 20.75 22.12 25.15 24.64 25.15h4.63c2.51 0 24.63-4.4 24.63-25.15v-44.6c0-2.99-4.11-19.04-22.32-19.04z" clip-path="url(&quot;#a&quot;)" transform="translate(-506 -436)"/><path fill="none" stroke="#fff" stroke-miterlimit="50" d="M38.49 68.75a6.74 6.74 0 1 1-13.49 0 6.74 6.74 0 0 1 13.49 0z"/><path fill="none" stroke="#fff" stroke-miterlimit="50" d="M47.06 74.73a2.46 2.46 0 0 1-2.45-2.46v-5.01c0-6.81-5.54-12.35-12.35-12.35a12.36 12.36 0 0 0-12.35 12.35v5.01a2.46 2.46 0 1 1-4.91 0v-5.01C15 57.74 22.74 50 32.26 50c9.51 0 17.25 7.74 17.25 17.26v5.01a2.45 2.45 0 0 1-2.45 2.46z"/><path fill="#fff" d="M21.94 21.69h-2.05v5.7h-.84v-5.7H17V21h4.94zM24.03 21.67c.31 0 .57.1.77.3.2.21.3.47.3.8 0 .33-.09.59-.29.79-.19.2-.45.3-.78.3-.32 0-.58-.1-.78-.3a1.1 1.1 0 0 1-.29-.79c0-.34.1-.61.3-.81.2-.19.45-.29.77-.29zm1.22 4.07c0 .36-.1.64-.32.85-.22.21-.52.32-.9.32s-.68-.11-.89-.32a1.1 1.1 0 0 1-.33-.85c0-.36.11-.66.33-.88.23-.22.52-.33.88-.33.37 0 .67.11.89.33.23.23.34.52.34.88zm.67-2.98c0-.54-.18-.97-.52-1.29a2 2 0 0 0-1.37-.47c-.56 0-1.02.16-1.36.47-.35.32-.52.75-.52 1.29 0 .31.08.6.24.84.17.25.39.45.68.59-.34.14-.6.35-.79.63-.19.28-.28.59-.28.94 0 .55.18.99.56 1.32.37.33.86.49 1.47.49s1.1-.16 1.48-.49c.37-.33.56-.77.56-1.32 0-.35-.1-.66-.3-.94a1.85 1.85 0 0 0-.79-.63 1.54 1.54 0 0 0 .94-1.43zM28.23 24.19l.32-3.19h3.28v.75h-2.59l-.19 1.74a2.1 2.1 0 0 1 1.07-.27c.58 0 1.04.19 1.38.58.35.38.52.9.52 1.56s-.18 1.17-.54 1.55c-.35.38-.85.57-1.49.57a2 2 0 0 1-1.38-.47 1.85 1.85 0 0 1-.61-1.3h.77c.05.37.18.64.39.83.21.19.49.28.83.28.38 0 .68-.13.89-.39.22-.25.33-.61.33-1.06 0-.43-.12-.78-.35-1.03a1.2 1.2 0 0 0-.93-.39c-.36 0-.63.07-.84.23l-.21.18zM34.62 24.42l-.78.81v2.16H33V21h.84v3.16L36.68 21h1.02l-2.51 2.82 2.71 3.57h-1.01zM38.23 24.19l.32-3.19h3.28v.75h-2.59l-.19 1.74a2.1 2.1 0 0 1 1.07-.27c.58 0 1.04.19 1.38.58.35.38.52.9.52 1.56s-.18 1.17-.54 1.55c-.35.38-.85.57-1.49.57a2 2 0 0 1-1.38-.47 1.85 1.85 0 0 1-.61-1.3h.77c.05.37.18.64.39.83.21.19.49.28.83.28.38 0 .68-.13.89-.39.22-.25.33-.61.33-1.06 0-.43-.12-.78-.35-1.03a1.2 1.2 0 0 0-.93-.39c-.36 0-.63.07-.84.23l-.21.18zM47.94 21.69h-2.05v5.7h-.84v-5.7H43V21h4.94zM17.3 34.89h.61c.38-.01.69-.11.91-.3.22-.2.33-.46.33-.8 0-.75-.38-1.12-1.13-1.12-.35 0-.63.1-.84.3-.21.2-.31.46-.31.8h-.81c0-.51.18-.93.55-1.27.37-.33.84-.5 1.41-.5.61 0 1.08.16 1.42.48a1.7 1.7 0 0 1 .25 2.14c-.18.26-.43.45-.74.58.35.11.62.3.82.56.19.25.28.57.28.94 0 .57-.18 1.03-.56 1.37-.37.33-.86.5-1.46.5s-1.09-.16-1.46-.49A1.6 1.6 0 0 1 16 36.8h.82c0 .33.11.6.33.8.22.21.51.31.88.31.39 0 .69-.11.9-.31.21-.21.31-.5.31-.88 0-.37-.11-.66-.34-.86-.23-.2-.56-.3-.99-.31h-.61zM26.91 38.39h-.84l-3.22-4.92v4.92H22V32h.85l3.23 4.95V32h.83zM29.31 35.13c-.24.17-.4.38-.49.63v.3c0 .53.12.95.35 1.27.24.32.54.48.89.48.37 0 .65-.13.86-.4.21-.27.32-.62.32-1.06 0-.44-.11-.79-.32-1.06-.21-.27-.5-.41-.85-.41-.28 0-.53.08-.76.25zM31.14 32v.69h-.15c-.63.01-1.14.2-1.51.56-.38.36-.59.88-.65 1.53.34-.38.8-.58 1.38-.58.56 0 1 .2 1.33.59.33.4.5.9.5 1.52 0 .66-.18 1.19-.54 1.58-.36.4-.84.6-1.44.6-.61 0-1.11-.24-1.49-.71a2.78 2.78 0 0 1-.57-1.81v-.32c0-1.17.25-2.07.75-2.69.51-.63 1.25-.95 2.25-.96zM37.92 36.45c-.08.68-.33 1.2-.75 1.57-.42.37-.97.55-1.67.55-.76 0-1.36-.27-1.82-.81a3.3 3.3 0 0 1-.68-2.18v-.61c0-.6.11-1.12.32-1.57a2.36 2.36 0 0 1 2.25-1.4c.68 0 1.23.19 1.64.57.41.38.65.9.71 1.57h-.84a1.91 1.91 0 0 0-.48-1.11c-.24-.23-.59-.34-1.03-.34-.53 0-.96.2-1.26.6-.31.4-.46.96-.46 1.7v.62c0 .69.14 1.24.43 1.66.29.41.7.61 1.22.61.47 0 .83-.11 1.08-.32.25-.21.41-.58.5-1.11zM40.58 34.45L42.11 32h.99l-2.02 3.17 2.07 3.22h-1l-1.57-2.49L39 38.39h-1l2.07-3.22L38.05 32h.99zM47.19 32h.85v4.53c0 .61-.19 1.09-.56 1.43-.36.35-.85.52-1.47.52-.63 0-1.12-.16-1.48-.48a1.8 1.8 0 0 1-.53-1.37h.84c0 .37.1.65.3.86.2.2.49.3.87.3.35 0 .64-.11.85-.33.22-.22.33-.52.33-.92z"/><path fill="none" stroke="#fff" stroke-miterlimit="50" stroke-width="2" d="M533.67 436c-21.3 0-27.67 18.33-27.67 23.92v45.42c0 23.47 24.38 29.6 30.08 29.6h4.84c5.7 0 30.08-6.13 30.08-29.6v-45.42c0-5.59-6.37-23.92-27.67-23.92z" clip-path="url(&quot;#b&quot;)" transform="translate(-506 -436)"/></svg>