<?xml version="1.0" encoding="utf-8"?>
<svg width="60" height="60" viewBox="0 0 60 60" xmlns="http://www.w3.org/2000/svg">
  <path fill="#a1a1a1" d="M0 60h60V0H0z"/>
  <path fill="#1a1a1a" d="M 56.045 29.995 L 43.025 52.555 L 16.975 52.555 L 3.955 29.995 L 16.975 7.445 L 43.025 7.445 Z"/>
  <path fill="none" stroke-miterlimit="50" stroke-width=".75" d="M 56.045 29.995 L 43.025 52.555 L 16.975 52.555 L 3.955 29.995 L 16.975 7.445 L 43.025 7.445 Z" style="stroke: rgb(161, 161, 161);"/>
  <path fill="none" stroke="#1a1a1a" stroke-miterlimit="50" d="M 37.1 20.66 C 37.1 20.66 33.36 20 29.55 20 C 25.73 20 22 20.66 22 20.66 M 37.1 39 C 37.1 39 33.36 39.66 29.55 39.66 C 25.73 39.66 22 39 22 39"/>
  <path fill="none" stroke-miterlimit="50" d="M 52.316 29.95 L 41.316 49.01 L 19.316 49.01 L 8.316 29.95 L 19.316 10.9 L 41.316 10.9 Z" clip-path="url(#a)" style="stroke-width: 2; stroke: rgb(161, 161, 161);"/>
  <path d="M 24.194 23.202 C 24.194 20.01 26.798 17.412 30 17.412 C 33.201 17.412 35.806 20.01 35.806 23.202 L 35.806 26.968 L 36.634 26.968 C 37.937 26.968 38.997 28.024 38.997 29.323 L 38.997 40.232 C 38.997 41.532 37.938 42.589 36.634 42.589 L 23.366 42.589 C 22.062 42.589 21.002 41.53 21.002 40.232 L 21.002 29.324 C 21.002 28.024 22.062 26.968 23.366 26.968 L 24.194 26.968 L 24.194 23.202 Z M 25.587 23.202 L 25.587 26.968 L 34.412 26.968 L 34.412 23.202 C 34.412 20.776 32.433 18.802 30 18.802 C 27.566 18.802 25.587 20.776 25.587 23.202 Z M 22.396 40.23 C 22.396 40.764 22.831 41.198 23.366 41.198 L 36.634 41.198 C 37.168 41.198 37.604 40.764 37.604 40.23 L 37.604 29.323 C 37.604 28.79 37.168 28.354 36.634 28.354 L 23.366 28.354 C 22.831 28.354 22.396 28.79 22.396 29.323 L 22.396 40.23 Z" id="Clip-11" style="fill: rgb(161, 161, 161);"/>
</svg>