<?xml version="1.0" encoding="utf-8"?>
<svg width="60" height="60" viewBox="0 0 60 60" xmlns="http://www.w3.org/2000/svg">
  <path fill="#a1a1a1" d="M0 60h60V0H0z"/>
  <path fill="#1a1a1a" d="M 56.045 29.995 L 43.025 52.555 L 16.975 52.555 L 3.955 29.995 L 16.975 7.445 L 43.025 7.445 Z"/>
  <path fill="none" stroke="#f8e81c" stroke-miterlimit="50" stroke-width=".75" d="M 56.045 29.995 L 43.025 52.555 L 16.975 52.555 L 3.955 29.995 L 16.975 7.445 L 43.025 7.445 Z"/>
  <path fill="#f8e81c" d="M 36.14 39.89 L 36.29 39.7 L 36.29 20.44 C 36.29 20.44 35.75 19.61 35.55 19.09 C 35.34 18.58 35.1 17.42 35.1 17.42 C 35.1 17.42 31.41 17 29.65 17 C 27.88 17 24.44 17.42 24.44 17.42 C 24.44 17.42 24.25 18.48 23.98 19.09 C 23.71 19.71 23 20.66 23 20.66 L 23 39.8 L 23.1 39.89 L 23.07 39.89 L 23.1 39.89 C 23.32 40.06 23.79 40.46 23.98 40.68 C 24.23 40.96 24.76 41.78 24.76 41.78 C 24.76 41.78 27.88 42.31 29.65 42.31 C 31.41 42.31 34.89 41.78 34.89 41.78 C 34.89 41.78 35.3 41.05 35.55 40.68 C 35.71 40.44 35.98 40.1 36.14 39.89 L 36.16 39.89 Z"/>
  <path fill="none" stroke="#f8e81c" stroke-miterlimit="50" stroke-width=".59" d="M 36.14 39.89 L 36.29 39.7 L 36.29 20.44 C 36.29 20.44 35.75 19.61 35.55 19.09 C 35.34 18.58 35.1 17.42 35.1 17.42 C 35.1 17.42 31.41 17 29.65 17 C 27.88 17 24.44 17.42 24.44 17.42 C 24.44 17.42 24.25 18.48 23.98 19.09 C 23.71 19.71 23 20.66 23 20.66 L 23 39.8 L 23.1 39.89 L 23.07 39.89 L 23.1 39.89 C 23.32 40.06 23.79 40.46 23.98 40.68 C 24.23 40.96 24.76 41.78 24.76 41.78 C 24.76 41.78 27.88 42.31 29.65 42.31 C 31.41 42.31 34.89 41.78 34.89 41.78 C 34.89 41.78 35.3 41.05 35.55 40.68 C 35.71 40.44 35.98 40.1 36.14 39.89 L 36.16 39.89 Z"/>
  <path fill="none" stroke="#1a1a1a" stroke-miterlimit="50" d="M 37.1 20.66 C 37.1 20.66 33.36 20 29.55 20 C 25.73 20 22 20.66 22 20.66 M 37.1 39 C 37.1 39 33.36 39.66 29.55 39.66 C 25.73 39.66 22 39 22 39"/>
  <path fill="none" stroke="#f8e81c" stroke-miterlimit="50" d="M 52.316 29.95 L 41.316 49.01 L 19.316 49.01 L 8.316 29.95 L 19.316 10.9 L 41.316 10.9 Z" clip-path="url(#a)" style="stroke-width: 2;"/>
</svg>