<?xml version="1.0" encoding="UTF-8"?>
<svg width="145px" height="38px" viewBox="0 0 145 38" version="1.1" xmlns="http://www.w3.org/2000/svg" xmlns:xlink="http://www.w3.org/1999/xlink">
    <!-- Generator: Sketch 44.1 (41455) - http://www.bohemiancoding.com/sketch -->
    <title>Logo_D2</title>
    <desc>Created with Sketch.</desc>
    <defs>
        <polygon id="path-1" points="0 0.361041758 0 11.5768879 8.61288791 11.5768879 8.61288791 0.361041758 1.13185941e-20 0.361041758"></polygon>
        <polygon id="path-3" points="0 38 144.205128 38 144.205128 0 0 0"></polygon>
    </defs>
    <g id="Page-Flow" stroke="none" stroke-width="1" fill="none" fill-rule="evenodd">
        <g id="Coming_Soon_Desktop" transform="translate(-733.000000, -11.000000)">
            <g id="Nav-Bar">
                <g id="Logo-Lockup" transform="translate(563.000000, 7.000000)">
                    <g id="Logo_D2" transform="translate(170.000000, 4.000000)">
                        <path d="M65.9596902,30.4166733 C68.3435428,28.5205319 70.9491873,27.1831967 70.9491873,24.7290751 C70.9491873,22.9448601 70.0069823,21.7458841 68.3156134,21.7458841 C66.4032741,21.7458841 65.266385,23.1402151 65.210937,25.6215956 L61.662266,25.6215956 C61.662266,21.2717455 63.8801854,18.5128205 68.3989908,18.5128205 C72.530071,18.5128205 74.8597078,21.3270892 74.8597078,24.6175616 C74.8597078,28.2136634 72.419175,29.9144498 70.0903597,31.475638 C68.6211935,32.4230892 66.9018952,33.650563 66.2636273,34.8772108 L75.025641,34.8772108 L75.025641,38 L61.3846154,38 C61.52303,34.3477285 63.7963973,32.1170467 65.9596902,30.4166733 Z" id="Fill-1" fill="#FEFEFE"></path>
                        <g id="Group-5" transform="translate(0.000000, 0.974359)">
                            <mask id="mask-2" fill="white">
                                <use xlink:href="#path-1"></use>
                            </mask>
                            <g id="Clip-4"></g>
                            <path d="M1.39873407,10.2974154 L1.88939341,10.2974154 C4.74523956,10.2974154 7.2144044,9.22631648 7.2144044,5.96917363 C7.2144044,2.69616264 4.74523956,1.63967912 1.88939341,1.63967912 L1.39873407,1.63967912 L1.39873407,10.2974154 Z M-0.000167032967,0.361041758 L2.32033846,0.361041758 C5.75662418,0.361041758 8.61288791,2.17543736 8.61288791,5.90904176 C8.61288791,9.73242637 5.81592088,11.5768879 2.27565714,11.5768879 L-0.000167032967,11.5768879 L-0.000167032967,0.361041758 Z" id="Fill-3" fill="#FEFEFE" mask="url(#mask-2)"></path>
                        </g>
                        <polygon id="Fill-6" fill="#FEFEFE" points="20.4615385 0.974358974 26.3076923 0.974358974 26.3076923 2.1966337 21.8180083 2.1966337 21.8180083 5.19585566 26.1780029 5.19585566 26.1780029 6.41852943 21.8180083 6.41852943 21.8180083 10.4696339 26.3076923 10.4696339 26.3076923 11.6923077 20.4615385 11.6923077"></polygon>
                        <path d="M44.3700096,3.33963026 C43.9676385,2.64015473 43.4497272,2.28310901 42.6292295,2.28310901 C41.7659093,2.28310901 40.8157318,2.89321871 40.8157318,3.87457244 C40.8157318,4.75277963 41.650773,5.21380709 42.3266432,5.48148698 L43.1039143,5.79384978 C44.6443168,6.41857539 45.7948718,7.29552979 45.7948718,9.17054181 C45.7948718,11.2084168 44.2698208,12.6666667 42.3266432,12.6666667 C40.5717236,12.6666667 39.2042276,11.3278496 38.974359,9.52758752 L40.3410471,9.23025822 C40.3265035,10.4646759 41.276277,11.357499 42.4417795,11.357499 C43.6072821,11.357499 44.4427272,10.3456607 44.4427272,9.17054181 C44.4427272,7.96535591 43.5070933,7.44502963 42.5718634,7.043301 L41.8232754,6.71590469 C40.5858632,6.165929 39.4627793,5.43638646 39.4627793,3.87457244 C39.4627793,2.05969444 41.0173213,0.974358974 42.6579126,0.974358974 C43.8666418,0.974358974 44.8596418,1.58405108 45.4494629,2.66980414 L44.3700096,3.33963026 Z" id="Fill-8" fill="#FEFEFE"></path>
                        <polygon id="Fill-10" fill="#FEFEFE" points="61.6071911 11.6923077 60.1885279 11.6923077 60.1885279 2.1966337 57.4871795 2.1966337 57.4871795 0.974358974 64.3076923 0.974358974 64.3076923 2.1966337 61.6071911 2.1966337"></polygon>
                        <mask id="mask-4" fill="white">
                            <use xlink:href="#path-3"></use>
                        </mask>
                        <g id="Clip-13"></g>
                        <polygon id="Fill-12" fill="#FEFEFE" mask="url(#mask-4)" points="76 11.6923077 76.974359 11.6923077 76.974359 0.974358974 76 0.974358974"></polygon>
                        <polygon id="Fill-14" fill="#FEFEFE" mask="url(#mask-4)" points="89.6410256 0.974358974 97.9962854 9.41938086 97.9962854 1.4876564 99.3846154 1.4876564 99.3846154 12.6666667 91.0289412 4.22204455 91.0289412 12.2249271 89.6410256 12.2249271"></polygon>
                        <polygon id="Fill-15" fill="#FEFEFE" mask="url(#mask-4)" points="111.076923 0.974358974 112.69348 0.974358974 115.461959 5.55140472 118.229597 0.974358974 119.846154 0.974358974 116.164371 7.02986632 116.164371 11.6923077 114.757866 11.6923077 114.757866 7.02986632"></polygon>
                        <path d="M140.029479,0 C139.137902,0 138.525021,0.616724435 137.764302,0.987835982 C137.711296,1.01434395 137.65622,1.03878098 137.598658,1.0636322 L137.598658,5.01746125 L137.597002,5.01746125 C137.576297,6.1941665 136.616806,7.14224053 135.436181,7.14224053 C134.241476,7.14224053 133.273289,6.17304297 133.273289,4.97935605 L133.273289,4.96734463 L133.27246,4.96734463 L133.27246,1.0636322 C133.216556,1.03878098 133.160651,1.01392976 133.107645,0.987835982 C132.346512,0.616724435 131.734459,0 130.841226,0 C129.32393,0 128.228197,1.5540296 128.745005,2.98380311 C128.971523,3.6146099 129.429114,3.95879929 129.964143,4.30298869 C130.609325,4.71717568 131.191148,5.22911081 131.672343,5.8280252 C132.383368,6.71562793 132.857523,7.77553245 133.082798,8.8884529 C133.190467,9.41736969 133.257967,10.1190025 133.301862,10.6093999 C133.404975,11.7397162 134.185985,12.6666667 135.436181,12.6666667 C136.68472,12.6666667 137.466558,11.7397162 137.569257,10.6093999 C137.614395,10.1190025 137.680652,9.41736969 137.78832,8.8884529 C138.015252,7.77553245 138.488993,6.71562793 139.199604,5.8280252 C139.679971,5.22911081 140.262208,4.71717568 140.907804,4.30298869 C141.443248,3.95879929 141.900838,3.6146099 142.127356,2.98380311 C142.642922,1.5540296 141.546775,0 140.029479,0 M135.436181,6.42196935 C136.218019,6.42196935 136.852848,5.79820374 136.873139,5.02077475 L136.874796,5.02077475 L136.874796,2.54559327 C136.873139,1.75408192 136.229614,1.11126371 135.436181,1.11126371 C134.641505,1.11126371 133.999636,1.75408192 133.997151,2.54559327 L133.996737,2.54559327 L133.996737,5.02077475 L133.99798,5.02077475 C134.019513,5.79820374 134.653514,6.42196935 135.436181,6.42196935" id="Fill-16" fill="#FEFEFE" mask="url(#mask-4)"></path>
                        <path d="M143.699944,1.40377746 C143.765961,1.40377746 143.881401,1.41691262 143.881401,1.33136572 C143.881401,1.27680431 143.810089,1.26670035 143.752192,1.26670035 L143.610275,1.26670035 L143.610275,1.40377746 L143.699944,1.40377746 Z M143.948829,1.72542033 L143.859513,1.72542033 L143.699944,1.4785468 L143.610275,1.4785468 L143.610275,1.72542033 L143.536139,1.72542033 L143.536139,1.19193101 L143.767726,1.19193101 C143.863397,1.19193101 143.956596,1.21786452 143.956596,1.33271291 C143.956596,1.43745735 143.883166,1.47652601 143.788201,1.4785468 L143.948829,1.72542033 Z M144.131345,1.46137006 C144.131345,1.23167327 143.940357,1.04980191 143.717596,1.04980191 C143.495894,1.04980191 143.305258,1.23167327 143.305258,1.46137006 C143.305258,1.69073006 143.495894,1.87361181 143.717596,1.87361181 C143.940357,1.87361181 144.131345,1.69073006 144.131345,1.46137006 L144.131345,1.46137006 Z M143.230769,1.46137006 C143.230769,1.19092061 143.446117,0.974358974 143.717596,0.974358974 C143.990134,0.974358974 144.205128,1.19092061 144.205128,1.46137006 C144.205128,1.73215631 143.990134,1.94871795 143.717596,1.94871795 C143.446117,1.94871795 143.230769,1.73215631 143.230769,1.46137006 L143.230769,1.46137006 Z" id="Fill-17" fill="#FEFEFE" mask="url(#mask-4)"></path>
                    </g>
                </g>
            </g>
        </g>
    </g>
</svg>