<svg xmlns="http://www.w3.org/2000/svg" width="40" height="38" viewBox="0 0 40 38"><path fill="#fff" d="M24.14 15.1h13.74l-11.1 8.06 4.25 13.09-11.14-8.08-11.12 8.09 4.25-13.09L1.91 15.1h13.74l4.23-13.09zM0 14.48l12.29 8.93L7.6 37.88l12.29-8.95 12.32 8.94L27.5 23.4l12.28-8.92H24.59L19.88 0 15.2 14.48z"/><path fill="#fff100" d="M35.03 15.93H23.56L20 5l-3.53 10.94H5l9.28 6.73-3.55 10.93 9.28-6.76 9.31 6.75-3.56-10.92z"/><path fill="#020000" d="M17.86 18.01c-.99 0-1.4.14-1.65.26A2.1 2.1 0 0 0 15 20.21c0 .94.67 1.93 1.93 2.06l-1.81 2.4-.06.08h.97l.01-.02 2.24-3.01.06-.08h-.14c-.81 0-1.09-.01-1.37-.09a1.43 1.43 0 0 1-1.07-1.36c0-.51.3-1.03.7-1.23.4-.21.72-.25 1.27-.25l1.12-.01v6.05h.75V18zM21.74 18.01c.99 0 1.4.14 1.65.26a2.1 2.1 0 0 1 1.21 1.94c0 .94-.67 1.93-1.93 2.06l1.81 2.4.06.08h-.97l-.01-.02-2.24-3.01-.06-.08H21.41c.8 0 1.08-.01 1.36-.09a1.43 1.43 0 0 0 1.07-1.36c0-.51-.3-1.03-.7-1.23a2.4 2.4 0 0 0-1.27-.25l-1.12-.01v6.05H20V18z"/><path fill="#fff" d="M24.14 15.1h13.74l-11.1 8.06 4.25 13.09-11.14-8.08-11.12 8.09 4.25-13.09L1.91 15.1h13.74l4.23-13.09zM0 14.48l12.29 8.93L7.6 37.88l12.29-8.95 12.32 8.94L27.5 23.4l12.28-8.92H24.59L19.88 0 15.2 14.48z"/><path fill="#fff100" d="M35.03 15.93H23.56L20 5l-3.53 10.94H5l9.28 6.73-3.55 10.93 9.28-6.76 9.31 6.75-3.56-10.92z"/><path fill="#020000" d="M17.86 18.01c-.99 0-1.4.14-1.65.26A2.1 2.1 0 0 0 15 20.21c0 .94.67 1.93 1.93 2.06l-1.81 2.4-.06.08h.97l.01-.02 2.24-3.01.06-.08h-.14c-.81 0-1.09-.01-1.37-.09a1.43 1.43 0 0 1-1.07-1.36c0-.51.3-1.03.7-1.23.4-.21.72-.25 1.27-.25l1.12-.01v6.05h.75V18zM21.74 18.01c.99 0 1.4.14 1.65.26a2.1 2.1 0 0 1 1.21 1.94c0 .94-.67 1.93-1.93 2.06l1.81 2.4.06.08h-.97l-.01-.02-2.24-3.01-.06-.08H21.41c.8 0 1.08-.01 1.36-.09a1.43 1.43 0 0 0 1.07-1.36c0-.51-.3-1.03-.7-1.23a2.4 2.4 0 0 0-1.27-.25l-1.12-.01v6.05H20V18z"/></svg>