<svg xmlns="http://www.w3.org/2000/svg" width="43" height="23" viewBox="0 0 43 23"><path fill="#fff" d="M32.33 13.78c2.77-2.19 5.81-3.74 5.81-6.58 0-2.07-1.1-3.46-3.07-3.46-2.23 0-3.55 1.62-3.62 4.49h-4.13C27.32 3.2 29.9 0 35.17 0c4.81 0 7.52 3.26 7.52 7.07 0 4.16-2.84 6.13-5.55 7.94-1.71 1.1-3.72 2.52-4.46 3.94h10.2v3.61H27c.16-4.22 2.81-6.81 5.33-8.78M17.32 1.76l-.29.14v7.05a3.86 3.86 0 0 1-7.72-.07V1.9l-.3-.14C7.66 1.1 6.57 0 4.97 0a4.01 4.01 0 0 0-3.74 5.32c.4 1.13 1.22 1.74 2.18 2.36a12.52 12.52 0 0 1 5.56 8.18c.19.94.31 2.19.39 3.07.18 2.01 1.58 3.67 3.81 3.67s3.62-1.66 3.81-3.67c.08-.88.2-2.13.39-3.07a12.52 12.52 0 0 1 5.56-8.18c.96-.62 1.78-1.23 2.18-2.36A4 4 0 0 0 21.37 0c-1.59 0-2.69 1.1-4.05 1.76zm-4.15 9.7a2.57 2.57 0 0 1-2.57-2.5V4.54a2.57 2.57 0 0 1 5.14 0v4.42a2.57 2.57 0 0 1-2.57 2.5z"/><path fill="#fff" d="M32.33 13.78c2.77-2.19 5.81-3.74 5.81-6.58 0-2.07-1.1-3.46-3.07-3.46-2.23 0-3.55 1.62-3.62 4.49h-4.13C27.32 3.2 29.9 0 35.17 0c4.81 0 7.52 3.26 7.52 7.07 0 4.16-2.84 6.13-5.55 7.94-1.71 1.1-3.72 2.52-4.46 3.94h10.2v3.61H27c.16-4.22 2.81-6.81 5.33-8.78M17.32 1.76l-.29.14v7.05a3.86 3.86 0 0 1-7.72-.07V1.9l-.3-.14C7.66 1.1 6.57 0 4.97 0a4.01 4.01 0 0 0-3.74 5.32c.4 1.13 1.22 1.74 2.18 2.36a12.52 12.52 0 0 1 5.56 8.18c.19.94.31 2.19.39 3.07.18 2.01 1.58 3.67 3.81 3.67s3.62-1.66 3.81-3.67c.08-.88.2-2.13.39-3.07a12.52 12.52 0 0 1 5.56-8.18c.96-.62 1.78-1.23 2.18-2.36A4 4 0 0 0 21.37 0c-1.59 0-2.69 1.1-4.05 1.76zm-4.15 9.7a2.57 2.57 0 0 1-2.57-2.5V4.54a2.57 2.57 0 0 1 5.14 0v4.42a2.57 2.57 0 0 1-2.57 2.5z"/></svg>