<?xml version="1.0" encoding="utf-8"?>
<svg width="152" height="37" viewBox="0 0 152 37" xmlns="http://www.w3.org/2000/svg">
  <defs>
    <pattern id="pattern-0" x="0" y="0" width="20" height="20" patternUnits="userSpaceOnUse" viewBox="0 0 100 100">
      <path d="M 0 0 L 50 0 L 50 100 L 0 100 Z" style="fill: black;"/>
    </pattern>
  </defs>
  <path d="M49 31.61h5.67V10H49zM141.92 32.08L131.7 22.06v9.13l-5.7-.01V9l10.27 8.84V9.67h5.65zM38.35 12.68l-3.67 4.18a5.56 5.56 0 1 0 .05 8.45l3.67 4.18a11.11 11.11 0 1 1-.05-16.81z" style="fill: rgb(255, 255, 255);"/>
  <path d="M65.53 36.16L54.81 7.68h-8.97V31.3h-5.86V7.68H27L30.02 2H59l6.53 17.07L72.06 2h28.07l3.1 5.68H76.25z" style="fill: rgb(255, 255, 255);"/>
  <path d="M 90.3 14.69 L 93.94 14.69 L 93.94 10 L 88.03 10 C 86.1 10 83.25 11.18 83.25 15.11 C 83.25 20.31 89.66 23.7 89.04 25.8 C 88.73 26.8 87.52 26.84 86.9 26.84 L 83 26.84 L 83 31.61 L 89.38 31.61 C 92.1 31.61 94.82 29.94 94.82 26.75 C 94.82 20.68 87.37 17.37 88.95 15.11 C 89.24 14.69 90.3 14.69 90.3 14.69 M 76 31.61 L 81.67 31.61 L 81.67 10 L 76 10 Z M 96 31.61 L 101.67 31.61 L 101.67 10 L 96 10 Z M 11.06 0 L 0 31.66 L 6.03 31.66 L 7.54 27.65 L 14.57 27.65 L 16.08 31.66 L 22.12 31.66 Z M 9.25 21.87 L 10.93 16.33 L 12.61 21.87 Z M 114.13 10 C 122.69 10.008 128.032 19.279 123.745 26.689 C 121.756 30.127 118.083 32.244 114.11 32.24 C 105.55 32.232 100.208 22.961 104.495 15.551 C 106.484 12.113 110.157 9.996 114.13 10 Z M 119.65 21.13 C 119.65 16.877 115.046 14.219 111.363 16.345 C 109.653 17.332 108.6 19.156 108.6 21.13 C 108.6 25.383 113.204 28.041 116.887 25.915 C 118.597 24.928 119.65 23.104 119.65 21.13 Z M 147 28 L 148.87 28 C 149.48 28 149.88 28.43 149.88 28.96 C 149.88 29.35 149.71 29.66 149.33 29.82 L 149.33 29.83 C 149.7 29.92 149.8 30.29 149.82 30.64 C 149.84 30.85 149.84 31.26 149.97 31.45 L 149.22 31.45 C 149.12 31.23 149.13 30.9 149.09 30.63 C 149.04 30.26 148.9 30.1 148.52 30.1 L 147.75 30.1 L 147.75 31.45 L 147 31.45 Z M 148.59 29.56 C 148.93 29.56 149.11 29.42 149.11 29.07 C 149.11 28.74 148.93 28.59 148.59 28.59 L 147.75 28.59 L 147.75 29.56 Z" style="fill: rgb(255, 255, 255);"/>
  <path d="M 148.24 33.007 C 146.369 33.002 144.85 31.488 144.84 29.62 C 144.832 27.004 147.661 25.362 149.931 26.662 C 152.201 27.964 152.212 31.232 149.95 32.547 C 149.43 32.848 148.842 33.007 148.24 33.007 Z M 149.799 32.287 C 151.861 31.088 151.852 28.107 149.781 26.922 C 147.712 25.736 145.132 27.234 145.14 29.618 C 145.15 31.322 146.534 32.701 148.24 32.707 C 148.788 32.707 149.326 32.561 149.799 32.287 Z" style="fill: rgb(255, 255, 255);"/>
</svg>