<svg width="140px" height="36px" viewBox="0 0 140 36" version="1.1" xmlns="http://www.w3.org/2000/svg" xmlns:xlink="http://www.w3.org/1999/xlink">
    <defs>
        <polygon id="path-1" points="4.8540458 0.136011902 4.8540458 4.19145882 0.839465649 4.19145882 0.839465649 0.136011902 4.8540458 0.136011902"></polygon>
        <polygon id="path-3" points="0 35.7189882 139.510534 35.7189882 139.510534 -0.000423529412 0 -0.000423529412"></polygon>
    </defs>
    <g id="Page-Flow" stroke="none" stroke-width="1" fill="none" fill-rule="evenodd">
        <g id="Coming_Soon_Desktop" transform="translate(-1008.000000, -1347.000000)">
            <g id="footer" transform="translate(0.000000, 1064.000000)">
                <g id="Logo-Garden" transform="translate(346.000000, 266.000000)">
                    <g id="Logo_Huskqvarna" transform="translate(662.000000, 17.000000)">
                        <g id="Group-3" transform="translate(134.656489, 8.189576)">
                            <mask id="mask-2" fill="white">
                                <use xlink:href="#path-1"></use>
                            </mask>
                            <g id="Clip-2"></g>
                            <path d="M4.2721374,0.729105882 C3.87564885,0.321458824 3.39580153,0.129811765 2.84755725,0.136164706 C2.30679389,0.129811765 1.81305344,0.321458824 1.4219084,0.729105882 C1.03503817,1.11345882 0.839465649,1.59522353 0.839465649,2.16381176 C0.839465649,2.71651765 1.03503817,3.19616471 1.4219084,3.58792941 C1.81305344,3.98922353 2.30679389,4.19145882 2.84755725,4.19145882 C3.39580153,4.19145882 3.88206107,3.98922353 4.2721374,3.58792941 C4.66007634,3.19616471 4.85458015,2.71651765 4.85458015,2.16381176 C4.85458015,1.59522353 4.66007634,1.11345882 4.2721374,0.729105882 M3.98358779,3.32428235 C3.66832061,3.64087059 3.29854962,3.7944 2.84755725,3.7944 C2.4029771,3.7944 2.01717557,3.64087059 1.69763359,3.32428235 C1.38984733,2.99922353 1.2359542,2.61381176 1.22526718,2.16381176 C1.2359542,1.69792941 1.38984733,1.3284 1.71793893,1.00334118 C2.02465649,0.682517647 2.4029771,0.534282353 2.84755725,0.534282353 C3.29854962,0.534282353 3.66832061,0.682517647 3.98358779,1.00334118 C4.30312977,1.3284 4.46129771,1.69792941 4.46129771,2.16381176 C4.46129771,2.61381176 4.30312977,2.99922353 3.98358779,3.32428235 M3.7570229,3.08075294 L3.7570229,2.92298824 L3.7570229,2.7684 C3.7570229,2.64663529 3.70679389,2.52487059 3.63412214,2.40204706 C3.56679389,2.34063529 3.51870229,2.27181176 3.42679389,2.23369412 C3.48022901,2.21569412 3.51870229,2.19875294 3.54221374,2.18075294 C3.70679389,2.08122353 3.79763359,1.90651765 3.78587786,1.68945882 C3.79763359,1.41310588 3.66832061,1.19075294 3.41824427,1.08804706 C3.28251908,1.03087059 3.07412214,1.01498824 2.80694656,1.01498824 L1.99473282,1.01498824 L1.99473282,3.28510588 L2.50343511,3.28510588 L2.50343511,2.44863529 L2.73641221,2.44863529 C2.92664122,2.44863529 3.0548855,2.47087059 3.11580153,2.50051765 C3.21946565,2.55769412 3.29854962,2.70592941 3.29854962,2.93675294 L3.29854962,3.10722353 L3.31351145,3.17922353 L3.31351145,3.21945882 L3.31351145,3.22898824 L3.32206107,3.28510588 L3.83503817,3.28510588 L3.77839695,3.15910588 C3.76770992,3.15910588 3.76770992,3.13369412 3.7570229,3.08075294 M3.11580153,1.99757647 C3.04954198,2.03675294 2.92664122,2.04416471 2.7759542,2.04416471 L2.50343511,2.04416471 L2.50343511,1.39192941 L2.74923664,1.39192941 C2.95870229,1.39192941 3.11580153,1.42051765 3.19167939,1.45863529 C3.24618321,1.51263529 3.29854962,1.56663529 3.29854962,1.73710588 C3.29854962,1.88110588 3.2419084,1.94992941 3.11580153,1.99757647" id="Fill-1" fill="#FEFEFE" mask="url(#mask-2)"></path>
                        </g>
                        <path d="M11.6799542,28.1392941 C14.0086565,28.152 18.2364427,28.3584706 20.6485038,25.6637647 C21.8187328,24.3497647 22.1179695,23.5016471 22.6993435,21.6317647 C23.2123206,20.0054118 23.1407176,19.0334118 23.3052977,17.244 C23.3523206,15.9215294 23.4239237,14.3449412 22.9793435,12.078 C22.4866718,9.54847059 22.1179695,8.18682353 20.9701832,7.02952941 C22.4866718,6.25129412 22.6993435,3.96317647 22.4866718,2.40352941 C22.4866718,2.40352941 21.3281985,1.82647059 20.554458,1.53635294 C19.7069771,1.21447059 18.3358321,0.870352941 18.3358321,0.870352941 C18.3358321,2.09964706 18.4801069,3.96317647 17.5674351,4.57729412 C16.6323206,5.11729412 14.3485038,4.57729412 13.9755267,3.39776471 C13.8611756,3.04094118 13.744687,1.81905882 13.9755267,0.284823529 C13.6495725,0.217058824 12.7422443,0 11.6425496,0 C10.4552214,0 9.68041221,0.217058824 9.35766412,0.284823529 C9.51903817,1.81905882 9.47415267,3.04094118 9.35766412,3.39776471 C8.95903817,4.57729412 6.69873282,5.11729412 5.79354198,4.57729412 C4.78789313,3.96317647 5.01766412,2.09964706 5.01766412,0.870352941 C5.01766412,0.870352941 3.54499237,1.23670588 2.63873282,1.58294118 C1.90239695,1.86352941 0.798427481,2.40352941 0.798427481,2.40352941 C0.564381679,3.96317647 0.798427481,6.25129412 2.31491603,7.02952941 C1.17033588,8.18682353 0.798427481,9.54847059 0.305755725,12.078 C-0.0896641221,14.3449412 0.00117557252,15.9215294 0.0289618321,17.244 C0.142244275,19.0334118 0.142244275,20.0054118 0.564381679,21.6317647 C1.17033588,23.5016471 1.52514504,24.3688235 2.75735878,25.6637647 C5.25064122,28.2917647 9.33949618,28.1456471 11.6799542,28.1456471 L11.6799542,28.1392941 Z M11.6874351,16.956 C13.9755267,16.956 13.9423969,16.956 13.9423969,17.7088235 L13.9423969,22.4692941 L17.1623969,22.4692941 L17.1623969,9.30070588 L13.9423969,9.30070588 L13.9423969,13.2511765 C13.9423969,14.0357647 13.9755267,14.0357647 11.6874351,14.0357647 C9.35766412,14.0357647 9.36835115,14.0357647 9.36835115,13.2511765 L9.36835115,9.30070588 L6.19537405,9.30070588 L6.19537405,22.4692941 L9.36835115,22.4692941 L9.36835115,17.7088235 C9.36835115,16.956 9.35766412,16.956 11.6874351,16.956 L11.6874351,16.956 Z M11.6874351,24.7669412 C8.95903817,24.7669412 8.04957252,24.7669412 6.69873282,24.3910588 C6.23064122,24.2311765 5.39384733,23.9918824 4.78789313,23.0230588 C3.66682443,21.0864706 3.66682443,17.4557647 3.66682443,15.7097647 C3.66682443,13.9658824 3.66682443,10.8762353 4.78789313,8.96823529 C5.39384733,7.97294118 6.23064122,7.73576471 6.69873282,7.57376471 C8.04957252,7.218 8.95903817,7.218 11.6874351,7.218 C14.3485038,7.218 15.2601069,7.218 16.6323206,7.57376471 C17.1025496,7.73576471 17.9179695,7.97188235 18.4801069,8.96823529 C19.6909466,10.8762353 19.6909466,14.1765882 19.6909466,15.9215294 C19.6909466,17.622 19.6909466,21.0864706 18.4801069,23.0230588 C17.9179695,23.9918824 17.1025496,24.2311765 16.6323206,24.3910588 C15.2601069,24.7669412 14.3485038,24.7669412 11.6874351,24.7669412 L11.6874351,24.7669412 Z" id="Fill-4" fill="#FEFEFE"></path>
                        <path d="M127.453649,21.0397765 C127.364947,20.0624824 127.932427,19.3742471 129.378382,19.1169529 C129.762046,19.0417765 130.14571,19.0078941 130.542198,18.9613059 C131.103267,18.8670706 131.804336,18.7114235 132.393191,18.3006 L132.393191,20.2784824 C132.393191,21.8677765 130.81258,22.4628353 129.678687,22.4628353 C128.526626,22.4490706 127.531664,22.0086 127.453649,21.0397765 L127.453649,21.0397765 Z M135.462504,15.2511882 C135.462504,14.2971882 135.144031,13.4850706 134.519908,12.8497765 C133.615786,11.9508353 132.168763,11.4330706 130.339145,11.4330706 C128.515939,11.4330706 125.438076,11.8375412 125.075786,15.3263647 L128.163267,15.3263647 C128.123725,13.7021294 130.180977,13.8461294 130.180977,13.8461294 C130.842504,13.8461294 131.645099,14.0536588 132.075786,14.4062471 C132.363267,14.6222471 132.51716,14.9578941 132.51716,15.4978941 C132.582351,16.3703647 132.168763,16.7928353 129.270443,17.0638941 C127.056092,17.2788353 124.385405,17.8940118 124.385405,21.1456588 C124.385405,22.1758941 124.735939,23.0642471 125.40174,23.7418941 C126.188305,24.5444824 127.40342,24.9881294 128.783115,24.9881294 C130.627695,24.9881294 131.702809,24.5349529 132.634718,23.4560118 L132.783267,24.6524824 L135.753191,24.6524824 L135.753191,24.1686 C135.364183,23.8689529 135.462504,22.5846 135.462504,22.5846 L135.462504,15.2511882 Z M123.402198,15.8420118 C123.402198,14.4983647 123.018534,13.4289529 122.25655,12.6570706 C121.477466,11.8544824 120.351053,11.4330706 118.906168,11.4330706 C117.391817,11.4330706 116.265405,12.2377765 115.340977,13.7084824 L115.340977,11.7750706 L112.437313,11.7750706 L112.437313,24.6450706 L115.501282,24.6450706 L115.501282,17.0511882 C115.501282,16.1331882 115.702198,15.2713059 116.276092,14.6974235 C116.784794,14.1796588 117.505099,13.8895412 118.387847,13.8895412 C119.803878,13.9033059 120.284794,14.7556588 120.346779,16.5990706 L120.346779,24.6450706 L123.402198,24.6450706 L123.402198,15.8420118 Z M109.630901,11.3589529 C108.622046,11.5124824 107.430443,12.6570706 106.913191,14.0229529 L106.913191,11.7750706 L104.006321,11.7750706 L104.006321,24.6450706 L107.101282,24.6450706 L107.101282,18.4986 C107.101282,17.1062471 107.18571,16.0442471 107.824794,15.2257765 C108.300366,14.5968353 109.152122,13.9700118 110.006015,13.9700118 C110.85029,14.0049529 111.339756,14.1987176 111.339756,14.1987176 L111.339756,11.4108353 C111.339756,11.4108353 110.515786,11.2223647 109.630901,11.3589529 L109.630901,11.3589529 Z M92.0507481,11.7750706 L88.8521221,11.7750706 L86.1141069,21.6750706 L83.2841832,11.7750706 L79.9519695,11.7750706 L84.3678473,24.6450706 L87.6701374,24.6450706 L92.0507481,11.7750706 Z M61.1000611,22.5083647 C59.7780763,22.5316588 58.7542595,21.9630706 58.558687,20.7994235 L55.4519695,20.7994235 C55.597313,24.0521294 58.8290687,25.0283647 61.0530382,24.9754235 C63.2887634,24.9447176 64.3040305,24.4110706 65.3086107,23.3903647 C66.007542,22.6798941 66.3559389,21.7947176 66.3559389,20.7337765 C66.3559389,18.2211882 64.4686107,17.3900118 62.3344122,16.8881294 L61.6611298,16.7261294 C59.9928855,16.3936588 58.6260153,16.0633059 58.7008244,15.0870706 C58.7745649,14.1087176 59.8208244,13.9033059 60.6490687,13.9033059 C61.4623511,13.8810706 62.1495267,13.9816588 62.6357863,14.9716588 L65.8397557,14.9716588 C65.5202137,12.4813059 63.2502901,11.4044824 60.8435725,11.4330706 C58.4753282,11.4733059 55.658229,12.4241294 55.658229,15.1887176 C55.658229,17.7955412 57.4504427,18.5875412 59.5974656,19.0555412 C59.8849466,19.1169529 60.1745649,19.1857765 60.4481527,19.2471882 C62.0683053,19.5786 63.2652519,19.9057765 63.2652519,20.9698941 C63.2887634,22.0509529 62.4188397,22.4628353 61.1000611,22.5083647 L61.1000611,22.5083647 Z M27.8367023,24.6450706 L31.1817405,24.6450706 L31.1817405,17.0151882 L38.208458,17.0151882 L38.208458,24.6450706 L41.5438779,24.6450706 L41.5438779,7.47730588 L38.208458,7.47730588 L38.208458,14.0462471 L31.1817405,14.0462471 L31.1817405,7.47730588 L27.8367023,7.47730588 L27.8367023,24.6450706 Z M73.3025038,22.4363647 C72.4229618,22.4363647 71.8597557,22.1642471 71.3232672,21.6104824 C70.5847939,20.8661294 70.1861679,19.6527176 70.1861679,18.1989529 C70.1861679,16.8108353 70.6221985,15.5688353 71.3927328,14.7778941 C71.9548702,14.2103647 72.4849466,13.9446 73.3025038,13.9446 C75.0883053,13.9446 76.0394504,15.1103647 76.3141069,17.2237765 C76.3547176,17.5446 76.3771603,18.7114235 76.3771603,18.9358941 C76.1580763,21.2007176 75.1930382,22.4363647 73.3025038,22.4363647 L73.3025038,22.4363647 Z M79.3620458,28.1264824 L79.3620458,11.7750706 L76.4338015,11.7750706 L76.4338015,13.3876588 C75.6461679,12.2864824 74.5443359,11.4330706 72.9145649,11.4330706 C69.2510534,11.4330706 67.1147176,14.0642471 67.1147176,18.2783647 C67.1147176,20.4267176 67.7783817,22.3453059 68.9635725,23.5301294 C69.9040305,24.4968353 70.9855573,24.9754235 72.4560916,24.9754235 C74.1339542,24.9754235 75.3490687,24.2077765 76.2767023,23.0547176 L76.2767023,28.1264824 L79.3620458,28.1264824 Z M94.3057099,21.0313059 C94.2159389,20.0624824 94.7748702,19.3710706 96.2315115,19.1169529 C96.6098321,19.0333059 97.0020458,19.0078941 97.3835725,18.9496588 C97.9649466,18.8564824 98.6435725,18.6955412 99.2345649,18.2847176 L99.2345649,20.2689529 C99.2345649,21.8646 97.6592977,22.4575412 96.5157863,22.4575412 C95.3690687,22.4363647 94.3826565,22.0001294 94.3057099,21.0313059 L94.3057099,21.0313059 Z M102.304947,15.2406 C102.304947,14.2855412 101.980061,13.4787176 101.357008,12.8434235 C100.473191,11.9455412 99.2110534,11.4330706 97.3942595,11.4330706 C95.5742595,11.4330706 92.4878473,11.8322471 92.1287634,15.3263647 L95.2215878,15.3263647 C95.1767023,13.6915412 97.2360916,13.8418941 97.2360916,13.8418941 C97.8890687,13.8418941 98.4950229,14.0462471 98.9278473,14.4051882 C99.1971603,14.6180118 99.3734962,14.9557765 99.3734962,15.4978941 C99.4258626,16.3703647 99.008,16.7811882 96.1267786,17.0638941 C93.8878473,17.2788353 91.2353282,17.8940118 91.2353282,21.1340118 C91.2353282,22.1642471 91.5751756,23.0642471 92.2356336,23.7313059 C93.0467786,24.5349529 94.2447939,24.9754235 95.6287634,24.9754235 C97.4754809,24.9754235 98.5399084,24.5243647 99.4878473,23.4454235 L99.6406718,24.6450706 L102.604183,24.6450706 L102.604183,24.1633059 C102.218382,23.8573059 102.304947,22.5761294 102.304947,22.5761294 L102.304947,15.2406 Z M54.247542,11.7750706 L51.1557863,11.7750706 L51.1557863,19.3255412 C51.1557863,21.4548353 50.3147176,22.5443647 48.5695267,22.5443647 C47.8941069,22.5443647 47.3886107,22.2701294 47.0444885,21.9186 C46.5988397,21.4622471 46.3797557,20.7094235 46.3797557,19.6220118 L46.3797557,11.7750706 L43.3157863,11.7750706 L43.3157863,19.8877765 C43.3157863,21.6687176 43.7144122,22.9467176 44.548,23.7810706 C45.3388397,24.5942471 46.3038779,24.9754235 47.9165496,24.9754235 C49.0322748,24.9754235 50.4055573,24.2077765 51.1985344,23.1966 L51.1985344,24.6450706 L54.247542,24.6450706 L54.247542,11.7750706 Z" id="Fill-6" fill="#FEFEFE"></path>
                        <mask id="mask-4" fill="white">
                            <use xlink:href="#path-3"></use>
                        </mask>
                        <g id="Clip-9"></g>
                        <polygon id="Fill-8" fill="#FEFEFE" mask="url(#mask-4)" points="82.4461069 28.1261647 135.751908 28.1261647 135.751908 27.2198118 82.4461069 27.2198118"></polygon>
                        <polygon id="Fill-10" fill="#FEFEFE" mask="url(#mask-4)" points="86.244916 30.6974118 85.1505649 34.0697647 85.1345344 34.0697647 83.9781985 30.6974118 82.4456794 30.6974118 82.4456794 35.6008235 83.4641527 35.6008235 83.4641527 32.1607059 83.4801832 32.1607059 84.6920916 35.6008235 85.5288855 35.6008235 86.744 32.1268235 86.7578931 32.1268235 86.7578931 35.6008235 87.7774351 35.6008235 87.7774351 30.6974118"></polygon>
                        <path d="M91.0196641,30.5815765 C92.5436336,30.5815765 93.4498931,31.7134588 93.4498931,33.1693412 C93.4498931,34.5839294 92.5436336,35.7179294 91.0196641,35.7179294 C89.4935573,35.7179294 88.586229,34.5839294 88.586229,33.1693412 C88.586229,31.7134588 89.4935573,30.5815765 91.0196641,30.5815765 M91.0196641,34.8115765 C91.996458,34.8115765 92.3640916,33.9878118 92.3640916,33.1693412 C92.3640916,32.3127529 91.996458,31.4879294 91.0196641,31.4879294 C90.0407328,31.4879294 89.6741679,32.3127529 89.6741679,33.1693412 C89.6741679,33.9878118 90.0407328,34.8115765 91.0196641,34.8115765" id="Fill-11" fill="#FEFEFE" mask="url(#mask-4)"></path>
                        <polygon id="Fill-12" fill="#FEFEFE" mask="url(#mask-4)" points="93.7551145 30.6974118 93.7551145 31.6037647 95.2384733 31.6037647 95.2384733 35.6018824 96.3253435 35.6018824 96.3253435 31.6037647 97.809771 31.6037647 97.809771 30.6974118"></polygon>
                        <path d="M100.542977,30.5815765 C102.068015,30.5815765 102.975344,31.7134588 102.975344,33.1693412 C102.975344,34.5839294 102.068015,35.7179294 100.542977,35.7179294 C99.0179389,35.7179294 98.109542,34.5839294 98.109542,33.1693412 C98.109542,31.7134588 99.0179389,30.5815765 100.542977,30.5815765 M100.542977,34.8115765 C101.518702,34.8115765 101.888473,33.9878118 101.888473,33.1693412 C101.888473,32.3127529 101.518702,31.4879294 100.542977,31.4879294 C99.5661832,31.4879294 99.1974809,32.3127529 99.1974809,33.1693412 C99.1974809,33.9878118 99.5661832,34.8115765 100.542977,34.8115765" id="Fill-13" fill="#FEFEFE" mask="url(#mask-4)"></path>
                        <path d="M103.786702,30.6974118 L106.452046,30.6974118 C107.340137,30.6974118 107.901206,31.3083529 107.901206,32.0495294 C107.901206,32.6276471 107.674641,33.0596471 107.117847,33.2788235 L107.117847,33.2936471 C107.652198,33.4365882 107.805023,33.9405882 107.838153,34.4403529 C107.861664,34.7495294 107.846702,35.3329412 108.047618,35.6008235 L106.959679,35.6008235 C106.83571,35.2916471 106.842122,34.8183529 106.78655,34.4265882 C106.709603,33.9109412 106.510824,33.6854118 105.961511,33.6854118 L104.873573,33.6854118 L104.873573,35.6008235 L103.786702,35.6008235 L103.786702,30.6974118 Z M104.873573,32.9156471 L106.064107,32.9156471 C106.556779,32.9156471 106.813267,32.7091765 106.813267,32.2147059 C106.813267,31.7414118 106.556779,31.536 106.064107,31.536 L104.873573,31.536 L104.873573,32.9156471 Z" id="Fill-14" fill="#FEFEFE" mask="url(#mask-4)"></path>
                        <path d="M112.094153,32.3455765 C112.017206,31.8585176 111.54484,31.4879294 111.012626,31.4879294 C110.034763,31.4879294 109.66713,32.3127529 109.66713,33.1693412 C109.66713,33.9878118 110.034763,34.8105176 111.012626,34.8105176 C111.67629,34.8105176 112.052473,34.3636941 112.134763,33.7135765 L113.187435,33.7135765 C113.079496,34.9418118 112.232015,35.7189882 111.012626,35.7189882 C109.487588,35.7189882 108.579191,34.5849882 108.579191,33.1693412 C108.579191,31.7134588 109.487588,30.5805176 111.012626,30.5805176 C112.094153,30.5805176 113.014305,31.2136941 113.144687,32.3455765 L112.094153,32.3455765 Z" id="Fill-15" fill="#FEFEFE" mask="url(#mask-4)"></path>
                        <polygon id="Fill-16" fill="#FEFEFE" mask="url(#mask-4)" points="116.763527 30.6974118 115.612534 32.634 114.456198 30.6974118 113.227191 30.6974118 115.051466 33.6907059 115.051466 35.6018824 116.138336 35.6018824 116.138336 33.7203529 117.977573 30.6974118"></polygon>
                        <path d="M121.490183,32.3455765 C121.415374,31.8585176 120.944076,31.4879294 120.408656,31.4879294 C119.430794,31.4879294 119.065298,32.3127529 119.065298,33.1693412 C119.065298,33.9878118 119.430794,34.8105176 120.408656,34.8105176 C121.075527,34.8105176 121.448504,34.3636941 121.532931,33.7135765 L122.584534,33.7135765 C122.474458,34.9418118 121.629115,35.7189882 120.408656,35.7189882 C118.884687,35.7189882 117.978427,34.5849882 117.978427,33.1693412 C117.978427,31.7134588 118.884687,30.5805176 120.408656,30.5805176 C121.490183,30.5805176 122.412473,31.2136941 122.544992,32.3455765 L121.490183,32.3455765 Z" id="Fill-17" fill="#FEFEFE" mask="url(#mask-4)"></path>
                        <polygon id="Fill-18" fill="#FEFEFE" mask="url(#mask-4)" points="123.378153 30.6974118 123.378153 35.6008235 126.878153 35.6008235 126.878153 34.6923529 124.468229 34.6923529 124.468229 30.6974118"></polygon>
                        <polygon id="Fill-19" fill="#FEFEFE" mask="url(#mask-4)" points="127.491267 30.6974118 127.491267 35.6008235 131.247756 35.6008235 131.247756 34.6923529 128.579206 34.6923529 128.579206 33.4937647 130.978443 33.4937647 130.978443 32.6562353 128.579206 32.6562353 128.579206 31.6037647 131.191115 31.6037647 131.191115 30.6974118"></polygon>
                        <path d="M132.812763,33.9741529 C132.812763,34.6253294 133.324672,34.8794471 133.904977,34.8794471 C134.287573,34.8794471 134.868947,34.7693294 134.868947,34.2685059 C134.868947,33.7316824 134.121924,33.6575647 133.401618,33.4585059 C132.664214,33.2785059 131.924672,32.9714471 131.924672,32.0629765 C131.924672,31.0539176 132.879023,30.5816824 133.773527,30.5816824 C134.806962,30.5816824 135.754901,31.0285059 135.754901,32.1614471 L134.703298,32.1614471 C134.668031,31.5769765 134.252305,31.4192118 133.726504,31.4192118 C133.379176,31.4192118 132.976275,31.5642706 132.976275,31.9750941 C132.976275,32.3530941 133.212458,32.4070941 134.453221,32.7173294 C134.821924,32.7988588 135.922687,33.0392118 135.922687,34.1456824 C135.922687,35.0446235 135.216275,35.7169765 133.863298,35.7169765 C132.768947,35.7169765 131.73658,35.1822706 131.760092,33.9741529 L132.812763,33.9741529 Z" id="Fill-20" fill="#FEFEFE" mask="url(#mask-4)"></path>
                    </g>
                </g>
            </g>
        </g>
    </g>
</svg>