<?xml version="1.0" encoding="UTF-8"?>
<svg width="139px" height="42px" viewBox="0 0 139 42" version="1.1" xmlns="http://www.w3.org/2000/svg" xmlns:xlink="http://www.w3.org/1999/xlink">
    <!-- Generator: Sketch 44.1 (41455) - http://www.bohemiancoding.com/sketch -->
    <title>Logo_RS</title>
    <desc>Created with Sketch.</desc>
    <defs>
        <polygon id="path-1" points="2.77833333 3.27366667 2.77833333 0.553111111 0.0596111111 0.553111111 0.0596111111 3.27366667 2.77833333 3.27366667"></polygon>
    </defs>
    <g id="Page-Flow" stroke="none" stroke-width="1" fill="none" fill-rule="evenodd">
        <g id="Landing_Desktop_Logged_Out" transform="translate(-563.000000, -7.000000)">
            <g id="Nav-Bar">
                <g id="Logo-Lockup" transform="translate(563.000000, 7.000000)">
                    <g id="Logo_RS">
                        <path d="M108.8615,0.906055556 L108.273167,1.65605556 L102.795944,8.63605556 L102.802611,4.21327778 L84.0142778,4.20938889 L83.4826111,4.20938889 L83.4798333,4.73994444 L83.4731667,5.56494444 C82.2615,4.61938889 80.8903889,4.18827778 79.0715,4.15327778 C79.0187222,4.15161111 78.9670556,4.15105556 78.9159444,4.15105556 C77.6081667,4.15105556 76.4615,4.46494444 75.5681667,4.83105556 L75.9765,4.22383333 L68.4909444,4.22938889 L68.2498333,4.22994444 L68.0915,4.41161111 L64.7948333,8.16827778 L62.3148333,4.22383333 L56.5476111,4.21827778 L56.5387222,7.06661111 C55.2276111,5.90605556 52.4298333,4.0355 48.0192778,4.03438889 C41.9881667,4.03494444 38.9553889,7.63105556 37.9148333,9.21216667 C37.8092778,9.08494444 37.6365,8.88494444 37.3937222,8.62827778 C36.9615,8.17494444 36.2459444,7.49216667 35.2859444,6.8055 L35.0359444,6.6255 C33.2615,5.35105556 31.4265,4.03383333 26.8242778,4.03216667 C20.3903889,4.03216667 17.6259444,7.72994444 17.2331667,8.30827778 C17.1553889,8.19883333 17.0753889,8.09272222 16.9926111,7.98716667 C16.7131667,7.62438889 16.2387222,7.06327778 15.5926111,6.48272222 C14.4742778,5.47383333 12.6631667,4.27161111 10.2659444,4.21772222 L0.222055556,4.22994444 L0.199277778,26.9427222 L0.199277778,27.2699444 L0.490944444,27.4182778 L8.48705556,31.4905 L8.60094444,31.5482778 L8.72872222,31.5482778 L11.0692778,31.5488333 L11.0448333,39.3688333 L11.0437222,39.6143889 L11.2292778,39.7749444 L13.0815,41.3760556 L13.2320556,41.5060556 L13.4303889,41.5060556 L26.2326111,41.5055 L26.2281667,41.1188333 L26.4998333,41.5060556 L45.5631667,41.4993889 L45.5631667,41.1188333 L45.8726111,41.4988333 L51.2070556,41.4966111 L52.1109444,41.4960556 L52.0126111,41.3177222 C53.1387222,41.7299444 54.5453889,41.9466111 55.7042778,41.9466111 C56.7015,41.9466111 59.9253889,41.8221667 62.1626111,40.4621667 L62.1665,41.5138333 L70.8226111,41.5088333 L71.0826111,41.5088333 L71.2420556,41.3055 L72.8570556,39.2427222 L73.2431667,39.2427222 L75.0576111,41.5138333 L83.7109444,41.4988333 C84.6209444,41.4988333 85.4315,41.1899444 85.9515,40.8577222 L85.9442778,41.4982778 L86.4859444,41.4982778 L92.2981667,41.4960556 L92.8326111,41.4960556 L92.8320556,41.1110556 L93.1909444,41.4943889 L108.154278,41.5055 L108.154278,41.1110556 L108.457611,41.5027222 L118.558722,41.4943889 L118.567611,41.1110556 L118.838722,41.4977222 L123.283167,41.4943889 L125.383722,39.1932778 L121.097611,33.8027222 L122.927056,31.5588333 L127.732056,31.5593889 L136.957056,26.5699444 L131.827056,19.5293889 C131.852056,19.5116111 131.885389,19.4866111 131.929833,19.4549444 C132.078722,19.3416111 132.228722,19.2221667 132.375944,19.0943889 C132.707056,18.8088333 133.207056,18.3349444 133.7115,17.7010556 C134.985389,16.0932778 135.658167,14.2482778 135.658167,12.3643889 C135.658167,9.8855 134.604833,7.78883333 132.527056,6.1355 L132.405389,6.04161111 C130.403167,4.42938889 127.913167,4.21772222 125.969833,4.21438889 L125.477056,4.21327778 L124.350944,4.21438889 L118.633722,4.21327778 L118.388167,4.21327778 L118.227611,4.39994444 L112.610389,10.9638333 L109.193722,1.79827778 L108.8615,0.906055556 Z M108.692056,1.98494444 L112.262056,11.5632778 L112.8015,11.5593889 L118.633722,4.74661111 L124.350944,4.74827778 L125.477056,4.74716667 L125.968722,4.74883333 C128.193167,4.75216667 130.359833,5.0805 132.078722,6.46494444 L132.193722,6.55272222 C133.764833,7.80272222 135.124278,9.60494444 135.124278,12.3643889 C135.124278,14.5205 134.213167,16.2088333 133.294278,17.3682778 C132.833722,17.9471667 132.372611,18.3921667 132.027611,18.6882778 C131.855389,18.8371667 131.713167,18.9493889 131.614278,19.0243889 C131.513167,19.0977222 131.464833,19.1321667 131.464833,19.1321667 L131.053167,19.3749444 L136.175944,26.4066111 L135.483722,26.8110556 C134.0815,27.5699444 128.607611,30.4077222 127.582056,31.0255 L122.673167,31.0243889 L120.410944,33.7977222 L124.683167,39.1688333 L123.033722,40.9688333 L119.057056,40.9688333 L118.155944,39.7738333 L118.160389,40.9688333 L108.639278,40.9688333 L107.719833,39.7682778 L107.722056,40.9688333 L93.4359444,40.9688333 L92.2931667,39.7255 L92.2970556,40.9621667 L86.4842778,40.9643889 L86.5003889,39.5221667 C86.3031667,39.8188333 86.0303889,40.1016111 86.0303889,40.1016111 C85.8131667,40.3860556 84.8781667,40.9655 83.7109444,40.9655 C83.6998333,40.9655 75.3142778,40.9805 75.3142778,40.9805 L73.5003889,38.7077222 L72.5970556,38.7088333 L70.8226111,40.9755 L62.6698333,40.9688333 L62.6748333,39.4477222 L62.3598333,39.6838333 C60.4998333,41.1099444 57.4437222,41.4127222 55.7120556,41.4127222 L55.7042778,41.4127222 C53.9620556,41.4127222 51.6309444,40.8966111 50.7959444,40.0066111 L50.5342778,39.7449444 L51.2070556,40.9632778 L46.1337222,40.9643889 L45.0098333,39.7349444 L45.0231667,40.9666111 L26.8048333,40.9716111 L25.7570556,39.7921667 L25.7537222,40.9716111 L13.4303889,40.9721667 L11.5781667,39.3705 L11.6048333,31.0149444 L8.72872222,31.0149444 L0.733722222,26.9432778 L0.7565,4.73661111 C0.937055556,4.7355 1.18594444,4.73494444 1.49983333,4.73494444 C2.14205556,4.73494444 3.0565,4.73716667 4.21483333,4.73716667 L4.43094444,4.73716667 C5.61594444,4.73716667 6.66372222,4.71716667 7.79538889,4.71716667 C8.37038889,4.71716667 8.96705556,4.72272222 9.61372222,4.73772222 L10.2281667,4.73827778 C12.3348333,4.7855 14.0698333,5.82827778 15.2359444,6.8805 C15.8203889,7.40494444 16.2720556,7.92772222 16.5737222,8.31938889 C16.7276111,8.51327778 16.8415,8.67661111 16.9170556,8.78827778 C16.9953889,8.90105556 17.0292778,8.9605 17.0292778,8.9605 L17.2298333,9.27216667 C17.2298333,9.27216667 17.4526111,8.94327778 17.6559444,8.63605556 C18.4926111,7.36772222 21.3903889,4.56605556 26.8215,4.56605556 L26.8242778,4.56605556 C31.4731667,4.56772222 33.1870556,5.96272222 34.9753889,7.23883333 C35.8692778,7.87938889 36.5503889,8.51827778 37.0059444,8.9955 C37.2331667,9.23605556 37.4048333,9.43327778 37.5181667,9.57105556 C37.6326111,9.70994444 37.6870556,9.78272222 37.6870556,9.78272222 L37.9698333,10.1693889 C37.9698333,10.1693889 40.6998333,4.56883333 48.0192778,4.56772222 C52.3503889,4.56938889 55.2376111,6.47438889 56.6181667,7.87605556 L57.0676111,8.37661111 L57.0815,4.7655 L62.0098333,4.74216667 L64.7231667,9.05938889 L68.4931667,4.76327778 L74.9881667,4.73994444 L73.8976111,6.37994444 C73.8976111,6.37994444 75.9898333,4.68494444 78.9159444,4.68494444 C78.9637222,4.68494444 79.0126111,4.68605556 79.0609444,4.68605556 C80.9959444,4.72438889 82.4687222,5.2055 83.8837222,6.64994444 L83.9981667,6.77438889 L84.0142778,4.74383333 L102.265389,4.74661111 L102.258722,10.1893889 L108.692056,1.98494444 L108.692056,1.98494444 Z" id="Fill-4" fill="#FFFFFF"></path>
                        <path d="M18.6235556,30.6952778 L18.5035556,30.6952778 L15.6702222,30.6952778 L15.5491111,30.6952778 L15.5491111,30.5752778 L15.5491111,29.2736111 L15.5491111,29.1530556 L15.6702222,29.1530556 L18.5074444,29.1519444 L18.628,29.1519444 L18.628,29.2725 L18.6252222,30.5752778 L18.6235556,30.6952778 Z M15.6702222,34.6480556 L15.5491111,34.6480556 L15.5491111,34.5269444 L15.5491111,33.2263889 L15.5491111,33.1063889 L15.6702222,33.1063889 L18.378,33.1063889 L18.498,33.1063889 L18.498,33.2263889 L18.5035556,34.5241667 L18.5035556,34.6441667 L18.383,34.6441667 L15.6702222,34.6480556 Z M15.6702222,38.6875 L15.5491111,38.6875 L15.5491111,38.5658333 L15.5491111,37.2702778 L15.5491111,37.1502778 L15.6702222,37.1491667 L18.5191111,37.1419444 L18.6413333,37.1419444 L18.6402222,37.2641667 L18.6307778,38.5608333 L18.6296667,38.6819444 L18.5102222,38.6819444 L15.6702222,38.6875 Z M13.0713333,38.6930556 L13.0685556,29.1530556 L14.7302222,29.1530556 L14.7302222,38.6902778 L13.0713333,38.6930556 Z M23.4602222,38.6436111 L23.3402222,38.6436111 L21.9613333,38.6436111 L21.8413333,38.6436111 L21.8413333,38.5247222 L21.8396667,29.4813889 L21.8402222,29.2297222 L21.8402222,29.1086111 L21.9602222,29.1086111 L23.3402222,29.1102778 L23.4602222,29.1102778 L23.4602222,29.2308333 L23.4602222,38.5247222 L23.4602222,38.6436111 Z M28.1413333,38.6447222 L28.1046667,38.5908333 C28.1041111,38.5908333 25.7724444,35.1352778 24.3002222,32.9602778 L24.2796667,32.9308333 L24.2796667,32.8930556 L24.2796667,30.5191667 L24.2796667,30.1258333 L24.5007778,30.4519444 L24.8835556,31.0191667 C25.9202222,32.5569444 27.3257778,34.6402778 27.9635556,35.5813889 C27.963,33.8480556 27.9552222,29.2169444 27.9552222,29.2169444 L27.9541111,29.0941667 L28.0768889,29.0958333 L29.4502222,29.1025 L29.5696667,29.1025 L29.5696667,29.2230556 L29.5852222,38.5175 L29.5863333,38.6386111 L29.4663333,38.6386111 L28.2057778,38.6436111 L28.1413333,38.6447222 Z M35.3435556,30.6669444 L35.2235556,30.6669444 L35.2235556,30.5458333 L35.2235556,29.2408333 L35.2235556,29.1191667 L35.3435556,29.1191667 L38.2007778,29.1158333 L38.3213333,29.1158333 L38.3213333,29.2363889 L38.3246667,30.5402778 L38.3257778,30.6602778 L38.2046667,30.6602778 C38.2046667,30.6602778 36.5213333,30.6652778 35.3435556,30.6669444 L35.3435556,30.6669444 Z M35.2235556,34.6219444 L35.2235556,34.5008333 L35.2235556,33.1986111 L35.2235556,33.0786111 L35.3435556,33.0786111 L38.0713333,33.0747222 L38.1902222,33.0747222 L38.1907778,33.1936111 L38.2046667,34.4963889 L38.2063333,34.6186111 L38.0846667,34.6186111 C38.0846667,34.6186111 36.4818889,34.6186111 35.3435556,34.6202778 L35.2235556,34.6219444 Z M35.3435556,38.6558333 L35.2235556,38.6558333 L35.2235556,38.5347222 L35.2235556,37.2386111 L35.2235556,37.1186111 L35.3435556,37.1186111 L38.2085556,37.1125 L38.3274444,37.1125 L38.3274444,37.2336111 L38.328,38.5313889 L38.328,38.6508333 L38.2091111,38.6508333 L35.3435556,38.6558333 Z M32.7824444,38.6597222 L32.7657778,29.1225 L34.4046667,29.1202778 L34.4046667,38.6580556 L32.7824444,38.6597222 Z M41.6102222,38.6641667 L42.9885556,38.6569444 L43.1085556,38.6563889 L43.1085556,38.5363889 C43.1085556,38.4963889 43.1052222,36.3330556 43.1035556,34.2658333 L46.3635556,38.6097222 L46.4007778,38.6569444 L46.4607778,38.6569444 L48.1974444,38.6602778 L48.4391111,38.6602778 L48.293,38.4663889 C48.293,38.4663889 46.4613333,36.0452778 45.8707778,35.2630556 C47.4557778,34.8730556 48.1868889,33.4925 48.1935556,32.3241667 C48.1818889,31.0763889 47.4924444,29.9897222 46.3941111,29.4863889 C46.0296667,29.3158333 45.4368889,29.1202778 44.0813333,29.1191667 L43.9318889,29.1191667 L43.9318889,29.2408333 L43.9318889,30.5419444 L43.9318889,30.6619444 L44.0524444,30.6619444 L44.2618889,30.6619444 C44.9118889,30.6647222 45.328,30.7075 45.798,30.9502778 C46.2385556,31.1697222 46.5591111,31.7380556 46.5685556,32.3041667 C46.5596667,32.8525 46.2457778,33.5747222 45.3907778,33.8180556 C45.0741111,33.9102778 44.7641111,33.9319444 43.8163333,33.9319444 L43.6041111,33.9319444 L43.1035556,33.9247222 C43.1035556,32.2663889 43.1052222,30.7491667 43.1124444,30.5458333 L43.1124444,29.2419444 L43.1124444,29.1219444 L42.9918889,29.1219444 L41.598,29.1236111 L41.4724444,29.1236111 L41.4774444,29.2491667 L41.4874444,29.4947222 L41.4874444,38.5436111 L41.4874444,38.6641667 L41.6102222,38.6641667 Z M58.5868889,32.2452778 L58.5135556,32.2452778 L58.4785556,32.1808333 L58.4085556,32.0497222 C58.0485556,31.4486111 57.2468889,30.7447222 56.0785556,30.5797222 L55.9741111,30.5658333 L55.9741111,30.4608333 L55.9741111,29.1669444 L55.9741111,29.0341667 L56.1068889,29.0475 C58.3296667,29.2608333 59.7346667,30.8069444 60.0991111,31.7319444 L60.2285556,32.0725 L60.2902222,32.2369444 L60.1174444,32.2375 L58.5868889,32.2452778 Z M55.1574444,38.8280556 L55.0207778,38.8125 C52.4991111,38.5152778 50.5218889,36.3736111 50.5218889,33.9375 C50.5191111,32.6708333 51.048,31.4108333 51.9735556,30.4808333 C52.7791111,29.6797222 53.833,29.1886111 55.023,29.0602778 L55.1574444,29.0458333 L55.1574444,29.1797222 L55.1574444,30.4813889 L55.1574444,30.5847222 L55.0546667,30.6013889 C54.3113333,30.7152778 53.6552222,31.0469444 53.1535556,31.5602778 C52.5118889,32.1997222 52.1452222,33.0675 52.1496667,33.9408333 C52.1474444,34.8008333 52.5046667,35.6569444 53.133,36.2919444 C53.6541111,36.8013889 54.3191111,37.1336111 55.0546667,37.2469444 L55.1574444,37.2636111 L55.1574444,37.3669444 L55.1574444,38.6919444 L55.1574444,38.8280556 Z M55.9741111,38.8330556 L55.9741111,38.6997222 L55.9741111,37.3852778 L55.9741111,37.2791667 L56.0791111,37.2647222 C57.3268889,37.1047222 58.2313333,36.2636111 58.6224444,35.4458333 C57.6452222,35.4486111 54.5241111,35.4530556 54.5241111,35.4530556 L54.4013333,35.4530556 L54.4013333,35.3330556 L54.4013333,34.0280556 L54.4013333,33.9091667 L54.5241111,33.9080556 L60.5252222,33.8952778 L60.6541111,33.8952778 L60.6457778,34.0252778 L60.6263333,34.3025 C60.4185556,36.9763889 58.1952222,38.5997222 56.1068889,38.8186111 L55.9741111,38.8330556 Z M67.3141111,34.4458333 L67.2085556,34.2363889 L66.4618889,32.7752778 L66.4341111,32.7208333 L66.4646667,32.6647222 L68.2891111,29.1541667 L68.3235556,29.0880556 L68.3957778,29.0880556 L69.9368889,29.0858333 L70.1368889,29.0841667 L70.0435556,29.2636111 L67.4224444,34.2386111 L67.3141111,34.4458333 Z M65.1852222,38.6375 L65.1852222,38.5175 C65.1863333,37.5291667 65.188,35.6802778 65.1841111,35.4186111 C64.9691111,35.0086111 62.1713333,29.6413889 62.1713333,29.6413889 L61.973,29.2752778 L61.8791111,29.0975 L62.0802222,29.0975 L63.6224444,29.0952778 L63.6952222,29.0952778 L63.7307778,29.1613889 L66.0913333,33.7925 L66.8424444,35.2436111 L66.8696667,35.2980556 L66.8424444,35.3519444 C66.8274444,35.3797222 66.8168889,35.4025 66.8085556,35.4175 C66.8063333,35.6725 66.808,37.5191667 66.8085556,38.5075 L66.8085556,38.6263889 L66.6896667,38.6263889 L65.3057778,38.6369444 L65.1852222,38.6375 Z M81.2057778,38.6652778 L81.0841111,38.6652778 L81.0841111,38.5441667 L81.0841111,37.2502778 L81.0841111,37.1297222 L81.2218889,37.1291667 C81.9674444,37.1241667 83.0952222,37.1180556 83.9913333,36.4847222 C84.5491111,36.0197222 85.2218889,35.1841667 85.2218889,33.8786111 C85.2146667,32.8575 84.7163333,31.8863889 83.8907778,31.2786111 C83.2002222,30.8358333 82.4702222,30.6702778 81.2057778,30.6702778 L81.0841111,30.6702778 L81.0841111,30.5486111 L81.0841111,29.2430556 L81.0841111,29.1236111 L81.2057778,29.1236111 L81.6068889,29.1236111 C82.7913333,29.1236111 83.9052222,29.4086111 84.663,29.9041667 C86.2652222,30.9019444 86.8391111,32.6263889 86.843,33.9069444 C86.8502222,34.1636111 86.8446667,36.4919444 84.6918889,37.8775 C83.9152222,38.3752778 82.8013333,38.6619444 81.6285556,38.6652778 L81.2057778,38.6652778 Z M78.8074444,38.6691667 L78.6863333,38.6691667 L78.6863333,38.5491667 L78.6724444,29.5097222 L78.6696667,29.2480556 L78.6674444,29.1252778 L78.7902222,29.1252778 L80.1463333,29.1236111 L80.2685556,29.1236111 L80.2685556,29.2430556 L80.2685556,38.5463889 L80.2685556,38.6680556 L80.1463333,38.6680556 L78.8074444,38.6691667 Z M91.0324444,38.6625 L91.1518889,38.6608333 L91.1518889,38.5408333 C91.1518889,38.5408333 91.1496667,36.3708333 91.1474444,34.2897222 L94.3974444,38.6125 L94.433,38.6625 L94.493,38.6625 L96.2302222,38.6625 L96.4746667,38.6625 L96.3285556,38.4680556 C96.3285556,38.4680556 94.4991111,36.0502778 93.9085556,35.2691667 C95.5018889,34.8736111 96.2296667,33.4925 96.2407778,32.3286111 C96.2291111,31.0913889 95.538,30.0063889 94.4368889,29.4986111 C93.9013333,29.2408333 93.1852222,29.1225 92.1146667,29.1186111 L91.9735556,29.1186111 L91.9735556,29.2408333 L91.9735556,30.5480556 L91.9735556,30.6686111 L92.093,30.6686111 L92.2968889,30.6686111 L92.3918889,30.6686111 C93.0652222,30.6686111 93.4174444,30.7391667 93.8474444,30.9597222 C94.2741111,31.1736111 94.5891111,31.7430556 94.5968889,32.3163889 C94.6018889,32.8547222 94.2941111,33.5691667 93.4263333,33.8197222 C93.088,33.9208333 92.7602222,33.9341667 91.6357778,33.9358333 L91.1474444,33.9386111 C91.1463333,32.2758333 91.1474444,30.7547222 91.1552222,30.5486111 L91.1552222,29.2436111 L91.1552222,29.1225 L91.0335556,29.1225 L89.6302222,29.1258333 L89.5091111,29.1275 L89.5091111,29.2491667 L89.5135556,29.4997222 L89.5224444,38.5469444 L89.5241111,38.6691667 L89.6435556,38.6691667 L91.0324444,38.6625 Z M101.104111,38.5325 L101.091333,29.2352778 L101.091333,29.1125 L100.970778,29.1141667 L99.5807778,29.1219444 L99.4635556,29.1219444 L99.4635556,29.2419444 L99.4635556,29.4902778 L99.4735556,38.5325 L99.4735556,38.6547222 L99.5952222,38.6547222 L100.983,38.6547222 L101.104111,38.6547222 L101.104111,38.5325 Z M112.123,38.6436111 L110.680222,38.6413889 L106.831333,32.9547222 L106.831333,30.1447222 C106.831333,30.1447222 109.785778,34.5258333 110.503,35.5886111 C110.500778,33.8497222 110.492444,29.1091667 110.492444,29.1091667 L112.111333,29.1025 L112.123,38.6436111 Z M104.385778,38.6547222 L104.373556,29.1141667 L106.013,29.1086111 L106.013,38.6536111 L104.385778,38.6547222 Z M120.439111,38.6452778 L117.568,34.9386111 L117.568,32.7736111 L120.499667,29.0930556 L122.588556,29.1008333 L118.757444,33.8413889 L122.489667,38.6452778 L120.439111,38.6452778 Z M116.769667,38.6597222 L115.148556,38.6530556 L115.144111,29.0997222 L116.765222,29.0930556 L116.769667,38.6597222 Z" id="Fill-6" fill="#D71921"></path>
                        <path d="M116.8845,28.9946667 L115.027833,29.0024444 L115.027833,38.7774444 L116.888944,38.7852222 L116.8845,28.9946667 Z M122.802278,28.9968889 L120.393389,29.0007778 L117.457278,32.6896667 L117.457278,34.9402222 L120.4295,38.7818889 L122.782833,38.778 C122.782833,38.778 119.605611,34.6913333 118.918944,33.8024444 C119.567833,32.9935556 122.802278,28.9968889 122.802278,28.9968889 L122.802278,28.9968889 Z M116.643389,29.2363333 L116.643389,29.2768889 C116.643389,29.5107778 116.643389,30.698 116.647833,31.8424444 L116.647833,38.5418889 L115.267833,38.5363333 L115.267833,38.5102222 L115.260056,29.2418889 L116.643389,29.2363333 L116.643389,29.2363333 Z M122.288389,29.2385556 C122.288389,29.2385556 118.842833,33.5057778 118.613944,33.7974444 C118.626167,33.818 122.262278,38.5124444 122.285056,38.5402222 L120.548944,38.5418889 L117.698389,34.8813333 C117.691722,34.8852222 117.698389,32.7746667 117.698389,32.7746667 C118.6345,31.593 120.505611,29.2407778 120.505611,29.2407778 L122.288389,29.2385556 L122.288389,29.2385556 Z" id="Fill-8" fill="#FFFFFF"></path>
                        <path d="M106.116278,28.9971111 L104.249056,28.9976667 L104.265167,38.5348889 L104.265167,38.776 L104.506278,38.7754444 L105.890722,38.7732222 L106.131278,38.7732222 L106.131278,38.5326667 L106.131278,37.4526667 C106.127944,35.6821111 106.120722,32.2643333 106.121833,31.3348889 L106.116278,28.9971111 Z M112.231833,28.9998889 L110.370722,28.9932222 C110.370722,28.9932222 110.366278,33.2348889 110.3685,35.1893333 C109.569056,34.0015556 106.709611,29.7687778 106.709611,29.7687778 L106.709611,33.011 L110.617389,38.7787778 L112.2435,38.7815556 L112.231833,28.9998889 Z M105.890722,29.2298889 C105.890722,29.2298889 105.885167,35.6832222 105.890722,37.4526667 L105.890722,38.5326667 L104.506278,38.5348889 L104.495167,29.2354444 L105.890722,29.2298889 L105.890722,29.2298889 Z M111.989611,29.2421111 L112.001833,38.5398889 L110.744056,38.5387778 C110.744056,38.5387778 108.421833,35.111 106.950722,32.936 L106.950722,30.5554444 C108.127944,32.3004444 110.106278,35.236 110.609611,35.981 C110.609611,34.7232222 110.614056,29.2471111 110.614056,29.2471111 L111.989611,29.2421111 L111.989611,29.2421111 Z" id="Fill-10" fill="#FFFFFF"></path>
                        <path d="M101.213889,28.9973889 L99.3422222,29.0018333 L99.3422222,38.7757222 L101.213889,38.7757222 L101.213889,28.9973889 Z M100.971667,29.2351667 L100.982778,38.5346111 L99.5938889,38.5346111 L99.5811111,29.4901667 L99.5811111,29.2418333 L100.971667,29.2351667 Z" id="Fill-12" fill="#FFFFFF"></path>
                        <path d="M91.8728333,28.9963333 L91.8717222,30.7885556 L92.0928333,30.7885556 L92.2972778,30.7885556 L92.3950556,30.788 C93.0433889,30.788 93.3817222,30.8557778 93.7889444,31.0674444 C94.1756111,31.2613333 94.4717222,31.7963333 94.4806111,32.3146667 C94.4789444,32.8124444 94.1972778,33.4713333 93.3945,33.7035556 C93.0650556,33.8002222 92.7433889,33.8141111 91.6361667,33.8157778 L91.2756111,33.8168889 L91.2756111,29.0018889 L89.4050556,28.9968889 L89.4017222,38.7891111 L91.2733889,38.7807778 C91.2733889,38.7807778 91.2772778,36.6246667 91.2711667,34.6591111 L94.3739444,38.7807778 L96.7172778,38.7807778 C96.7172778,38.7807778 94.7872778,36.233 94.1122778,35.3385556 C95.6467222,34.8746667 96.3511667,33.4963333 96.3511667,32.3335556 C96.3472778,31.0424444 95.6317222,29.9191111 94.4883889,29.3885556 C93.9372778,29.123 93.2022778,29.0024444 92.1150556,28.9968889 L91.8728333,28.9963333 Z M91.0356111,29.2435556 L91.0322778,38.5402222 L89.6433889,38.5468889 L89.6400556,29.2468889 L91.0356111,29.2435556 L91.0356111,29.2435556 Z M92.1139444,29.2385556 C93.1611667,29.2435556 93.8617222,29.3552222 94.3850556,29.6068889 C95.4406111,30.0952222 96.1095,31.1385556 96.1189444,32.3291111 C96.1189444,32.3291111 96.1189444,32.3335556 96.1095,32.3335556 C96.1095,33.5863333 95.2706111,34.8913333 93.6983889,35.1907778 C94.1061667,35.7341111 96.2306111,38.5402222 96.2306111,38.5402222 L94.4933889,38.5402222 L91.1250556,34.0591111 L91.6361667,34.0552222 C92.7483889,34.0546667 93.0978333,34.043 93.4600556,33.9357778 C94.3839444,33.6696667 94.7200556,32.9002222 94.7183889,32.3163333 C94.7145,32.3146667 94.7145,32.3146667 94.7200556,32.3091111 C94.7100556,31.7024444 94.3722778,31.0885556 93.9006111,30.853 C93.4639444,30.628 93.0939444,30.548 92.3950556,30.548 L92.2972778,30.548 L92.0928333,30.548 L92.0928333,29.2385556 L92.1139444,29.2385556 L92.1139444,29.2385556 Z" id="Fill-14" fill="#FFFFFF"></path>
                        <path d="M81.607,29.0028333 L81.2042222,29.0028333 L80.9636667,29.0028333 L80.9636667,30.7900556 L81.2042222,30.7900556 C82.4447778,30.7900556 83.157,30.9522778 83.8314444,31.3850556 C84.6158889,31.9606111 85.0953333,32.8972778 85.102,33.8800556 C85.102,35.1389444 84.4514444,35.9445 83.9064444,36.3989444 C83.0547778,37.0000556 81.9503333,37.0045 81.2208889,37.0078333 L80.9608889,37.0056111 L80.9636667,38.7867222 L81.6286667,38.7850556 C82.8236667,38.7833889 83.9636667,38.4889444 84.7553333,37.9778333 C86.9642222,36.5595 86.9703333,34.1689444 86.9642222,33.9011667 C86.962,32.5939444 86.372,30.8261667 84.7236667,29.8011667 C83.9514444,29.2950556 82.8131111,29.0028333 81.607,29.0028333 L81.607,29.0028333 Z M80.387,29.0028333 L78.7903333,29.0045 L78.5603333,29.0056111 L78.5681111,38.7911667 L80.387,38.7867222 L80.387,29.0028333 Z M80.1458889,29.2433889 L80.1458889,38.5467222 L78.7947778,38.5506111 L78.7997778,29.2467222 L80.1458889,29.2433889 L80.1458889,29.2433889 Z M81.607,29.2433889 C82.762,29.2433889 83.862,29.5245 84.5975556,30.0056111 C86.1564444,30.9761667 86.7192222,32.6556111 86.7214444,33.9067222 C86.7331111,34.3322778 86.6281111,36.4861667 84.6253333,37.7756111 C83.8631111,38.2645 82.7714444,38.5417222 81.6286667,38.5439444 L81.2042222,38.5439444 L81.2042222,37.2489444 L81.2231111,37.2489444 C81.9853333,37.2450556 83.1358889,37.2372778 84.0603333,36.5839444 C84.6497778,36.0950556 85.3431111,35.2250556 85.3431111,33.8783889 C85.3353333,32.8133889 84.8108889,31.8045 83.9608889,31.1811667 C83.2492222,30.7233889 82.5031111,30.5483889 81.2042222,30.5483889 L81.2042222,29.2433889 L81.607,29.2433889 L81.607,29.2433889 Z" id="Fill-16" fill="#FFFFFF"></path>
                        <path d="M63.7687222,28.9971111 L63.6220556,28.9971111 L62.0803889,28.9976667 L61.6776111,28.9998889 L61.8676111,29.3543333 L62.0653889,29.7226667 C62.0648333,29.7226667 64.7631667,34.8926667 65.0637222,35.4698889 C65.0659444,35.7893333 65.0642778,38.7837778 65.0642778,38.7837778 L66.9281667,38.7832222 C66.9281667,38.7832222 66.9270556,35.7893333 66.9287222,35.4698889 C66.9315,35.4671111 66.9326111,35.4654444 66.9331667,35.4637778 L66.9498333,35.4321111 L67.0070556,35.3232222 L66.9498333,35.2098889 L66.2015,33.746 C65.8270556,33.0315556 63.8376111,29.1276667 63.8376111,29.1276667 L63.7687222,28.9971111 Z M70.3353889,28.9871111 L68.2492778,28.9893333 L66.2987222,32.7432222 L67.3115,34.7304444 L70.3353889,28.9871111 Z M63.6220556,29.2387778 L66.7342778,35.321 C66.7087222,35.3715556 66.6931667,35.4021111 66.6892778,35.4093333 C66.6848333,35.5271111 66.6892778,38.5293333 66.6892778,38.5293333 L65.3053889,38.5387778 C65.3053889,38.5387778 65.3087222,35.5287778 65.3048333,35.4093333 C65.2476111,35.2993333 62.0803889,29.241 62.0803889,29.241 L63.6220556,29.2387778 L63.6220556,29.2387778 Z M69.9365,29.2298889 C69.9365,29.2298889 68.2609444,32.4087778 67.3148333,34.2048889 L66.5703889,32.7432222 C67.3031667,31.3348889 68.3959444,29.2304444 68.3959444,29.2304444 L69.9365,29.2298889 L69.9365,29.2298889 Z" id="Fill-18" fill="#FFFFFF"></path>
                        <path d="M60.7839444,33.7741667 L60.5250556,33.7752778 L54.5228333,33.7863889 L54.2822778,33.7875 L54.2822778,34.0275 L54.2822778,35.3330556 L54.2822778,35.5747222 L54.5239444,35.5736111 C54.5239444,35.5736111 57.2783889,35.5686111 58.4222778,35.5658333 C58.0095,36.2952778 57.1789444,37.0036111 56.0645,37.1463889 L55.8545,37.1730556 L55.8545,37.3847222 L55.8545,38.6997222 L55.8545,38.9680556 L56.1211667,38.9408333 C58.2595,38.7141667 60.5345,37.0508333 60.7467222,34.3113889 L60.7672778,34.0341667 L60.7839444,33.7741667 Z M55.2778333,28.9119444 L55.0095,28.9408333 C53.7933889,29.0719444 52.7139444,29.5747222 51.8889444,30.3936111 C50.9395,31.3486111 50.3983889,32.6391667 50.4028333,33.9375 C50.4028333,36.4330556 52.4250556,38.6263889 55.0072778,38.9313889 L55.2778333,38.9636111 L55.2778333,38.6919444 L55.2778333,37.3669444 L55.2778333,37.1602778 L55.0728333,37.1291667 C54.3606111,37.0175 53.7183889,36.6980556 53.2167222,36.2041667 C52.6122778,35.5963889 52.2672778,34.7697222 52.2689444,33.9441667 C52.2661667,33.0980556 52.6189444,32.2625 53.2378333,31.6469444 C53.7228333,31.1513889 54.3556111,30.8319444 55.0728333,30.7202778 L55.2778333,30.6891667 L55.2778333,28.9119444 Z M55.8545,28.9019444 L55.8545,30.6702778 L56.0611667,30.6980556 C57.1883889,30.8575 57.9761667,31.5613889 58.3078333,32.1175 L58.4417222,32.3680556 L60.4278333,32.3625 C60.3872778,32.1175 60.2117222,31.6891667 60.2117222,31.6891667 C59.8356111,30.7347222 58.3933889,29.1452778 56.1183889,28.9275 L55.8545,28.9019444 Z M60.5256111,34.0175 L60.5056111,34.2925 C60.3067222,36.8652778 58.1950556,38.4775 56.0956111,38.6997222 L56.0956111,37.3847222 C57.4172778,37.2152778 58.4222778,36.2963889 58.8067222,35.3241667 C58.1439444,35.3269444 54.5239444,35.3330556 54.5239444,35.3330556 L54.5239444,34.0275 L60.5256111,34.0175 L60.5256111,34.0175 Z M55.0356111,29.1797222 L55.0356111,30.4813889 C54.2895,30.5986111 53.6006111,30.9325 53.0683889,31.4758333 C52.4028333,32.1375 52.0245,33.0352778 52.0295,33.9425 C52.0256111,34.8363889 52.3961667,35.7186111 53.0467222,36.3775 C53.5906111,36.9097222 54.2800556,37.2486111 55.0356111,37.3669444 L55.0356111,38.6919444 C52.6011667,38.4052778 50.6433889,36.3469444 50.6433889,33.9375 C50.6395,32.7058333 51.1556111,31.4736111 52.0589444,30.5658333 C52.8572778,29.7713889 53.8983889,29.3041667 55.0356111,29.1797222 L55.0356111,29.1797222 Z M56.0956111,29.1680556 C58.3306111,29.3813889 59.6695,30.9713889 59.9867222,31.7747222 C59.9867222,31.7747222 60.0606111,31.9463889 60.0922778,32.1158333 L58.5861667,32.1241667 L58.5150556,31.9925 C58.1056111,31.3108333 57.2378333,30.6213889 56.0956111,30.4591667 L56.0956111,29.1680556 L56.0956111,29.1680556 Z" id="Fill-20" fill="#FFFFFF"></path>
                        <path d="M44.1351667,28.9992778 L44.1351667,28.9992778 L44.1073889,28.9992778 L43.8657222,28.9992778 L43.8657222,29.2409444 L43.8657222,30.5431667 L43.8657222,30.7826111 L44.1073889,30.7826111 L44.3162778,30.7826111 C44.9612778,30.7831667 45.3485,30.8265 45.7957222,31.0565 C46.2001667,31.2576111 46.4940556,31.7820556 46.4951667,32.3026111 C46.4940556,32.8326111 46.2029444,33.4776111 45.4123889,33.7015 C45.1090556,33.7881667 44.8123889,33.8103889 43.8996111,33.8103889 L43.6585,33.8103889 L43.2779444,33.8070556 C43.2762778,32.1953889 43.2751667,30.7476111 43.2779444,30.5487222 L43.2885,29.2420556 L43.2885,29.0015 L43.0468333,29.0015 L41.6523889,29.0026111 L41.4201667,29.0026111 L41.4212778,38.7876111 L43.2801667,38.7920556 L43.2779444,34.6259444 L46.4035,38.7853889 L48.7373889,38.7815 C48.7373889,38.7815 46.8073889,36.2298333 46.1279444,35.3320556 C47.6540556,34.8726111 48.3612778,33.4965 48.3690556,32.3320556 C48.3557222,31.0270556 47.6401667,29.8992778 46.4990556,29.3759444 C46.1229444,29.2020556 45.5135,28.9998333 44.1351667,28.9992778 L44.1351667,28.9992778 Z M43.0412778,38.5365 L41.6707222,38.5359444 L41.6646111,29.2409444 L43.0468333,29.2370556 L43.0412778,38.5365 Z M44.1273889,29.2448333 C45.4590556,29.2448333 46.0418333,29.4392778 46.3896111,29.5992778 C47.4501667,30.0859444 48.1073889,31.1309444 48.1185,32.3292778 L48.1207222,32.3365 C48.1123889,33.5853889 47.2773889,34.8942778 45.7068333,35.1892778 C46.1173889,35.7342778 48.2435,38.5292778 48.2435,38.5292778 L46.5168333,38.5292778 L43.1373889,34.0503889 L43.6496111,34.0542778 C43.7351667,34.0553889 43.8173889,34.0553889 43.8923889,34.0553889 C44.8340556,34.0553889 45.1412778,34.0331667 45.4701667,33.9376111 C46.4029444,33.6742778 46.7262778,32.8920556 46.7351667,32.3103889 C46.7340556,32.3103889 46.7290556,32.3059444 46.7290556,32.3059444 C46.7262778,31.7042778 46.3829444,31.0887222 45.8985,30.8459444 C45.4085,30.5948333 44.9801667,30.5487222 44.3079444,30.5481667 L44.0996111,30.5481667 L44.0996111,29.2448333 L44.1273889,29.2448333 L44.1273889,29.2448333 Z" id="Fill-22" fill="#FFFFFF"></path>
                        <path d="M38.4494444,36.9908333 L38.2083333,36.9919444 L35.3438889,36.9958333 L35.1022222,36.9980556 L35.1022222,37.2386111 L35.1022222,38.5347222 L35.1022222,38.7758333 L35.3444444,38.7758333 L38.21,38.7730556 L38.4511111,38.7730556 L38.4511111,38.5313889 L38.4494444,37.2336111 L38.4494444,36.9908333 Z M38.3388889,32.9536111 L35.3438889,32.9586111 L35.1022222,32.9591667 L35.1022222,33.1986111 L35.1022222,34.5008333 L35.1022222,34.7425 L35.3444444,34.7425 C36.4822222,34.7380556 38.3277778,34.7380556 38.3277778,34.7380556 L38.3388889,32.9536111 Z M34.525,29.0008333 L34.2827778,29.0008333 L32.8883333,29.0030556 L32.6422222,29.0030556 L32.6477778,29.2486111 L32.6522222,29.4997222 L32.6616667,38.5386111 L32.6616667,38.7808333 L32.9027778,38.7797222 L34.285,38.7775 L34.525,38.7775 L34.525,38.5363889 L34.525,36.9247222 C34.5216667,36.2375 34.5166667,34.8313889 34.5166667,34.5047222 L34.525,33.2008333 C34.51,32.8080556 34.5127778,30.9475 34.5166667,30.5486111 L34.525,29.2419444 L34.525,29.0008333 Z M38.4472222,28.9947222 L35.1022222,28.9975 L35.1022222,30.7869444 L38.4466667,30.7797222 L38.4472222,28.9947222 Z M38.2083333,37.2336111 L38.21,38.5313889 L35.3438889,38.5347222 L35.3438889,37.2386111 C36.5177778,37.2352778 38.2083333,37.2336111 38.2083333,37.2336111 L38.2083333,37.2336111 Z M38.085,33.1947222 L38.0844444,34.4975 C38.0844444,34.4975 36.4816667,34.4975 35.3438889,34.5008333 L35.3438889,33.1986111 C36.4794444,33.1975 38.0711111,33.1947222 38.0711111,33.1947222 L38.085,33.1947222 Z M34.285,29.2419444 L34.285,38.5363889 L32.9016667,38.5386111 L32.8938889,29.4958333 L32.8888889,29.2441667 L34.285,29.2419444 L34.285,29.2419444 Z M38.2005556,29.2363889 L38.2044444,30.5402778 C38.2044444,30.5402778 36.5205556,30.5441667 35.3438889,30.5458333 L35.3438889,29.2391667 L38.2005556,29.2363889 L38.2005556,29.2363889 Z" id="Fill-24" fill="#FFFFFF"></path>
                        <path d="M21.7195556,29.0077222 L21.7184444,29.2466111 L21.7178889,29.4960556 L21.7201111,38.5416111 L21.7201111,38.7832778 L21.9612222,38.7832778 L23.3395556,38.7832778 L23.5801111,38.7832778 L23.5801111,38.5416111 L23.5801111,29.2488333 L23.5801111,29.0082778 L23.3395556,29.0082778 L21.9595556,29.0077222 L21.7195556,29.0077222 Z M27.8345556,28.9927222 L27.8345556,29.2366111 C27.8345556,29.2366111 27.8406667,33.2538333 27.8417778,35.2049444 C27.2484444,34.3277222 26.2817778,32.8966111 25.4351111,31.6399444 L24.599,30.4021667 L24.1578889,29.7482778 L24.1578889,30.5377222 L24.1578889,32.9116111 L24.1578889,32.9849444 L24.1995556,33.0471667 C25.6717778,35.2205 28.0051111,38.6766111 28.0051111,38.6766111 L28.0773333,38.7832778 L28.2056667,38.7832778 L29.4662222,38.7771667 L29.7073333,38.7766111 L29.7056667,38.5360556 L29.6906667,29.2410556 L29.6901111,28.9999444 L29.4501111,28.9993889 L28.0767778,28.9943889 L27.8345556,28.9927222 Z M21.9595556,29.2477222 L23.3395556,29.2488333 L23.3395556,38.5416111 L21.9612222,38.5416111 L21.9595556,29.4977222 L21.9595556,29.2477222 L21.9595556,29.2477222 Z M28.0756667,29.2360556 L29.4501111,29.2410556 L29.4651111,38.5360556 L28.2051111,38.5416111 C28.2051111,38.5416111 25.8717778,35.0855 24.3984444,32.9116111 L24.3984444,30.5377222 C25.5728889,32.2760556 27.5745556,35.2449444 28.0851111,35.9910556 C28.0851111,34.7371667 28.0756667,29.2360556 28.0756667,29.2360556 L28.0756667,29.2360556 Z" id="Fill-26" fill="#FFFFFF"></path>
                        <path d="M18.7684444,37.0453333 L15.434,37.0536667 L15.4367778,38.7831111 L18.7578889,38.7831111 L18.7684444,37.0453333 Z M18.6234444,32.9608889 L18.3834444,32.9608889 L15.6762222,32.9608889 L15.434,32.9608889 L15.434,33.2025556 L15.434,34.5031111 L15.434,34.7442222 L15.6762222,34.7442222 L18.3901111,34.7403333 L18.6317778,34.7403333 L18.6301111,34.4975556 L18.6245556,33.2025556 L18.6234444,32.9608889 Z M14.8562222,29.0097778 L12.9556667,29.0097778 L12.9573333,38.7886667 L14.8562222,38.7847778 L14.8562222,29.0097778 Z M18.7551111,29.0075556 L15.434,29.0086667 L15.434,30.792 L18.7501111,30.792 L18.7551111,29.0075556 Z M18.504,37.2908889 L18.504,38.5358889 L15.6762222,38.5358889 L15.6762222,37.2947778 L18.504,37.2908889 Z M18.3834444,33.2503333 L18.389,34.5475556 C18.389,34.5475556 16.8128889,34.5508889 15.6762222,34.552 L15.6762222,33.2503333 L18.3834444,33.2503333 L18.3834444,33.2503333 Z M14.6145556,38.5386667 L13.1984444,38.5414444 L13.1967778,29.237 L14.6078889,29.2408889 L14.6145556,38.5386667 Z M18.5045556,29.2408889 L18.5095556,30.5992222 L16.9323333,30.5992222 L15.6762222,30.5992222 L15.6667778,29.242 L18.5045556,29.2408889 Z" id="Fill-28" fill="#FFFFFF"></path>
                        <path d="M54.3931667,11.4927778 L54.5009444,11.6561111 L57.3842778,11.6616667 L57.1653889,11.1311111 C56.4742778,9.49111111 53.6465,6.19388889 49.1087222,5.79611111 L49.1020556,8.29277778 C50.4515,8.47555556 52.8192778,9.13888889 54.3931667,11.4927778 L54.3931667,11.4927778 Z M42.9003889,21.2116667 C41.4420556,19.7488889 40.6326111,17.8616667 40.6415,15.8944444 C40.6409444,13.8983333 41.4848333,11.9033333 42.9631667,10.4327778 C44.2176111,9.17333333 45.7976111,8.415 47.4753889,8.25555556 L47.4848333,5.78388889 C44.9798333,5.95166667 42.6759444,6.98166667 40.9159444,8.74 C39.0387222,10.6155556 37.9992778,13.145 37.9931667,15.8655556 C37.9926111,21.1722222 42.1559444,25.5333333 47.4265,25.9338889 L47.4309444,23.4605556 C45.7831667,23.275 44.1687222,22.4777778 42.9003889,21.2116667 L42.9003889,21.2116667 Z M54.5876111,19.9466667 L54.4715,20.1077778 C52.7020556,22.4655556 50.6726111,23.2561111 49.0553889,23.4511111 L49.0492778,25.9311111 C51.8359444,25.6838889 55.2276111,24.1622222 57.2242778,20.515 L57.5253889,19.9583333 L54.5876111,19.9466667 Z M128.273167,18.48 C131.730389,17.9416667 133.565389,15.1538889 133.562056,12.4822222 C133.562056,12.4822222 133.562056,12.4777778 133.559833,12.4705556 C133.562056,9.98833333 132.193722,7.80611111 129.993167,6.76833333 C129.253167,6.425 128.037056,6.015 125.207056,6.01777778 L124.323722,6.01666667 L124.317056,8.48 C124.983167,8.48333333 125.583722,8.48 125.583722,8.48 C127.045944,8.47888889 127.993167,8.59388889 129.064278,9.14944444 C130.143167,9.69055556 130.923167,11.0672222 130.922056,12.4238889 L130.924278,12.4327778 C130.913167,13.7316667 130.178722,15.46 128.093167,16.0505556 C127.3165,16.2905556 126.600389,16.3233333 124.147056,16.3122222 L123.395944,16.3083333 L130.342611,25.5961111 L133.657611,25.5988889 C133.657611,25.5988889 128.925389,19.3388889 128.273167,18.48 L128.273167,18.48 Z M120.057056,6.00444444 L120.0365,25.6 L122.649278,25.5972222 L122.644278,6.00555556 L120.057056,6.00444444 Z M100.847056,6.01777778 L91.8637222,6.00888889 C91.8637222,6.00888889 91.8031667,25.2411111 91.8065,25.5683333 C91.8070556,25.575 91.8070556,25.6044444 91.8070556,25.6044444 L94.4503889,25.5972222 C94.4503889,25.5972222 94.5020556,9.19444444 94.5020556,8.47333333 C95.1792778,8.48111111 100.848167,8.47555556 100.848167,8.47555556 L100.847056,6.01777778 Z M85.4298333,6.00333333 L85.4259444,6.38555556 L85.4298333,8.46777778 C85.4298333,8.46777778 88.3109444,8.47 90.2303889,8.47166667 L90.2359444,6.00888889 L85.4298333,6.00333333 Z M84.9070556,20.0966667 C84.9015,18.7383333 84.4265,15.4822222 80.0292778,14.29 L79.8909444,14.2511111 C79.8431667,14.2394444 79.7942778,14.2244444 79.7487222,14.2105556 L79.7387222,16.98 C80.9515,17.4711111 82.2603889,18.3533333 82.2659444,20.1755556 C82.2637222,21.9111111 81.0737222,23.0683333 79.7231667,23.4205556 L79.7148333,25.9338889 C82.6859444,25.5405556 84.8937222,23.1133333 84.9070556,20.0966667 L84.9070556,20.0966667 Z M75.3170556,19.9994444 L75.3015,19.6372222 L72.6787222,19.6338889 L72.6815,20.0222222 C72.7415,23.7577778 75.4020556,25.6422222 78.0853889,25.9444444 L78.0948333,23.4666667 C76.4403889,23.1716667 75.3992778,21.8994444 75.3170556,19.9994444 L75.3170556,19.9994444 Z M75.8292778,11.1127778 C75.8326111,9.89388889 76.6370556,8.60222222 78.1415,8.28333333 L78.1459444,5.78888889 C76.8287222,5.94 75.6392778,6.49333333 74.7448333,7.38944444 C73.7376111,8.38277778 73.1892778,9.72888889 73.1992778,11.185 C73.1876111,15.0127778 76.3570556,15.9361111 78.0559444,16.435 L78.1148333,16.4511111 L78.1242778,13.6911111 C76.6415,13.1427778 75.8292778,12.5005556 75.8292778,11.1127778 L75.8292778,11.1127778 Z M80.9237222,9.06722222 C81.4992778,9.63555556 81.8142778,10.4027778 81.8103889,11.2116667 L81.8176111,11.6011111 L84.4503889,11.5983333 L84.4515,11.2222222 C84.4498333,9.74388889 83.8898333,8.35611111 82.8581667,7.33444444 C82.0276111,6.50388889 80.9559444,5.97444444 79.7748333,5.79166667 L79.7648333,8.34166667 C80.1903889,8.48333333 80.5826111,8.72722222 80.9237222,9.06722222 L80.9237222,9.06722222 Z M61.2581667,6.02388889 L58.6520556,6.02388889 L58.6520556,6.39777778 L58.6359444,25.5977778 L61.2587222,25.5977778 L61.2581667,6.02388889 Z M65.1265,15.5866667 C65.4898333,15.1361111 72.8965,6.02055556 72.8965,6.02055556 L69.4948333,6.01277778 C69.4948333,6.01277778 65.4470556,11.09 63.0170556,14.1261111 L63.0053889,18.1816667 C63.1837222,17.9666667 63.3342778,17.7833333 63.4376111,17.6622222 C63.9670556,18.3511111 69.5309444,25.595 69.5309444,25.595 L72.8526111,25.5994444 C72.8526111,25.5994444 65.4681667,16.0377778 65.1265,15.5866667 L65.1265,15.5866667 Z M10.7081667,18.4905556 C14.1681667,17.9694444 16.0026111,15.1688889 16.0037222,12.5005556 C16.0037222,12.5005556 15.9992778,12.4966667 16.0015,12.4872222 C16.0003889,10.0133333 14.6320556,7.82166667 12.4287222,6.785 C11.6898333,6.44222222 10.4803889,6.03722222 7.64094444,6.02944444 L6.75483333,6.03222222 L6.74927778,8.49944444 C7.41816667,8.50166667 8.02094444,8.49833333 8.02094444,8.49833333 C9.48816667,8.50222222 10.4331667,8.60166667 11.5059444,9.17222222 C12.5820556,9.71722222 13.3587222,11.0755556 13.3598333,12.4455556 L13.3559444,12.4466667 C13.3570556,13.7505556 12.6176111,15.48 10.5365,16.0788889 C9.72538889,16.3122222 8.90538889,16.3361111 6.59538889,16.3316667 L5.83372222,16.3294444 L12.7665,25.5972222 L16.0570556,25.5894444 C16.0570556,25.5894444 11.3698333,19.3605556 10.7081667,18.4905556 L10.7081667,18.4905556 Z M2.47538889,6.03722222 L2.4765,6.41333333 L2.46927778,25.5972222 L5.10816667,25.6072222 C5.10816667,25.6072222 5.11538889,9.22055556 5.1215,8.495 L5.12261111,8.495 L5.12927778,6.03388889 L2.47538889,6.03722222 Z M37.1342778,15.8488889 C37.1437222,13.1961111 36.0987222,10.695 34.2065,8.8 C32.4542778,7.05 30.0992778,5.96277778 27.6431667,5.75611111 L27.6415,8.22666667 C29.3665,8.42444444 30.9726111,9.19222222 32.2415,10.4538889 C33.6937222,11.9211111 34.4931667,13.8322222 34.4965,15.8716667 C34.4976111,17.8716667 33.6998333,19.7677778 32.2570556,21.2144444 C30.9981667,22.4688889 29.3337222,23.2561111 27.5915,23.4472222 L27.5865,25.9261111 C32.9215,25.5211111 37.1337222,21.1594444 37.1342778,15.8488889 L37.1342778,15.8488889 Z M21.3303889,21.1988889 C19.9031667,19.7583333 19.1026111,17.8944444 19.1020556,15.9361111 C19.1087222,11.9311111 22.1398333,8.61277778 26.0115,8.21666667 L26.0170556,5.75222222 C23.5437222,5.93888889 21.1698333,7.02722222 19.3942778,8.79055556 C17.5070556,10.6761111 16.4687222,13.2161111 16.4692778,15.9355556 C16.4565,18.5116667 17.5070556,20.9727778 19.3965,22.8644444 C21.1642778,24.6288889 23.5176111,25.7222222 25.9570556,25.9227778 L25.9642778,23.4433333 C24.2437222,23.2427778 22.5887222,22.4538889 21.3303889,21.1988889 L21.3303889,21.1988889 Z M119.482056,13.1583333 C119.482056,13.1583333 113.0065,17.8611111 112.594278,18.1566667 C112.750389,18.64 115.222056,26.2694444 115.222056,26.2694444 C115.222056,26.2694444 108.745389,21.5566667 108.323167,21.2533333 C107.910944,21.5533333 101.433167,26.2622222 101.433167,26.2622222 C101.433167,26.2622222 103.903722,18.6344444 104.062056,18.1561111 C103.648722,17.8544444 97.1892778,13.1427778 97.1892778,13.1427778 C97.1892778,13.1427778 105.192611,13.1444444 105.697611,13.1477778 C105.859278,12.6622222 108.332056,5.02666667 108.332056,5.02666667 C108.332056,5.02666667 110.808167,12.6627778 110.9565,13.1533333 C111.474278,13.1494444 119.482056,13.1583333 119.482056,13.1583333 L119.482056,13.1583333 Z" id="Fill-30" fill="#FFF100"></path>
                        <g id="Group-34" transform="translate(136.111111, 4.332167)">
                            <mask id="mask-2" fill="white">
                                <use xlink:href="#path-1"></use>
                            </mask>
                            <g id="Clip-33"></g>
                            <path d="M2.38794444,0.957 C2.63516667,1.20977778 2.7785,1.55088889 2.7785,1.91366667 C2.7785,2.28644444 2.63961111,2.61866667 2.38127778,2.86755556 C2.11572222,3.12866667 1.77294444,3.27366667 1.4135,3.27366667 C1.05127778,3.27366667 0.715722222,3.12866667 0.457388889,2.86533333 C0.1985,2.60477778 0.0596111111,2.27255556 0.0596111111,1.91366667 C0.0596111111,1.55366667 0.205722222,1.207 0.470722222,0.939222222 C0.720166667,0.685888889 1.04905556,0.553111111 1.4135,0.553111111 C1.78461111,0.553111111 2.12405556,0.692 2.38794444,0.957 L2.38794444,0.957 Z M2.26294444,1.08255556 C2.03516667,0.852 1.7435,0.729777778 1.41794444,0.729777778 C1.10016667,0.729777778 0.811277778,0.849222222 0.595166667,1.067 C0.365166667,1.30144444 0.236277778,1.60311111 0.236277778,1.91366667 C0.236277778,2.22144444 0.361277778,2.51366667 0.585722222,2.74033333 C0.807944444,2.96644444 1.10405556,3.092 1.40572222,3.092 C1.72905556,3.092 2.02016667,2.97033333 2.2535,2.74422222 C2.47572222,2.52866667 2.59627778,2.23811111 2.59627778,1.92477778 C2.59627778,1.59533333 2.48016667,1.30144444 2.26294444,1.08255556 L2.26294444,1.08255556 Z M2.09516667,1.53922222 C2.09516667,1.75755556 1.96572222,1.90866667 1.7435,1.95588889 L2.08738889,2.657 L1.76183333,2.657 L1.44738889,1.99922222 L1.16183333,1.99922222 L1.16183333,2.657 L0.871833333,2.657 L0.871833333,1.11588889 L1.4535,1.11588889 C1.8835,1.11588889 2.09516667,1.25922222 2.09516667,1.53922222 L2.09516667,1.53922222 Z M1.16183333,1.30366667 L1.16183333,1.81477778 L1.40572222,1.81477778 C1.67072222,1.81477778 1.79683333,1.75088889 1.79683333,1.56866667 C1.79683333,1.38088889 1.67072222,1.30366667 1.3985,1.30366667 L1.16183333,1.30366667 Z" id="Fill-32" fill="#FFFFFF" mask="url(#mask-2)"></path>
                        </g>
                    </g>
                </g>
            </g>
        </g>
    </g>
</svg>