<?xml version="1.0" encoding="UTF-8"?>
<svg width="112px" height="62px" viewBox="0 0 112 62" version="1.1" xmlns="http://www.w3.org/2000/svg" xmlns:xlink="http://www.w3.org/1999/xlink">
    <!-- Generator: Sketch 44.1 (41455) - http://www.bohemiancoding.com/sketch -->
    <title>Page 1</title>
    <desc>Created with Sketch.</desc>
    <defs>
        <polygon id="path-1" points="0.0898086008 0.345173077 43.384321 0.345173077 43.384321 61.4038462 0.0898086008 61.4038462 0.0898086008 0.345173077"></polygon>
        <polygon id="path-3" points="0 61.6548269 111.715251 61.6548269 111.715251 0.596153846 0 0.596153846"></polygon>
    </defs>
    <g id="Page-Flow" stroke="none" stroke-width="1" fill="none" fill-rule="evenodd">
        <g id="Coming_Soon_Desktop" transform="translate(-346.000000, -1330.000000)">
            <g id="footer" transform="translate(0.000000, 1064.000000)">
                <g id="Logo-Garden" transform="translate(346.000000, 266.000000)">
                    <g id="Page-1">
                        <g id="Group-3" opacity="0.300000012" transform="translate(33.240460, 0.250981)">
                            <mask id="mask-2" fill="white">
                                <use xlink:href="#path-1"></use>
                            </mask>
                            <g id="Clip-2"></g>
                            <path d="M14.609954,37.6426442 C22.1757202,31.7031635 30.4460654,27.5127981 30.4460654,19.8218173 C30.4460654,14.2334712 27.4550176,10.4753173 22.0878704,10.4753173 C16.0173313,10.4753173 12.4089606,14.845125 12.2326675,22.6195673 L0.97008722,22.6195673 C0.97008722,8.99149038 8.00934827,0.344875 22.3514197,0.344875 C35.4635942,0.344875 42.8566287,9.16318269 42.8566287,19.4724712 C42.8566287,30.740375 35.1110079,36.0705865 27.7197541,40.9620288 C23.0577795,43.9314712 17.5998147,47.7754712 15.5745209,51.6200673 L43.384321,51.6200673 L43.384321,61.4041442 L0.0898086008,61.4041442 C0.529057541,49.9591827 7.74461175,42.9710673 14.609954,37.6426442" id="Fill-1" fill="#FEFEFE" mask="url(#mask-2)"></path>
                        </g>
                        <path d="M1.06155784,38.9472077 L1.43373228,38.9472077 C3.600298,38.9472077 5.47363537,38.1310731 5.47363537,35.6486885 C5.47363537,33.1549769 3.600298,32.3501692 1.43373228,32.3501692 L1.06155784,32.3501692 L1.06155784,38.9472077 Z M0.000237431859,31.3760538 L1.76020109,31.3760538 C4.36720291,31.3760538 6.53495578,32.7579385 6.53495578,35.6033808 C6.53495578,38.5173808 4.41290854,39.9219192 1.72696063,39.9219192 L0.000237431859,39.9219192 L0.000237431859,31.3760538 Z" id="Fill-4" fill="#FEFEFE"></path>
                        <polygon id="Fill-6" fill="#FEFEFE" points="16.1156281 31.3757558 20.6850042 31.3757558 20.6850042 32.3504673 17.1763549 32.3504673 17.1763549 34.7422365 20.5846893 34.7422365 20.5846893 35.7169481 17.1763549 35.7169481 17.1763549 38.9469096 20.6850042 38.9469096 20.6850042 39.9216212 16.1156281 39.9216212"></polygon>
                        <path d="M34.2953701,32.9966385 C33.9795857,32.4642731 33.5723901,32.1918308 32.9301369,32.1918308 C32.2522689,32.1918308 31.5073265,32.6562346 31.5073265,33.4038115 C31.5073265,34.0732923 32.1620448,34.4250231 32.692705,34.6289077 L33.3017177,34.8667731 C34.5096523,35.3431 35.4130806,36.0107923 35.4130806,37.4397731 C35.4130806,38.9921577 34.216424,40.1033885 32.692705,40.1033885 C31.3167874,40.1033885 30.244189,39.0833692 30.0637408,37.7116192 L31.1357456,37.4856769 C31.123874,38.4252154 31.8682229,39.1066192 32.7829291,39.1066192 C33.6970418,39.1066192 34.3523537,38.3357923 34.3523537,37.4397731 C34.3523537,36.5211 33.6180957,36.1252538 32.8850248,35.8188308 L32.2985681,35.5696385 C31.3268783,35.1499462 30.4460061,34.5955231 30.4460061,33.4038115 C30.4460061,32.0213308 31.6658122,31.1950615 32.9520993,31.1950615 C33.9006396,31.1950615 34.6800097,31.6588692 35.1412211,32.4869269 L34.2953701,32.9966385 Z" id="Fill-8" fill="#FEFEFE"></path>
                        <polygon id="Fill-10" fill="#FEFEFE" points="47.3861757 39.9217404 46.3248552 39.9217404 46.3248552 32.3505865 44.3049037 32.3505865 44.3049037 31.375875 49.4055336 31.375875 49.4055336 32.3505865 47.3861757 32.3505865"></polygon>
                        <mask id="mask-4" fill="white">
                            <use xlink:href="#path-3"></use>
                        </mask>
                        <g id="Clip-13"></g>
                        <polygon id="Fill-12" fill="#FEFEFE" mask="url(#mask-4)" points="58.7269897 39.9220385 59.7883101 39.9220385 59.7883101 31.3761731 58.7269897 31.3761731"></polygon>
                        <polygon id="Fill-14" fill="#FEFEFE" mask="url(#mask-4)" points="69.7976657 30.9675096 76.1845827 37.6885481 76.1845827 31.375875 77.2459031 31.375875 77.2459031 40.2734712 70.8583925 33.5518365 70.8583925 39.9217404 69.7976657 39.9217404"></polygon>
                        <polygon id="Fill-15" fill="#FEFEFE" mask="url(#mask-4)" points="86.397536 31.3757558 87.6167486 31.3757558 89.7049618 35.0254096 91.7913943 31.3757558 93.0112005 31.3757558 90.2338413 36.2040058 90.2338413 39.9216212 89.1731145 39.9216212 89.1731145 36.2040058"></polygon>
                        <path d="M108.250646,30.4492135 C107.568623,30.4492135 107.099695,30.9237519 106.517987,31.2087135 C106.477623,31.2289827 106.434886,31.2480596 106.390961,31.2665404 L106.390961,34.3039442 L106.389773,34.3039442 C106.373747,35.2083096 105.640082,35.9368096 104.736654,35.9368096 C103.822541,35.9368096 103.082348,35.1922135 103.082348,34.2747327 L103.082348,34.2663865 L103.081754,34.2663865 L103.081754,31.2665404 C103.039016,31.2480596 102.996279,31.2283865 102.955322,31.2087135 C102.37302,30.9237519 101.904686,30.4492135 101.221475,30.4492135 C100.060434,30.4492135 99.2228928,31.6439058 99.6176233,32.741425 C99.7909485,33.2260981 100.141754,33.4913865 100.55073,33.7554827 C101.043995,34.0732327 101.488586,34.4660981 101.857793,34.9275212 C102.401512,35.608925 102.763595,36.422675 102.936921,37.2781558 C103.018835,37.6847327 103.07107,38.2236558 103.103717,38.5998288 C103.182663,39.4690212 103.780991,40.1808288 104.736654,40.1808288 C105.69113,40.1808288 106.289459,39.4690212 106.368998,38.5998288 C106.403426,38.2236558 106.454474,37.6847327 106.536981,37.2781558 C106.710306,36.422675 107.07239,35.608925 107.616109,34.9275212 C107.984128,34.4660981 108.42872,34.0732327 108.923765,33.7554827 C109.333335,33.4913865 109.682953,33.2260981 109.856279,32.741425 C110.250416,31.6439058 109.412281,30.4492135 108.250646,30.4492135 M104.736654,35.3835788 C105.334982,35.3835788 105.821124,34.9042712 105.835964,34.306925 L105.837744,34.306925 L105.837744,32.4051942 C105.835964,31.7971173 105.343886,31.3029058 104.736654,31.3029058 C104.128829,31.3029058 103.637345,31.7971173 103.635564,32.4051942 L103.635564,34.306925 L103.636157,34.306925 C103.652778,34.9042712 104.137732,35.3835788 104.736654,35.3835788" id="Fill-16" fill="#FEFEFE" mask="url(#mask-4)"></path>
                        <path d="M111.262113,31.3655615 C111.321471,31.3655615 111.424753,31.3774846 111.424753,31.2964077 C111.424753,31.2451385 111.360647,31.2361962 111.308412,31.2361962 L111.180792,31.2361962 L111.180792,31.3655615 L111.262113,31.3655615 Z M111.485892,31.6690038 L111.404572,31.6690038 L111.262113,31.4359077 L111.180792,31.4359077 L111.180792,31.6690038 L111.114905,31.6690038 L111.114905,31.1646577 L111.322658,31.1646577 C111.408727,31.1646577 111.491828,31.1896962 111.491828,31.2987923 C111.491828,31.3977538 111.426534,31.4347154 111.341059,31.4359077 L111.485892,31.6690038 Z M111.648533,31.4198115 C111.648533,31.2022154 111.477582,31.0305231 111.277546,31.0305231 C111.078103,31.0305231 110.907746,31.2022154 110.907746,31.4198115 C110.907746,31.6362154 111.078103,31.8091 111.277546,31.8091 C111.477582,31.8091 111.648533,31.6362154 111.648533,31.4198115 L111.648533,31.4198115 Z M110.840671,31.4198115 C110.840671,31.1640615 111.034178,30.9595808 111.277546,30.9595808 C111.522694,30.9595808 111.715014,31.1640615 111.715014,31.4198115 C111.715014,31.6755615 111.522694,31.8794462 111.277546,31.8794462 C111.034178,31.8794462 110.840671,31.6755615 110.840671,31.4198115 L110.840671,31.4198115 Z" id="Fill-17" fill="#FEFEFE" mask="url(#mask-4)"></path>
                    </g>
                </g>
            </g>
        </g>
    </g>
</svg>