<svg xmlns="http://www.w3.org/2000/svg" width="162" height="162" viewBox="0 0 162 162"><path fill="#2683ef" d="M100.99 127.36V84.84c-3.81 1.84-11.17 3-19.28 3-8.46 0-17.35-1.33-20.71-3.84v43.65l19.85 19.86z"/><path fill="#2683ef" d="M100.99 83.23V81.8a14.1 14.1 0 0 1-2.73-5.72c-1.15.98-2.97 1.78-5.17 2.39-2.72.82-6.54 1.44-11.89 1.44-5.5 0-9.39-.65-12.13-1.5-2.15-.62-3.91-1.43-5.02-2.41A13.43 13.43 0 0 1 61 81.82v.37c1.81 2.12 9.82 4.18 20.71 4.18 8.33 0 15.79-1.23 19.28-3.14"/><path d="M53.89 53.34c0-.14-.08-.27-.23-.39a2.05 2.05 0 0 0-.63-.32 8.05 8.05 0 0 0-4.15 0c-.27.09-.48.2-.63.32-.15.12-.23.25-.23.39l-.01 1.79c0 .14.08.27.23.39.15.12.36.23.63.32.26.09.58.17.93.22a8.05 8.05 0 0 0 3.24-.22c.26-.09.48-.2.63-.32.15-.12.23-.25.23-.39zm-1.41-1.23c.48.06.9.16 1.26.28.36.12.65.27.85.43.2.16.31.33.31.52l.01 1.42v.4l-.01.03v.05a.97.97 0 0 1-.39.49 3.3 3.3 0 0 1-.86.39 8.57 8.57 0 0 1-2.69.36 8.57 8.57 0 0 1-2.7-.36 3.14 3.14 0 0 1-.86-.4c-.21-.14-.35-.31-.39-.48v-.03l-.01-.03v-.02-.4l.01-1.42c0-.19.11-.36.31-.52.2-.16.49-.31.84-.43a10.48 10.48 0 0 1 4.32-.28z"/><path d="M46.84 55V55.45l.01.03c-.13.06-.25.11-.35.18-.1.06-.19.12-.26.19a.73.73 0 0 0-.16.21.43.43 0 0 0-.06.22l-.01 1.25c0 .17.11.34.3.5.19.15.46.29.8.4.34.12.74.22 1.19.28.45.07.95.1 1.46.1h2.05c.52 0 1.01-.03 1.46-.1.45-.06.85-.16 1.19-.28.34-.11.61-.25.8-.4.19-.16.3-.33.3-.5l-.01-1.25a.43.43 0 0 0-.06-.22.73.73 0 0 0-.16-.21 3.5 3.5 0 0 0-.6-.37l.01-.02v-.03-.03-.4a5.48 5.48 0 0 1 1.33.56c.16.11.28.22.37.34a.7.7 0 0 1 .13.38l.01 1.25c0 .22-.13.44-.37.63-.24.2-.59.37-1.02.52a12.07 12.07 0 0 1-3.38.48h-2.05a12.03 12.03 0 0 1-3.37-.48 3.33 3.33 0 0 1-1.02-.52c-.24-.19-.37-.41-.37-.63l.01-1.25c0-.13.04-.26.13-.38.08-.12.21-.23.37-.34a3.74 3.74 0 0 1 1.33-.56M83.89 39.34c0-.14-.08-.27-.23-.39a2.05 2.05 0 0 0-.63-.32 8.05 8.05 0 0 0-4.15 0c-.27.09-.48.2-.63.32-.15.12-.23.25-.23.39l-.01 1.79c0 .14.08.27.23.39.15.12.36.23.63.32.26.09.58.17.93.22a8.05 8.05 0 0 0 3.24-.22c.26-.09.48-.2.63-.32.15-.12.23-.25.23-.39zm-1.41-1.23c.48.06.9.16 1.26.28.36.12.65.27.85.43.2.16.31.33.31.52l.01 1.42v.4l-.01.03v.05a.97.97 0 0 1-.39.49 3.3 3.3 0 0 1-.86.39 8.57 8.57 0 0 1-2.69.36 8.57 8.57 0 0 1-2.7-.36 3.14 3.14 0 0 1-.86-.4c-.21-.14-.35-.31-.39-.48v-.03l-.01-.03v-.02-.4l.01-1.42c0-.19.11-.36.31-.52.2-.16.49-.31.84-.43a10.48 10.48 0 0 1 4.32-.28z"/><path d="M76.84 41V41.45l.01.03c-.13.06-.25.11-.35.18-.1.06-.19.12-.26.19a.73.73 0 0 0-.16.21.43.43 0 0 0-.06.22l-.01 1.25c0 .17.11.34.3.5.19.15.46.29.8.4.34.12.74.22 1.19.28.45.07.95.1 1.46.1h2.05c.52 0 1.01-.03 1.46-.1.45-.06.85-.16 1.19-.28.34-.11.61-.25.8-.4.19-.16.3-.33.3-.5l-.01-1.25a.43.43 0 0 0-.06-.22.73.73 0 0 0-.16-.21 3.5 3.5 0 0 0-.6-.37l.01-.02v-.03-.03-.4a5.48 5.48 0 0 1 1.33.56c.16.11.28.22.37.34a.7.7 0 0 1 .13.38l.01 1.25c0 .22-.13.44-.37.63-.24.2-.59.37-1.02.52a12.07 12.07 0 0 1-3.38.48h-2.05a12.03 12.03 0 0 1-3.37-.48 3.33 3.33 0 0 1-1.02-.52c-.24-.19-.37-.41-.37-.63l.01-1.25c0-.13.04-.26.13-.38.08-.12.21-.23.37-.34a3.74 3.74 0 0 1 1.33-.56M113.89 53.34c0-.14-.08-.27-.23-.39a2.05 2.05 0 0 0-.63-.32 8.05 8.05 0 0 0-4.15 0c-.27.09-.48.2-.63.32-.15.12-.23.25-.23.39l-.01 1.79c0 .14.08.27.23.39.15.12.36.23.63.32.26.09.58.17.93.22a8.05 8.05 0 0 0 3.24-.22c.26-.09.48-.2.63-.32.15-.12.23-.25.23-.39zm-1.41-1.23c.48.06.9.16 1.26.28.36.12.65.27.85.43.2.16.31.33.31.52l.01 1.42v.4l-.01.03v.05a.97.97 0 0 1-.39.49 3.3 3.3 0 0 1-.86.39 8.57 8.57 0 0 1-2.69.36 8.57 8.57 0 0 1-2.7-.36 3.14 3.14 0 0 1-.86-.4c-.21-.14-.35-.31-.39-.48v-.03l-.01-.03v-.02-.4l.01-1.42c0-.19.11-.36.31-.52.2-.16.49-.31.84-.43a10.48 10.48 0 0 1 4.32-.28z"/><path d="M107.84 55V55.45l.01.03c-.13.06-.25.11-.35.18-.1.06-.19.12-.26.19a.73.73 0 0 0-.16.21.43.43 0 0 0-.06.22l-.01 1.25c0 .17.11.34.3.5.19.15.46.29.8.4.34.12.74.22 1.19.28.45.07.95.1 1.46.1h2.05c.52 0 1.01-.03 1.46-.1.45-.06.85-.16 1.19-.28.34-.11.61-.25.8-.4.19-.16.3-.33.3-.5l-.01-1.25a.43.43 0 0 0-.06-.22.73.73 0 0 0-.16-.21 3.5 3.5 0 0 0-.6-.37l.01-.02v-.03-.03-.4a5.48 5.48 0 0 1 1.33.56c.16.11.28.22.37.34a.7.7 0 0 1 .13.38l.01 1.25c0 .22-.13.44-.37.63-.24.2-.59.37-1.02.52a12.07 12.07 0 0 1-3.38.48h-2.05a12.03 12.03 0 0 1-3.37-.48 3.33 3.33 0 0 1-1.02-.52c-.24-.19-.37-.41-.37-.63l.01-1.25c0-.13.04-.26.13-.38.08-.12.21-.23.37-.34a3.74 3.74 0 0 1 1.33-.56M83.89 71.34c0-.14-.08-.27-.23-.39a2.05 2.05 0 0 0-.63-.32 8.05 8.05 0 0 0-4.15 0c-.27.09-.48.2-.63.32-.15.12-.23.25-.23.39l-.01 1.79c0 .14.08.27.23.39.15.12.36.23.63.32.26.09.58.17.93.22a8.05 8.05 0 0 0 3.24-.22c.26-.09.48-.2.63-.32.15-.12.23-.25.23-.39zm-1.41-1.23c.48.06.9.16 1.26.28.36.12.65.27.85.43.2.16.31.33.31.52l.01 1.42v.4l-.01.03v.05a.97.97 0 0 1-.39.49 3.3 3.3 0 0 1-.86.39 8.57 8.57 0 0 1-2.69.36 8.57 8.57 0 0 1-2.7-.36 3.14 3.14 0 0 1-.86-.4c-.21-.14-.35-.31-.39-.48v-.03l-.01-.03v-.02-.4l.01-1.42c0-.19.11-.36.31-.52.2-.16.49-.31.84-.43a10.48 10.48 0 0 1 4.32-.28z"/><path d="M76.84 73V73.45l.01.03c-.13.06-.25.11-.35.18-.1.06-.19.12-.26.19a.73.73 0 0 0-.16.21.43.43 0 0 0-.06.22l-.01 1.25c0 .17.11.34.3.5.19.15.46.29.8.4.34.12.74.22 1.19.28.45.07.95.1 1.46.1h2.05c.52 0 1.01-.03 1.46-.1.45-.06.85-.16 1.19-.28.34-.11.61-.25.8-.4.19-.16.3-.33.3-.5l-.01-1.25a.43.43 0 0 0-.06-.22.73.73 0 0 0-.16-.21 3.5 3.5 0 0 0-.6-.37l.01-.02v-.03-.03-.4a5.48 5.48 0 0 1 1.33.56c.16.11.28.22.37.34a.7.7 0 0 1 .13.38l.01 1.25c0 .22-.13.44-.37.63-.24.2-.59.37-1.02.52a12.07 12.07 0 0 1-3.38.48h-2.05a12.03 12.03 0 0 1-3.37-.48 3.33 3.33 0 0 1-1.02-.52c-.24-.19-.37-.41-.37-.63l.01-1.25c0-.13.04-.26.13-.38.08-.12.21-.23.37-.34a3.74 3.74 0 0 1 1.33-.56"/><path d="M81 0L0 81l81 81 81-81zm0 1.43L160.57 81 81 160.57 1.43 81z"/><path d="M131.63 95.89l15.29-15.28-15.29-15.29zm-1.52-32.29l-.08-.28c-.75-.72-2.4-2.61-2.93-5.62-3 2.45-10.14 3.75-16.97 3.75-6.93 0-14.17-1.34-17.09-3.86a10.73 10.73 0 0 1-3.22 5.82v.15c1.5 2.18 9.41 4.34 20.32 4.34 10.24 0 17.83-1.9 19.97-3.94zm0 1.67c-3.47 2.38-11.91 3.65-19.97 3.65-8.35 0-17.1-1.36-20.32-3.91v2.84c5.41.97 9.58 2.86 9.58 5.59 0 .18-.04.35-.08.52l.02.09c0 3.7 2.71 6.81 2.73 6.84.13.14.2.32.2.5v43.87l27.84-27.85zm-29.36 16.4c-.57-.7-2.18-2.89-2.74-5.72-1.15.99-2.97 1.79-5.17 2.4-2.72.81-6.54 1.43-11.89 1.43-5.49 0-9.38-.65-12.13-1.5-2.15-.62-3.91-1.42-5.02-2.41a13.32 13.32 0 0 1-3.05 5.82v.37c1.82 2.12 9.82 4.18 20.72 4.18 8.32 0 15.79-1.22 19.28-3.13zm0 2.58c-3.82 1.84-11.18 3-19.28 3-8.47 0-17.35-1.33-20.72-3.84v43.65l19.86 19.86 20.14-20.15zm-41.52-2.86c0-.2.08-.39.22-.53.03-.03 3.03-3.13 3.03-6.81 0-.11.03-.21.07-.31-.01-.1-.04-.2-.04-.3 0-2.42 3.29-4.19 7.81-5.23v-2.93c-3.25 2.19-10.97 3.64-19.92 3.64-8.1 0-16.58-1.28-20.02-3.69v31.46l28.85 28.85zM28.86 66.04L14.3 80.61l14.56 14.56zm1.52-2.13c2.06 2.06 9.7 3.99 20.02 3.99 9.19 0 17.49-1.65 19.92-3.89v-.66a12.09 12.09 0 0 1-2.84-5.72c-2.93 2.51-10.17 3.85-17.09 3.85-6.94 0-14.2-1.35-17.11-3.87a11.79 11.79 0 0 1-2.9 5.76zm20.01-13.6c-9.68 0-16.92 2.54-16.92 4.82 0 2.28 7.24 4.83 16.92 4.83 9.17 0 16.13-2.28 16.86-4.46l-.01-.1h.03c.02-.09.05-.18.05-.27 0-1.01-1.71-2.6-6.54-3.74a46.26 46.26 0 0 0-10.39-1.08zm-4.47-1.33c1.48-.13 2.98-.19 4.47-.19 3.15 0 6.15.26 8.84.75v-.74c0-.21.09-.42.25-.56.03-.03 2.95-2.8 2.95-7.15h.12c-.01-.08-.04-.16-.04-.25 0-4.12 9.5-6.34 18.44-6.34 8.95 0 18.45 2.22 18.45 6.34 0 .13-.04.25-.06.38a10.76 10.76 0 0 0 2.7 7.04c.14.14.23.33.23.54v.54a52.95 52.95 0 0 1 13.05-.33L80.61 14.3zm51.9-7.84v-.01a.94.94 0 0 0 .06-.29c0-2.28-7.24-4.83-16.93-4.83-9.68 0-16.92 2.55-16.92 4.83 0 2.28 7.24 4.83 16.92 4.83 9.27 0 16.28-2.33 16.87-4.53zm-16.86 12.5c4.37 0 8.52-.35 12.06-1.01 1.57-1.36 4.37-2.37 7.73-3.02v-.52a12.38 12.38 0 0 1-2.71-5.76c-2.93 2.52-10.16 3.86-17.09 3.86-7.03 0-14.4-1.39-17.22-3.98a12.3 12.3 0 0 1-2.98 5.9v.73l.38.07c2.56.61 4.53 1.39 5.83 2.31 3.85.92 8.81 1.42 14 1.42zm16.92 19.8c0-2.28-7.24-4.83-16.93-4.83-9.68 0-16.92 2.55-16.92 4.83 0 .23.09.47.24.71.56.59 1.9 1.67 4.68 2.58 3.02.91 7.21 1.53 12 1.53 4.7 0 8.81-.6 11.81-1.48 3.43-1.09 4.69-2.46 5.04-2.92.05-.14.08-.28.08-.42zm-6.11-17.77c-.04-.19-.08-.37-.08-.57 0-.45.13-.87.34-1.27-3.33.54-7.12.83-11.07.83-4.57 0-8.98-.39-12.63-1.11.34.51.51 1.03.51 1.58 0 .17-.04.33-.07.49.09 4.25 2.8 6.84 2.83 6.86a.8.8 0 0 1 .24.56v4.85a53.56 53.56 0 0 1 16.46-.29v-4.54c0-.24.11-.46.3-.6.02-.03 3.1-2.48 3.1-6.79zm35.29-.57c0-2.28-7.24-4.82-16.93-4.82s-16.92 2.54-16.92 4.82c0 2.28 7.23 4.83 16.92 4.83 9.69 0 16.93-2.55 16.93-4.83zm24.15 25.51l-70.6 70.6L10 80.61l21.13-21.14c.48-1.09.86-2.43.86-4.01H32c-.02-.11-.05-.21-.05-.33 0-2.63 3.88-4.48 9.01-5.48L80.61 10l39.79 39.79c4.71 1.03 8.18 2.82 8.18 5.31 0 .28-.05.55-.14.81.01.81.12 1.55.29 2.22z"/></svg>