<svg xmlns="http://www.w3.org/2000/svg" width="162.18" height="155.12" viewBox="0 0 162.18 155.12"><path fill="none" stroke="#000" stroke-miterlimit="50" d="M81.09.56l80.49 58.48-30.74 94.63h-99.5L.59 59.04z"/><path fill="none" stroke="#000" stroke-miterlimit="50" stroke-width="3.2" d="M80.78 10.56l70.18 50.99-26.81 82.5H37.4l-26.81-82.5z"/><path fill="none" stroke="#000" stroke-miterlimit="50" stroke-width=".27" d="M90.39 75.63l-.24.25-.1-.33.34.08zM55.8 56.68l.65.32c-.05.73-.41 2.39-.97 3-.06-.25-.57-.51-.9-.56.19-.97.72-2.04 1.22-2.76zm.73-1.63c-.21.1-.4.44-.4.98h.16l.57.24c.15-.64.6-1.06.49-1.71h-.25c-.4.28-.52.1-.57.49z"/><path d="M90.29 74.49c.06.49.35.26 0 .49-.2.48-.36.35-.65.57a.8.8 0 0 0 .08.16c.39 0 .28-.07.49.09-.26.2-.24.47-.1.57.08.36.27.08.34.65l-.16.32h-.9c-.01.57-1 1.32-1.3 1.7-.52.66-1.67 4.16-1.95 4.89-.42 1.1-.06 3.47-.5 3.9V88c-.2-.2-.11.1-.23-.16-.3.57.03.76-.25 1.22.1 0 .49-.12.33.16.1.12 0 0 0 .16-.45-.07-.4.1-.73-.24l-.41.32.08-.32c-.3.15-.02.13-.33.08v-.08l.4-.41c-.37-.1-.45-2.5-.4-3.01.4-.14.46-.28.74-.24-.5-2.5 2.87-6.43 2.03-7.98.44-.08.4-.07.49-.48h-.16l-.17-.17-.4.09-.1.97c-.9.1-8.3 1.57-10.9 1.87-.9.16-2.15.42-3.08.08-1.65-.6-4.2-4.64-4.2-4.64l.78-3-1.36-1.2-2.18-5.2-.92.43-2.85-4.03.65-.58s-1.5-2.76-1.55-3.34c.38-.03.22.03.57-.08-.46-.66-.8-.9-.9-1.87.43-.36 1.42-.95.98-1.8L76.5 64.75l10.36 2.89 2.07 6.56 1.36.3M30.59 74.49a14.92 14.92 0 1 0 29.84 0 14.92 14.92 0 0 0-29.84 0zm26.19 0a11.27 11.27 0 1 1-22.54-.02 11.27 11.27 0 0 1 22.54.02z"/><path fill="none" stroke="#000" stroke-miterlimit="50" stroke-width=".21" d="M57.53 75.03a11.46 11.46 0 1 1-22.93.01 11.46 11.46 0 0 1 22.93-.01z"/><path fill="none" stroke="#000" stroke-miterlimit="50" d="M55.7 75.12a9.56 9.56 0 1 1-19.11 0 9.56 9.56 0 0 1 19.12 0z"/><path d="M97.59 72.85a16.3 16.3 0 1 0 32.59.01 16.3 16.3 0 0 0-32.6-.01zm28.92 0a12.64 12.64 0 1 1-25.28-.01 12.64 12.64 0 0 1 25.28 0z"/><path fill="none" stroke="#000" stroke-miterlimit="50" d="M124.77 73.15a10.59 10.59 0 1 1-21.18 0 10.59 10.59 0 0 1 21.18 0z"/><path d="M113.72 75.42a2.42 2.42 0 0 0 2.42-2.43 2.42 2.42 0 0 0-2.42-2.43l-28.13.4 1 2.19z"/><path fill="none" stroke="#000" stroke-miterlimit="50" d="M43.74 76.95a3.02 3.02 0 1 1 3.75-4.74 3.02 3.02 0 0 1-3.75 4.74z"/><path fill="none" stroke="#000" stroke-miterlimit="50" stroke-width="1.5" d="M42.7 79.5a5.58 5.58 0 1 1 6.93-8.74 5.58 5.58 0 0 1-6.93 8.74z"/><path fill="none" stroke="#000" stroke-miterlimit="50" d="M113.28 79.54c3.7-.15 6.84-2.82 6.84-6.53a6.4 6.4 0 0 0-6.71-6.44l-32.82 2.12.32 1.28 1.94 5.32z"/><path d="M45.59 74.14l1.75.76L61.5 42.32l-1.75-.76z"/><path fill="none" stroke="#000" stroke-miterlimit="50" stroke-width=".91" d="M61.59 55.4l14.47 10.1 10.7 2.94-4.96-8.25-13.53-8.52-1.76-1.11"/><path fill="none" stroke="#000" stroke-miterlimit="50" stroke-width=".91" d="M68.59 51.56l.74 8.56 9.3-1.68-1.42 7.8M114.13 48.56c.44.16 1.94 2.79 1.77 3.28-3 .06-17.8 4.29-28.31 17.4"/><path d="M68.3 37.06c.22-.54.45-.8.58-1.46l-.32-.65c-.48-.08-.67-.05-1.06.24l-.65-.57c-.82-.23-1.22.27-2.2.09v.48c-.9-.37-1.3-.62-2.6-.4-.46 1.07 0 2.17-.1 2.93-.23-.06-2.23 2.27-2.67 3-.95-.04-1.9-1.11-2.44-1.7h-.41c-.16.19-.32.38-.5.57 1.06 1.15 1.16 2.72 2.13 4.07l-.16.48c-1.5-.38-2.03-3.5-4.07-2.52-.3.14-.4.34-.9.4l.25 8.79c.45.63.89.29 1.7.57h.17c-.31 1.35-.9 1.73-1.14 2.6l.16.74c-.27.75-1.23 3.1-1.83 4.26 0 0-4.5-1.31-8.45-.68-.7.22.57 1.19 1.2 1.26 6.66 1.06 9.18 2.89 11.4 4.4 1.3 1.04 2.4 1.26 2.68.66.1-.63-3.21-3.6-3.21-3.6s1.09-2.41 1.67-3.63c-.13-.03-.15-.12-.28-.15l.36-.61 3.95-1.34 4.14-11.04c-.2-.35-2.32-1.03-2.6-1.08l.09-.57c-.38 0-.21.1-.41-.08-.16-.22-.05-.23-.08-.5.67.14 1.08-.53 1.38-1.21-.11-.22-.1-.55-.33-.82l.25-.48c.5.17 1.05.5 1.63.24l.24.4 1.14-.07c.12-.14.29-.85.57-1.23.2-.28.9-.35 1.22-.9-.2-.53-.06-.77-.5-.9"/><path d="M61.82 59.84l-6.23-3.14 10.19-12.14 3.46 2.26zM101.16 105.77a1.68 1.68 0 1 0 0-3.36 1.68 1.68 0 0 0 0 3.36zm-3.71-3.71a1.69 1.69 0 0 0 0-3.37 1.69 1.69 0 0 0 0 3.37zm0 7.43a1.68 1.68 0 1 0 0-3.37 1.68 1.68 0 0 0 0 3.37zm-3.72-3.72a1.68 1.68 0 1 0 0-3.36 1.68 1.68 0 0 0 0 3.36zm-4.61 8.88a2.98 2.98 0 1 0 0-5.97 2.98 2.98 0 0 0 0 5.97zm-9.07-1.31a1.4 1.4 0 0 0 0-2.78 1.39 1.39 0 1 0 0 2.78zm-9.03 1.3a2.99 2.99 0 1 0-.02-5.97 2.99 2.99 0 0 0 .02 5.98zm-3.87-10.92a.63.63 0 0 0-.62-.63h-1.68c-.35 0-1.28.73-1.28 1.12 0 .39.93 1.15 1.28 1.15h1.68c.34 0 .62-.28.62-.63zm-3.32 2.49c0-.34-.73-1.28-1.12-1.28-.4 0-1.15.94-1.15 1.28v1.68c0 .35.28.63.62.63h1.02c.34 0 .63-.28.63-.63zm-3.3-.85c.35 0 1.29-.73 1.29-1.12 0-.4-.94-1.15-1.28-1.15h-1.68a.63.63 0 0 0-.63.63v1c0 .36.28.64.63.64zm1.03-3.12c0 .34.72 1.27 1.1 1.27.4 0 1.17-.93 1.17-1.27v-1.7a.63.63 0 0 0-.63-.61h-1.02a.62.62 0 0 0-.62.62zm47.2 19.47c.26 2.48.47 4.98-.3 7.44a6.07 6.07 0 0 1-4.18 4.29c-1.43.43-2.73-.12-3.9-.91a6.82 6.82 0 0 1-2.52-3.12c-1.25-3.06-2.43-6.14-3.65-9.21-.16-.4-.34-.83-.61-1.16-.74-.91-1.12-.98-2.21-.6a6.07 6.07 0 0 1-4.64-.15 3.1 3.1 0 0 0-1.2-.28c-3.51-.04-7.03-.05-10.55-.05-.27 0-.56.08-.81.2a6.26 6.26 0 0 1-4.78.33c-1.4-.45-2.43.09-2.93 1.52-.55 1.58-1.03 3.18-1.66 4.72a54.94 54.94 0 0 1-2.4 5.17 8.23 8.23 0 0 1-1.97 2.38c-2.27 1.87-5.25 1.44-7.14-.84a7.57 7.57 0 0 1-1.7-4.68c-.16-4.04.4-8.02 1.34-11.93.84-3.54 1.94-7.02 2.86-10.55.64-2.42 2.15-4.32 3.62-6.24a2.57 2.57 0 0 1 2.22-1.08c.76.03 1.55-.45 2.29-.37.83.08 1.74.18 2.45.8.25.23.65.36.99.39.99.07 1.99.06 2.98.1v5.32c0 .62.5 1.13 1.13 1.13H88.9c.62 0 1.13-.51 1.13-1.13v-5.33c1.03.02 2.06.05 3.09.13.18.02.46.07.53-.02.63-.86 1.72-.82 2.54-1.3a.56.56 0 0 1 .2-.1c1.79-.12 3.58.12 4.75 1.5 1.35 1.59 2.68 3.27 3.33 5.34 1.89 5.99 3.66 12 4.29 18.29z"/><path d="M71.7 103.16h17.43c.07 0 .13-.06.13-.13v-5.36h-.2c-5.65-.18-11.31-.08-16.96-.07-.16 0-.33.06-.51.13v5.3c0 .07.06.13.12.13M84.43 78.73l4.86-.75 6.7-9.56h1.85l3.02-3.86-10.9 1.42L88.79 68l-5.2.25zM112.38 45.06c-.87-.31-8.14.32-8.14.32-2.05 2.14-13.27 2.7-15.54.82-.16-.14-3.92-2.85-3.83-3.26h.17a1.2 1.2 0 0 1-.08-.16c-3.7-.82-7.65-.64-12.3-1.22-.04.03-.38.75-.41.86-.43.06-6.88-.1-6.98-.05l-.57-.24c-.33.44-1.08 2.1-1.47 2.72l-.03.02c-1.45 1.4 0 3.64 1.09 4.63.7.62 3.63 1.98 3.63 1.98s1.08-.82 1.67-.67l14.05 8.74s1.95 3.65 3.4 6.85c3.43-7.88 24.63-16.64 27.29-16.62l.05.08c.53-.15.82-.38 1-.5-.36-1.04-2.86-4.25-3-4.3"/><path fill="none" stroke="#000" stroke-linecap="round" stroke-miterlimit="50" stroke-width=".87" d="M96.59 66.74l2.85-3.18M95.59 65.74l2.85-3.18M94.59 64.74l2.85-3.18"/><path fill="none" stroke="#000" stroke-miterlimit="50" d="M112.02 75.29a3.78 3.78 0 1 1 4.7-5.92 3.78 3.78 0 0 1-4.7 5.92z"/><path fill="none" stroke="#000" stroke-miterlimit="50" stroke-width="1.58" d="M109.93 77.57a6.18 6.18 0 1 1 7.68-9.68 6.18 6.18 0 0 1-7.68 9.68z"/><path d="M47.62 74.58a1 1 0 0 1-1.01 1 1 1 0 0 1-1.02-1c0-.57.45-1.02 1.02-1.02a1 1 0 0 1 1 1.02"/></svg>