<svg xmlns="http://www.w3.org/2000/svg" width="164.15" height="142" viewBox="0 0 164.15 142"><path fill="none" stroke="#000" stroke-miterlimit="50" d="M162.6 70.66l-40.5 70.16H41.09L.58 70.66 41.08.5h81.02z"/><path fill="none" stroke="#000" stroke-miterlimit="50" stroke-width="3" d="M152.06 69.76l-35.37 61.26H45.95L10.58 69.76 45.95 8.5h70.74z"/><path d="M101.52 104.23l.48-.62V39.9s-1.73-2.76-2.38-4.47a49.41 49.41 0 0 1-1.44-5.55s-11.75-1.38-17.4-1.38c-5.63 0-16.62 1.38-16.62 1.38s-.6 3.53-1.46 5.55a36.42 36.42 0 0 1-3.12 5.18v63.33l.34.29h-.1.1c.67.58 2.17 1.91 2.78 2.62.8.94 2.5 3.65 2.5 3.65s9.97 1.75 15.58 1.75c5.62 0 16.74-1.75 16.74-1.75s1.29-2.41 2.1-3.65c.52-.8 1.37-1.93 1.9-2.62h.05z"/><path fill="none" stroke="#000" stroke-miterlimit="50" d="M101.52 104.23l.48-.62V39.9s-1.73-2.76-2.38-4.47a49.41 49.41 0 0 1-1.44-5.55s-11.75-1.38-17.4-1.38c-5.63 0-16.62 1.38-16.62 1.38s-.6 3.53-1.46 5.55a36.42 36.42 0 0 1-3.12 5.18v63.33l.34.29h-.1.1c.67.58 2.17 1.91 2.78 2.62.8.94 2.5 3.65 2.5 3.65s9.97 1.75 15.58 1.75c5.62 0 16.74-1.75 16.74-1.75s1.29-2.41 2.1-3.65c.52-.8 1.37-1.93 1.9-2.62h.05z"/><path fill="none" stroke="#fff" stroke-miterlimit="50" stroke-width="1.5" d="M59.58 41.58S74.3 40.5 81.36 40.5c7.05 0 21.77 1.08 21.77 1.08M59.58 103.5s14.72 1.08 21.78 1.08c7.05 0 21.77-1.08 21.77-1.08"/></svg>