<?xml version="1.0" standalone="no"?>
<!DOCTYPE svg PUBLIC "-//W3C//DTD SVG 1.1//EN" "http://www.w3.org/Graphics/SVG/1.1/DTD/svg11.dtd">
<svg xmlns="http://www.w3.org/2000/svg">
<metadata>Generated by Fontastic.me</metadata>
<defs>
<font id="font" horiz-adv-x="512">
<font-face font-family="font" units-per-em="512" ascent="480" descent="-32"/>
<missing-glyph horiz-adv-x="512" />

<glyph glyph-name="art" unicode="&#97;" d="M133 179c-7 6-16 9-26 9-12 0-24-6-32-16-7-8-10-19-9-30 2-11 7-21 16-28 7-6 16-9 25-9 13 0 25 6 33 16 7 8 10 19 8 30-1 11-6 21-15 28z m-8-47c-4-5-11-8-18-8-5 0-10 2-14 5-4 4-7 9-8 15-1 6 1 12 5 16 4 6 10 9 17 9 6 0 10-2 14-5 5-4 8-9 9-15 0-6-1-12-5-17z m174 144c6 0 12 2 18 4 10 5 17 14 21 24 3 11 3 22-2 32-7 14-22 23-37 23-7 0-13-1-18-4-10-5-18-13-21-24-4-10-3-21 1-31 7-15 22-24 38-24z m-22 49c2 6 6 10 12 13 3 1 6 2 10 2 8 0 16-5 20-13 2-5 3-11 1-17-2-5-6-10-12-12-3-2-6-3-9-3-9 0-17 5-21 13-2 5-3 11-1 17z m-81 19c3-1 6-2 9-2 20 0 36 14 41 33 2 10 0 22-6 31-5 9-15 16-25 18-3 1-7 1-10 1-19 0-36-13-40-32-2-11 0-22 5-31 6-9 15-16 26-18z m-13 45c3 10 12 17 22 17 2 0 4 0 5 0 6-2 11-5 15-10 3-5 4-11 2-17-2-10-11-18-22-18-1 0-3 1-5 1-6 1-11 5-14 10-3 5-4 11-3 17z m-62-69c9 7 14 17 16 28 1 11-2 21-9 30-8 10-20 16-32 16-10 0-19-4-26-9-9-7-14-17-15-28-2-11 1-22 8-31 8-10 20-15 33-15 9 0 18 3 25 9z m-43 18c-4 5-5 11-5 17 1 6 4 11 9 15 4 3 8 5 14 5 7 0 13-3 17-9 4-4 6-10 5-16-1-6-4-12-8-15-4-4-9-5-14-5-7 0-14 3-18 8z m428 75c-1 2-4 3-9 3-5 0-19 0-106-74-2-2-3-3-5-5-16 41-43 78-78 104-40 30-88 46-138 46l0 0c-34 0-76-12-108-31-40-24-62-56-62-89 0-41 23-58 41-72 15-11 27-20 27-39 0-20-12-29-27-40-18-13-41-30-41-71 0-34 22-66 62-89 32-20 74-32 108-32l0 0c62 0 120 24 163 68 43 43 67 100 68 161 14 17 29 34 41 49 23 27 40 49 51 66 15 23 22 36 13 45z m-186-308c-40-40-93-62-150-62l0 0c-61 0-151 43-151 102 0 31 16 43 33 56 16 12 35 26 35 55 0 29-19 42-35 54-17 13-33 25-33 57 0 36 33 61 52 72 30 18 68 29 99 29l0 0c46 0 90-15 127-42 34-26 60-62 74-102-41-36-85-77-118-111-55-7-63-44-68-71-5-23-8-34-25-35-5-1-8-4-9-8 0-5 2-9 6-11 1 0 28-11 59-11l0 0c22 0 41 5 56 16 19 13 32 33 38 61 22 22 46 49 70 76-5-47-26-91-60-125z m-29 51c-10-40-35-60-75-60l0 0c-10 0-20 1-28 3 10 10 13 26 15 39 6 26 10 50 51 56z m130 150c-37-45-82-95-120-134l-5 6-26 26c34 34 77 74 118 110 4 4 9 8 14 12 46 40 71 58 83 66-7-13-24-38-64-86z"/>
<glyph glyph-name="buttons" unicode="&#98;" d="M255 21c-130 0-236 106-236 236 0 130 106 236 236 236 130 0 236-106 236-236 0-130-106-236-236-236z m0-17c140 0 253 113 253 253 0 139-113 252-253 252-139 0-252-113-252-252 0-140 113-253 252-253z m0 493c-132 0-240-108-240-240 0-133 108-241 240-241 133 0 241 108 241 241 0 132-108 240-241 240z m0-17c124 0 224-100 224-223 0-124-100-224-224-224-123 0-223 100-223 224 0 123 100 223 223 223z m0-398c-96 0-174 79-174 175 0 96 78 174 174 174 96 0 175-78 175-174 0-96-79-175-175-175z m0-16c106 0 191 85 191 191 0 105-85 191-191 191-105 0-191-86-191-191 0-106 86-191 191-191z m0 369c-98 0-178-80-178-178 0-99 80-179 178-179 99 0 179 80 179 179 0 98-80 178-179 178z m0-16c90 0 162-73 162-162 0-90-72-162-162-162-89 0-162 72-162 162 0 89 73 162 162 162z m0-274c-15 0-28 13-28 29 0 16 13 29 28 29 16 0 29-13 29-29 0-16-13-29-29-29z m0-16c25 0 46 20 46 45 0 25-21 46-46 46-25 0-45-21-45-46 0-25 20-45 45-45z m0 78c-18 0-33-14-33-33 0-18 15-33 33-33 19 0 34 15 34 33 0 19-15 33-34 33z m0-16c9 0 17-8 17-17 0-9-8-16-17-16-9 0-16 7-16 16 0 9 7 17 16 17z m83 37c-16 0-29 13-29 29 0 15 13 28 29 28 16 0 29-13 29-28 0-16-13-29-29-29z m0-17c25 0 45 21 45 46 0 25-20 45-45 45-25 0-46-20-46-45 0-25 21-46 46-46z m0 79c-19 0-33-15-33-33 0-19 14-34 33-34 18 0 33 15 33 34 0 18-15 33-33 33z m0-17c9 0 16-7 16-16 0-9-7-17-16-17-9 0-17 8-17 17 0 9 8 16 17 16z m-165-45c-16 0-29 13-29 29 0 15 13 28 29 28 16 0 29-13 29-28 0-16-13-29-29-29z m0-17c25 0 45 21 45 46 0 25-20 45-45 45-25 0-46-20-46-45 0-25 21-46 46-46z m0 79c-18 0-33-15-33-33 0-19 15-34 33-34 18 0 33 15 33 34 0 18-15 33-33 33z m0-17c9 0 16-7 16-16 0-9-7-17-16-17-9 0-17 8-17 17 0 9 8 16 17 16z m82 37c-15 0-28 13-28 29 0 16 13 29 28 29 16 0 29-13 29-29 0-16-13-29-29-29z m0-16c25 0 46 20 46 45 0 25-21 46-46 46-25 0-45-21-45-46 0-25 20-45 45-45z m0 78c-18 0-33-15-33-33 0-18 15-33 33-33 19 0 34 15 34 33 0 18-15 33-34 33z m0-16c9 0 17-8 17-17 0-9-8-16-17-16-9 0-16 7-16 16 0 9 7 17 16 17z"/>
<glyph glyph-name="calendar" unicode="&#99;" d="M438 422l0-30c0-22-18-39-40-39-22 0-39 17-39 39l0 30-64 0 0-30c0-22-18-39-39-39-22 0-40 17-40 39l0 30-64 0 0-30c0-22-17-39-39-39-22 0-39 17-39 39l0 30-35 0c-10 0-20-4-27-11-8-8-12-18-12-28l0-296c0-22 18-39 39-39l433 0c22 0 39 17 39 39l0 296c0 22-17 39-39 39z m-347-29l0 52c0 12 10 22 22 22 12 0 23-10 23-22l0-52c0-13-11-23-23-23-12 0-22 10-22 23z m142 0l0 52c0 12 10 22 23 22 12 0 22-10 22-22l0-52c0-13-10-23-22-23-13 0-23 10-23 23z m143 0l0 52c0 12 10 22 22 22 13 0 23-10 23-22l0-52c0-13-10-23-23-23-12 0-22 10-22 23z m-142-254l-80 80 36 35 44-44 84 84 35-36z"/>
<glyph glyph-name="cart" unicode="&#100;" d="M19 446l54 0 77-274c2-8 9-13 18-13l236 0c8 0 15 4 18 11l86 194c2 6 2 13-2 18-3 5-9 8-16 8l-261 0c-10 0-19-8-19-18 0-10 9-19 19-19l233 0-70-157-210 0-77 273c-2 9-10 14-18 14l-68 0c-11 0-19-8-19-18 0-11 8-19 19-19z m131-418c24 0 43 19 43 42 0 24-19 42-43 42-23 0-43-18-43-42 0-23 20-42 43-42z m267 0l3 0c11 1 22 6 29 15 8 8 11 19 11 31-2 22-22 40-46 38-23-1-41-21-39-44 1-22 20-40 42-40z"/>
<glyph glyph-name="check" unicode="&#101;" d="M500 70l-109 108-7-7-12 11c60 81 54 196-20 270-80 80-211 80-292 0-80-81-80-212 0-292 74-74 189-80 270-20l11-12-7-7 108-109c16-16 42-16 58 0 16 16 16 42 0 58z m-185 127c-60-61-158-61-218 0-60 60-60 157 0 218 60 60 158 60 218 0 61-61 61-158 0-218z"/>
<glyph glyph-name="child" unicode="&#102;" d="M169 204c0 11-9 20-20 20-11 0-20-9-20-20 0-12 9-21 20-21 11 0 20 9 20 21z m213 0c0 11-9 20-20 20-11 0-20-9-20-20 0-12 9-21 20-21 11 0 20 9 20 21z m129 8c0 30-22 54-50 59l0 9c0 114-92 206-206 206-113 0-206-92-206-206l0-9c-28-5-49-29-49-59 0-29 22-54 50-59 4-45 25-79 62-100 33-18 80-27 143-27 64 0 111 9 144 27 37 21 58 55 62 100 28 5 50 30 50 59z m-490 0c0 18 12 33 28 37l0-74c-16 5-28 20-28 37z m419-42c0-47-17-79-52-98-29-17-73-25-133-25-59 0-103 8-133 25-35 19-52 51-52 98l0 110c0 84 56 154 132 177 58 0 89-42 89-73 0-23-19-42-42-42-17 0-32 14-32 32 0 13 11 23 24 23 5 0 10 5 10 10 0 6-5 11-10 11-25 0-45-20-45-44 0-29 24-53 53-53 35 0 63 28 63 63 0 22-11 46-29 63-8 7-16 13-25 18 101-1 182-84 182-185z m21 5l0 74c17-4 29-19 29-37 0-17-12-32-29-37z m-165 0c-22-23-59-23-81 0-5 4-11 4-15 0-5-5-5-11 0-15 15-16 35-23 55-23 21 0 41 7 56 23 4 4 4 10 0 15-4 4-11 4-15 0z"/>
<glyph glyph-name="clothing" unicode="&#103;" d="M379 436l-63 15c0 0-18-31-60-31-42 0-60 31-60 31l-63-15-93-83 46-71 47 21 0-252 246 0 0 252 47-21 46 71z m7 29l8-2 6-5 92-82 19-18-14-21-46-72-14-22-24 11-46 22 43 27 0-282-308 0 0 282 43-27-46-22-24-11-14 22-46 72-14 21 19 18 92 82 6 5 8 2 63 15 22 6 11-20c0 0 0 0 1-1 1-2 3-4 6-6 7-6 16-9 27-9 11 0 20 3 27 9 3 2 5 4 6 6 1 1 1 1 1 1l11 20 22-6z"/>
<glyph glyph-name="craft" unicode="&#104;" d="M135 5c-31 0-56 25-56 56l0 216c0 6 5 11 11 11l217 0 51 91c-5 4-8 9-10 14-5 11-5 24 1 37 2 6 7 12 12 18 12 16 19 26 8 44-3 4-3 9 0 13 3 4 7 5 12 4 32-7 55-30 62-62 7-29 0-58-18-74-7-5-14-9-22-10l-28-75 6 0c6 0 11-5 11-11l0-216c0-31-25-56-56-56z m-33 261l0-209c0-17 15-30 33-30l201 0c18 0 34 13 34 30l0 209-56 0c0 0 0 0-1 0z m231 22l18 0 29 77c-1 1-2 1-3 2z m46 102c1-1 3-1 4-2 11-5 20-4 27 2 12 10 16 32 12 52-4 15-13 28-25 36 1-19-10-33-19-44-4-5-7-9-9-13-3-7-3-14-1-20 2-3 5-7 9-10 0 0 0 0 0 0 1 0 1-1 2-1z m-199-124l-67 0c-5 0-8 2-10 6l-34 67c0 1-1 2-1 3l-11 67c-1 4 1 8 5 11 3 2 8 2 12 0l55-33c2-1 3-2 4-3 0 0 0 0 0 0 0 0 0 0 0 0 0 0 0 0 0 0l0 0c0 0 0 0 0 0l0 0c0 0 0 0 0 0l0 0c0 0 0 0 0 0 0-1 0-1 1-2l55-100c2-3 2-8 0-11-2-3-5-5-9-5z m-60 22l41 0-41 73-27-21z m-37 101l4-25 17 12z m208-123l-89 0c-6 0-11 5-11 11l0 223c0 6 5 11 11 11l89 0c7 0 12-5 12-11l0-223c0-6-5-11-12-11z m-78 22l67 0 0 22-11 0c-6 0-11 5-11 11 0 7 5 12 11 12l11 0 0 22-33 0c-6 0-11 5-11 11 0 6 5 11 11 11l33 0 0 22-11 0c-6 0-11 5-11 12 0 6 5 11 11 11l11 0 0 22-33 0c-6 0-11 5-11 11 0 6 5 11 11 11l33 0 0 23-67 0z"/>
<glyph glyph-name="diamond" unicode="&#105;" d="M408 509l-67-112-70 112z m-78-138l-149 0 74-312z m-144 19l139 0-70 112z m-16 7l70 112-137 0z m70-344l-76 318-164 0z m-240 337l155 0-68 111z m423 111l-67-111 154 0z m-76-130l-76-318 239 318z"/>
<glyph glyph-name="fb" unicode="&#106;" d="M460 512l-409 0c-28 0-51-23-51-51l0-410c0-28 23-51 51-51l409 0c28 0 51 23 51 51l0 410c0 28-23 51-51 51z m-26-51l0-77-51 0c-15 0-26-10-26-26l0-51 77 0 0-77-77 0 0-179-76 0 0 179-51 0 0 77 51 0 0 64c0 49 41 90 89 90z"/>
<glyph glyph-name="frame" unicode="&#107;" d="M409 512l-311 0c-15 0-28-13-28-28l0-448c0-16 13-28 28-28l311 0c15 0 28 12 28 28l0 448c0 15-13 28-28 28z m-20-28l-30-29c-2 1-4 1-7 1l-197 0c-3 0-5 0-7-1l-30 29z m-37-56l0-336-197 0 0 336z m-254 36l30-29c-1-2-1-5-1-7l0-336c0-3 0-5 1-8l-30-29z m20-428l30 29c2-1 4-1 7-1l197 0c3 0 5 0 7 1l30-29z m291 19l-30 29c1 3 1 5 1 8l0 336c0 2 0 5-1 7l30 29z"/>
<glyph glyph-name="heart" unicode="&#111;" d="M371 492c-43 0-87-21-115-53-28 32-72 53-115 53-80 0-141-61-141-139 0-95 87-173 220-289l36-32 36 32c130 119 220 196 220 289 0 78-61 139-141 139z m-112-403l-3 0-3 3c-130 115-214 189-214 266 0 53 41 93 95 93 41 0 81-26 98-63l51 0c14 37 54 63 95 63 54 0 95-40 95-93 0-77-84-151-214-269z"/>
<glyph glyph-name="instagram" unicode="&#113;" d="M366 256c0-57-47-103-104-103-58 0-104 46-104 103 0 9 1 17 2 24l-29 0 0-136c0-8 6-14 14-14l233 0c8 0 14 6 14 14l0 136-29 0c2-7 3-15 3-24z m13 126l-37 0c-7 0-13-6-13-13l0-36c0-8 6-14 13-14l37 0c7 0 13 6 13 14l0 36c0 7-6 13-13 13z m-117-190c35 0 64 29 64 64 0 36-29 65-64 65-36 0-65-29-65-65 0-35 29-64 65-64z m197 314l-399 0c-28 0-50-22-50-50l0-400c0-28 22-50 50-50l399 0c27 0 50 22 50 50l0 400c0 28-23 50-50 50z m-28-382c0-18-15-32-32-32l-274 0c-18 0-33 14-33 32l0 265c0 18 15 32 33 32l274 0c17 0 32-14 32-32z"/>
<glyph glyph-name="letter" unicode="&#114;" d="M440 441l-381 0c-33 0-59-26-59-58l0-254c0-30 26-57 59-57l383 0c33 0 59 27 59 59l0 252c-3 32-29 58-61 58z m-1-34l-190-159-183 159z m11-298l-402 0c-9 0-16 7-16 16l0 260 201-176c5-4 9-4 16-4 5 0 12 2 14 4l203 170 0-254c0-9-7-16-16-16z"/>
<glyph glyph-name="lifesaver" unicode="&#115;" d="M78 435c-98-98-98-258 0-356 98-98 258-98 356 0 98 98 98 258 0 356-98 98-258 98-356 0z m45-16c77 63 189 63 266 0l-68-67c-39 27-91 27-130 0z m-30-29l68-68c-27-39-27-91 0-131l-68-67c-63 77-63 189 0 266z m296-296c-77-63-189-63-266 0l68 68c39-27 91-27 130 0z m-185 111c-29 29-29 75 0 104 29 28 75 28 104 0 29-29 29-75 0-104-29-29-75-29-104 0z m214-81l-67 67c27 40 27 92 0 131l67 68c63-77 63-189 0-266z"/>
<glyph glyph-name="make" unicode="&#118;" d="M507 488c24 27-100 19-162-42-26-25-19-63 9-91 28-27 66-34 93-9 40 40 6 81 60 142z m-475-476c-3 3-7 6-12 12-1 1-4 5-5 5-2 3-4 4-5 6-9 8-9 9 0 20 16 17 193 209 214 230 24 25 83 86 83 86l62-63c0 0-68-69-83-84-11-11-54-49-119-105-1-1-1-1-2-2-26-22-54-46-83-71-15-13-41-35-42-36-1-1-3-1-8 2z m296 227l53-52c10 4 21 6 33 6l6-1c49-3 88-44 88-94 0-14-3-28-9-40l-63 62c-3 4-7 6-11 8-4 1-7 2-11 2-8 0-16-3-22-10-10-8-12-22-8-33 2-4 4-8 8-11l62-63c-12-6-26-9-40-9-50 0-91 39-94 88l-1 6c0 12 2 23 6 33l-55 55c29 26 49 44 57 52 0 0 1 1 1 1z m-86 87l-55 55c3 10 6 21 6 33l-1 6c-3 49-44 88-94 88-14 0-28-3-40-9l63-63c3-3 5-7 7-11 4-11 2-25-7-34-7-6-15-9-23-9-4 0-7 1-11 2-4 2-8 4-11 7l-63 63c-6-12-9-26-9-40 0-50 39-91 88-94l6-1c12 0 23 3 33 6l56-56c26 28 45 48 52 55 1 1 2 2 3 2z"/>
<glyph glyph-name="man" unicode="&#119;" d="M172 207c0-10-8-18-18-18-10 0-18 8-18 18 0 10 8 18 18 18 10 0 18-8 18-18z m203 0c0-10-8-18-19-18-10 0-18 8-18 18 0 10 8 18 18 18 11 0 19-8 19-18z m-101-97c-5-5-12-8-19-8-7 0-14 3-19 8-3 4-10 4-13 0-4-4-4-10 0-14 8-8 20-13 32-13 13 0 24 5 33 13 4 4 4 10 0 14-4 4-10 4-14 0z m212 96c0 26-19 48-45 52l0 161c0 21-10 40-28 52-16 10-37 13-56 6l-61 21c-47 16-97 17-144 5-61-17-96-52-101-102-5-6-9-13-11-21l-5-14c-3-7 0-15 7-19 7-4 15-3 21 2 2 2 4 4 6 5l0-96c-25-4-44-26-44-52 0-27 20-50 47-53 7-37 24-70 51-97 36-35 82-55 132-55l0 0c50 1 97 20 132 54 27 27 45 61 52 98 26 3 47 26 47 53z m-84 249c13-8 20-21 20-36l0-126c-30 5-54 31-54 62l-1 105c12 4 25 2 35-5z m-346-86l2 5c5 15 16 26 30 32 15 6 31 6 45 0 30-14 65-7 87 18l3 2c3 4 3 10-1 14-4 3-11 3-14-1l-3-3c-15-17-42-23-64-13-19 9-41 9-60 1-2-1-4-2-5-2 11 29 38 50 82 62 43 12 88 10 132-4l58-20 1-49c-26-35-64-58-107-66-44-9-89 0-127 24-18 12-41 11-59 0z m-12-163c0 15 11 28 25 32l0-52c0-4 0-9 1-13-15 4-26 17-26 33z m329-137c-31-31-73-48-118-48l0 0c-44 0-86 17-118 48-31 32-48 73-48 117l0 172c5 0 11-2 16-5 41-27 91-37 141-27 39 7 75 26 103 55l0-26c0-42 32-76 73-81l0-89c0-44-17-85-49-116z m68 104c0 4 0 8 0 12l0 53c15-4 25-17 25-32 0-16-10-29-25-33z m-241-42l3 4c1 3 3 5 6 5 2 1 5 1 7-1l9-4c5-3 11-1 14 4 3 5 1 12-4 14l-8 5c-15 8-35 3-43-13l-2-4c-3-5-9-7-14-4-5 3-12 1-15-4-2-5-1-12 5-15 4-2 9-3 15-3 11 0 21 5 27 16z m133 6c-5-3-12-1-14 4l-3 4c-4 8-11 13-19 15-8 3-16 2-23-2l-9-5c-5-2-6-9-4-14 3-5 10-7 15-4l8 4c5 3 11 1 14-4l2-4c6-11 17-16 28-16 5 0 10 1 15 3 5 3 7 10 4 15-3 5-9 7-14 4z"/>
<glyph glyph-name="mech" unicode="&#120;" d="M180 94l11-47c6-22 28-40 52-40l31 0c24 0 46 18 52 40l12 47c2 10 12 16 23 13l46-13c22-7 49 4 60 24l16 27c12 20 8 49-9 65l-35 33c-7 7-7 19 0 26l35 33c17 16 21 45 9 65l-16 27c-11 20-38 31-60 24l-46-13c-11-3-21 3-23 13l-12 47c-6 22-28 40-52 40l-31 0c-24 0-46-18-52-40l-11-47c-3-10-13-16-23-13l-47 13c-22 7-49-4-60-24l-16-27c-12-20-8-49 9-65l35-33c7-7 7-19 0-26l-35-33c-17-16-21-45-9-65l16-27c11-20 38-31 60-24l47 13c10 3 20-3 23-13z m23 6c-5 23-30 37-53 31l-47-14c-11-3-26 3-32 13l-16 28c-6 10-4 26 5 34l35 33c17 17 17 45 0 62l-35 33c-9 8-11 24-5 34l16 28c6 10 21 16 32 13l47-14c23-6 48 8 53 31l12 47c3 11 16 21 28 21l31 0c12 0 25-10 28-21l12-47c6-23 30-37 53-31l47 14c11 3 26-3 32-13l16-28c6-10 4-26-5-34l-35-33c-17-17-17-45 0-62l35-33c9-8 11-24 5-34l-16-28c-6-10-21-16-32-13l-47 14c-23 6-47-8-53-31l-12-47c-3-11-16-21-28-21l-31 0c-12 0-25 10-28 21l-12 47z m55 207c29 0 52-23 52-51 0-28-23-51-52-51-28 0-51 23-51 51 0 28 23 51 51 51z m0 24c-41 0-75-33-75-75 0-42 34-75 75-75 42 0 76 33 76 75 0 42-34 75-76 75z"/>
<glyph glyph-name="money" unicode="&#121;" d="M120 203c-33 0-64 3-88 10-12 4-22 8-29 13-1 1-2 2-3 2l0-50c0-1 0-3 1-4 7-18 58-31 119-31 61 0 111 13 119 31 0 1 1 3 1 4l0 51c-1-1-2-2-3-3-7-5-17-9-29-13-24-7-55-10-88-10z m0-79c-33 0-64 4-88 11-12 4-22 8-29 13-1 0-2 1-3 2l0-50c0-2 0-3 1-5 7-17 58-31 119-31 61 0 111 14 119 31 0 2 1 3 1 5l0 50c-1-1-2-2-3-2-7-5-17-9-29-13-24-7-55-11-88-11z m120 133c0 2-1 4-2 5-1 2-2 4-5 6-16 14-60 24-113 24-53 0-98-10-114-24-2-2-3-4-4-6-2-1-2-3-2-5 0-20 54-36 120-36 66 0 120 16 120 36z m152 101c-33 0-64 4-88 11-12 4-22 8-29 13-1 1-2 1-3 2l0-50c0-2 1-3 1-5 8-17 58-31 119-31 61 0 112 14 119 31 1 2 1 3 1 5l0 50c-1-1-2-1-3-2-7-5-17-9-29-13-24-7-55-11-88-11z m0-78c-33 0-64 3-88 10-12 4-22 8-29 13-1 1-2 2-3 2l0-50c0-1 1-3 1-4 8-18 58-31 119-31 61 0 112 13 119 31 1 1 1 3 1 4l0 50c-1 0-2-1-3-2-7-5-17-9-29-13-24-7-55-10-88-10z m0-77c-33 0-64 3-88 10-12 4-22 8-29 13-1 1-2 2-3 2l0-50c0-1 1-3 1-4 8-18 58-31 119-31 61 0 112 13 119 31 1 1 1 3 1 4l0 51c-1-1-2-2-3-3-7-5-17-9-29-13-24-7-55-10-88-10z m0-77c-33 0-64 3-88 11-12 3-22 7-29 12-1 1-2 2-3 3l0-50c0-2 1-3 1-5 8-17 58-31 119-31 61 0 112 14 119 31 1 2 1 3 1 5l0 50c-1-1-2-2-3-3-7-5-17-9-29-12-24-8-55-11-88-11z m120 286c0 2-1 4-2 6-1 2-2 4-4 5-16 15-61 25-114 25-53 0-97-10-113-25-3-1-4-3-5-5-1-2-2-4-2-6 0-19 54-35 120-35 66 0 120 16 120 35z"/>
<glyph glyph-name="more" unicode="&#122;" d="M290 141l-68 0c-10 0-18-3-24-10-7-7-10-15-10-25l0-69c0-9 3-17 10-24 6-7 14-10 24-10l68 0c10 0 18 3 24 10 7 7 10 15 10 24l0 69c0 10-3 18-10 25-6 7-14 10-24 10z m0 184l-68 0c-10 0-18-3-24-10-7-7-10-15-10-24l0-70c0-9 3-17 10-24 6-7 14-10 24-10l68 0c10 0 18 3 24 10 7 7 10 15 10 24l0 70c0 9-3 17-10 24-6 7-14 10-24 10z m24 174c-6 7-14 10-24 10l-68 0c-10 0-18-3-24-10-7-7-10-15-10-24l0-69c0-10 3-18 10-25 6-7 14-10 24-10l68 0c10 0 18 3 24 10 7 7 10 15 10 25l0 69c0 9-3 17-10 24z"/>
<glyph glyph-name="pet" unicode="&#67;" d="M255 258c-40 0-76-15-104-45-31-33-51-86-50-108 1-24 11-43 27-54 7-5 14-7 21-7 14 0 23 5 48 21 2 1 3 1 8 5 5 3 7 5 11 7 14 9 26 14 37 14 2 0 5 0 7-1 10-1 21-6 33-14 5-2 9-5 15-9l4-3c24-16 34-21 48-21 6 0 13 1 19 5 21 12 31 29 30 58-1 22-12 58-32 87-27 41-68 65-122 65z m0-21c47 0 81-21 105-56 17-25 27-57 28-76 1-21-5-30-20-39-3-1-6-2-8-2-8 0-16 4-36 17l-4 3c-7 5-11 8-16 11-14 8-28 14-41 16-3 1-6 1-10 1-16 0-31-6-49-17-3-2-6-4-11-8-5-3-6-3-7-4-21-13-29-17-37-17-3 0-6 1-9 3-11 6-17 19-18 37 0 4 3 19 9 35 9 21 20 41 36 57 24 26 53 39 88 39z m-71 36c2 0 5 0 7 1 42 6 68 55 60 109-7 50-40 89-79 89-3 0-5 0-8 0-20-3-37-16-48-37-11-21-15-46-12-73 7-49 41-89 80-89z m0 22c-27 0-53 30-58 70-3 22 0 43 9 60 8 15 20 24 32 25 2 1 3 1 5 1 26 0 53-31 58-71 6-43-14-81-42-85-1 0-3 0-4 0z m-124 32c-4 0-8 0-12-1-33-9-49-49-38-91 9-36 35-62 64-62 4 0 8 0 12 1 33 9 49 49 38 91-9 36-35 62-64 62z m0-21c18 0 36-19 43-46 8-32-3-60-22-65-2-1-5-1-7-1-18 0-37 19-44 46-8 32 3 60 23 65 2 1 4 1 7 1z m267-32c42-6 80 35 87 88 4 27 0 52-12 73-11 21-28 34-48 37-2 0-5 0-8 0-38 0-72-39-79-89-7-54 19-103 60-109z m3 21c-28 4-47 42-42 85 6 40 32 71 58 71 2 0 4 0 5-1 13-1 25-10 33-25 9-17 12-38 9-60-6-43-35-74-63-70z m141 31c-4 1-8 1-12 1-29 0-55-26-64-62-11-42 5-82 38-91 3-1 7-1 11-1 30 0 56 26 65 62 10 42-5 82-38 91z m-5-21c19-5 30-33 22-65-7-27-25-46-44-46-2 0-4 0-6 1-20 5-31 33-23 65 7 27 26 46 44 46 2 0 4 0 7-1z"/>
<glyph glyph-name="pinterest" unicode="&#68;" d="M461 512l-410 0c-28 0-51-23-51-51l0-410c0-28 23-51 51-51l410 0c28 0 51 23 51 51l0 410c0 28-23 51-51 51z m-179-363c-21 0-41 7-54 22l-26-81-2-5c-6-8-13-13-23-13-16 0-28 13-28 28l0 2 2 5 46 144c0 0-5 15-5 38 0 44 23 57 43 57 19 0 36-8 36-34 0-33-23-51-23-77 0-17 16-33 34-33 59 0 81 46 81 87 0 57-48 103-107 103-59 0-107-46-107-103 0-18 5-33 12-48 3-6 3-8 3-13 0-15-10-26-26-26-10 0-18 5-23 13-13 23-20 49-20 77 0 84 71 154 159 154 87 0 158-70 158-154 3-72-38-143-130-143z"/>
<glyph glyph-name="pottery" unicode="&#70;" d="M364 337c-20 19-35 34-35 55 0 45 9 70 24 97 3 5 3 10 0 15-3 5-8 8-13 8l-168 0c-5 0-10-3-13-8-3-5-3-10 0-15 15-27 24-52 24-97 0-21-15-36-35-55-28-27-63-60-63-128 0-25 9-56 27-92 15-30 33-59 47-78l0-14c0-13 10-24 24-24l146 0c14 0 24 11 24 24l0 14c14 19 32 48 47 78 18 36 27 67 27 92 0 68-35 101-63 128z m-167 88l118 0c-1-10-1-21-1-33 0 0 0 0 0 0l-116 0c0 0 0 0 0 0 0 12 0 23-1 33z m-25 71c0 0 0 0 0 1 0 0 0 0 0 0l168 0c0 0 0 0 0 0 0-1 0-1 0-1-10-18-18-35-22-56l-16 0c1 10 3 20 6 31 1 4-2 8-6 9-4 1-8-2-9-6-3-11-5-22-6-34l-23 0 0 32c0 4-4 8-8 8-4 0-8-4-8-8l0-32-23 0c-1 12-3 23-6 34-1 4-5 7-9 6-4-1-7-5-6-9 3-11 5-21 6-31l-16 0c-4 21-12 38-22 56z m157-480l-146 0c-5 0-9 4-9 9l0 8 164 0 0-8c0-5-4-9-9-9z m12 32l-170 0c-27 39-70 109-70 161 0 61 31 91 58 117 16 16 32 31 37 51l120 0c5-20 21-35 37-51 27-26 58-56 58-117 0-52-43-122-70-161z"/>
<glyph glyph-name="robot" unicode="&#71;" d="M223 262c0 33-28 60-61 60-34 0-61-27-61-60 0-34 27-61 61-61 33 0 61 27 61 61z m-61-47c-26 0-47 21-47 47 0 26 21 47 47 47 26 0 47-21 47-47 0-26-21-47-47-47z m0 81c-19 0-35-15-35-34 0-19 16-35 35-35 19 0 34 16 34 35 0 19-15 34-34 34z m0-55c-12 0-21 9-21 21 0 11 9 20 21 20 11 0 21-9 21-20 0-12-10-21-21-21z m189-40c34 0 61 27 61 61 0 33-27 60-61 60-33 0-61-27-61-60 0-34 28-61 61-61z m0 108c26 0 47-21 47-47 0-26-21-47-47-47-26 0-47 21-47 47 0 26 21 47 47 47z m0-82c19 0 35 16 35 35 0 19-16 34-35 34-19 0-34-15-34-34 0-19 15-35 34-35z m0 55c12 0 21-9 21-20 0-12-9-21-21-21-11 0-21 9-21 21 0 11 10 20 21 20z m-27-185l0 38 90 0c21 0 38 17 38 38l0 28c33 0 60 27 60 61 0 33-27 60-60 60l0 14c0 21-17 38-38 38l-24 0c-38 36-91 41-133 41-43 0-96-5-134-41l-24 0c-21 0-38-17-38-38l0-14c-33 0-60-27-60-60 0-34 27-61 60-61l0-28c0-21 17-38 38-38l90 0 0-38z m174 165c0-26-21-47-46-47l0 94c25-1 46-22 46-47z m-483 0c0 25 21 46 46 47l0-94c-25 0-46 21-46 47z m242 139c51 0 85-8 111-27l-223 0c26 19 60 27 112 27z m-182-228l0 163c0 13 11 24 24 24l315 0c13 0 24-11 24-24l0-163c0-14-11-24-24-24l-315 0c-13 0-24 10-24 24z m128-30l107 0 0-38-107 0z m15 47c0-4 3-7 7-7l59 0c4 0 7 3 7 7 0 4-3 7-7 7l-59 0c-4 0-7-3-7-7z"/>
<glyph glyph-name="search" unicode="&#72;" d="M356 199l-23 0-9 9c29 31 46 74 46 119 0 103-83 185-185 185-103 0-185-82-185-185 0-102 82-185 185-185 45 0 88 17 119 46l9-9 0-23 142-142 43 43z m-171 0c-71 0-128 57-128 128 0 71 57 128 128 128 71 0 128-57 128-128 0-71-57-128-128-128z"/>
<glyph glyph-name="sewing" unicode="&#74;" d="M389 502l-265 0 0-15c0-1-4-1-10-3-12-5-21-16-21-30l0-388c0-13 9-25 21-29 5-2 10-7 10-13 0-19 0-15 0-15l265 0 0 15c0 6 5 11 11 13 12 4 20 16 20 29l0 388c0 14-8 25-21 30-5 2-10 2-10 2 0 0 0 16 0 16z m-47-446l-16 0c-6 0-8 4-5 9 11 14 22 34 28 54 2 6 7 9 11 8 4-1 8-6 8-12-2-20-7-37-11-49-2-6-9-10-15-10z m-220 341l61 60c4 4 13 7 19 7l6 0c5 0 7-4 4-8-30-40-66-72-89-92-5-4-9-2-9 4l0 11c0 6 4 14 8 18z m277-27l0-10c0-6-5-9-10-6-25 11-47 31-60 45-4 4-5 12-2 17 1 2 2 4 3 6 3 5 8 5 12 1 11-11 26-25 48-37 5-3 9-10 9-16z m-285-117l0 8c0 6 5 13 10 16 34 21 120 80 171 178 3 5 9 9 15 9l7 0c6 0 8-4 6-9-60-128-155-187-199-208-5-3-10 0-10 6z m285 7l0-10c0-6-5-10-11-9-61 14-105 47-127 67-4 4-4 11 0 15 3 3 6 7 9 11 4 4 10 4 15 0 18-18 53-45 104-61 5-2 10-8 10-13z m-153 33c24-22 73-59 142-74 6-1 11-6 11-12l0-8c0-6-5-10-11-9-88 16-143 58-167 81-5 4-4 10 0 14 3 2 6 5 9 8 5 4 12 4 16 0z m-123 44c24 18 75 62 115 118 3 5 11 9 17 9l10 0c6 0 9-4 6-9-44-78-112-129-148-152-4-4-9-1-9 5l0 12c0 6 4 13 9 17z m1-114c6 2 12 5 20 9 5 3 12 1 15-3 2-2 3-4 5-6 4-5 4-11-1-14-12-8-26-16-39-21-5-3-10 0-10 6l0 14c0 6 5 13 10 15z m0-59c16 7 38 18 55 30 5 4 12 4 17 1 1-1 2-2 3-2 4-4 5-10 1-14-27-26-56-40-75-47-6-2-11 2-11 8l0 10c0 6 5 12 10 14z m1-54c22 7 60 23 94 58 4 4 11 5 16 3 3-2 5-3 7-4 5-2 7-8 4-13-32-42-91-69-122-81-5-2-10 1-10 7l0 16c0 6 5 12 11 14z m157 41c0-1 1-1 2-2 6-2 8-7 5-12-21-38-60-64-79-76-5-3-14-5-19-5l-40 0c-6 0-6 2-1 4 36 16 86 44 116 85 3 5 10 8 16 6z m-32-89c21 16 44 39 60 68 3 5 9 8 13 7 5-1 8-7 6-13-8-23-24-46-34-60-4-4-12-8-18-8l-25 0c-6 0-7 3-2 6z m-70 192c3 2 5 3 7 5 5 3 12 2 16-2 25-24 86-72 185-88 6-1 11-7 11-13l0-4c0-6-5-10-11-9-136 27-190 73-210 97-4 4-3 11 2 14z m117 113c2 4 5 8 7 11 4 5 10 6 14 2 16-16 41-38 71-49 5-2 10-8 10-14l0-14c0-6-5-9-10-7-44 15-75 40-91 55-4 4-5 11-1 16z m102 49c0-6-4-9-9-5-18 12-30 24-38 33-4 5-5 11-4 14 1 4 7 6 13 6l27 0c6 0 11-4 11-10z m-249 48c6 0 7-3 3-7l-31-30c-4-4-8-3-8 3l0 24c0 6 5 10 11 10z m229-398c4 12 8 27 10 45 0 5 2 10 5 9 3 0 5-5 5-11l0-43c0-5-5-10-11-10 0 0-3 0-6 0-3 0-5 5-3 10z"/>
<glyph glyph-name="talk" unicode="&#76;" d="M436 446c-49 39-112 60-180 60-68 0-132-21-180-60-49-40-76-93-76-150 0-57 27-110 76-150 48-39 112-61 180-61 7 0 14 1 21 1l43-72c3-5 9-8 15-8 0 0 0 0 0 0 6 0 11 3 14 8l93 137c45 39 70 90 70 145 0 57-27 110-76 150z m-20-271l-80-120-35 58c-3 5-9 9-15 9-1 0-1 0-2-1-9 0-19-1-28-1-122 0-221 79-221 176 0 97 99 175 221 175 122 0 221-78 221-175 0-45-21-88-61-121z"/>
<glyph glyph-name="target" unicode="&#77;" d="M21 238l39 0c8-94 84-170 178-178l0-39c0-10 8-18 18-18 10 0 18 8 18 18l0 39c94 8 170 84 178 178l39 0c10 0 18 8 18 18 0 10-8 18-18 18l-39 0c-8 94-84 170-178 178l0 39c0 10-8 18-18 18-10 0-18-8-18-18l0-39c-94-8-170-84-178-178l-39 0c-10 0-18-8-18-18 0-10 8-18 18-18z m147 36l-72 0c8 75 68 134 142 142l0-72c0-10 8-18 18-18 10 0 18 8 18 18l0 72c75-8 134-68 142-142l-72 0c-10 0-18-8-18-18 0-10 8-18 18-18l72 0c-8-75-68-134-142-142l0 72c0 10-8 18-18 18-10 0-18-8-18-18l0-72c-75 8-134 68-142 142l72 0c10 0 18 8 18 18 0 10-8 18-18 18z"/>
<glyph glyph-name="toys" unicode="&#78;" d="M505 160c-4 5-10 8-16 8-6 1-12-1-17-5-13-12-28-22-45-31-10 25-38 101-23 178l51-34c10-7 23-8 33-2 14 7 22 22 18 38l-17 73c-2 9-6 16-12 23l-6 6 0 21c0 6 0 12 0 16l0 7c0 6-4 8-7 8-23 0-34-18-38-32-21-2-38-10-55-28-17-17-32-43-50-72-1-2-2-3-3-5l-116 0c-23 0-46 4-73 11-26 6-72 6-97-72-1-3 0-6 3-8l40-33c2-1 5-2 7-1 3 1 4 3 5 6 2 13 12 48 30 59 5 3 11 3 17 2l-51-160c-16 8-31 18-44 30-5 4-11 6-17 5-6 0-12-3-16-8-4-5-6-11-6-17 1-6 3-12 8-16 59-52 149-81 248-81 98 0 188 29 247 81 5 4 8 10 8 16 0 6-2 12-6 17z m-196 154c-16-22-35-41-61-41-12 0-23 3-33 9-13 8-21 20-23 33 3-1 6-1 10-1z m-158-19c1 4-1 8-5 10-13 5-25 5-36-1-21-11-31-40-35-57l-27 21c9 27 22 45 37 53 12 7 26 8 40 4 18-5 35-8 51-9 2-19 14-36 31-47 12-7 26-11 41-11 45 0 72 44 86 68 17 28 32 53 48 70 15 16 31 23 50 23 3 0 6 3 7 6 0 0 1 7 5 14 3 6 7 9 12 11 0-10 0-27 0-40 0-2 1-3 2-5l8-8c4-4 7-10 9-16l17-73c2-8-3-17-10-21-6-3-13-2-19 1l-59 40c-2 2-5 2-7 1-2-1-4-3-5-5-21-85 10-172 21-198l-20-8c-6 11-18 30-37 48-29 28-63 43-100 43-38 0-72-15-101-43-19-18-31-37-38-49-7 3-13 6-20 9z m228-183c-37-12-80-19-123-19-44 0-86 7-124 19 13 24 53 82 124 82 70 0 110-58 123-82z m117 32c0-2-1-4-3-6-56-49-143-77-237-77-95 0-182 28-238 77-4 3-4 9-1 12 2 2 4 3 6 3 0 0 0 0 1 0 2 0 4 0 5-2 53-46 137-73 227-73 89 0 173 27 226 73 2 2 4 2 6 2 2 0 4-1 6-3 1-1 2-4 2-6z m-48 208c4 0 7 3 7 7l0 8c0 4-3 8-7 8-5 0-8-4-8-8l0-8c0-4 3-7 8-7z"/>
<glyph glyph-name="vk" unicode="&#79;" d="M460 512l-409 0c-28 0-51-23-51-51l0-410c0-28 23-51 51-51l409 0c28 0 51 23 51 51l0 410c0 28-23 51-51 51z m-56-284c13-13 28-26 40-40 6-7 11-13 15-21 6-10 0-22-9-23l-61 0c-16-1-28 5-39 16-8 8-16 17-24 25-3 4-7 7-11 10-8 5-15 4-20-5-5-8-6-18-6-27-1-14-5-18-20-19-30-1-59 3-87 19-23 13-42 32-58 53-31 41-55 87-77 134-5 10-1 16 11 16 20 1 39 1 59 0 8 0 14-4 17-12 10-25 23-50 40-73 4-6 9-12 15-16 7-5 13-3 16 5 2 4 3 10 3 15 2 18 2 36-1 53-1 12-8 19-19 21-6 1-5 3-2 6 5 6 9 9 18 9l69 0c11-2 13-6 15-17l0-75c0-4 2-16 9-19 6-1 10 3 14 7 16 17 28 37 39 58 4 9 8 19 12 28 3 7 8 11 16 11l66 0c2 0 4 0 6-1 11-2 14-6 10-17-5-17-16-30-26-44-11-15-23-30-34-45-10-13-9-20 4-32z"/>
<glyph glyph-name="woman" unicode="&#80;" d="M272 136c-7 0-13-2-16-4-4 2-10 4-17 4-12 0-21-4-21-10l0 0c0-10 17-17 38-17 20 0 37 7 37 17l0 0c0 6-9 10-21 10z m191 48c10 10 17 23 17 37 0 13-5 25-14 34 4 67 6 113-17 154-15 29-40 53-73 71-39 22-83 32-129 31-39-2-76-19-102-49-32-2-62-19-78-46-2-2-3-4-4-7-23-41-21-87-17-154-9-9-14-21-14-34 0-14 7-27 17-37 3-66 2-130-22-155-2-3-3-6-2-9 1-3 3-6 6-7 27-10 53-13 76-13 24 0 46 4 62 8 30 8 50 18 57 22 10-1 20-2 30-2 10 0 20 1 29 2 8-4 28-14 57-22 23-6 44-8 63-8 31 0 57 6 76 13 3 1 5 4 6 7 1 3 0 6-2 9-24 25-25 89-22 155z m-26 17l0 50c13-4 22-16 22-30 0-14-9-26-23-30 1 4 1 7 1 10z m-353 206c13 22 39 35 67 36 3 0 6 1 7 3 22 28 55 44 90 45 41 2 82-8 118-28 30-16 52-37 65-62 18-34 19-70 16-133-3 2-31-9-31-9-139-1-214 63-234 83-3 2-6 4-9 3-4-1-7-3-8-6-15-34-40-52-81-56-5-1-9-5-9-10l0-2c-3 0-7-1-10-3-3 63-2 99 16 133 1 2 2 4 3 6z m-8-216c-14 4-23 16-23 30 0 14 9 26 22 30l0-50c0-3 0-6 1-10z m-25-164c18 30 21 79 19 146 2-1 5-2 8-2 12-62 58-113 118-133-29-12-84-28-145-11z m205 20c-89 0-160 69-160 154l0 64c37 6 64 23 82 54 14-13 38-30 71-46 50-23 106-34 167-33l0-39c0-85-72-154-160-154z m92-20c-13 3-24 7-33 11 61 20 107 71 119 133 3 0 5 1 8 2-2-67 1-116 19-146-36-10-73-10-113 0z m-213 203c-4-4-4-10 0-14 4-3 11-3 14 0 7 7 17 7 24 0 2-2 5-3 7-3 3 0 5 1 7 3 4 4 4 10 0 14-14 14-37 14-52 0z m242-14c4 4 4 10 0 14-15 14-38 14-52 0-4-4-4-10 0-14 4-3 10-3 14 0 6 7 17 7 24 0 1-2 4-3 7-3 2 0 5 1 7 3z"/>
<glyph glyph-name="transport" unicode="&#81;" d="M11 191l265 0c4 0 7 3 7 7l0 213c0 12-10 22-22 22l-236 0c-12 0-22-10-22-22l0-213c0-4 4-7 8-7z m73 137c0 4 3 7 6 7l53 0 0 18c0 6 8 9 12 5l46-45c2-3 2-7 0-10l-46-45c-4-4-12-1-12 5l0 18-53 0c-3 0-6 3-6 7z m11-195l-88 0c-4 0-7 4-7 7l0 22c0 4 3 7 7 7l108 0c-11-9-18-21-20-36z m410 36l-18 0 0 98c0 11-3 22-10 32l-43 64c-11 16-29 26-48 26l-68 0c-8 0-15-7-15-15l0-205-111 0c11-9 18-21 20-36l117 0c5 29 29 51 59 51 30 0 54-22 58-51l59 0c4 0 7 4 7 7l0 22c0 4-3 7-7 7z m-72 117l-90 0c-4 0-7 3-7 7l0 50c0 3 3 7 7 7l55 0c2 0 5-1 6-3l35-50c3-5 0-11-6-11z m-280-117c-24 0-44-20-44-44 0-25 20-45 44-45 25 0 45 20 45 45 0 24-20 44-45 44z m0-66c-12 0-22 10-22 22 0 12 10 22 22 22 13 0 23-10 23-22 0-12-10-22-23-22z m235 66c-25 0-45-20-45-44 0-25 20-45 45-45 25 0 45 20 45 45 0 24-20 44-45 44z m0-66c-12 0-22 10-22 22 0 12 10 22 22 22 12 0 22-10 22-22 0-12-10-22-22-22z"/>
<glyph glyph-name="security" unicode="&#69;" d="M466 431c-87 0-154 25-210 80-57-55-124-80-211-80 0-143-29-348 211-431 240 83 210 288 210 431z m-228-252l-70 71 31 31 39-39 74 74 31-32z"/>
<glyph glyph-name="home" unicode="&#109;" d="M83 147l122 0c6 0 11 5 11 10 0 6-5 10-11 10l0 0 0 109c0 6-5 10-11 10l-100 0c-6 0-10-4-10-10l0-109-1 0c-6 0-10-4-10-10 0-5 4-10 10-10z m101 119l0-39-80 0 0 39z m-80-59l80 0 0-40-80 0z m398-158l-12 0 0 260 6-3c1 0 3-1 5-1 1 0 3 1 5 2 3 2 5 5 5 8l0 40c0 3-2 7-6 9l-46 22 0 77c0 6-4 10-10 10l-70 0c-6 0-11-4-11-10l0-33-107 52c-3 1-7 1-10 0l-244-118c-4-2-6-6-6-9l0-40c0-3 2-6 5-8 3-2 7-2 10-1l6 3 0-260-12 0c-5 0-10-5-10-10 0-6 5-10 10-10l492 0c5 0 10 4 10 10 0 5-5 10-10 10z m-236 217l112 0 0-217-112 0z m133-138l71 0 0-79-71 0z m-10 326l50 0 0-58-50 24z m-367-105l234 113 234-113 0-18-229 111c-3 2-7 2-10 0l-229-111z m234 74l214-104 0-191-71 0 0 148c0 6-5 10-11 10l-132 0c-6 0-10-4-10-10l0-148-204 0 0 191z m-214-295l204 0 0-79-204 0z"/>
<glyph glyph-name="gift" unicode="&#112;" d="M487 409l-63 0c0 2 0 5 0 6 0 2 1 4 1 7 0 20 2 58-18 78-7 8-17 12-28 12-30 0-68-27-83-39-6-5-28-23-40-40-12 17-34 35-40 40-15 12-53 39-83 39-11 0-21-4-28-12-20-20-18-58-18-78 0-3 1-5 1-7 0-1 0-4 0-6l-63 0c-13 0-24-10-24-23l0-98c0-13 11-24 24-24l18 0 0-247c0-10 8-17 17-17l392 0c9 0 17 7 17 17l0 247 18 0c13 0 24 11 24 24l0 98c0 13-11 23-24 23z m-207-125l-48 0 0 105 48 0z m31 175c26 21 52 33 68 33 6 0 10-2 14-6 13-13 12-49 12-64-1-2-1-5-1-6 0-1-114-5-123-4-9 1-12 3-13 3 2 6 17 24 43 44z m-192 27c4 4 8 6 14 6 16 0 42-12 68-33 26-20 41-38 43-44-1 0-4-2-13-3-9-1-123 3-123 4 0 1 0 4-1 6 0 15-1 51 12 64z m-98-198l0 98c0 2 2 3 4 3l187 0 0-105-187 0c-2 0-4 2-4 4z m43-268l0 244 148 0 0-244z m168 0l0 244 48 0 0-244z m216 0l-148 0 0 244 148 0z m43 268c0-2-2-4-4-4l-187 0 0 105 187 0c2 0 4-1 4-3z"/>
<glyph glyph-name="validation-correct" unicode="&#73;" d="M485 443l-301-318-157 166-27-28 184-194 328 346z"/>
<glyph glyph-name="validation-wrong" unicode="&#82;" d="M511 482l-226-225 226-226-30-30-226 226-225-226-30 30 225 226-225 225 30 30 225-225 226 225z"/>
<glyph glyph-name="popup-close" unicode="&#83;" d="M317 256l182 183c17 16 17 44 0 60-16 17-44 17-60 0l-183-182-183 182c-16 17-44 17-60 0-17-16-17-44 0-60l182-183-182-183c-17-16-17-44 0-60 16-17 44-17 60 0l183 182 183-182c16-17 44-17 60 0 17 16 17 44 0 60z"/>
<glyph glyph-name="popup-goback" unicode="&#84;" d="M256 0l45 45-179 179 390 0 0 64-390 0 179 179-45 45-256-256z"/>
<glyph glyph-name="btn-g" unicode="&#85;" d="M162 97c-90 0-162 71-162 161 0 90 72 162 162 162 43 0 80-17 108-44l-44-42c-12 12-32 26-64 26-56 0-99-47-99-102 0-55 43-101 99-101 64 0 87 46 92 69l-92 0 0 55 151 0c3-9 3-16 3-28 0-92-62-156-154-156z m345 138l-46 0 0-46-46 0 0 46-46 0 0 46 46 0 0 46 46 0 0-46 46 0z"/>
<glyph glyph-name="btn-vk" unicode="&#86;" d="M97 202c20-26 42-49 71-65 32-19 67-24 104-22 17 0 23 5 23 22 1 11 2 23 8 33 6 11 15 13 25 6 4-3 9-7 13-11 9-11 19-22 29-32 13-12 28-20 46-18l73 0c12 0 18 15 12 28-5 9-11 17-18 24-15 18-32 33-49 49-15 15-16 23-4 40 13 18 27 35 41 53 12 17 25 34 31 54 4 13 1 19-13 21-2 1-4 1-7 1l-79 0c-10 0-15-4-19-13-5-12-9-23-15-34-13-26-27-50-47-71-4-4-9-10-16-8-9 4-12 18-12 23l0 91c-2 13-4 19-17 21l-83 0c-11 0-17-4-22-11-4-4-5-6 2-8 14-2 22-11 24-25 3-21 3-43 1-65-1-6-2-12-4-18-4-10-11-11-19-6-8 6-13 13-19 20-20 28-35 57-48 89-4 9-10 14-20 14-24 1-48 1-72 0-14 0-18-7-12-20 26-57 55-112 92-162z"/>
<glyph glyph-name="previous" unicode="&#87;" d="M126 267l240 241c5 5 14 5 20 0 6-6 6-15 0-21l-230-231 230-230c6-6 6-15 0-21-3-3-7-4-10-4-4 0-8 1-10 4l-240 241c-6 6-6 15 0 21z"/>
<glyph glyph-name="next" unicode="&#88;" d="M386 267l-240 241c-5 5-14 5-20 0-6-6-6-15 0-21l230-231-230-230c-6-6-6-15 0-21 3-3 7-4 10-4 4 0 8 1 10 4l240 241c6 6 6 15 0 21z"/>
<glyph glyph-name="matbets-logo" unicode="&#89;" d="M9 279l0-13c3 5 6 8 10 11 5 2 9 3 15 3 12 0 19-5 23-15 3 5 6 9 11 11 4 3 9 4 15 4 16 0 25-9 25-27l0-51-8 0 0 51c0 6-2 12-5 15-3 3-7 5-14 5-6 0-11-2-16-6-4-4-6-9-7-14l0-51-8 0 0 51c0 7-2 12-5 15-3 3-7 5-14 5-5 0-10-2-14-5-3-3-6-7-8-13l0-53-9 0 0 77z m169-77c-1 3-1 6-1 11-3-4-7-7-12-9-4-2-9-3-14-3-8 0-14 2-18 6-5 4-7 9-7 16 0 7 3 13 9 17 6 5 15 7 26 7l16 0 0 8c0 6-2 10-6 13-3 3-8 5-14 5-6 0-11-1-15-5-4-3-6-6-6-10l-8 0c0 6 2 11 8 15 6 5 13 7 21 7 9 0 15-2 20-6 5-5 8-10 8-18l0-36c0-8 1-13 2-17l0-1z m-26 6c5 0 10 2 15 4 4 3 7 7 10 11l0 17-16 0c-8 0-15-1-20-4-4-3-7-8-7-13 0-4 2-8 5-10 3-3 7-5 13-5z m69 90l0-19 16 0 0-7-16 0 0-51c0-4 1-8 2-10 2-2 4-3 8-3 1 0 4 0 7 1l0-7c-2-1-5-1-9-1-6 0-10 1-13 5-2 3-4 8-4 15l0 51-14 0 0 7 14 0 0 19z m95-58c0-12-2-22-8-29-5-7-12-10-21-10-11 0-19 4-24 12l-1-11-8 0 0 109 9 0 0-43c5 8 13 12 24 12 9 0 16-3 21-10 6-7 8-17 8-29z m-8 1c0 10-2 18-6 24-4 5-10 8-17 8-5 0-10-2-14-4-3-3-6-7-8-12l0-34c4-10 12-15 22-15 7 0 13 3 17 8 4 6 6 14 6 25z m57-40c-7 0-13 1-18 5-5 3-9 7-12 13-3 6-5 12-5 19l0 3c0 8 2 14 5 20 2 6 6 11 12 14 5 3 10 5 16 5 10 0 17-3 22-9 6-7 9-15 9-26l0-5-55 0 0-2c0-8 2-16 7-21 5-6 12-9 19-9 5 0 9 1 12 2 4 2 7 5 10 8l5-4c-6-9-15-13-27-13z m-2 72c-6 0-12-2-16-7-4-5-7-11-8-19l46 0 0 1c0 7-2 13-6 18-4 5-9 7-16 7z m60 25l0-19 16 0 0-7-16 0 0-51c0-4 1-8 3-10 1-2 4-3 7-3 2 0 4 0 7 1l1-7c-3-1-6-1-9-1-6 0-11 1-13 5-3 3-4 8-4 15l0 51-14 0 0 7 14 0 0 19z m80-76c0 4-2 7-5 10-4 2-9 4-15 6-7 1-13 3-16 5-4 2-7 4-9 7-2 2-2 5-2 9 0 6 2 11 7 15 5 4 12 6 20 6 8 0 15-2 20-6 5-4 8-10 8-17l-8 0c0 5-2 9-6 11-4 3-9 5-14 5-6 0-10-1-14-4-3-2-5-5-5-9 0-4 1-7 4-9 3-2 8-4 16-6 7-2 13-4 16-6 4-2 7-4 9-7 2-3 2-6 2-10 0-6-2-12-7-15-6-4-12-6-21-6-9 0-16 2-22 6-5 5-8 10-8 17l9 0c0-5 2-9 6-12 4-3 9-4 15-4 6 0 11 1 14 4 4 2 6 6 6 10z"/>
<glyph glyph-name="date" unicode="&#90;" d="M125 392l7 0c12 0 21 10 21 21l0 78c0 11-9 20-21 20l-7 0c-11 0-20-9-20-20l0-78c0-11 9-21 20-21z m259 1l7 0c11 0 20 9 20 20l0 78c0 12-9 21-20 21l-7 0c-12 0-21-9-21-21l0-78c0-11 9-20 21-20z m95 77l-52 0 0-62c0-20-16-32-36-32l-7 0c-21 0-37 17-37 37l0 57-178 0 0-57c0-20-16-37-37-37l-7 0c-20 0-36 17-36 37l0 57-56 0c-18 0-33-15-33-34l0-402c0-19 15-34 33-34l446 0c18 0 33 15 33 34l0 402c0 19-15 34-33 34z m0-436l-446 0 0 304 446 0 0-304c0 0 0 0 0 0z m-206 202l59 0c2 0 4 2 4 4l0 52c0 2-2 4-4 4l-59 0c-2 0-4-2-4-4l0-52c0-2 2-4 4-4z m96 0l59 0c2 0 4 2 4 4l0 52c0 2-2 4-4 4l-59 0c-2 0-4-2-4-4l0-52c0-2 2-4 4-4z m-288-85l59 0c2 0 4 2 4 4l0 52c0 2-2 4-4 4l-59 0c-2 0-4-2-4-4l0-52c0-2 2-4 4-4z m96 0l59 0c2 0 4 2 4 4l0 52c0 2-2 4-4 4l-59 0c-2 0-4-2-4-4l0-52c0-2 2-4 4-4z m96 0l59 0c2 0 4 2 4 4l0 52c0 2-2 4-4 4l-59 0c-2 0-4-2-4-4l0-52c0-2 2-4 4-4z m96 0l59 0c2 0 4 2 4 4l0 52c0 2-2 4-4 4l-59 0c-2 0-4-2-4-4l0-52c0-2 2-4 4-4z m-229-25l-59 0c-2 0-4-1-4-4l0-52c0-2 2-4 4-4l59 0c2 0 4 2 4 4l0 52c0 3-2 4-4 4z m96 0l-59 0c-2 0-4-1-4-4l0-52c0-2 2-4 4-4l59 0c2 0 4 2 4 4l0 52c0 3-2 4-4 4z m96 0l-59 0c-2 0-4-1-4-4l0-52c0-2 2-4 4-4l59 0c2 0 4 2 4 4l0 52c0 3-2 4-4 4z m96 0l-59 0c-2 0-4-1-4-4l0-52c0-2 2-4 4-4l59 0c2 0 4 2 4 4l0 52c0 3-2 4-4 4z"/>
<glyph glyph-name="community" unicode="&#48;" d="M349 333l0-4 4-2c10-5 21-7 32-7 42 0 76 34 76 76 0 43-34 77-76 77-41 0-75-34-76-75l0-5 4-2c20-13 33-34 36-58z m-24 64c1 33 27 60 60 60 34 0 61-27 61-61 0-33-27-60-61-60-8 0-17 2-25 5l4-6c-3 29-19 54-43 69z m13-82c0 42-34 77-76 77-42 0-76-35-76-77 0-42 34-76 76-76 42 0 76 34 76 76z m-136 0c0 34 27 61 60 61 33 0 61-27 61-61 0-34-28-61-61-61-33 0-60 27-60 61z m31-86c-52 0-95-43-95-96l0-71 0-1 0-2 1-4 5-2 5-1c42-14 83-20 121-20 29 0 54 4 77 10 14 3 24 7 30 10l4 3-3 7 0-8 8 0 0 79c0 53-42 96-95 96z m138-96l0-71 7 0 0 8-2 0-2-1-4-3c-5-2-14-6-27-9-21-6-46-9-73-9-37 0-75 6-117 19l-5 1-2-7 8 1 0 1-8-1 8 0 0 71c0 44 35 80 79 80l58 0c44 0 80-36 80-80z m-14 177l-8 0 0-8c0-20-9-39-23-53l-10-9 13-4c40-12 68-50 68-93l0-30 8 1c26 1 49 4 69 10 12 3 21 7 26 10l5 2-4 7 0-8 9 0 0 79c0 53-43 96-96 96z m137-96l0-71 8 0 0 8-3 0-1-1-5-2c-4-3-12-6-24-9-18-5-40-9-64-10l8-8 0 22c0 50-33 94-80 108l3-13c18 16 28 39 29 64l-8-8 57 0c44 0 80-36 80-80z m-322 118l3 2 1 3c3 20 13 37 29 49l3 2 0 4c0 0 0 0 0 1 0 2 0 2 0 3 0 43-34 77-76 77-42 0-76-34-76-77 0-42 34-76 76-76 14 0 28 4 40 12z m-100 64c0 34 27 61 60 61 33 0 60-27 60-61 0 0 0-1 0-2 0-1 0-1 0-1l8-1-5 7c-18-15-31-36-34-60l3 6c-10-6-21-9-32-9-33 0-60 27-60 60z m103-94l0 7-7 1c0 0 0 0-1 0 0 0 0 0-1 0-2 0-4 0-5 0l-58 0c-52 0-95-43-95-96l0-71 0-1 0-1 1-5 4-1 5-2c35-11 69-17 101-19l8 0 0 29c0 43 28 81 68 93l13 4-9 9c-15 14-23 33-24 53z m16-51c-47-14-80-58-80-108l0-21 9 8c-31 1-63 7-97 18l-5 1-2-7 8 1-1 1-7-1 8 0 0 71c0 44 35 80 79 80l58 0c1 0 2 0 4 0 0 0 0 0 1 0 0 0 0 0 1 0l0 8-8 0c1-25 12-48 29-64z"/>
<glyph glyph-name="pin-pinned" unicode="&#49;" d="M507 389c13 13-3 50-36 82-32 33-69 49-82 37l0 0-182-163c-33 29-84 28-116-3-5-6-8-13-8-21 0-7 3-15 8-20l82-82-169-191c-5-7-5-16 0-22 6-7 16-7 23-1l191 169 8-8 42-43 32-31c5-6 13-9 20-9 8 0 15 3 21 9 32 32 33 83 3 116l163 181c0 0 0 0 0 0z"/>
<glyph glyph-name="pin" unicode="&#50;" d="M365 491l-162-145 19 0c-36 31-89 30-123-4-7-7-11-17-11-28 0-11 4-21 11-28l73-73 0 19-151-170c-9-10-9-27 0-38 11-11 29-13 41-2l169 151-9 10-10-10 7-7 38-38 28-28c8-7 18-12 28-12 11 0 21 5 28 12 34 34 35 87 4 123l0-19 144 160c20 20 3 59-32 94-34 33-72 51-92 33z m100-92c4-9 4-14 4-15l-145-161-8-9 8-10c21-24 20-61-3-84-2-2-5-3-8-3-3 0-6 1-8 3l-28 28-38 38-7 7-9 10-10-9-170-151c0 0 150 170 150 170l9 10-9 10-74 73c-2 2-3 5-3 8 0 3 1 6 3 8 23 23 60 24 84 3l10-9 9 9 162 144c0 1 6 1 14-3 12-6 26-16 39-29 13-13 23-27 28-38z"/>
<glyph glyph-name="datepicker-arrow-left" unicode="&#51;" d="M414 60l-60-60-256 256 256 256 60-60-196-196z"/>
<glyph glyph-name="datepicker-arrow-right" unicode="&#52;" d="M98 60l196 196-196 196 60 60 256-256-256-256z"/>
<glyph glyph-name="guestlogin" unicode="&#53;" d="M264 259l-3 1-2-3c-20-23-42-36-66-36-24 0-47 13-67 36l-2 3-3-1-71-22c-16-4-27-19-27-35l0-144c0-15 12-27 27-27l235 0 0 121c0 12 7 23 17 30l2 1 0 23c0 12 2 23 6 34l2 4-4 2z m38-16c-5-12-7-24-7-37l0-20 2 3c-13-8-21-22-21-37l0-116 5 4-231 0c-10 0-18 8-18 18l0 144c0 12 8 23 20 27l72 21-5 1c21-25 47-39 74-39 27 0 52 14 73 39l-5-1 44-13z m169-37c0 44-36 80-80 80-44 0-80-36-80-80l0-31 3 5c-12-4-21-15-21-28l0-122c0-16 13-29 29-29l138 0c16 0 29 13 29 29l0 122c0 13-9 24-22 28l4-5z m-9-34l3-1c9-2 15-10 15-19l0-122c0-11-9-20-20-20l-138 0c-11 0-20 9-20 20l0 122c0 9 6 17 15 19l3 1 0 34c0 39 32 71 71 71 39 0 71-32 71-71z m-63-110c0-4-4-7-8-7-4 0-8 3-8 7l0 23-2 1c-5 4-8 10-8 16 0 10 8 18 18 18 10 0 18-8 18-18 0-6-3-12-8-16l-2-1z m6 17c8 5 13 13 13 23 0 15-12 27-27 27-15 0-27-12-27-27 0-10 4-18 12-23l-2 4 0-21c0-9 8-17 17-17 9 0 17 8 17 17l0 21z m-57 102l5-5 0 30c0 21 17 38 38 38 21 0 38-17 38-38l0-30 5 5z m90-9l0 34c0 26-21 47-47 47-26 0-47-21-47-47l0-34z m-328 130l-5 3c20-46 53-77 88-77 35 0 67 31 87 77l-4-3c9 0 19 5 26 14 4 5 7 11 9 17 4 11 4 23 1 33-3 8-8 13-15 16l-2 0-1 0c-1-1-2-1-2-1-1 0-2 1-4 1-2 1-3 3-4 5 0 1-1 3-2 5-2 2-4 5-7 8-9 6-22 10-39 10-4 0-7 0-12 0 0 0-1 0-2 0-2 0-4 0-7 0-25 0-46 5-57 18-3 3-5 6-7 10l-2 5-4-3c-21-13-36-31-43-53-1-2-2-4-4-5-1-1-3-1-4-1 0 0 0 0 0 0-1 0-1 0-2 0 0 1-2 1-2 1l-1 0c-7-3-12-9-15-16-4-10-3-22 1-33 2-6 5-12 9-17 7-9 16-14 26-14z m-27 34c-3 9-3 19-1 27 2 5 6 9 10 10l-2 4-1-4c1-1 2-1 3-1 1 0 2 0 2 0 3 0 6 1 8 2 4 2 7 6 9 10 6 20 20 36 39 48l-3 4-4-2c2-4 4-9 8-12 13-15 36-22 64-22 3 0 5 1 7 1 2 0 3 0 3 0 4 0 8 0 11 0 15 0 26-3 33-8 2-2 4-4 5-6 1-1 1-2 1-3 2-4 5-8 9-10 3-1 5-2 8-2 0 0 0 0 1 0 1 0 2 1 3 1 1 0-1 5-1 5l-1-5c4-1 7-5 9-10 3-8 3-18 0-27-2-5-5-10-8-14-6-7-13-11-19-11l-3 0-1-3c-19-42-49-71-79-71-30 0-61 29-79 71l-2 3-3 0c-6 0-13 4-18 11-3 4-6 9-8 14z m93 83c11-4 25-6 39-6 2 0 5 0 7 0 1 0 2 0 2 0 4 0 8 1 12 1 20 0 34-5 43-14 3-3 5-6 7-9 1-1 1-3 1-3l6-23 3 23 3 22c7 49-27 94-76 101-3 1-6 1-9 1-17 0-33-7-45-19l0-1 3-3 2 4c-8 3-16 5-24 5-12 0-24-4-34-10-19-14-29-36-28-59l2-41 1-26 8 25c5 17 14 32 28 44 7 6 14 11 22 15 2 2 5 3 7 4 1 0 2 1 2 1l-6 5c-2-18 7-30 24-37z m-14 43l-7-3c0 0-1 0-3-1-2-1-5-2-8-4-8-4-16-10-23-17-15-13-26-28-31-47l9-1-2 41c-1 20 8 39 24 50 9 6 19 9 29 9 7 0 14-1 20-4l3-2 2 3 1 1c10 10 24 16 38 16 2 0 5 0 7-1 44-6 75-46 69-90l-3-23 9 1c-1 4-4 11-11 17-11 10-27 16-49 16-4 0-8 0-13-1 0 0-1 0-2 0-2 0-4 0-6 0-13 0-26 2-36 6-13 5-19 13-18 27z"/>
<glyph glyph-name="addimage" unicode="&#54;" d="M490 506l-323 0c-11 0-20-9-20-21l0-53 41 0 0 32 282 0 0-210-38 0 0-109 58 0c12 0 21 9 21 20l0 320c0 12-9 21-21 21z m-145-139l-323 0c-11 0-20-9-20-21l0-320c0-11 9-21 20-21l323 0c12 0 21 10 21 21l0 320c0 12-9 21-21 21z m-302-42l282 0 0-210-282 0z"/>
<glyph glyph-name="addimage-plus" unicode="&#55;" d="M499 401l-187 0c-7 0-12-5-12-12l0-31 24 0 0 19 163 0 0-122-21 0 0-64 33 0c7 0 12 6 12 12l0 186c0 7-5 12-12 12z m-84-81l-188 0c-6 0-12-5-12-12l0-186c0-6 6-12 12-12l188 0c7 0 12 6 12 12l0 186c0 7-5 12-12 12z m-176-24l164 0 0-122-164 0z m-95-53l-62 0 0-61-20 0 0 61-62 0 0 21 62 0 0 61 20 0 0-61 62 0z"/>
<glyph glyph-name="twitter" unicode="&#56;" d="M2 95c46-29 100-46 158-46 189 0 293 158 293 295 0 4 0 9-1 13 21 15 38 33 52 54-19-8-39-14-59-17 21 13 37 34 45 58-20-12-42-21-65-25-19 20-46 32-76 32-56 0-102-46-102-103 0-8 0-16 2-24-85 4-161 46-212 108-9-15-14-33-14-52 0-36 18-67 46-86-17 1-33 5-47 13 0 0 0-1 0-1 0-50 36-92 83-102-9-2-18-4-27-4-7 0-13 1-20 2 13-41 51-71 96-72-35-27-79-44-127-44-9 0-17 1-25 1z"/>
<glyph glyph-name="tumblr" unicode="&#57;" d="M158 128c0-20 3-37 9-52 4-11 13-23 26-34 10-10 24-19 43-26 23-6 43-9 60-9 20 0 39 2 56 7 20 4 40 11 59 21l0 80c-26-17-52-26-76-26-11 0-24 4-39 11-8 6-13 12-15 19-4 9-7 28-7 57l0 127 116 0 0 77-116 0 0 130-68 0c-6-30-12-52-18-65-7-16-18-30-34-43-16-13-33-22-50-28l0-71 54 0 0-175z"/>
<glyph glyph-name="facebook" unicode="&#33;" d="M191 7l104 0 0 252 70 0c0 0 6 40 9 85l-79 0 0 57c0 9 12 21 23 21l56 0 0 88-77 0c-109 0-106-85-106-98l0-69-51 0 0-84 51 0 0-252z"/>
<glyph glyph-name="trash" unicode="&#34;" d="M86 57c0-31 26-57 57-57l226 0c31 0 57 26 57 57l0 341-340 0z m368 427l-99 0-28 28-142 0-28-28-99 0 0-57 396 0z"/>
<glyph glyph-name="plane" unicode="&#35;" d="M170 42c0-3 2-6 4-7 3-2 6-2 9 0l57 39-70 33z m338 434c-1 2-3 2-5 2-2 0-3 0-4-1l-491-238c-5-3-8-8-8-13 0-6 3-11 8-13l130-62 258 211-226-226 161-76c2-1 4-1 6-1 2 0 4 0 6 1 3 1 6 4 8 8l159 399c2 3 1 7-2 9z"/>
<glyph glyph-name="edit" unicode="&#36;" d="M318 426l104-104-263-265-104 105z m183 26l-46 46c-18 18-47 18-65 0l-45-44 105-105 51 52c14 14 14 37 0 51z m-501-437c-2-9 6-16 15-14l116 28-104 104z"/>
<glyph glyph-name="visible-yes" unicode="&#37;" d="M503 273c-5 6-112 136-248 136-137 0-244-130-248-136-9-10-9-26 0-37 4-6 111-136 248-136 136 0 243 130 248 136 9 11 9 27 0 37z m-207 58c10 5 22-1 29-14 7-12 5-27-5-32-9-5-22 1-28 13-7 13-5 28 4 33z m-41-183c-96 0-176 77-204 107 19 20 62 62 117 87-11-17-17-38-17-60 0-60 46-109 104-109 57 0 104 49 104 109 0 22-7 43-17 60 55-25 97-67 116-87-28-30-108-107-203-107z"/>
<glyph glyph-name="visible-no" unicode="&#38;" d="M359 278l-102-101c56 1 100 46 102 101z m144-5c-3 2-33 37-80 69l-32-32c31-20 55-42 67-55-28-29-108-102-203-102-7 0-14 0-21 1l-38-38c19-5 38-8 59-8 136 0 243 124 248 129 9 10 9 25 0 36z m-34 154c0 1-1 2-2 3l-36 37c-2 2-6 2-8 0l-81-82c-27 10-57 16-87 16-137 0-244-123-248-128-9-11-9-26 0-36 2-3 41-48 102-84l-67-67c-1-1-1-2-1-3 0-2 0-3 1-4l37-36c1-1 2-2 3-2 2 0 3 1 4 2l381 380c1 1 2 2 2 4z m-418-172c19 19 62 59 117 82-11-16-17-35-17-56 0-25 8-47 22-64l-32-32c-42 24-74 54-90 70z"/>
<glyph glyph-name="account" unicode="&#39;" d="M179 412l152 0c31 35 32 62 32 63 4 23-20 41-45 36-19-4-40-6-62-6-23 0-44 2-63 6-25 5-49-13-46-36 1-2 5-36 32-63z m57-149l43 0c9 0 17-3 22-9 6-5 9-12 9-21 0-9-3-16-9-21-5-6-13-9-22-9l-43 0z m102 127l-165 0c-70-47-119-148-119-233 0-116 90-157 202-157 112 0 202 42 202 157 0 85-49 186-120 233z m-162-256c-1 0-2 0-3 1-1 1-1 2-1 3l0 17c0 2 0 3 1 3 1 1 2 2 3 2l30 0 0 15-30 0c-1 0-2 1-3 1-1 1-1 2-1 3l0 20c0 1 0 2 1 3 1 1 2 1 3 1l30 0 0 84c0 1 0 2 1 3 1 0 2 1 3 1l71 0c18 0 33-6 44-16 11-11 17-25 17-42 0-17-6-31-17-42-11-10-26-16-44-16l-45 0 0-15 67 0c2 0 3-1 3-2 1 0 2-1 2-3l0-17c0-1-1-2-2-3 0-1-1-1-3-1l-67 0 0-25c0-2 0-3-1-3-1-1-2-2-3-2l-22 0c-1 0-2 1-3 2-1 0-1 1-1 3l0 25"/>
<glyph glyph-name="writemessage" unicode="&#40;" d="M146 207l50-50-56-13c-4-1-8 2-7 6z m228 129l-25-25-50 50 21 21c9 9 23 9 32 0l22-22c7-7 7-17 0-24z m-88 12l50-50-127-127-50 50 127 127m-28 164c-134 0-243-112-243-249 0-47 13-93 37-132l-40-108c-2-6-1-13 4-17 3-3 6-5 10-5 2 0 4 1 6 1l109 42c36-20 76-31 117-31 134 0 243 112 243 250 0 137-109 249-243 249z"/>
<glyph glyph-name="messaging" unicode="&#41;" d="M362 251c-20 0-36 17-36 37 0 20 16 37 36 37 20 0 37-17 37-37 0-20-17-37-37-37z m-109 0c-21 0-37 17-37 37 0 20 16 37 37 37 20 0 36-17 36-37 0-20-16-37-36-37z m-110 0c-20 0-37 17-37 37 0 20 17 37 37 37 20 0 36-17 36-37 0-20-16-37-36-37z m113 254c-68 0-132-21-180-60-49-40-76-93-76-149 0-57 27-110 76-149 48-39 112-60 180-60 7 0 14 0 21 0l43-71c3-5 9-8 15-8 6 0 11 3 14 7l93 137c45 39 70 90 70 144 0 56-27 109-76 149-49 39-112 60-180 60z"/>
<glyph glyph-name="community-selected" unicode="&#42;" d="M306 396c23-14 39-39 42-68 10-5 21-7 32-7 41 0 74 33 74 74 0 42-33 75-74 75-41 0-74-33-74-74z m-49-153c41 0 74 34 74 75 0 41-33 75-74 75-41 0-74-34-74-75 0-41 33-75 74-75z m31-5l-63 0c-52 0-95-43-95-95l0-78 1-1 5-2c50-16 93-21 129-21 70 0 111 20 113 22l5 2 1 0 0 78c0 52-43 95-96 95z m123 77l-62 0c-1-25-12-47-28-64 46-14 80-57 80-109l0-23c62 2 98 19 100 21l5 2 1 0 0 78c0 53-43 95-96 95z m-284 6c14 0 28 4 39 11 4 24 17 45 35 59 0 1 0 3 0 4 0 41-33 75-74 75-41 0-75-34-75-75 0-41 34-74 75-74z m66-70c-16 17-27 39-28 64-2 0-4 0-7 0l-63 0c-52 0-95-42-95-95l0-78 0-1 6-2c40-12 75-18 107-20l0 23c0 52 34 95 80 109z"/>
<glyph glyph-name="like-off" unicode="&#116;" d="M447 417l0 0c-16 15-39 23-72 23-7 0-15-1-23-4-9-3-17-7-25-11-9-7-17-12-24-18-6-5-12-10-18-16l-29-28-29 28c-6 6-12 11-18 16-7 6-15 11-24 18-8 4-16 8-25 11-8 3-16 4-23 4-33 0-56-8-72-23-16-15-24-37-24-67 0-8 1-17 5-26 3-11 7-19 11-26 5-8 10-15 16-23 7-8 11-13 13-15 3-3 4-4 4-4l3-3 179-170c-4 5-10 7-16 7-6 0-12-2-16-6l178 168c36 36 53 69 53 98 0 30-8 52-24 67z m29 29c24-23 36-55 36-96 0-42-22-84-65-127l-178-169c-4-3-8-5-13-5-5 0-9 2-13 5l-178 170c-2 1-4 4-8 7-3 3-8 9-16 18-7 9-13 18-19 28-6 9-11 20-15 34-5 13-7 26-7 39 0 41 12 73 36 96 24 24 58 35 101 35 11 0 23-2 36-6 12-4 23-9 34-16 11-7 20-13 27-19 8-6 15-13 22-19 7 6 14 13 22 19 7 6 16 12 27 19 11 7 22 12 34 16 13 4 25 6 36 6 43 0 77-11 101-35z"/>
<glyph glyph-name="like-on" unicode="&#117;" d="M511 351c-7 81-66 140-138 140-49 0-93-25-118-67-25 42-68 67-116 67-72 0-131-59-138-140-1-4-3-22 4-53 11-45 35-85 71-117l178-160 182 160c36 32 60 72 71 117 7 31 5 49 4 53z"/>
<glyph glyph-name="make-off" unicode="&#44;" d="M485 469c-7 1-19 1-33-2-37-6-75-23-98-46-16-14-13-38 8-58 22-21 47-24 62-9 12 11 15 20 18 43 6 40 13 61 39 90-6-6 0-18 4-18z m-48-128c-25-24-61-18-88 8-26 26-33 62-8 86 58 57 177 65 154 39-52-57-19-96-58-133z m-123 6c-3-3-6-7-10-10-10-11-20-21-30-31 0 0 0 0-1-1-15-15-26-27-34-35-18-17-185-195-203-216-2-2-3-3-3-4 1 1 1 3 1 6 1 4-1 7-2 8 0 0 1-1 3-3 2-1 3-3 5-5 1-1 1-1 3-3 1-1 1-1 2-2 5-5 7-7 9-9 0 0 0 0-2 1-5 1-10-1-13-4 0 0 17 15 24 21 6 5 11 9 15 13 29 24 55 46 79 67 1 0 1 0 1 1 0 0 0 0 1 0 64 55 103 89 113 98 5 6 19 19 37 38 9 9 19 19 28 28 6 6 6 6 10 10 2 3 2 3 3 3l0-26-59 58c0 0 26 1 26 1 0-1 0-1-3-4z m-283-309c0 1-4 4-4 5-2 2-4 4-5 5-8 8-8 9 0 19 15 16 183 197 204 217 23 22 78 80 78 80l59-59c0 0-64-65-78-79-11-10-52-46-114-99-1-1-1-1-2-2-25-21-51-43-79-67-14-11-39-33-39-33-2-1-4-1-8 2-3 2-7 6-12 11z m337 146l5-4 5 2c9 4 19 5 28 5l5 0c43-3 76-37 76-79 0-12-3-23-8-34l15 2-60 59c-4 4-9 7-14 9-5 2-9 3-14 3-10 0-20-4-28-12-11-10-14-27-9-41 2-5 5-10 9-14l60-59 3 15c-11-5-23-8-35-8-42 0-77 33-80 74l-1 7c0 8 2 17 6 26l2 6-5 4-52 52-13-13 52-52-2 10c-4-11-6-23-6-34l0-7c4-51 47-92 99-92 15 0 29 4 43 10l12 6-10 9-60 59c-2 2-3 5-4 7-3 8-1 16 4 22 4 4 10 6 15 6 2 0 5 0 7-1 3-2 6-3 8-5l59-59 10-9 5 11c7 14 10 28 10 43 0 52-40 94-92 97l-6 1c-13 0-24-2-35-6l9-2-50 49-13-13z m-163 220l0 7c-4 52-47 92-99 92-15 0-29-4-43-10l-12-6 10-9 60-59c1-2 3-5 4-8 3-7 1-15-4-21-4-4-10-6-15-6-2 0-5 1-7 1-3 2-6 3-8 5l-60 59-9 9-6-12c-6-13-9-27-9-42 0-51 40-94 92-97l6-1c12 0 23 2 35 6l-10 2 54-52 13 13-53 53-5 4-5-2c-10-4-19-5-28-5l-5 0c-43 3-76 37-76 79 0 12 3 23 8 34l-15-2 60-59c4-4 8-7 14-9 5-2 9-3 14-3 10 0 20 4 28 12 11 10 14 27 9 41-3 6-5 10-9 14l-60 59-3-15c11 5 23 8 35 8 42 0 77-33 80-74l1-7c0-8-2-17-6-26l18-7c4 12 6 23 6 34z m-8-24l-13-13 52-52 13 14z"/>
<glyph glyph-name="useravatar" unicode="&#45;" d="M329 244c-20-24-45-40-73-40-28 0-53 16-73 40l-75-22c-15-5-25-18-25-33l0-104c0-96 0-84 173-84 173 0 173-12 173 84l0 104c0 15-10 28-25 33z m-184 69c7-8 16-13 24-13 18-42 50-79 87-79 37 0 69 37 87 79 8 0 17 5 24 13 3 5 6 10 8 16 4 12 4 23 1 32-2 6-7 12-13 14-1-1-2-1-3-1 0 0 0 0-1 0-2 0-3 1-5 1-3 2-6 5-7 8 0 1-7 22-46 22-3 0-7 0-11-1 0 0-5 0-11 0-20 0-48 3-64 21-3 3-5 7-7 12-14-10-35-27-43-54-1-3-3-6-6-8-2-1-4-1-6-1-1 0-1 0-2 0-1 0-2 0-3 1-5-3-10-8-12-14-3-9-3-20 1-32 2-6 5-11 8-16z m73 144c-4-36 41-40 61-40 6 0 9 0 9 0 5 1 9 1 13 1 51 0 58-31 58-31l3 23c7 49-27 94-75 101-3 1-6 1-9 1-16 0-32-7-43-19l-1-1c-7 4-15 5-23 5-12 0-23-3-33-10-18-13-28-35-27-57l2-43c15 50 65 70 65 70z"/>
<glyph glyph-name="package" unicode="&#46;" d="M511 225c-5 9-16 14-25 10l-221-92c-7 5-16 8-25 9l-123 293c-13 31-48 46-79 33-16-6-27-18-33-33-7-15-7-32 0-47 4-9 15-14 25-10 9 4 14 15 10 25-2 6-2 12 0 17 2 6 7 10 12 13 12 5 25-1 30-12l119-286c-12-6-22-17-27-30-6-16-6-32 0-48 10-23 32-38 57-38 8 0 16 2 24 5 30 13 45 47 35 78l210 88c10 4 15 15 11 25z m-271-156c-3-1-6-2-9-2-9 0-18 6-22 15-2 6-2 12 0 18 3 6 7 11 13 13 3 1 6 2 9 2 10 0 18-6 22-15 5-12-1-26-13-31z m18 114c2-5 6-8 11-8 1 0 3 1 4 1l197 82c6 3 9 10 6 16l-72 174c-2 4-7 7-11 7-2 0-4 0-5-1l-196-82c-7-2-9-10-7-16z m65 152l50-25-18-7 19-45-33-14-19 45-18-7z"/>
<glyph glyph-name="article" unicode="&#75;" d="M457 497c0 8-7 14-15 14l-366 0c-8 0-15-6-15-14l0-482c0-8 7-14 15-14l366 0c5 0 8 1 10 4 1 0 1 0 1 0 0 0 0 0 0 0 3 3 4 6 4 10 0 161 0 321 0 482z m-343-47l125 0 0-24-125 0z m168 2l126 0 0-115-126 0z m-168-49l125 0 0-23-125 0z m0-46l125 0 0-23-125 0z m0-59l294 0 0-23-294 0z m0-58l294 0 0-23-294 0z m0-60l294 0 0-23-294 0z m0-58l294 0 0-23-294 0z m0-61l294 0 0-23-294 0z"/>
<glyph glyph-name="askquestion" unicode="&#43;" d="M149 456c-88 0-146-72-146-159 0-88 58-159 146-159l77 0 0-64c0-7 5-14 12-17 2-1 10 1 13 4l60 77 55 0c88 0 146 71 146 159 0 87-58 159-146 159z m82-267c0 15 12 27 27 27 14 0 26-12 26-27 0-14-12-26-26-26-15 0-27 12-27 26z m47 95l0-28c0-11-9-20-20-20-12 0-21 9-21 20l0 30c0 20 14 30 25 37 12 8 19 13 19 29 0 13-10 24-23 24-14 0-24-11-24-24 0-11-10-20-21-20-12 0-21 9-21 20 0 36 29 65 66 65 36 0 65-29 65-65 0-38-23-53-37-63-4-2-6-4-8-5z"/>
<glyph glyph-name="namecloud" unicode="&#47;" d="M465 281c-8 35-43 61-85 61-12 0-22-2-32-5-7 37-43 65-86 65-41 0-75-24-85-57-13 8-30 12-47 12-49 0-88-34-88-77 0-4 0-7 1-11-26-13-43-38-43-67 0-42 39-77 87-77 14 0 27 3 39 8 14-8 31-13 48-13 26 0 49 10 65 25 16-21 43-35 73-35 30 0 57 13 72 34 12-6 26-9 41-9 48 0 87 35 87 77 0 30-19 56-47 69"/>
<glyph glyph-name="organization" unicode="&#58;" d="M65 99c20 0 36 17 36 37 0 20-16 37-36 37-20 0-37-17-37-37 0-20 17-37 37-37z m15-2l-31 0c-25 0-46-21-46-47l0-38 0 0 2-1c25-8 46-10 64-10 34 0 54 9 55 10l2 1 1 0 0 38c0 26-21 47-47 47z m174 2c20 0 36 17 36 37 0 20-16 37-36 37-20 0-36-17-36-37 0-20 16-37 36-37z m15-2l-30 0c-26 0-47-21-47-47l0-38 0 0 3-1c24-8 45-10 63-10 34 0 54 9 55 10l3 1 0 0 0 38c0 26-21 47-47 47z m-15 342c20 0 36 16 36 36 0 21-16 37-36 37-20 0-36-16-36-37 0-20 16-36 36-36z m15-3l-30 0c-26 0-47-21-47-46l0-38 0-1 3-1c24-7 45-10 63-10 34 0 54 10 55 10l3 2 0 0 0 38c0 25-21 46-47 46z m174-337c20 0 37 17 37 37 0 20-17 37-37 37-20 0-36-17-36-37 0-20 16-37 36-37z m16-2l-31 0c-26 0-47-21-47-47l0-38 0 0 3-1c24-8 46-10 63-10 34 0 54 9 56 10l2 1 0 0 0 38c0 26-21 47-46 47z m-377 109l0 30 159 0 0-30c0-8 7-15 15-15 8 0 15 7 15 15l0 30 159 0 0-30c0-8 7-15 16-15 8 0 15 7 15 15l0 46c0 8-7 15-15 15l-175 0 0 41c0 9-7 15-15 15-8 0-15-6-15-15l0-41-175 0c-8 0-15-7-15-15l0-46c0-8 7-15 15-15 9 0 16 7 16 15z"/>
<glyph glyph-name="organization-long" unicode="&#59;" d="M25 193c8 0 14 6 14 15 0 8-6 14-14 14-9 0-15-6-15-14 0-9 6-15 15-15z m231 0c8 0 14 6 14 15 0 8-6 14-14 14-8 0-15-6-15-14 0-9 7-15 15-15z m-225-1l-12 0c-10 0-19-9-19-19l0-15 0-1 1 0c10-3 19-4 26-4 14 0 22 4 22 4l1 1 0 0 0 15c0 10-8 19-19 19z m232 0l-13 0c-10 0-19-9-19-19l0-15 0-1 1 0c10-3 19-4 26-4 14 0 22 4 22 4l1 1 0 0 0 15c0 10-8 19-18 19z m-162 1c8 0 15 6 15 15 0 8-7 14-15 14-8 0-14-6-14-14 0-9 6-15 14-15z m231 0c8 0 15 6 15 15 0 8-7 14-15 14-8 0-14-6-14-14 0-9 6-15 14-15z m-224-1l-12 0c-11 0-19-9-19-19l0-15 0-1 1 0c10-3 18-4 25-4 14 0 22 4 23 4l1 1 0 0 0 15c0 10-9 19-19 19z m148 137c8 0 14 7 14 15 0 8-6 15-14 15-8 0-15-7-15-15 0-8 7-15 15-15z m7-1l-13 0c-10 0-19-8-19-19l0-15 0 0 1 0c10-4 19-5 26-5 14 0 22 4 22 5l1 0 0 0 0 15c0 11-8 19-18 19z m145 1c8 0 15 7 15 15 0 8-7 15-15 15-8 0-15-7-15-15 0-8 7-15 15-15z m7-1l-13 0c-10 0-19-8-19-19l0-15 0 0 1 0c10-4 19-5 26-5 14 0 22 4 22 5l1 0 1 0 0 15c0 11-9 19-19 19z m-314 1c8 0 15 7 15 15 0 8-7 15-15 15-8 0-14-7-14-15 0-8 6-15 14-15z m7-1l-12 0c-11 0-19-8-19-19l0-15 0 0 1 0c10-4 18-5 25-5 14 0 22 4 23 5l1 0 0 0 0 15c0 11-9 19-19 19z m219-136c-11 0-19-9-19-19l0-15 0-1 1 0c10-3 18-4 26-4 13 0 21 4 22 4l1 1 0 15c0 10-8 19-19 19z m82 1c9 0 15 6 15 15 0 8-6 14-15 14-8 0-14-6-14-14 0-9 6-15 14-15z m-77 67l-70 0 0 17c0 3-3 6-6 6-4 0-7-3-7-6l0-17-70 0c-1 0-2 0-3-1l-67 0 0 17c0 4-3 6-7 6-3 0-6-2-6-6l0-17-70 0c-4 0-6-2-6-6l0-18c0-3 2-6 6-6 3 0 6 3 6 6l0 12 64 0 0-12c0-3 3-6 6-6 4 0 7 3 7 6l0 12 64 0 0-11c0-1 0-2 0-3 1-2 3-4 6-4 3 0 6 3 6 6l0 13 64 0 0-12c0-4 3-6 7-6 3 0 6 2 6 6l0 12 64 0 0-12c0-4 3-6 6-6 0 0 0 0 0 0 0 0 0 0 0 0 4 0 6 2 6 6l0 12 65 0 0-12c0-4 2-6 6-6 3 0 6 2 6 6l0 12 64 0 0-12c0-4 3-6 6-6 4 0 7 2 7 6l0 18c0 3-3 6-7 6l-70 0 0 17c0 3-3 6-6 6-4 0-6-3-6-6l0-17z m84-68l-12 0c-11 0-19-9-19-19l0-15 0-1 1 0c10-3 19-4 26-4 13 0 22 4 22 4l1 1 0 0 0 15c0 10-8 19-19 19z m70 1c8 0 15 6 15 15 0 8-7 14-15 14-8 0-15-6-15-14 0-9 7-15 15-15z m-6-1c-10 0-18-9-18-19l0-15 0-1 1 0c10-3 18-4 25-4 14 0 22 4 23 4l1 1 0 15c0 10-9 19-19 19z m-302 1c8 0 15 6 15 15 0 8-7 14-15 14-8 0-15-6-15-14 0-9 7-15 15-15z m7-1l-13 0c-10 0-19-9-19-19l0-15 0-1 1 0c10-3 19-4 26-4 14 0 22 4 22 4l1 1 1 0 0 15c0 10-9 19-19 19z"/>
<glyph glyph-name="shareideas" unicode="&#60;" d="M201 36c-2 0-4-1-6-3-2-1-2-3-2-5l0-19c0-3 0-5 2-6 2-2 4-3 6-3l110 0c6 0 9 3 9 9l0 19c0 2-1 4-3 5-2 2-4 3-6 3z m0 53c-2 0-4-1-6-2-2-2-2-4-2-7l0-18c0-2 0-4 2-6 2-2 4-2 6-2l110 0c2 0 4 0 6 2 2 2 3 4 3 6l0 18c0 6-3 9-9 9z m-113 171c5 0 10 0 13-3 4-2 6-5 7-9 1-4 0-8-3-12-3-4-7-6-12-7l-47-7c-5 0-9 0-13 3-4 2-6 6-7 10-1 4 1 8 4 11 3 4 6 6 11 7z m5 104c5-2 8-5 10-9 2-4 2-8 0-12-2-4-5-7-9-8-4-2-9-1-13 1l-44 19c-4 2-8 5-10 9-2 4-2 8 0 12 2 4 5 6 10 8 4 1 8 0 13-2z m73 70c3-4 4-8 4-13-1-5-3-8-7-10-4-2-8-3-12-2-5 2-8 4-11 8l-26 39c-3 5-4 9-3 13 0 5 2 8 6 11 4 2 8 2 12 1 5-1 8-4 11-8z m258-174c-5 0-10 0-14-3-3-2-6-5-7-9 0-4 1-8 4-12 3-4 7-6 12-7l47-7c5 0 9 0 13 3 4 2 6 6 7 10 1 4 0 8-3 11-3 4-7 6-13 7z m-5 104c-5-2-8-5-10-9-2-4-2-8 0-12 1-4 5-7 9-8 5-2 9-1 14 1l43 19c4 2 8 5 10 9 2 4 2 8 0 12-2 4-5 6-9 8-5 1-9 0-14-2z m-73 70c-3-4-4-8-3-13 0-5 3-8 6-10 4-2 8-3 12-2 5 2 8 4 11 8l26 39c3 5 4 9 3 13-1 5-3 8-7 11-3 2-7 2-11 1-5-1-8-4-11-8z m-106 14c0-5 1-9 4-12 3-4 7-5 12-5 4 0 7 1 10 5 3 3 5 7 5 12l0 46c0 6-2 10-5 13-3 3-6 5-10 5-5 0-9-2-12-5-3-3-4-7-4-13z m-109-148c0 0 0-1 0-1 0-1 0-1 0-2l0-2c0-6 1-14 3-22 3-14 8-28 15-43 7-15 15-30 24-47 6-11 9-21 12-30 2-9 4-17 5-24 1-6 3-11 4-15 2-4 5-6 9-7l107 0c4 1 6 3 8 7 1 4 3 9 4 15 2 7 3 15 6 24 2 9 6 19 11 30 9 17 17 32 24 47 8 15 13 29 15 43 1 4 1 8 2 11l1 11 0 5c0 18-3 33-9 47-6 13-15 24-26 33-11 9-24 16-40 21-15 4-31 7-49 7l-1 0c-18 0-35-3-50-7-15-5-28-12-40-21-11-9-19-20-26-33-6-14-9-29-9-47z"/>
<glyph glyph-name="shop-off" unicode="&#61;" d="M408 342l7-3-83 97c-14 17-39 19-56 4-16-14-18-39-4-55l49-57 6 14-142 0 6-14 49 57c14 16 12 41-4 55-17 15-42 13-56-4l-83-97 7 3-63 0c-22 0-39-18-39-40 0-22 17-39 39-39l0 8-8 0c-1-2-1-2 0-4l26-159c4-26 27-46 54-46l286 0c27 0 50 20 54 46l26 159c1 2 1 2 0 3 0 2-8 1-8 1l0-8c22 0 39 17 39 39 0 22-17 40-39 40z m87-39c0-13-10-23-22-23l-9 0 0-8c0-1 0-2 0-3 0 1-26-160-26-160-3-18-19-31-38-31l-288 0c-19 0-35 13-38 31l-26 161c0 0 0 0 0-1 0 1 0 2 0 3l0 8-9 0c-12 0-22 10-22 23 0 12 10 22 22 22l67 0 3 3 84 98c8 10 22 11 31 3 9-8 10-22 2-32l-49-57-12-15 182 0-12 15-49 57c-8 10-7 24 2 32 9 8 23 7 31-3l84-98 3-3 67 0c12 0 22-10 22-22z m-332-163c-4 0-7 3-7 7l0 78c0 4 3 7 7 7 4 0 7-3 7-7l0-78c0-4-3-7-7-7z m24 85c0 13-11 24-24 24-13 0-24-11-24-24l0-78c0-14 11-24 24-24 13 0 24 10 24 24z m38-85c-4 0-7 3-7 7l0 78c0 4 3 7 7 7 4 0 7-3 7-7l0-78c0-4-3-7-7-7z m24 85c0 13-11 24-24 24-13 0-24-11-24-24l0-78c0-14 11-24 24-24 13 0 24 10 24 24z m38-85c-4 0-7 3-7 7l0 78c0 4 3 7 7 7 4 0 7-3 7-7l0-78c0-4-3-7-7-7z m24 85c0 13-11 24-24 24-13 0-24-11-24-24l0-78c0-14 11-24 24-24 13 0 24 10 24 24z m38-85c-4 0-7 3-7 7l0 78c0 4 3 7 7 7 4 0 7-3 7-7l0-78c0-4-3-7-7-7z m24 85c0 13-11 24-24 24-13 0-24-11-24-24l0-78c0-14 11-24 24-24 13 0 24 10 24 24z"/>
<glyph glyph-name="shop-on" unicode="&#62;" d="M480 336l-65 0-87 102c-11 13-31 15-45 3-13-11-15-32-3-45l50-60-148 0 50 60c12 13 10 34-3 45-14 12-34 10-45-3l-87-102-65 0c-18 0-32-14-32-32 0-18 14-32 32-32l0 0c0-1 0-2 0-3l28-166c4-23 24-40 47-40l298 0c23 0 43 17 47 40l28 166c0 1 0 2 0 3l0 0c18 0 32 14 32 32 0 18-14 32-32 32z m-304-193c0-8-7-16-16-16-9 0-16 8-16 16l0 81c0 9 7 16 16 16 9 0 16-7 16-16z m64 0c0-8-7-16-16-16-9 0-16 8-16 16l0 81c0 9 7 16 16 16 9 0 16-7 16-16z m64 0c0-8-7-16-16-16-9 0-16 8-16 16l0 81c0 9 7 16 16 16 9 0 16-7 16-16z m64 0c0-8-7-16-16-16-9 0-16 8-16 16l0 81c0 9 7 16 16 16 9 0 16-7 16-16z"/>
<glyph glyph-name="track" unicode="&#63;" d="M502 247c0 0-1 0-1 0 0 0 0 0 0 0-3 7-6 13-11 19-17 31-51 89-68 112-20 28-44 54-79 54-8 0-16-2-24-4-25-8-50-21-58-53l-10 0c-8 32-33 45-58 53-8 2-16 4-24 4-35 0-59-26-79-54-17-23-51-81-68-112-5-6-8-12-11-19 0 0 0 0 0 0 0 0-1 0-1 0-6-15-10-32-10-49 0-65 52-118 117-118 38 0 71 18 93 47l92 0c22-29 55-47 93-47 65 0 117 53 117 118 0 17-4 34-10 49z m-385-128c-43 0-78 36-78 79 0 44 35 79 78 79 43 0 78-35 78-79 0-43-35-79-78-79z m278 0c-43 0-78 36-78 79 0 44 35 79 78 79 43 0 78-35 78-79 0-43-35-79-78-79z"/>
<glyph glyph-name="video" unicode="&#64;" d="M459 512l-407 0c-29 0-52-23-52-52l0-407c0-29 23-52 52-52l407 0c29 0 52 23 52 52l0 407c0 29-23 52-52 52z m-145-50l45 0 0-44-45 0z m-81 0l45 0 0-44-45 0z m-80 0l44 0 0-44-44 0z m-37-411l-44 0 0 44 44 0z m0 367l-44 0 0 44 44 0z m81-367l-44 0 0 44 44 0z m81 0l-45 0 0 44 45 0z m81 0l-45 0 0 44 45 0z m9 193l-170-99c-10-5-22 2-22 13l0 197c0 11 12 18 22 12l170-98c10-6 10-20 0-25z m71-193l-44 0 0 44 44 0z m0 367l-44 0 0 44 44 0z"/>
<glyph glyph-name="help" unicode="&#91;" d="M256 512c-141 0-256-115-256-256 0-141 115-256 256-256 141 0 256 115 256 256 0 141-115 256-256 256z m0-478c-123 0-222 99-222 222 0 123 99 222 222 222 123 0 222-99 222-222 0-123-99-222-222-222z m0 361c-45 0-82-37-82-82 0-9 8-16 17-16 9 0 17 7 17 16 0 27 21 48 48 48 27 0 48-21 48-48 0-26-21-48-48-48-9 0-17-7-17-16l0-59c0-9 8-17 17-17 9 0 17 8 17 17l0 43c37 8 65 41 65 80 0 45-37 82-82 82z m0-233c-12 0-21-10-21-21 0-12 9-22 21-22 12 0 21 10 21 22 0 11-9 21-21 21z"/>
<glyph glyph-name="books-off" unicode="&#108;" d="M239 9c13 0 24 10 24 24l0 446c0 13-11 24-24 24l-72 0c-13 0-24-10-24-24l0-446c0-13 11-24 24-24l72 0z m-77 470c0 0 81 0 81 0-1 0-1-446-1-446 0-1-80 0-80 0 0 0 0 446 0 446z m262-471l70 19c12 3 20 16 16 28l-117 432c-3 13-17 20-29 17l-70-19c-12-3-20-16-16-28l117-432c3-13 17-20 29-17z m-55 473c0 0 123-432 123-432 0 0-73-18-73-18 0 0-123 432-123 432 0 0 73 18 73 18z m-273-472c13 0 23 10 23 24l0 446c0 13-10 24-23 24l-72 0c-13 0-24-10-24-24l0-446c0-13 11-24 24-24l72 0z m-76 470c0 0 81 0 81 0 0 0 0-446 0-446 0-1-81 0-81 0 0 0 0 446 0 446z"/>
<glyph glyph-name="books-on" unicode="&#110;" d="M424 8l70 19c12 3 20 16 16 28l-117 432c-3 13-17 20-29 17l-70-19c-12-3-20-16-16-28l117-432c3-13 17-20 29-17z m-328 1c13 0 23 10 23 24l0 446c0 13-10 24-23 24l-72 0c-13 0-24-10-24-24l0-446c0-13 11-24 24-24l72 0z m143 0c13 0 24 10 24 24l0 446c0 13-11 24-24 24l-72 0c-13 0-24-10-24-24l0-446c0-13 11-24 24-24l72 0z"/>
<glyph glyph-name="emptygroup" unicode="&#65;" d="M67 88c10-13 26-20 45-20l274 0c36 0 72 27 81 61l40 144c5 18 2 35-8 48-10 13-26 20-44 20l-28 0-6 24c-6 25-39 44-75 44l-101 0c-26 0-44 5-48 8-12 21-62 22-72 22l-65 0c-19 0-35-7-46-20-11-13-16-30-13-49l57-259c1-9 4-16 9-23z m411 217c5-6 6-15 3-25l-40-144c-6-22-31-41-55-41l-274 0c-10 0-18 3-23 9-5 7-6 15-3 25l27 97c6 22 32 41 55 41l88 0c31 0 67 12 73 33 2 5 21 15 49 15l77 0c10 0 18-4 23-10z m-444 96c6 7 15 11 26 11l65 0c26 0 44-5 49-8 11-21 61-22 71-22l101 0c25 0 47-12 49-23l5-18-22 0c-32 0-67-11-74-33-2-4-20-14-48-14l-88 0c-36 0-71-27-81-61l-16-57-44 199c-1 10 1 20 7 26z"/>
<glyph glyph-name="furniture" unicode="&#66;" d="M451 82l-392 0c-5 0-9 4-9 9l0 97c-29 8-50 34-50 65 0 31 22 58 50 65 4 64 56 115 120 115l164 0c64 0 116-51 119-114 32-5 57-32 57-66 0-31-21-57-50-65l0-97c0-5-4-9-9-9m-58 13l54 0 0 100c0 4 3 8 8 9 24 3 43 24 43 49 0 27-22 57-49 57-27 0-56-30-56-57m-265-158l254 0 0 89-254 0m-65-89l54 0 0 158c0 27-29 57-56 57-2 0-6 0-6 0-24-3-43-32-43-57 0-25 19-46 43-49 5-1 8-5 8-9m65 0l254 0 0 12c0 14-11 33-25 33l-204 0c-14 0-25-19-25-33m25 44l204 0c9 0 18-3 25-8l0 10c0 34 25 62 58 67-4 55-49 98-104 98l-168 0c-55 0-100-43-104-97 36-2 64-32 64-68l0-10c7 5 16 8 25 8"/>
<glyph glyph-name="healthbeauty" unicode="&#95;" d="M494 222l-22 0c-1 30-16 57-39 75 0 0 0 0 0 1 0 53-44 96-97 96-6 0-11-2-14-6-3-5-5-10-4-15 5-18 2-32-6-43-17-23-56-25-56-25-3 0-5-1-8-2-29-17-48-48-49-81l-40 0 129 186c3 4 4 8 3 13-1 5-3 9-7 11l-33 23c-36 24-85 15-110-20l-127-184c-25-35-16-84 20-109l33-22c3-2 7-3 10-3 1 0 2 0 3 0 5 1 9 3 12 7l38 56 0-58c0-44 36-79 79-79l224 0c44 0 79 35 79 79l0 82c0 10-8 18-18 18z m-460-51c-22 15-24 46-8 68l136 196c15 22 53 25 75 10l36-27-196-281z m302 156c12 16 9 26 9 46 29-9 57-27 57-59 0-3 0-6 0-9-1-8 3-16 10-20 21-12 35-34 36-58l-226 0c1 23 13 44 33 56 16 2 55 10 81 44z m156-161l-345 0 0 39 345 0z m-297-107c-26 0-48 30-48 57l0 31 345 0 0-31c0-27-21-57-48-57z"/>
<glyph glyph-name="paint" unicode="&#96;" d="M400 365l-116 116c0 1 0 2 0 3 0 16-13 28-28 28-15 0-28-12-28-28 0-1 0-2 0-3l-116-116-81 0c-7 0-13-6-13-13l0-337c0-8 6-14 13-14l450 0c7 0 13 6 13 14l0 337c0 7-6 13-13 13z m-144 89c4 0 19 3 23 5l94-94-233 0 93 94c4-2 19-5 23-5z m205-434l-410 0c-9 0-16 7-16 17l0 290c0 9 7 17 16 17l410 0c9 0 16-8 16-17l0-290c0-10-7-17-16-17z m-127 236c-1-1-3-2-4-3-13-12-27-23-41-33-2 4-8 6-14 3 0-1-3-2-3-3-3-1-5-2-8-4 0 0 0 0-1 0 5 5 9 10 14 15 7 7-2 18-11 13-6-4-14-8-21-12-10-5-24-12-35-13-11-1-11-18 0-17 7 0 14 2 21 5-2-2-4-4-6-6-4-5-1-14 5-15-18-7-38-13-59-15-6 0-10-5-10-11 1-5 5-9 10-9 1 0 1 0 1 0 11 1 21 2 32 5-19-13-34-24-34-24-5-3-6-9-3-14 3-4 9-6 13-4l111 59c-10-12-19-24-24-34-3-3-2-8 0-11 3-4 7-5 12-4 4 1 8 3 13 6l-4-7c-2-3-2-7 1-10 2-3 5-5 8-5 1 0 1 0 2 0 1 0 22 3 34 7 6 1 9 7 8 12-2 6-8 9-13 8-3-1-7-2-11-3l12 23c3 4 2 9-2 13-4 3-9 3-13 0 15 18 28 32 28 32 4 4 4 10 1 14-3 4-9 5-13 3l-17-10c3 4 7 7 10 11 5 5 11 11 21 19 1 1 2 2 3 3 5 4 5 10 2 15-4 4-11 5-15 1z"/>
<glyph glyph-name="rubles" unicode="&#124;" d="M300 230c77 0 140 63 140 141 0 78-63 141-140 141l-205 0 0-230-26 0 0-52 26 0 0-30-26 0 0-52 26 0 0-148 51 0 0 148 194 0 0 52-194 0 0 30z m-154 231l154 0c49 0 89-40 89-90 0-49-40-89-89-89l-154 0z"/>
<glyph glyph-name="papers" unicode="&#123;" d="M506 258l-137 178-29-20-5 11-33-18-6 23-291-74 55-218 73 18 32-66 67 33 42-44z m-136 149l112-147-43-33-83 170z m-38 2l85-177-63-31-47 196z m-308-61l260 65 48-191-260-65z m128-190l202 51 0-8-180-88z m267 58l-145-111-24 27z"/>
<glyph glyph-name="graduate-off" unicode="&#93;" d="M8 289l76-36 0-60c0-5 3-10 7-12l146-69c2-1 4-2 6-2l24 0c2 0 4 1 6 2l145 69c3 1 5 3 7 6 0 0 0 1 0 1 1 2 1 4 1 5l0 60 21 10 0-120-12-46 20-25 19 25-9 46 0 127 38 19c4 2 7 7 7 12l0 10c0 6-3 10-7 12l-242 115c-4 2-8 2-12 0l-241-115c-5-2-8-6-8-11l0-11c0-5 3-10 8-12z m447-208l-9 22 9 35 10-35z m-190 42l-20 0-147 69 0 52 151-71c2-1 4-1 6-1 2 0 4 0 6 1l151 71 0-52z m-10 302l249-118-77-37c0 0-1 0-2 0l-170-81-171 81c-1 0-1 0-2 0l-77 37z"/>
<glyph glyph-name="graduate-on" unicode="&#94;" d="M512 311l0 12-256 123-256-123 0-12 256-123z m-423-65l0-63 154-75 26 0 154 74c0 1 0 1 0 1l0 63-167-81z m383-106l0 130-18-10 0-120-12-48 21-27 19 26z"/>
</font>
</defs>
</svg>
