<svg height="56.693" viewBox="0 0 56.693 56.693" width="56.693" xmlns="http://www.w3.org/2000/svg"><path d="M28.348 5.155c-13.6 0-24.625 11.025-24.625 24.625 0 13.602 11.025 24.625 24.625 24.625S52.971 43.382 52.971 29.78c0-13.6-11.024-24.625-24.623-24.625zm14.263 18.561c-1.645 9.268-10.834 17.113-13.598 18.906-2.766 1.789-5.287-.721-6.201-2.617-1.047-2.164-4.185-13.896-5.006-14.869-.822-.973-3.287.973-3.287.973l-1.195-1.57s5.006-5.977 8.815-6.727c4.039-.789 4.033 6.204 5.006 10.088.939 3.758 1.57 5.904 2.391 5.904.822 0 2.391-2.092 4.109-5.305 1.721-3.215-.074-6.055-3.438-4.035 1.346-8.069 14.049-10.01 12.404-.748z"/></svg>