<svg height="512" viewBox="0 0 512 512" width="512" xmlns="http://www.w3.org/2000/svg"><path d="M256 46.531c-115.982 0-210 93.784-210 209.465 0 115.69 94.018 209.473 210 209.473 115.975 0 210-93.783 210-209.473 0-115.681-94.025-209.465-210-209.465zm19.103 264.621c-15.36 0-29.795-8.305-34.742-17.732 0 0-8.26 32.77-10 39.096-6.159 22.348-24.275 44.703-25.676 46.541-.986 1.273-3.148.873-3.381-.812-.393-2.848-5.008-31.047.429-54.051l18.29-77.497s-4.533-9.081-4.533-22.499c0-21.084 12.213-36.813 27.424-36.813 12.936 0 19.179 9.706 19.179 21.347 0 13.012-8.275 32.454-12.552 50.466-3.57 15.09 7.566 27.4 22.445 27.4 26.942 0 45.09-34.615 45.09-75.623 0-31.166-20.986-54.501-59.178-54.501-43.131 0-70.02 32.175-70.02 68.115 0 12.395 3.659 21.137 9.389 27.891 2.621 3.109 2.998 4.359 2.041 7.928-.693 2.621-2.244 8.916-2.906 11.416-.941 3.607-3.863 4.887-7.115 3.561-19.864-8.109-29.126-29.877-29.126-54.334 0-40.397 34.072-88.845 101.646-88.845 54.305 0 90.034 39.283 90.034 81.473-.001 55.788-31.017 97.473-76.738 97.473z" fill-rule="evenodd" clip-rule="evenodd"/></svg>