<svg height="56.693" viewBox="0 0 56.693 56.693" width="56.693" xmlns="http://www.w3.org/2000/svg"><path d="M28.347 5.155c-13.6 0-24.625 11.025-24.625 24.625 0 13.602 11.024 24.625 24.625 24.625 13.602 0 24.625-11.023 24.625-24.625 0-13.6-11.024-24.625-24.625-24.625zm8.586 38.248c-1.324.621-2.523 1.061-3.598 1.312a15.251 15.251 0 0 1-3.484.377c-1.418 0-2.254-.178-3.344-.533-1.088-.359-2.018-.873-2.785-1.531-.771-.664-1.303-1.371-1.602-2.115-.297-.746-.445-1.828-.445-3.248V26.792h-4.212v-4.391c1.218-.395 2.63-.963 3.496-1.702a8.472 8.472 0 0 0 2.094-2.664c.525-1.033.889-2.35 1.086-3.951h4.41v7.174h7.168v5.534h-7.168v7.951c0 1.799-.023 2.836.166 3.344s.664 1.035 1.182 1.34c.688.41 1.469.617 2.354.617 1.57 0 3.131-.512 4.684-1.531v4.89z"/></svg>