<?xml version="1.0" encoding="iso-8859-1"?>
<!-- Generator: Adobe Illustrator 19.2.0, SVG Export Plug-In . SVG Version: 6.00 Build 0)  -->
<svg version="1.1" id="Isolation_Mode" xmlns="http://www.w3.org/2000/svg" xmlns:xlink="http://www.w3.org/1999/xlink" x="0px"
	 y="0px" viewBox="0 0 149.422 76.377" style="enable-background:new 0 0 149.422 76.377;" xml:space="preserve">
<g>
	<path style="fill:#FFFFFF;" d="M85.301,15.425c0.049-1.254-0.024-2.617,0.402-3.742c0.33-1.217,0.135-2.609-0.266-3.727
		c-0.12-1.524-0.596-2.897-1.603-4.052c-0.944-1.276-2.463-1.463-3.618-2.391c-1.062-0.954-2.522-1.048-3.951-1.018
		c-0.886,0.011-1.768-0.197-2.619-0.374c-1.314-0.297-2.691-0.005-3.867,0.41c-0.928,0.176-1.925,0.187-2.741,0.624
		c-1.056,0.591-2.31,0.929-3.068,2.014c-0.591,0.707-1.346,1.267-1.495,2.174c-0.142,1.116,0.046,2.249,0.978,2.975
		c0.281,0.296,0.79,0.296,0.913,0.711c-0.113,0.792-0.536,1.453-0.787,2.19c-0.48,0.823,0.757,1.288,0.303,2.14l-1.726,3.061
		c-0.209,0.448-0.468,0.873-0.468,1.408c0.204,0.855,1.232,0.534,1.746,1.033c0.368,0.473-0.199,0.822-0.228,1.264
		c-0.132,0.353,0.48,0.539,0.228,0.877c-0.332,0.563,0.27,0.96,0.434,1.424c0.048,0.684-0.379,1.445,0.159,1.996
		c1.33,0.947,3.382,0.205,4.789,0.91c0.717,0.506,0.561,1.51,0.556,2.281c-0.394,3.34-2.017,6.211-4.083,8.834
		c-0.211,0.315-0.413,0.75-0.247,1.12c0.305,0.154,0.742,0.092,1.05-0.021c3.804-1.284,6.776-4.593,10.471-6.143
		c1.438-0.693,3.054-0.933,4.632-1.285c0.368-0.301,0.173-0.834,0.075-1.228c-0.77-2.02-1.656-4.067-1.517-6.397
		c0.03-0.839,0.972-1.055,1.551-1.351c0.988-0.269,1.625-1.29,2.046-2.142C84.165,17.897,85.183,16.838,85.301,15.425
		 M68.133,71.518l-0.291-0.208c-0.861-0.654-1.092-1.021-1.092-1.493c0-0.617,0.462-1.057,1.224-1.057
		c0.67,0,0.973,0.308,1.126,0.501c0.217,0.266,0.267,0.586,0.267,0.678c0,0.129,0.032,0.189,0.111,0.189
		c0.076,0,0.112-0.084,0.112-0.312c0-0.808,0.038-1.11,0.038-1.242l-0.145-0.118c-0.27-0.075-0.7-0.18-1.375-0.18
		c-1.434,0-2.386,0.821-2.386,1.957c0,0.837,0.396,1.559,1.531,2.447l0.469,0.37c0.864,0.66,1.015,1.146,1.015,1.654
		c0,0.548-0.453,1.181-1.379,1.181c-0.65,0-1.253-0.282-1.481-1.05c-0.05-0.175-0.091-0.391-0.091-0.523l-0.11-0.178
		c-0.074,0-0.106,0.116-0.118,0.267c-0.013,0.163-0.055,0.789-0.055,1.358c0,0.226,0.033,0.278,0.204,0.351
		c0.443,0.197,0.91,0.267,1.506,0.267c0.544,0,1.122-0.091,1.641-0.422c0.743-0.487,0.973-1.199,0.973-1.798
		C69.827,73.178,69.368,72.482,68.133,71.518 M79.549,71.518l-0.29-0.208c-0.852-0.654-1.095-1.021-1.095-1.493
		c0-0.617,0.469-1.057,1.231-1.057c0.667,0,0.966,0.308,1.122,0.501c0.22,0.266,0.274,0.586,0.274,0.678
		c0,0.129,0.027,0.189,0.099,0.189c0.081,0,0.116-0.084,0.116-0.312c0-0.808,0.038-1.11,0.038-1.242l-0.142-0.118
		c-0.269-0.075-0.701-0.18-1.37-0.18c-1.444,0-2.386,0.821-2.386,1.957c0,0.837,0.39,1.559,1.524,2.447l0.477,0.37
		c0.852,0.66,1.009,1.146,1.009,1.654c0,0.548-0.456,1.181-1.384,1.181c-0.633,0-1.251-0.282-1.479-1.05
		c-0.049-0.175-0.091-0.391-0.091-0.523l-0.099-0.178c-0.085,0-0.119,0.116-0.127,0.267c-0.01,0.163-0.047,0.789-0.047,1.358
		c0,0.226,0.029,0.278,0.189,0.351c0.441,0.197,0.912,0.267,1.513,0.267c0.545,0,1.122-0.091,1.635-0.422
		c0.746-0.487,0.977-1.199,0.977-1.798C81.246,73.178,80.791,72.482,79.549,71.518 M58.31,74.82
		c-0.071,0.418-0.198,0.636-0.467,0.759c-0.266,0.126-0.695,0.126-0.965,0.126c-1.055,0-1.222-0.151-1.241-0.869
		c-0.009-0.297,0-1.245,0-1.6v-0.818l0.065-0.103c0.243,0,1.27,0.014,1.468,0.033c0.377,0.037,0.52,0.195,0.574,0.396
		c0.031,0.14,0.031,0.271,0.041,0.378l0.091,0.092l0.093-0.198c0-0.073,0.025-0.486,0.041-0.688
		c0.034-0.526,0.083-0.695,0.083-0.754l-0.075-0.083l-0.162,0.134c-0.09,0.102-0.25,0.135-0.497,0.149
		c-0.236,0.027-1.427,0.027-1.65,0.027l-0.073-0.112v-2.617l0.073-0.102c0.204,0,1.288,0.024,1.468,0.037
		c0.511,0.064,0.617,0.19,0.688,0.376c0.052,0.121,0.066,0.301,0.066,0.367l0.087,0.146l0.109-0.11
		c0.021-0.126,0.04-0.576,0.05-0.68c0.034-0.475,0.083-0.604,0.083-0.674l-0.061-0.093l-0.166,0.04
		c-0.083,0.022-0.249,0.04-0.445,0.061c-0.199,0.015-2.252,0.015-2.583,0.015c-0.283,0-0.938-0.035-1.482-0.035
		c-0.157,0-0.233,0.021-0.233,0.097l0.178,0.092c0.145,0,0.324,0.014,0.401,0.031c0.344,0.066,0.422,0.239,0.445,0.591
		c0.025,0.328,0.025,0.615,0.025,2.19v1.814c0,0.947,0,1.764-0.058,2.198c-0.039,0.303-0.091,0.529-0.294,0.568
		c-0.097,0.022-0.22,0.043-0.374,0.043c-0.127,0-0.166,0.033-0.166,0.088c0,0.068,0.075,0.099,0.207,0.099
		c0.412,0,1.067-0.03,1.3-0.03c0.612,0,1.299,0.06,2.861,0.06c0.396,0,0.482,0,0.557-0.261c0.053-0.212,0.133-0.918,0.133-1.151
		l-0.08-0.188L58.31,74.82z M46.462,68.399c-0.105,0.034-0.229,0.034-0.429,0.04c-0.236,0.017-2.333,0.017-2.725,0.017
		c-0.299,0-0.948-0.035-1.487-0.035c-0.157,0-0.241,0.019-0.241,0.106l0.179,0.084c0.146,0,0.319,0.015,0.401,0.029
		c0.34,0.068,0.419,0.236,0.443,0.591c0.021,0.328,0.021,0.618,0.021,2.19v1.814c0,0.993,0,1.764-0.053,2.195
		c-0.04,0.306-0.092,0.532-0.296,0.571c-0.09,0.022-0.215,0.047-0.371,0.047l-0.158,0.084c0,0.076,0.074,0.099,0.22,0.099
		c0.393,0,1.042-0.03,1.309-0.03c0.269,0,0.921,0.03,1.572,0.03c0.152,0,0.224-0.03,0.224-0.099c0-0.058-0.04-0.084-0.17-0.084
		c-0.144,0-0.375-0.024-0.52-0.047c-0.308-0.039-0.373-0.266-0.401-0.571c-0.052-0.432-0.052-1.202-0.052-2.195v-0.841l0.074-0.088
		c0.17,0,1.266,0,1.525,0.033c0.323,0.037,0.477,0.228,0.53,0.37c0.042,0.126,0.063,0.248,0.063,0.321l0.081,0.148l0.104-0.205
		c0-0.07,0.022-0.542,0.038-0.757c0.034-0.313,0.083-0.574,0.083-0.636l-0.06-0.091l-0.133,0.101
		c-0.105,0.135-0.252,0.176-0.442,0.183c-0.147,0.02-0.295,0.02-0.472,0.02l-1.318,0.011l-0.074-0.097v-2.587l0.093-0.146
		l1.59,0.032c0.393,0.018,0.608,0.172,0.679,0.318c0.066,0.138,0.066,0.306,0.066,0.385l0.105,0.161l0.096-0.14
		c0.024-0.132,0.044-0.732,0.053-0.834c0.034-0.269,0.084-0.396,0.084-0.466l-0.074-0.093L46.462,68.399z M4.706,68.421
		c-0.472,0-1.07,0.035-1.493,0.035c-0.294,0-0.945-0.035-1.492-0.035c-0.16,0-0.228,0.021-0.228,0.097l0.175,0.092
		c0.145,0,0.321,0.014,0.401,0.031c0.338,0.066,0.425,0.239,0.446,0.591c0.025,0.328,0.025,0.615,0.025,2.19v1.814
		c0,0.947,0,1.764-0.058,2.198c-0.04,0.303-0.089,0.529-0.294,0.568c-0.098,0.022-0.22,0.043-0.375,0.043
		c-0.126,0-0.166,0.033-0.166,0.088c0,0.068,0.073,0.099,0.205,0.099c0.414,0,1.066-0.03,1.306-0.03c0.269,0,0.912,0.03,1.597,0.03
		l0.197-0.099l-0.165-0.088c-0.153,0-0.384-0.021-0.528-0.043c-0.31-0.039-0.37-0.266-0.401-0.556
		c-0.05-0.447-0.05-1.264-0.05-2.211v-4.129l0.081-0.194c0.092-0.033,0.246-0.048,0.404-0.048c0.236,0,0.659,0.063,1.034,0.404
		c0.577,0.518,0.606,1.21,0.606,1.546c0,1.063-0.805,1.707-1.382,1.707c-0.217,0-0.291,0.033-0.291,0.118l0.123,0.089l0.217,0.01
		c1.472,0,2.545-1.03,2.545-2.501c0-0.545-0.297-1.007-0.525-1.229C6.461,68.856,5.997,68.421,4.706,68.421 M21.403,76.02
		c-0.158-0.037-0.577-0.107-1.156-0.703c-0.612-0.641-1.328-1.564-2.24-2.719c1.042-0.843,1.358-1.552,1.358-2.317
		c0-0.691-0.412-1.213-0.698-1.415c-0.56-0.38-1.251-0.444-1.904-0.444c-0.319,0-1.103,0.037-1.45,0.037
		c-0.22,0-0.873-0.037-1.421-0.037c-0.155,0-0.224,0.021-0.224,0.094l0.177,0.097c0.142,0,0.315,0.015,0.398,0.027
		c0.344,0.067,0.426,0.238,0.447,0.59c0.022,0.331,0.022,0.618,0.022,2.193v1.814c0,0.95,0,1.764-0.058,2.198
		c-0.042,0.303-0.091,0.529-0.299,0.572c-0.088,0.019-0.212,0.039-0.369,0.039c-0.127,0-0.168,0.03-0.168,0.09
		c0,0.064,0.074,0.099,0.21,0.099c0.411,0,1.065-0.034,1.261-0.034c0.15,0,0.92,0.034,1.517,0.034c0.136,0,0.204-0.034,0.204-0.099
		l-0.121-0.09c-0.126,0-0.352-0.021-0.506-0.039c-0.305-0.043-0.375-0.27-0.401-0.572c-0.055-0.435-0.055-1.248-0.055-2.208v-0.146
		l0.081-0.086l0.899,0.024l0.19,0.077c0.132,0.152,0.608,0.854,1.025,1.423c0.577,0.797,0.967,1.275,1.41,1.519
		c0.271,0.143,0.528,0.196,1.108,0.196h0.978c0.125,0,0.198-0.024,0.198-0.099l-0.123-0.09L21.403,76.02z M16.806,72.523
		c-0.264,0-0.567-0.027-0.783-0.104l-0.096-0.184v-3.137l0.096-0.151c0.104-0.023,0.289-0.033,0.546-0.033
		c0.608,0,1.581,0.418,1.581,1.884c0,0.85-0.303,1.32-0.611,1.552C17.35,72.485,17.215,72.523,16.806,72.523 M145.839,74.774
		c-0.022,0.193-0.143,0.486-0.272,0.62c-0.26,0.276-0.66,0.296-1.208,0.296c-0.805,0-1.073-0.076-1.25-0.231
		c-0.216-0.186-0.216-0.905-0.216-2.223v-1.814c0-1.572,0-1.862,0.023-2.19c0.013-0.366,0.099-0.537,0.381-0.591
		c0.126-0.015,0.29-0.029,0.399-0.029c0.127,0,0.191-0.021,0.191-0.097c0-0.075-0.078-0.094-0.221-0.094
		c-0.402,0-1.153,0.035-1.404,0.035c-0.282,0-0.929-0.035-1.414-0.035c-0.159,0-0.228,0.019-0.228,0.094l0.176,0.097
		c0.134,0,0.255,0.015,0.341,0.029c0.34,0.068,0.418,0.236,0.44,0.591c0.021,0.328,0.021,0.618,0.021,2.19v1.814
		c0,0.947,0,1.764-0.056,2.195c-0.037,0.306-0.089,0.532-0.292,0.571c-0.095,0.022-0.218,0.047-0.373,0.047
		c-0.124,0-0.167,0.026-0.167,0.084c0,0.068,0.075,0.099,0.209,0.099c0.413,0,1.06-0.03,1.299-0.03c0.837,0,1.516,0.062,3.006,0.062
		c0.537,0,0.59-0.054,0.65-0.278c0.086-0.295,0.158-1.079,0.158-1.192l-0.083-0.171L145.839,74.774z M30.878,68.279
		c-3.094,0-4.266,2.284-4.266,4.05c0,1.828,1.195,4.048,4.162,4.048c2.628,0,4.282-1.871,4.282-4.238
		C35.056,69.777,33.449,68.279,30.878,68.279 M31.209,75.861c-1.982,0-3.172-1.704-3.172-3.856c0-2.563,1.358-3.232,2.548-3.232
		c1.691,0,3.017,1.439,3.017,3.75C33.601,75.508,31.931,75.861,31.209,75.861 M102.104,68.279c-3.101,0-4.269,2.284-4.269,4.05
		c0,1.828,1.195,4.048,4.158,4.048c2.628,0,4.281-1.871,4.281-4.238C106.274,69.777,104.675,68.279,102.104,68.279 M102.431,75.861
		c-1.981,0-3.17-1.704-3.17-3.856c0-2.563,1.356-3.232,2.54-3.232c1.693,0,3.028,1.439,3.028,3.75
		C104.829,75.508,103.153,75.861,102.431,75.861 M134.662,76.003c-0.221-0.048-0.516-0.195-0.913-1.121
		c-0.66-1.575-2.311-5.784-2.558-6.356c-0.104-0.236-0.166-0.329-0.257-0.329c-0.107,0-0.169,0.111-0.295,0.415l-2.588,6.484
		c-0.203,0.517-0.402,0.868-0.874,0.93l-0.322,0.024l-0.124,0.086c0,0.074,0.062,0.097,0.193,0.097c0.542,0,1.108-0.03,1.219-0.03
		c0.322,0,0.77,0.03,1.101,0.03l0.174-0.097c0-0.07-0.036-0.086-0.156-0.086h-0.155c-0.319,0-0.416-0.138-0.416-0.322
		c0-0.124,0.051-0.373,0.159-0.632l0.558-1.471l0.089-0.091h2.306l0.102,0.07l0.83,2.19c0.054,0.129-0.022,0.225-0.091,0.243
		l-0.146,0.098c0,0.066,0.124,0.066,0.309,0.074c0.821,0.022,1.581,0.022,1.95,0.022c0.386,0,0.477-0.022,0.477-0.097l-0.132-0.086
		C134.975,76.05,134.818,76.038,134.662,76.003 M131.611,73.017h-1.907l-0.04-0.07l0.95-2.539l0.062-0.099l0.045,0.099l0.935,2.552
		L131.611,73.017z M121.135,68.421c-0.505,0-0.902,0.037-1.013,0.037c-0.215,0-0.709-0.037-1.243-0.037
		c-0.162,0-0.271,0.013-0.271,0.094c0,0.063,0.04,0.097,0.163,0.097c0.145,0,0.387,0,0.545,0.06c0.253,0.1,0.338,0.301,0.357,0.931
		l0.099,4.64h-0.05c-0.177-0.165-1.573-1.654-2.28-2.358c-1.503-1.5-3.076-3.18-3.196-3.314c-0.178-0.186-0.269-0.321-0.381-0.321
		c-0.104,0-0.137,0.141-0.137,0.351l-0.094,6.112c-0.01,0.902-0.051,1.202-0.322,1.288c-0.143,0.04-0.33,0.052-0.462,0.052
		l-0.161,0.086c0,0.086,0.086,0.097,0.223,0.097c0.538,0,1.02-0.032,1.114-0.032c0.193,0,0.612,0.032,1.28,0.032
		c0.148,0,0.242-0.022,0.242-0.097l-0.18-0.086c-0.164,0-0.36-0.012-0.539-0.078c-0.202-0.064-0.336-0.335-0.355-1.148l-0.114-4.338
		h0.031c0.183,0.198,1.332,1.489,2.457,2.611c1.074,1.061,2.396,2.411,3.046,3.039l0.356,0.218c0.086,0,0.135-0.09,0.135-0.315
		l0.11-6.519c0.011-0.582,0.094-0.797,0.381-0.878c0.121-0.029,0.207-0.029,0.314-0.029c0.121,0,0.183-0.034,0.183-0.097
		C121.372,68.434,121.268,68.421,121.135,68.421 M90.846,76.003c-0.311-0.039-0.383-0.225-0.413-0.503
		c-0.045-0.449-0.045-1.259-0.045-2.264v-1.814c0-1.575,0-1.862,0.022-2.19c0.023-0.366,0.104-0.537,0.383-0.591
		c0.121-0.018,0.207-0.031,0.312-0.031l0.163-0.105c0-0.063-0.078-0.083-0.218-0.083c-0.395,0-1.004,0.035-1.261,0.035
		c-0.298,0-0.95-0.035-1.338-0.035c-0.17,0-0.253,0.021-0.253,0.083l0.168,0.105c0.121,0,0.255,0.014,0.372,0.042
		c0.225,0.05,0.332,0.229,0.353,0.58c0.02,0.328,0.02,0.615,0.02,2.19v1.814c0,1.005,0,1.815-0.054,2.252
		c-0.03,0.301-0.094,0.476-0.298,0.515c-0.091,0.022-0.217,0.043-0.373,0.043c-0.124,0-0.166,0.033-0.166,0.088
		c0,0.068,0.077,0.099,0.209,0.099c0.411,0,1.063-0.03,1.296-0.03c0.282,0,0.931,0.03,1.617,0.03l0.198-0.099l-0.169-0.088
		C91.217,76.046,90.989,76.025,90.846,76.003 M132.386,42.501c-0.816,0-2.568,0.668-4.15,1.602v-1.875l-4.746,1.182v0.694
		l2.316,0.793v17.181l-2.316,0.939v0.757h7.609v-0.757l-2.864-0.939v-5.888c0.547,0.182,1.176,0.24,1.715,0.24
		c3.369,0.016,7.532-2.564,7.532-7.267C137.483,45.38,135.277,42.501,132.386,42.501 M129.739,55.067
		c-0.518,0-0.929-0.029-1.503-0.097V44.774c0.629-0.301,1.42-0.458,2.29-0.458c2.619,0,4.37,2.274,4.37,5.702
		C134.896,53.739,132.985,55.067,129.739,55.067 M8.134,45.703l-3.062-2.045c-2.037-1.342-2.477-1.95-2.477-3.354
		c0-2.012,1.399-2.955,4.315-2.955c0.525,0,0.699,0.027,1.454,0.089L8.6,37.471l1.4,3.658h1.08v-4.33l-0.44-0.087l-1.196-0.277
		c-0.377-0.095-0.877-0.185-1.541-0.279c-0.819-0.091-1.694-0.18-2.19-0.18c-3.321,0-5.566,2.163-5.566,5.368
		c0,1.006,0.179,1.797,0.667,2.587c0.527,0.916,1.056,1.403,2.573,2.407l2.853,1.923c2.04,1.368,2.507,2.072,2.507,3.567
		c0,2.132-1.424,3.266-4.136,3.266c-0.79,0-1.4-0.034-2.131-0.157l-1.426-3.775H0v4.483l0.294,0.086l1.629,0.394
		c1.252,0.307,2.597,0.488,3.53,0.488c3.758,0,6.207-2.169,6.207-5.551c0-1.154-0.288-2.225-0.875-3.073
		C10.26,47.131,10,46.954,8.134,45.703 M146.725,35.224c-3.638,0-5.996,2.251-5.996,5.72V42.7h-2.25v1.342h2.25v10.557l-2.25,1.048
		v0.747h7.393v-0.747l-2.785-1.048V44.042h3.957V42.7h-3.957v-2.202c0-1.615,0.35-2.639,1.09-3.259
		c0.586-0.516,1.56-0.874,2.416-0.874c0.076,0,0.207,0.03,0.369,0.03l0.743,1.825h1.718v-2.545
		C148.738,35.375,147.808,35.224,146.725,35.224 M23.28,54.687c-1.393,0.263-1.732,0.298-2.569,0.298
		c-1.705,0-2.78-0.47-3.669-1.603c-0.814-1.022-1.262-2.511-1.262-4.137c0-3.381,1.971-5.88,4.546-5.88c0.149,0,0.28,0,0.543,0.027
		l1.151,2.59h1.602v-2.995c-1.257-0.443-2.252-0.64-3.246-0.64c-4.226,0-7.061,3.028-7.061,7.538c0,3.988,2.283,6.814,5.537,6.814
		c0.97,0,2.042-0.204,3.249-0.611l1.337-0.438l0.265-0.086l-0.16-0.938L23.28,54.687z M37.395,47.155
		c0-2.961-1.401-4.856-3.595-4.856c-0.879,0-2.017,0.436-3.931,1.458l-0.34,0.155v-9.465l-4.629,1.248v0.684l2.327,0.814v17.329
		l-2.195,1.09v0.773h6.439v-0.773l-1.942-1.09v-9.891c0.54-0.186,1.608-0.312,2.385-0.312c2.224,0,3.155,1.06,3.155,3.552v6.651
		l-2.044,1.09v0.773h6.542v-0.773l-2.172-1.09V47.155z M58.138,44.312l1.575-0.928v-0.7h-5.308v0.7l1.977,0.928l-2.832,8.654
		l-0.076-0.257c-0.215-0.815-0.27-1.013-0.452-1.545l-2.803-8.48h-0.797l-3.651,10.282l-0.084-0.427l-0.235-0.783l-0.243-0.789
		l-2.24-6.796l2.028-0.787v-0.7h-6.239v0.7l1.676,0.787l4.322,12.215h1.172l3.362-9.432l3.036,9.432h1.201L58.138,44.312z
		 M69.237,53.476v-7.631c0-2.284-1.235-3.4-3.808-3.4c-1.204,0-2.597,0.311-4.568,0.977v2.617h1.575l1.107-2.394
		c0.314-0.052,0.416-0.052,0.702-0.052c1.995,0,2.627,0.575,2.627,2.365v3.112c-1.806,0.171-3.361,0.401-4.409,0.664
		c-1.808,0.428-2.778,1.552-2.778,3.283c0,2.049,1.47,3.487,3.595,3.487c0.5,0,0.945-0.057,1.283-0.204
		c0.162-0.057,0.553-0.228,1.183-0.543l0.889-0.461l0.317-0.177c0.157,0.953,0.604,1.385,1.388,1.385h0.107
		c0.368-0.035,0.866-0.118,1.097-0.204l1.893-0.696v-0.596l-1.469-0.467C69.313,54.312,69.237,54.203,69.237,53.476 M66.872,54.541
		l-0.209,0.063c-0.497,0.14-0.761,0.197-0.838,0.197c-0.318,0.087-0.659,0.116-0.998,0.116c-1.547,0-2.518-0.894-2.518-2.306
		c0-1.181,0.554-1.841,1.811-2.184c0.946-0.266,1.782-0.435,2.751-0.555V54.541z M77.297,43.827l-0.242,0.142v-1.831L72.5,43.305
		v0.664l2.201,0.692v9.957L72.5,55.634v0.72h7.276v-0.72l-2.722-1.017v-9.957c0.625-0.257,1.364-0.432,1.964-0.432
		c0.132,0,0.365,0.03,0.656,0.03l0.781,1.712h1.809v-3.194c-0.448-0.29-0.84-0.432-1.331-0.432
		C80.198,42.345,79.019,42.838,77.297,43.827 M83.817,46.57h0.907l1.309-2.577h4.633l-7.382,11.463v0.947h10.509v-4.272h-0.832
		l-1.446,2.985h-5.159l7.438-11.508V42.7h-9.976V46.57z M95.213,55.795v0.717h6.808v-0.717l-2.236-1.012V34.445L95.081,35.6v0.638
		l2.368,0.753v17.793L95.213,55.795z M102.621,48.158l3.866-3.873l2.568-0.894V42.7h-6.12v0.692l1.733,0.751l-4.49,4.883
		l5.308,7.486h3.96v-0.717l-1.916-0.841L102.621,48.158z M116.458,42.195c-4.026,0-6.738,3.043-6.738,7.529
		c0,4.141,2.623,7.032,6.343,7.032c3.978,0,6.823-3.178,6.823-7.556C122.887,45.032,120.291,42.195,116.458,42.195 M116.429,55.456
		c-2.451,0-3.914-2.288-3.914-6.164c0-3.672,1.35-5.788,3.664-5.788c2.48,0,3.913,2.34,3.913,6.365
		C120.092,53.398,118.743,55.456,116.429,55.456"/>
</g>
</svg>
