<svg id="Layer_1" xmlns="http://www.w3.org/2000/svg" viewBox="0 0 110.7 80"><style>.st0,.st1,.st2,.st3{fill:none;stroke:#c7c7c7;stroke-width:3;stroke-linejoin:round;stroke-miterlimit:10}.st1,.st2,.st3{stroke-linecap:round}.st2,.st3{stroke:#8d81ac}.st3{fill:#fff;stroke:#c7c7c7}</style><path class="st0" d="M34.2,20.2c-13.9,11.7-15.8,32.5-4,46.4c11.7,13.9,32.5,15.8,46.4,4c13.9-11.7,15.8-32.5,4-46.4 C68.9,10.4,48.1,8.5,34.2,20.2z"/><path class="st1" d="M55.4 4L55.4 1.5"/><path class="st1" d="M69.6 6.5L70.5 4.2"/><path class="st1" d="M82.1 13.7L83.7 11.8"/><path class="st1" d="M91.4 24.8L93.5 23.6"/><path class="st1" d="M96.3 38.4L98.7 38"/><path class="st1" d="M96.2 52.9L98.7 53.3"/><path class="st1" d="M91.2 66.5L93.4 67.7"/><path class="st2" d="M19.2 65.9L17 67.1"/><path class="st2" d="M14.4 52.2L12 52.6"/><path class="st2" d="M14.6 37.8L12.2 37.3"/><path class="st2" d="M19.7 24.3L17.6 23"/><path class="st2" d="M29.2 13.3L27.6 11.4"/><path class="st1" d="M41.8 6.3L41 3.9"/><path class="st2" d="M43.3 31.1L39.3 26.4"/><ellipse transform="rotate(-9.97 55.382 45.507)" class="st3" cx="55.4" cy="45.5" rx="9.4" ry="9.4"/></svg>