<svg id="Layer_1" xmlns="http://www.w3.org/2000/svg" viewBox="0 0 110.7 64"><style>.st0{fill:#fff}.st1{fill:none;stroke:#c7c7c7;stroke-width:3;stroke-linejoin:round;stroke-miterlimit:10}.st2{fill:#c7c7c7}.st3{fill:#8d81ac}.st4{fill:none;stroke:#8d81ac;stroke-width:3;stroke-linecap:round;stroke-linejoin:round;stroke-miterlimit:10}</style><path class="st0" d="M1.3 1.5H73.8V11.5H1.3z"/><path class="st1" d="M1.5 1.5H74.5V62.5H1.5z"/><path class="st1" d="M2 11.5L75 11.5"/><circle class="st2" cx="8.2" cy="6.6" r="1.6"/><circle class="st3" cx="13.2" cy="6.6" r="1.6"/><circle class="st2" cx="18.2" cy="6.6" r="1.6"/><path class="st1" d="M8.5 19.5H32.5V35.5H8.5z"/><path class="st1" d="M42.5 19.5H66.5V35.5H42.5z"/><path class="st4" d="M9 44.5L32 44.5"/><path class="st4" d="M9 53.5L32 53.5"/><path class="st4" d="M43 44.5L66 44.5"/><path class="st4" d="M43 53.5L66 53.5"/><path class="st0" d="M109.4,54.1l-9.8-9.8c-0.1-0.1-0.3-0.3-0.5-0.4c5.2-8.3,4.2-19.4-3-26.6c-4.1-4.1-9.5-6.3-15.2-6.3 c-5.7,0-11.1,2.2-15.2,6.3c-4.1,4.1-6.3,9.5-6.3,15.2c0,5.7,2.2,11.1,6.3,15.2c4.1,4.1,9.5,6.3,15.2,6.3c4.4,0,8.5-1.3,12-3.7 c0.1,0.1,0.2,0.2,0.3,0.3l9.8,9.8c0.8,0.9,2,1.3,3.2,1.3c1.2,0,2.3-0.5,3.2-1.3c0.9-0.8,1.3-2,1.3-3.2 C110.7,56.1,110.2,54.9,109.4,54.1z M80.9,45c-3.3,0-6.5-1.3-8.8-3.7c-4.9-4.9-4.9-12.8,0-17.7c2.4-2.4,5.5-3.7,8.8-3.7 c3.3,0,6.5,1.3,8.8,3.7c4.9,4.9,4.9,12.8,0,17.7C87.4,43.7,84.3,45,80.9,45z"/><path class="st3" d="M80.9,51c-4.9,0-9.6-1.9-13.1-5.4c-7.2-7.2-7.2-18.9,0-26.2C71.3,15.9,76,14,80.9,14c4.9,0,9.6,1.9,13.1,5.4 c7.2,7.2,7.2,18.9,0,26.2C90.5,49.1,85.9,51,80.9,51z M80.9,17c-4.1,0-8,1.6-11,4.5c-6,6-6,15.9,0,21.9c2.9,2.9,6.8,4.5,11,4.5 c4.1,0,8-1.6,11-4.5c6-6,6-15.9,0-21.9C89,18.6,85.1,17,80.9,17z"/><path class="st2" d="M105.2,57.8c-0.4,0-0.8-0.1-1.1-0.4l-7.8-7.8c-0.6-0.6-0.6-1.5,0-2.1c0.6-0.6,1.5-0.6,2.1,0l7.8,7.8 c0.6,0.6,0.6,1.5,0,2.1C106,57.6,105.6,57.8,105.2,57.8z"/></svg>