<svg id="Layer_1" xmlns="http://www.w3.org/2000/svg" viewBox="0 0 110.7 83.4"><style>.st0{fill:#8d81ac}.st1{fill:#fff}.st2{fill:none;stroke:#c7c7c7;stroke-width:3;stroke-linecap:round;stroke-linejoin:round;stroke-miterlimit:10}</style><path class="st0" d="M26.9 82.4L83.9 82.4 74.2 62.4 36.5 62.4z"/><path class="st1" d="M49.9 35.8L49.9 39.8 32.6 78.4 36.6 78.4 53.9 39.8 53.9 35.8z"/><circle class="st0" cx="55.4" cy="31.2" r="2.8"/><path class="st2" d="M64.9 27.4L64.9 39.8 83.9 81.9 26.9 81.9 45.9 39.8 45.9 27.4"/><path class="st2" d="M69.4 21.9L41.4 21.9"/><circle class="st0" cx="64.8" cy="5.7" r="5.7"/><circle class="st1" cx="59.1" cy="69.2" r=".9"/><path class="st0" d="M62.7,60.8c-1.1,0-2,0.9-2,2h4.1C64.8,61.7,63.9,60.8,62.7,60.8z"/><path class="st1" d="M62.7,64.9c1.1,0,2-0.9,2-2h-4.1C60.7,64,61.6,64.9,62.7,64.9z"/></svg>