<?xml version="1.0" encoding="utf-8"?>
<!-- Generator: Adobe Illustrator 19.2.0, SVG Export Plug-In . SVG Version: 6.00 Build 0)  -->
<svg version="1.1" id="Layer_1" xmlns="http://www.w3.org/2000/svg" xmlns:xlink="http://www.w3.org/1999/xlink" x="0px" y="0px"
	 viewBox="0 0 512 512" style="enable-background:new 0 0 512 512;" xml:space="preserve">
<path d="M406.5,176.6L317.6,62.2c1.6-3.8,2.4-7.9,2.4-12.1c0.3-17.7-13.8-32.2-31.4-32.5C270.9,17.3,256.3,31.3,256,49
	c-0.3,17.7,13.8,32.2,31.4,32.5c0.2,0,0.4,0,0.5,0h4.2l73.9,95.1H145.8l74-95.1h4.2c17.5-0.2,31.5-14.5,31.3-32
	c-0.2-17.5-14.5-31.5-32-31.3c-17.4,0.2-31.4,14.4-31.3,31.8c0,4.1,0.8,8.2,2.4,12.1l-88.9,114.5H0v63.6h32l32,253.4h384l32-253.4
	h32v-63.6H406.5z M160,430.4H96v-63.6h64V430.4z M160,303.5H96v-63.3h64V303.5z M288,430.4h-64v-63.6h64V430.4z M288,303.5h-64
	v-63.3h64V303.5z M416,430.4h-64v-63.6h64V430.4z M416,303.5h-64v-63.3h64V303.5z"/>
</svg>
