<?xml version="1.0" encoding="iso-8859-1"?>
<!-- Generator: Adobe Illustrator 19.2.0, SVG Export Plug-In . SVG Version: 6.00 Build 0)  -->
<svg version="1.1" id="Layer_1" xmlns="http://www.w3.org/2000/svg" xmlns:xlink="http://www.w3.org/1999/xlink" x="0px" y="0px"
	 viewBox="0 0 512 512" style="enable-background:new 0 0 512 512;" xml:space="preserve">
<g>
	<g>
		<path d="M512,440.472H0V135.109h512V440.472z M19.248,421.224h473.504V154.358H19.248V421.224z"/>
	</g>
</g>
<g>
	<rect x="9.624" y="230.481" width="492.752" height="19.248"/>
</g>
<g>
	<polygon points="305.362,297.414 206.638,297.414 206.638,240.105 225.886,240.105 225.886,278.166 286.114,278.166 
		286.114,240.105 305.362,240.105 	"/>
</g>
<g>
	<path d="M337.152,144.734h-19.248c-0.001-0.101-0.21-14.145-8.048-27.673C299.75,99.62,281.631,90.777,256,90.777
		c-25.93,0-44.165,9.045-54.2,26.885c-7.495,13.325-7.705,26.938-7.705,27.072h-19.248c0-0.752,0.116-18.622,10.177-36.509
		c9.416-16.741,29.374-36.696,70.976-36.696s61.558,19.955,70.976,36.696C337.037,126.112,337.152,143.982,337.152,144.734z"/>
</g>
</svg>
