<?xml version="1.0" encoding="iso-8859-1"?>
<!-- Generator: Adobe Illustrator 19.2.0, SVG Export Plug-In . SVG Version: 6.00 Build 0)  -->
<svg version="1.1" id="Layer_1" xmlns="http://www.w3.org/2000/svg" xmlns:xlink="http://www.w3.org/1999/xlink" x="0px" y="0px"
	 viewBox="0 0 512 512" style="enable-background:new 0 0 512 512;" xml:space="preserve">
<title>basic_elaboration_briefcase_download</title>
<g>
	<polygon points="459.11,328.483 413.055,21.444 98.945,21.444 52.889,328.483 33.111,325.517 81.721,1.444 430.279,1.444 
		478.89,325.517 	"/>
</g>
<g>
	<path d="M479,510.556H33V317h146.222v10c0,42.336,34.442,76.778,76.778,76.778c42.336,0,76.778-34.442,76.778-76.778v-10H479
		V510.556z M53,490.556h406V337H352.266c-5.022,48.681-46.279,86.778-96.266,86.778c-49.986,0-91.243-38.098-96.265-86.778H53
		V490.556z"/>
</g>
<g>
	<polygon points="256,278.031 185.818,207.849 199.96,193.707 256,249.747 312.04,193.707 326.183,207.849 	"/>
</g>
<g>
	<rect x="246" y="106.111" width="20" height="157.778"/>
</g>
</svg>
