<svg xmlns="http://www.w3.org/2000/svg" viewBox="0 0 512 486.41">
  <title>cart</title>
  <path d="M511.12,89.71a18.06,18.06,0,0,0-9.78-11.27L358.69,14.3a17.49,17.49,0,0,0-22.15,7.13l-51.77,86.92a0.34,0.34,0,0,0-.29.39h0L164.26,123.13l-8.34-20.71a18.8,18.8,0,0,0-8.63-9.29L25.06,32.73A16.85,16.85,0,0,0,5.5,36a18.41,18.41,0,0,0-4,20.33L40.3,151V394.23a18.78,18.78,0,0,0,8.05,15.33l129.43,86.8h0.29a16.15,16.15,0,0,0,4,1.93,6.88,6.88,0,0,0,.86.23,16.22,16.22,0,0,0,4.6.69h2l241.59-28.93a18,18,0,0,0,15.53-18.12V209.93l62.7-105.18A18.41,18.41,0,0,0,511.12,89.71Zm-201,48.38L399,197.68l-88.87,10.61V138.09Zm-23-7.59a9.5,9.5,0,0,0,2,1.93v78.35l-84.27,10.1L173.18,144ZM126,123.1l32.5,78.43L75.68,146a6.7,6.7,0,0,1-.29-2.36,14.7,14.7,0,0,0-1.15-3.51L52.09,86.55ZM75.68,172l94,63.27V447.5l-94-63.27V172ZM205.11,460.44V244.16l0.86-1.41,205.36-24.59V435.79ZM420,185.43l-100.08-66.7,38.83-64.51,109.87,49.47Z" transform="translate(0 -12.8)"/>
</svg>
