<?xml version="1.0" encoding="iso-8859-1"?>
<!-- Generator: Adobe Illustrator 19.2.0, SVG Export Plug-In . SVG Version: 6.00 Build 0)  -->
<svg version="1.1" id="Layer_1" xmlns="http://www.w3.org/2000/svg" xmlns:xlink="http://www.w3.org/1999/xlink" x="0px" y="0px"
	 viewBox="0 0 512 512" style="enable-background:new 0 0 512 512;" xml:space="preserve">
<title>basic_gear</title>
<g>
	<path d="M312.645,507h-113.29v-72.76l-33.944-11.314l-49.346,49.346l-76.336-76.337l49.346-49.346L77.76,312.645H5v-113.29h72.76
		l11.314-33.944l-49.346-49.346l76.336-76.336l49.346,49.346l33.944-11.314V5h113.29v72.76l33.944,11.314l49.346-49.346
		l76.337,76.336l-49.346,49.346l11.314,33.944H507v113.29h-72.76l-11.314,33.944l49.346,49.346l-76.337,76.337l-49.346-49.346
		l-33.944,11.314V507z M219.355,487h73.29v-67.176l59.347-19.781l43.943,43.943l48.052-48.052l-43.943-43.943l19.781-59.347H487
		v-73.29h-67.176l-19.781-59.346l43.943-43.944l-48.052-48.052l-43.943,43.944l-59.347-19.782V25h-73.29v67.175l-59.346,19.782
		l-43.944-43.944l-48.052,48.052l43.944,43.944l-19.782,59.346H25v73.29h67.175l19.782,59.347l-43.944,43.943l48.052,48.052
		l43.944-43.943l59.346,19.781V487z"/>
</g>
<g>
	<path d="M256,312.645c-31.234,0-56.645-25.41-56.645-56.645s25.411-56.645,56.645-56.645s56.645,25.411,56.645,56.645
		S287.234,312.645,256,312.645z M256,219.355c-20.206,0-36.645,16.439-36.645,36.645s16.439,36.645,36.645,36.645
		s36.645-16.438,36.645-36.645S276.206,219.355,256,219.355z"/>
</g>
</svg>
