<?xml version="1.0" encoding="iso-8859-1"?>
<!-- Generator: Adobe Illustrator 19.2.0, SVG Export Plug-In . SVG Version: 6.00 Build 0)  -->
<svg version="1.1" id="Layer_1" xmlns="http://www.w3.org/2000/svg" xmlns:xlink="http://www.w3.org/1999/xlink" x="0px" y="0px"
	 viewBox="0 0 510.682 440.081" style="enable-background:new 0 0 510.682 440.081;" xml:space="preserve">
<title>gift</title>
<g>
	<path d="M510.682,194.74H0v-91.228h510.682V194.74z M20,174.74h470.682v-51.228H20V174.74z"/>
</g>
<g>
	<path d="M471.111,440.081H39.571V174.74h431.54L471.111,440.081L471.111,440.081z M59.571,420.081h391.54V194.74H59.571V420.081z"
		/>
</g>
<g>
	<rect x="245.341" y="113.512" width="20" height="316.569"/>
</g>
<g>
	<path d="M255.103,123.513c-5.249,0-61.515-0.738-92.53-31.516c-13.348-13.246-20.116-29.972-20.116-49.713
		c0-13.817,5.25-25.104,15.184-32.639C165.959,3.335,177.234,0,190.246,0c35.52,0,75.096,23.866,75.096,58.112v65.323l-9.923,0.076
		C255.352,123.512,255.246,123.513,255.103,123.513z M190.245,20c-8.488,0-15.775,1.981-20.518,5.579
		c-4.893,3.711-7.271,9.176-7.271,16.705c0,14.415,4.646,26.033,14.204,35.517c19.085,18.939,52.192,23.93,68.681,25.243V58.112
		C245.341,36.648,215.724,20,190.245,20z"/>
</g>
<g>
	<path d="M255.579,123.513c-0.144,0-0.25-0.001-0.315-0.001l-9.923-0.077V58.112C245.341,23.865,284.917,0,320.437,0
		c13.012,0,24.287,3.335,32.605,9.645c9.933,7.535,15.184,18.821,15.184,32.639c0,19.742-6.768,36.468-20.116,49.713
		C317.096,122.773,260.834,123.513,255.579,123.513z M320.437,20c-25.479,0-55.096,16.648-55.096,38.112v44.916
		c16.525-1.338,49.716-6.369,68.72-25.266c9.531-9.478,14.165-21.083,14.165-35.479c0-7.529-2.378-12.993-7.271-16.705
		C336.211,21.981,328.925,20,320.437,20z"/>
</g>
</svg>
