<?xml version="1.0" encoding="utf-8"?>
<!-- Generator: Adobe Illustrator 20.0.0, SVG Export Plug-In . SVG Version: 6.00 Build 0)  -->
<svg version="1.0" xmlns="http://www.w3.org/2000/svg" xmlns:xlink="http://www.w3.org/1999/xlink" x="0px" y="0px"
	 viewBox="0 0 49.7 49.6" style="enable-background:new 0 0 49.7 49.6;" xml:space="preserve">
<style type="text/css">
	.st0{display:none;}
	.st1{fill:#D92128;}
	.st2{fill:#C4C4C4;}
</style>
<g id="Layer_1" class="st0">
</g>
<g id="Layer_2">
	<g>
		<path class="st1" d="M23,47.7c-1.3-0.1-2.5-0.3-3.7-0.6l2.4-9.7c0.7,0.2,1.4,0.3,2.1,0.3L23,47.7z"/>
		<path class="st1" d="M26.7,47.7l-0.8-10c0.7-0.1,1.4-0.2,2.1-0.4l2.5,9.7C29.3,47.4,28,47.6,26.7,47.7z"/>
		<path class="st1" d="M15.6,45.9c-1.2-0.5-2.3-1.1-3.3-1.8l5.5-8.4c0.6,0.4,1.2,0.7,1.9,1L15.6,45.9z"/>
		<path class="st1" d="M34.1,45.9l-4-9.2c0.7-0.3,1.3-0.6,1.9-1l5.5,8.4C36.4,44.8,35.2,45.4,34.1,45.9z"/>
		<path class="st1" d="M9.3,41.8C8.3,40.9,7.5,40,6.7,39l7.9-6.2c0.4,0.6,0.9,1.1,1.5,1.6L9.3,41.8z"/>
		<path class="st1" d="M40.4,41.7l-6.8-7.4c0.5-0.5,1-1,1.5-1.6l7.9,6.1C42.2,39.9,41.3,40.9,40.4,41.7z"/>
		<path class="st1" d="M4.6,35.8c-0.6-1.1-1.1-2.3-1.5-3.5l9.5-3.3c0.2,0.7,0.5,1.3,0.9,2L4.6,35.8z"/>
		<path class="st1" d="M45.1,35.8L36.3,31c0.3-0.6,0.6-1.3,0.9-2l9.5,3.2C46.2,33.5,45.7,34.7,45.1,35.8z"/>
		<path class="st1" d="M2.1,28.6c-0.2-1.2-0.3-2.5-0.3-3.8l10,0c0,0.7,0.1,1.4,0.2,2.1L2.1,28.6z"/>
		<path class="st1" d="M47.5,28.6L37.7,27c0.1-0.7,0.2-1.4,0.2-2.1l10-0.1v0.1C47.8,26.1,47.7,27.4,47.5,28.6z"/>
		<path class="st1" d="M12,22.7l-9.9-1.6c0.2-1.2,0.5-2.5,0.9-3.7l9.5,3.2C12.3,21.3,12.1,22,12,22.7z"/>
		<path class="st1" d="M37.6,22.6c-0.1-0.7-0.3-1.4-0.5-2.1l9.4-3.3c0.4,1.2,0.7,2.4,0.9,3.7L37.6,22.6z"/>
		<path class="st2" d="M13.4,18.7l-8.8-4.7c0.6-1.1,1.3-2.2,2.1-3.2l7.9,6.1C14.1,17.4,13.7,18,13.4,18.7z"/>
		<path class="st1" d="M36.2,18.6c-0.3-0.6-0.7-1.2-1.2-1.8l7.9-6.2c0.8,1,1.5,2.1,2.1,3.2L36.2,18.6z"/>
		<path class="st2" d="M16,15.3L9.2,7.9c0.9-0.9,1.9-1.6,3-2.3l5.5,8.4C17.1,14.3,16.5,14.8,16,15.3z"/>
		<path class="st1" d="M33.6,15.2c-0.5-0.5-1.1-0.9-1.7-1.3l5.4-8.4c1.1,0.7,2.1,1.5,3,2.3L33.6,15.2z"/>
		<path class="st2" d="M19.6,12.9l-4-9.1c1.2-0.5,2.4-0.9,3.6-1.2l2.5,9.7C20.9,12.4,20.2,12.6,19.6,12.9z"/>
		<path class="st1" d="M30,12.9c-0.7-0.3-1.3-0.5-2-0.7l2.4-9.7c1.2,0.3,2.4,0.7,3.6,1.2L30,12.9z"/>
		<path class="st1" d="M23.7,11.9l-0.8-10c1.3-0.1,2.5-0.1,3.8,0l-0.8,10C25.2,11.8,24.4,11.8,23.7,11.9z"/>
	</g>
</g>
</svg>
