<?xml version="1.0" encoding="iso-8859-1"?>
<!-- Generator: Adobe Illustrator 19.2.0, SVG Export Plug-In . SVG Version: 6.00 Build 0)  -->
<svg version="1.1" id="Professional" xmlns="http://www.w3.org/2000/svg" xmlns:xlink="http://www.w3.org/1999/xlink" x="0px"
	 y="0px" viewBox="0 0 512 512" style="enable-background:new 0 0 512 512;" xml:space="preserve">
<title>user</title>
<g>
	<path style="fill:#ffffff;" d="M149.956,508.98c-3.526,0-7.052-0.668-10.408-2.003l-4.57-1.817l-1.286-4.748
		c-2.199-8.116-0.309-16.798,5.054-23.264c30.14-38.388,46.194-72.813,50.488-108.276c0.016-1.352,0.061-2.75,0.108-4.178
		c0.257-7.837,0.213-13.664-2.617-16.236c-6.32-2.848-14.787-3.029-23.729-3.221c-12.602-0.271-26.884-0.576-38.617-8.935
		l-0.716-0.51l-0.614-0.63c-8.045-8.241-6.501-18.403-5.479-25.127c0.287-1.885,0.562-3.692,0.634-5.248
		c-0.419-0.698-0.995-1.539-1.494-2.267c-2.56-3.736-7.562-11.036-4.474-19.836c-1.737-2.509-3.83-6.649-2.5-11.812
		c0.507-3.449,1.973-6.224,3.16-8.357c-0.946-0.257-1.992-0.49-2.89-0.689c-5.86-1.304-16.769-3.73-19.691-16.439l-0.302-1.313
		l0.063-1.345c0.377-8.16,2.733-16.213,6.813-23.29l22.368-39.143c0.1-0.203,0.121-0.299,0.121-0.3
		c-0.063-0.618-1.293-2.697-2.029-3.939c-2.677-4.523-7.592-12.826-2.385-22.711c1.208-3.337,2.607-6.482,3.962-9.532
		c1.743-3.922,3.417-7.688,4.502-11.466c-2.177-1.042-5.085-2.442-7.669-4.988c-12.677-10.378-18.035-26.56-15.5-46.848l0.053-0.367
		c1.925-11.776,9.399-19.728,15.994-26.743c1.865-1.984,3.632-3.864,5.263-5.796c8.852-12.349,21.366-18.275,32.42-23.509
		c3.608-1.708,7.016-3.322,10.238-5.105l0.143-0.077c9.195-4.891,19.077-6.244,28.633-7.553c3.021-0.414,5.891-0.807,8.676-1.302
		c17.275-6.758,36.037-8.653,54.327-5.474l0.738,0.157c10.259,2.606,20.819,4.129,31.395,4.528
		c20.273-0.479,41.236,1.103,57.362,15.42c5.009,3.979,10.918,6.836,17.171,9.859c10.39,5.022,22.153,10.709,30.934,22.665
		c13.31,15.808,21.348,35.755,22.734,56.365c6.094,16.808,7.235,34.868,3.292,52.335l-0.153,0.681l-0.249,0.653
		c-3.79,9.955-4.055,21.966-4.336,34.683c-0.076,3.478-0.155,7.075-0.314,10.605l-0.024,0.38c-1.51,18.005-12.287,32-21.796,44.348
		c-1.652,2.146-3.222,4.184-4.743,6.233c-5.914,11.508-15.472,26.772-31.19,31.597c-1.462,0.719-2.971,1.377-4.438,2.017
		c-6.422,2.803-9.299,4.419-9.366,6.585l-0.013,0.281c-1.521,25.434,7.188,48.014,16.409,71.919c0.847,2.193,1.691,4.384,2.525,6.57
		l0.223,0.585l0.147,0.608c0.132,0.544,0.281,1.111,0.434,1.693c1.425,5.435,4.389,16.744-4.748,24.161l-1.8,1.461l-2.262,0.503
		c-3.994,0.889-8.032,1.731-11.938,2.546c-16.38,3.418-31.852,6.646-45.767,13.308l-0.438,0.197
		c-21.316,8.952-40.556,22.485-60.926,36.813c-23.254,16.355-47.296,33.267-74.741,42.729
		C156.843,508.344,153.399,508.98,149.956,508.98z M136.765,320.936c6.771,4.215,16.442,4.422,26.653,4.641
		c11.088,0.237,22.554,0.482,32.913,5.678l0.664,0.333l0.606,0.429c12.207,8.635,11.719,23.491,11.396,33.322
		c-0.047,1.448-0.095,2.862-0.103,4.218l-0.003,0.549l-0.064,0.546c-4.59,38.966-21.616,76.272-53.55,117.281
		c24.172-8.652,45.611-23.731,68.279-39.675c20.264-14.252,41.216-28.989,64.404-38.766c16.001-7.618,33.295-11.227,50.023-14.717
		c2.137-0.446,4.313-0.9,6.49-1.363c-0.219-1.05-0.523-2.214-0.749-3.072c-0.126-0.483-0.25-0.957-0.367-1.42
		c-0.757-1.979-1.521-3.961-2.286-5.946c-9.558-24.776-19.438-50.396-17.699-80.04c0.548-14.854,13.438-20.479,21.151-23.845
		c1.544-0.674,3.002-1.31,4.155-1.908l0.929-0.481l1.009-0.276c9.142-2.496,15.933-14.076,20.245-22.569l0.367-0.724l0.481-0.654
		c1.794-2.437,3.662-4.862,5.469-7.208c8.574-11.134,16.675-21.652,17.765-33.813c0.143-3.24,0.215-6.504,0.291-9.956
		c0.299-13.579,0.608-27.611,5.355-40.544c3.03-13.988,1.939-28.435-3.165-41.822l-0.553-1.45l-0.079-1.551
		c-0.868-16.996-7.411-33.501-18.422-46.477l-0.47-0.6c-5.896-8.151-14.188-12.159-23.788-16.8
		c-7.043-3.405-14.326-6.925-21.12-12.386l-0.407-0.346c-10.501-9.424-25.278-11.049-44.237-10.586l-0.263-10.752l-0.387,10.749
		c-11.926-0.429-23.838-2.122-35.415-5.034c-14.904-2.521-30.181-0.872-44.208,4.778l-0.903,0.364l-0.957,0.18
		c-3.548,0.667-7.106,1.153-10.547,1.625c-8.182,1.121-15.912,2.179-22.003,5.397c-3.74,2.065-7.564,3.876-11.263,5.627
		c-9.836,4.658-19.127,9.057-25.01,17.414l-0.491,0.639c-2.068,2.479-4.204,4.75-6.27,6.948
		c-5.293,5.631-9.872,10.501-10.887,16.283c-1.642,13.47,1.302,23.3,8.751,29.217l0.585,0.465l0.508,0.548
		c0.294,0.254,1.542,0.851,2.367,1.245c3.528,1.688,9.433,4.512,11.604,11.881l0.605,2.052l-0.303,2.118
		c-1.145,8.014-4.24,14.977-6.971,21.121c-1.363,3.066-2.65,5.963-3.655,8.839l-0.314,0.9l-0.481,0.823
		c-0.024,0.041-0.044,0.077-0.061,0.108c0.244,0.793,1.221,2.443,1.887,3.568c2.73,4.612,7.812,13.196,2.308,23.569l-0.149,0.27
		l-22.486,39.351c-2.17,3.764-3.548,7.945-4.047,12.227c0.996,0.422,2.986,0.865,4.381,1.175c4.342,0.966,10.288,2.289,15,6.92
		l0.502,0.494l0.427,0.561c6.846,8.989,2.105,17.478,0.081,21.103c-0.213,0.382-0.485,0.867-0.71,1.299
		c4.835,6.575,3.787,11.949,1.582,15.646c0.422,0.778,1.208,1.927,1.774,2.752c1.518,2.216,3.238,4.727,4.348,7.879l0.44,1.253
		l0.093,1.324c0.281,4.01-0.294,7.792-0.801,11.13C136.313,317.583,136.14,319.755,136.765,320.936z"/>
</g>
</svg>
