<?xml version="1.0" encoding="iso-8859-1"?>
<!-- Generator: Adobe Illustrator 19.2.0, SVG Export Plug-In . SVG Version: 6.00 Build 0)  -->
<svg version="1.1" id="Capa_1" xmlns="http://www.w3.org/2000/svg" xmlns:xlink="http://www.w3.org/1999/xlink" x="0px" y="0px"
	 viewBox="0 0 512 512" style="enable-background:new 0 0 512 512;" xml:space="preserve">
<title>scissors</title>
<g>
	<polygon style="fill:#FFFFFF;" points="301.499,189.597 481.03,131.54 486.543,140.73 476.587,150.382 282.658,245.508 	"/>
	<path style="fill:#FFFFFF;" d="M281.8,246.485l19.306-57.287l0.239-0.077l179.91-58.18l5.921,9.872l-10.369,10.017L281.8,246.485z
		 M301.893,189.995l-18.378,54.536l192.781-94.563l9.614-9.32l-5.104-8.509L301.893,189.995z"/>
</g>
<g>
	<path style="fill:#FFFFFF;" d="M103.131,304.787c-4.793,0.032-9.393-1.905-12.715-5.361l0,0c-3.986,0.798-8.037,1.209-12.101,1.227
		c-14.468,0.401-28.47-5.135-38.754-15.317c-2.537-2.639-4.747-5.569-6.588-8.733c-8.148-12.83-10.007-28.673-5.056-43.044
		c5.043-14.371,15.036-26.477,28.184-34.159c10.122-6.136,21.711-9.416,33.545-9.499c14.468-0.401,28.47,5.135,38.754,15.317
		l2.759,2.45l119.481-4.443l-19.76,38.14l-88.386-2.759c0.069,6.099-0.913,12.161-2.911,17.924
		c-3.894,10.893-10.736,20.489-19.76,27.727c1.615,9.596-4.853,18.68-14.45,20.295C104.635,304.681,103.883,304.76,103.131,304.787z
		 M90.416,215.483c-7.257,0.092-14.353,2.155-20.526,5.975c-7.981,4.577-14.067,11.857-17.158,20.526
		c-2.579,6.897-1.965,14.588,1.684,20.987c0.877,1.43,1.905,2.768,3.063,3.981c5.402,5.241,12.701,8.06,20.221,7.811
		c7.243-0.046,14.339-2.058,20.526-5.822c7.963-4.53,14.048-11.755,17.158-20.373c2.602-6.897,1.984-14.593-1.684-20.987
		c-0.877-1.435-1.901-2.768-3.063-3.981C105.286,218.247,97.982,215.317,90.416,215.483z"/>
	<path style="fill:#FFFFFF;" d="M103.016,305.287c-4.778,0-9.41-1.931-12.768-5.318c-3.919,0.768-7.931,1.166-11.93,1.185
		c-14.53,0.41-28.777-5.232-39.108-15.461c-2.57-2.674-4.811-5.644-6.668-8.838c-8.264-13.014-10.126-28.86-5.097-43.458
		c5.076-14.467,15.164-26.692,28.404-34.427c10.185-6.174,21.873-9.484,33.794-9.568c14.512-0.416,28.777,5.232,39.109,15.461
		l2.589,2.298l120.138-4.467l-20.299,39.182l-88.182-2.752c0.01,6-0.979,11.909-2.942,17.571
		c-3.894,10.896-10.7,20.49-19.692,27.771c0.711,4.678-0.403,9.362-3.153,13.224c-2.806,3.941-6.98,6.555-11.753,7.357
		c-0.758,0.132-1.535,0.214-2.307,0.242h-0.015C103.095,305.287,103.055,305.287,103.016,305.287z M90.586,298.882l0.19,0.197
		c3.209,3.339,7.719,5.226,12.344,5.208c0.725-0.026,1.454-0.104,2.167-0.228c4.512-0.76,8.456-3.229,11.107-6.952
		c2.652-3.724,3.694-8.258,2.935-12.768l-0.049-0.289l0.229-0.184c8.96-7.188,15.739-16.698,19.602-27.506
		c1.98-5.713,2.951-11.686,2.882-17.75l-0.006-0.522l0.521,0.017l88.071,2.749l19.221-37.099l-118.825,4.418l-2.909-2.583
		c-10.158-10.057-24.141-15.588-38.408-15.191c-11.751,0.083-23.263,3.342-33.3,9.427c-13.043,7.62-22.975,19.656-27.972,33.896
		c-4.928,14.307-3.103,29.838,5.007,42.612c1.829,3.141,4.021,6.048,6.526,8.654c10.129,10.029,24.113,15.571,38.38,15.163
		c4.037-0.019,8.076-0.428,12.017-1.218L90.586,298.882z M76.789,275.278c-7.285,0.001-14.408-2.874-19.657-7.968
		c-1.194-1.249-2.246-2.617-3.142-4.079c-3.741-6.557-4.367-14.361-1.726-21.423c3.126-8.768,9.299-16.152,17.377-20.784
		c6.229-3.855,13.415-5.947,20.766-6.041c7.658-0.168,15.165,2.844,20.583,8.262c1.188,1.239,2.241,2.608,3.137,4.074
		c3.763,6.559,4.389,14.364,1.725,21.424c-3.144,8.715-9.317,16.045-17.378,20.632c-6.247,3.802-13.434,5.84-20.77,5.888
		C77.399,275.273,77.094,275.278,76.789,275.278z M91.015,215.977c-0.196,0-0.392,0.002-0.588,0.006h-0.004
		c-7.17,0.091-14.179,2.131-20.269,5.9c-7.886,4.522-13.9,11.717-16.95,20.268c-2.539,6.791-1.938,14.286,1.647,20.571
		c0.851,1.389,1.86,2.699,2.991,3.884c5.262,5.105,12.501,7.897,19.842,7.657c7.168-0.046,14.177-2.034,20.283-5.749
		c7.867-4.478,13.881-11.619,16.947-20.117c2.56-6.787,1.959-14.281-1.647-20.568c-0.852-1.394-1.86-2.705-2.991-3.885
		C105.196,218.864,98.202,215.977,91.015,215.977z"/>
</g>
<g>
	<path style="fill:#FFFFFF;" d="M259.682,505.149c-6.251,0.332-12.166-2.86-15.317-8.272c-0.72-1.993-1.283-4.046-1.684-6.127
		c-0.784-11.086-6.381-21.273-15.317-27.88c-7.7-0.71-15.114-3.289-21.601-7.506c-3.368-1.873-6.505-4.134-9.342-6.74
		c-17.67-20.539-19.123-50.458-3.525-72.608c8.194-12.83,20.682-22.334,35.234-26.805c4.973-1.481,10.131-2.256,15.317-2.298l0,0
		l6.279-91.911l-17.771-21.291L341.019,22.319L353.12,7.002l9.652,5.209l-75.823,225.791l-7.202,123.924
		c17.296,20.563,18.551,50.195,3.063,72.146c-4.148,6.288-9.329,11.829-15.317,16.392c-6.893,7.658-1.836,29.873,0,39.367
		c1.093,2.985,1.509,6.178,1.227,9.342c-1.315,4.161-5.504,6.713-9.804,5.975l0,0H259.682z M244.365,372.339
		c-2.8,0.005-5.587,0.42-8.272,1.227c-8.78,2.759-16.281,8.572-21.139,16.392c-9.324,12.037-9.324,28.862,0,40.899
		c1.149,1.218,2.431,2.298,3.829,3.216c3.797,2.422,8.212,3.7,12.715,3.677c2.99-0.152,5.933-0.775,8.733-1.836
		c8.613-2.496,16.087-7.912,21.139-15.317c9.246-12.009,9.246-28.738,0-40.747c-1.066-1.421-2.302-2.704-3.677-3.829
		C253.735,373.441,249.08,372.159,244.365,372.339z M263.202,225.591c-1.181,0.06-2.095,1.066-2.035,2.251
		c0.023,0.466,0.198,0.913,0.503,1.273c0.489,0.203,1.043,0.203,1.532,0c0.494,0.189,1.038,0.189,1.532,0
		c0.761-0.821,0.761-2.09,0-2.911c-0.434-0.346-0.983-0.507-1.532-0.461V225.591z"/>
	<path style="fill:#FFFFFF;" d="M260.381,505.774c-0.452,0-0.908-0.033-1.366-0.103c-6.212,0.105-11.939-3.145-15.082-8.543
		c-0.763-2.088-1.336-4.175-1.743-6.284c-0.78-10.969-6.246-20.959-15.012-27.489c-7.696-0.733-15.193-3.351-21.687-7.572
		c-3.376-1.876-6.552-4.167-9.408-6.791c-17.886-20.785-19.348-50.895-3.595-73.264c8.238-12.901,20.849-22.494,35.496-26.994
		c4.878-1.453,9.92-2.231,14.997-2.314l6.233-91.25l-17.855-21.392l0.152-0.294L340.575,22.09l12.413-15.727l10.393,5.608
		l-0.135,0.399l-75.803,225.728l-7.186,123.659c17.305,20.711,18.53,50.537,2.961,72.604c-4.176,6.332-9.367,11.888-15.423,16.501
		c-6.165,6.864-2.316,26.247-0.248,36.66c0.158,0.796,0.306,1.538,0.437,2.215c1.087,2.948,1.521,6.254,1.234,9.481l-0.021,0.106
		C267.972,503.2,264.338,505.774,260.381,505.774z M259.685,504.743c3.774,0.331,7.36-2.015,8.542-5.669
		c0.264-3.064-0.152-6.2-1.204-9.071c-0.151-0.752-0.299-1.492-0.457-2.287c-2.102-10.585-6.014-30.286,0.555-37.586
		c6.034-4.608,11.149-10.083,15.272-16.333c15.354-21.763,14.104-51.18-3.029-71.549l-0.128-0.152l0.012-0.199l7.205-123.991
		l0.021-0.063l75.689-225.391l-8.912-4.81l-11.84,14.987l-108.86,211.016l17.687,21.191l-6.324,92.573l-0.463,0.004
		c-5.139,0.042-10.246,0.808-15.178,2.277c-14.416,4.429-26.832,13.874-34.955,26.595c-15.501,22.012-14.063,51.616,3.482,72.012
		c2.758,2.528,5.869,4.773,9.207,6.63c6.428,4.177,13.819,6.745,21.403,7.445l0.139,0.013l0.112,0.083
		c9.066,6.703,14.723,16.998,15.518,28.246c0.39,1.999,0.949,4.035,1.656,5.992c2.886,4.942,8.185,7.967,13.944,7.967
		c0.045,0,0.09-0.001,0.135-0.001l0.002-0.023h0.766L259.685,504.743z M231.394,438.249c-4.584,0-9.027-1.298-12.88-3.755
		c-1.426-0.937-2.744-2.044-3.924-3.295c-9.499-12.257-9.499-29.327-0.032-41.548c4.887-7.871,12.492-13.769,21.385-16.563
		c2.745-0.825,5.573-1.245,8.411-1.25c4.854-0.187,9.552,1.117,13.612,3.763c1.458,1.189,2.724,2.507,3.805,3.948
		c9.37,12.17,9.37,29.176-0.004,41.351c-5.088,7.461-12.693,12.971-21.396,15.493c-2.827,1.072-5.816,1.7-8.847,1.854
		C231.48,438.249,231.437,438.249,231.394,438.249z M244.366,372.839c-2.744,0.004-5.479,0.409-8.128,1.205
		c-8.659,2.721-16.068,8.467-20.858,16.178c-9.217,11.902-9.217,28.469-0.029,40.328c1.094,1.158,2.353,2.215,3.708,3.104
		c3.687,2.352,7.946,3.595,12.318,3.595c0.04,0,0.08,0,0.12,0c2.904-0.148,5.792-0.756,8.559-1.804
		c8.519-2.47,15.929-7.839,20.903-15.132c9.114-11.839,9.114-28.343,0.017-40.159c-1.036-1.382-2.245-2.641-3.597-3.747
		c-3.845-2.502-8.348-3.755-12.993-3.568H244.366z M262.436,229.767c-0.326,0-0.653-0.063-0.957-0.189l-0.112-0.046l-0.078-0.092
		c-0.371-0.438-0.592-0.996-0.62-1.571c-0.073-1.457,1.052-2.702,2.509-2.776l0.525-0.026v0.188c0.489,0.057,0.953,0.249,1.343,0.56
		c0.989,1.058,0.989,2.636,0.055,3.643l-0.079,0.085l-0.107,0.042c-0.548,0.211-1.146,0.232-1.705,0.063
		C262.958,229.727,262.698,229.767,262.436,229.767z M261.976,228.696c0.338,0.109,0.709,0.094,1.035-0.042l0.185-0.077l0.187,0.072
		c0.34,0.131,0.714,0.144,1.062,0.038c0.503-0.626,0.478-1.545-0.076-2.143c-0.276-0.212-0.688-0.338-1.123-0.303l-0.542,0.046
		v-0.083c-0.636,0.254-1.072,0.892-1.036,1.613C261.683,228.134,261.791,228.441,261.976,228.696z"/>
</g>
</svg>
