<?xml version="1.0" encoding="iso-8859-1"?>
<!-- Generator: Adobe Illustrator 19.2.0, SVG Export Plug-In . SVG Version: 6.00 Build 0)  -->
<svg version="1.1" id="Layer_1" xmlns="http://www.w3.org/2000/svg" xmlns:xlink="http://www.w3.org/1999/xlink" x="0px" y="0px"
	 viewBox="0 0 512 512" style="enable-background:new 0 0 512 512;" xml:space="preserve">
<title>newspaper</title>
<path d="M87.79,302.095h140c3.043,0.006,5.514-2.457,5.52-5.5c0,0,0,0,0,0v-76.59c0.006-3.043-2.457-5.514-5.5-5.52h0h-140
	c-3.043-0.006-5.514,2.457-5.52,5.5l0,0l0,0v76.55C82.295,299.58,84.745,302.057,87.79,302.095z M93.39,225.545h128.84v65.46H93.4
	v-65.45L93.39,225.545z"/>
<path d="M511.93,95.555c-0.17-10.79-8.11-15.64-16.06-15.64H63.7c-5.35,0.17-13.22,3.85-13.3,13.47v152.62H5.56
	c-1.731,0.018-3.36,0.819-4.43,2.18c-1.04,1.388-1.379,3.178-0.92,4.85l50.19,174c0.283,2.837,2.669,4.999,5.52,5h450.49
	c3.043,0.006,5.514-2.457,5.52-5.5l0,0l0,0C511.93,413.615,512.1,106.425,511.93,95.555z M50.4,257.255v129.75l-37.48-129.75H50.4z
	 M500.89,421.145H61.61v-169.41c-0.016-0.421-0.073-0.84-0.17-1.25V93.545c0-0.75,0-2.34,2.43-2.51h432c4.94,0,4.94,3.18,4.94,4.68
	C501.01,105.675,500.89,378.565,500.89,421.145z"/>
<path d="M463.16,161.895h-375c-3.038,0.259-5.29,2.932-5.031,5.969c0.229,2.678,2.353,4.802,5.031,5.031h375
	c3.038-0.259,5.29-2.932,5.031-5.969C467.962,164.248,465.838,162.124,463.16,161.895z"/>
<path d="M463.16,211.085H249.5c-3.038-0.259-5.71,1.993-5.969,5.031s1.993,5.71,5.031,5.969c0.312,0.027,0.627,0.027,0.939,0h213.66
	c3.038-0.259,5.29-2.932,5.031-5.969C467.962,213.438,465.838,211.314,463.16,211.085z"/>
<path d="M463.16,260.185H249.5c-3.038-0.259-5.71,1.993-5.969,5.031c-0.259,3.038,1.993,5.71,5.031,5.969
	c0.312,0.027,0.627,0.027,0.939,0h213.66c3.038-0.259,5.29-2.932,5.031-5.969C467.962,262.538,465.838,260.414,463.16,260.185z"/>
<path d="M463.16,309.375H249.5c-3.038,0.259-5.29,2.932-5.031,5.969c0.229,2.678,2.353,4.802,5.031,5.031h213.66
	c3.038-0.259,5.29-2.932,5.031-5.969C467.962,311.728,465.838,309.604,463.16,309.375z"/>
<path d="M463.16,358.565h-375c-3.038,0.259-5.29,2.932-5.031,5.969c0.229,2.678,2.353,4.802,5.031,5.031h375
	c3.038-0.259,5.29-2.932,5.031-5.969C467.962,360.918,465.838,358.794,463.16,358.565z"/>
</svg>
