<?xml version="1.0" encoding="iso-8859-1"?>
<!-- Generator: Adobe Illustrator 19.2.0, SVG Export Plug-In . SVG Version: 6.00 Build 0)  -->
<svg version="1.1" id="Layer_1" xmlns="http://www.w3.org/2000/svg" xmlns:xlink="http://www.w3.org/1999/xlink" x="0px" y="0px"
	 viewBox="0 0 512 512" style="enable-background:new 0 0 512 512;" xml:space="preserve">
<title>basic_pencil_ruler_pen</title>
<g>
	<path d="M312.885,508.36H167.858V3.88h145.027V508.36z M187.858,488.36h105.027V23.88H187.858V488.36z"/>
</g>
<g>
	<rect x="248.186" y="89.836" width="54.699" height="20"/>
</g>
<g>
	<rect x="279.443" y="167.978" width="23.441" height="20"/>
</g>
<g>
	<rect x="279.443" y="324.262" width="23.441" height="20"/>
</g>
<g>
	<rect x="248.186" y="246.12" width="54.699" height="20"/>
</g>
<g>
	<rect x="248.186" y="402.404" width="54.699" height="20"/>
</g>
<g>
	<path d="M140.973,508.36H58.459V81.847L99.716-0.667l41.257,82.514V508.36z M78.459,488.36h42.514V86.569L99.716,44.055
		L78.459,86.568V488.36z"/>
</g>
<g>
	<rect x="68.459" y="410.218" width="62.514" height="20"/>
</g>
<g>
	<path d="M412.284,505.094l-41.257-82.516V19.508h82.514v403.07L412.284,505.094z M391.027,417.857l21.257,42.514l21.257-42.514
		V39.508h-42.514V417.857z"/>
</g>
<g>
	<polygon points="359.77,138.907 339.77,138.907 339.77,50.765 381.027,50.765 381.027,70.765 359.77,70.765 	"/>
</g>
</svg>
