<?xml version="1.0" encoding="utf-8"?>
<!-- Generator: Adobe Illustrator 19.2.0, SVG Export Plug-In . SVG Version: 6.00 Build 0)  -->
<svg version="1.1" id="Layer_1" xmlns="http://www.w3.org/2000/svg" xmlns:xlink="http://www.w3.org/1999/xlink" x="0px" y="0px"
	 viewBox="0 0 512 512" style="enable-background:new 0 0 512 512;" xml:space="preserve">
<path id="Shape_261_copy_6" d="M281.6,153.6h-51.2v76.8h-76.8v51.2h76.8v76.8h51.2v-76.8h76.8v-51.2h-76.8V153.6z M256,0
	C114.6,0,0,114.6,0,256s114.6,256,256,256s256-114.6,256-256C511.6,114.8,397.2,0.4,256,0L256,0z M256,460.8
	c-113.1,0-204.8-91.7-204.8-204.8S142.9,51.2,256,51.2c113.1,0,204.8,91.7,204.8,204.8C460.5,369,369,460.5,256,460.8L256,460.8z"/>
</svg>
