<svg xmlns="http://www.w3.org/2000/svg" width="642" height="658"><path d="M12.906 514.947l-2.737-2.2c-5.027 6.755-12.3 24.559-9.571 30.645l.753-.94c4.097.506 8.226-6.035 11.544-10.653l1.826 1.468-.752.937c.13 3.981-3.152 9.06-4.577 13.182 2.738.141 1.762-.551 5.148 1.069a5186.088 5186.088 0 0 0-3.408 7.996c1.491-.364.526.005 2.404-1.136 3.89.361 5.375-2.338 9.042-1.923-.999 4.755-2.972 11.689-.925 16.112 2.6-4.073 3.655-7.62 8.551-6.919-.445 1.172-.885 2.347-1.334 3.531 2.85.319 3.656-.248 6.804.866-.599 9.496 6.377 17.492-1.431 27.977-.152 1.687-.553 2.139-2.079 4.462l2.735 2.198c3.272-4.643 5.075-6.337 10.046-8.792 1.128 1.876.741.896 1.077 2.4-.192 2.258-3.372 5.579-3.409 7.999-.03 2.331 3.145 2.253 3.815 4.596-1.473 4.953-2.94 9.902-4.409 14.853l1.819 1.463 4.481-5.589c2.486-1.042 4.518-5.287 7.481-9.332 3.574 3.435 1.895 1.871 6.22 3.471-2.141 3.973-3.705 8.445-2.176 12.054 3.233-1.307.653-1.204 4.239.334-1.675 3.634-1.592 1.075-.419 4.269l2.987-3.726c2.521 3.044 1.395 2.632 3.066 5.522 4.836-6.242 7.22-10.063 12.127-13.257 2.343 1.438 2.595 1.401 4.393 2.007-3.265 6.152-2.345 9.517-4.41 14.855l1.824 1.466c3.602-5.204 4.184-5.358 9.294-7.862-.022 1.535.124.509-.574 2.597-.087 1.559-1.403 4.537-1.915 6.126 3.364-.101 3.495-1.891 5.142 1.066.3 5.047-6.573 12.649-4.993 17.457.331 1.498-.019.531 1.076 2.404l5.978-7.457c.322-3.513 3.368-5.352 5.985-7.466l1.826 1.468c-.468 1.386-2.463 5.229.325 3.328 9.051-2.93 7.797-11.377 15.864-17.914 3.652-2.692 7.305-5.379 10.959-8.057.854.18 1.716.355 2.573.531 4.521-2.694 3.128-6.809 8.38-8.591l-.745.93c.124 2.726-1.527 5.836-2.495 8.729 5.176.474 3.449 1.305 7.299 5.866.374-.25 14.118-6.775 14.439-6.795l.75-.936c.056.56.102 1.119.161 1.668.037 3.87-1.47 4.449.822 8.328l3.738-4.662c.193-3.785 2.94-7.491 6.407-11.723l.908.73-.753.939c-1.077 3.212-2.158 6.438-3.242 9.661l1.822 1.464 2.992-3.732c-.249-3.781 1.331-12.389 4.252-16.52-2.521-3.047-1.398-2.643-3.077-5.532-5.112 5.591-4.577 8.864-10.133 16.387l-1.827-1.468 1.497-1.867c.513-8.868 17.515-41.473 24.691-47.626l-1.826-1.468-1.495 1.865c-2.859.899-3.245 2.865-6.477 2.471 7.897-10.892 13.857-23.959 19.197-35.175l-2.734-2.198c-5.204 7.534-8.892 9.518-16.519 11.252 5.068-8.192 10.139-16.38 15.198-24.575 3.152-2.473 12.953-11.896 17.11-13.851 1.34-.634 4.317 1.225 5.894.127 4.375-3.038 5.525-13.873 7.566-16.916 1.905-2.852 10.273-12.701 14.367-16.051 16.354-13.402 36.33-35.108 54.714-49.551 6.151-4.819 11.767-13.256 16.029-16.249a34.321 34.321 0 0 0 1.743-1.311c.369.263.7.638.957 1.181.388.82.86 1.813 1.417 2.933-.287.247-.66.58-1.213 1.053l2.734 2.198.095-.153.226.41a2212.5 2212.5 0 0 1-.321-.257l-12.711 15.855-1.82-1.463c-.017-2.501.252-1.514-1.247-4.065l-1.493 1.862c-.68 7.937-21.765 29.641-26.327 30.978.727-3.317 1.148-3.484-.655-6.661l-2.991 3.731c-.113 6.047-6.28 17.292-10.726 18.988-2.969.581-2.557.498-6.055-1.798-4.061 5.528-5.701 10.5-8.475 16.176-1.896 1.228-7.888 5.051-10.209 7.131-1.196 2.104-2.382 4.217-3.575 6.326-1.034.61-5.019-.489-5.889-.133-7.031 8.141-14.071 16.292-21.095 24.438l1.824 1.466c4.021-3.782 5.647-2.246 8.88-3.589 4.426-1.846 9.593-13.03 15.859-17.92 8.657-6.758 20.19-17.97 28.644-24.505 2.691-3.978 5.375-7.956 8.067-11.934 13.948-9.504 30.98-29.535 42.426-37.956 4.5-3.31 8.072-7.648 10.829-11.809 2.757 4.16 6.33 8.5 10.829 11.809 11.446 8.421 28.478 28.452 42.431 37.956 2.69 3.978 5.37 7.956 8.06 11.934 8.46 6.535 19.99 17.747 28.65 24.505 6.26 4.89 11.43 16.074 15.85 17.92 3.24 1.343 4.86-.193 8.88 3.589l1.83-1.466c-7.03-8.146-14.07-16.297-21.1-24.438-.87-.356-4.85.743-5.88.133-1.2-2.109-2.38-4.222-3.58-6.326-2.32-2.08-8.31-5.903-10.21-7.131-2.77-5.676-4.41-10.648-8.47-16.176-3.5 2.296-3.09 2.379-6.06 1.798-4.44-1.696-10.61-12.941-10.73-18.988-.99-1.247-1.99-2.484-2.99-3.731-1.8 3.177-1.38 3.344-.65 6.661-4.56-1.337-25.648-23.041-26.328-30.978l-1.493-1.862c-1.499 2.551-1.23 1.564-1.248 4.065l-1.819 1.463-12.711-15.855-.32.258c1.423-2.57 2.498-4.84 3.258-6.442.258-.543.588-.917.956-1.18.56.448 1.14.886 1.743 1.31 4.263 2.993 9.879 11.43 16.03 16.249 18.382 14.443 38.362 36.149 54.712 49.551 4.1 3.35 12.46 13.199 14.37 16.051 2.04 3.043 3.19 13.878 7.56 16.916 1.58 1.098 4.56-.761 5.9-.127 4.16 1.955 13.96 11.378 17.11 13.851 5.06 8.195 10.13 16.382 15.2 24.575-7.63-1.734-11.32-3.718-16.52-11.251l-2.74 2.197c5.34 11.216 11.3 24.283 19.2 35.175-3.23.394-3.62-1.572-6.48-2.47l-1.49-1.866-1.83 1.468c7.18 6.153 24.18 38.758 24.69 47.626l1.5 1.867-1.83 1.468c-5.55-7.523-5.02-10.796-10.13-16.387-1.68 2.889-.55 2.485-3.08 5.532 2.93 4.131 4.5 12.739 4.26 16.52l2.99 3.732 1.82-1.464c-1.08-3.223-2.17-6.449-3.24-9.661l-.75-.939.9-.73c3.47 4.232 6.22 7.938 6.41 11.723l3.74 4.662c2.29-3.878.78-4.458.82-8.328.06-.549.11-1.108.16-1.668l.75.936c.32.02 14.07 6.545 14.44 6.795 3.85-4.561 2.12-5.392 7.3-5.866-.97-2.893-2.62-6.003-2.5-8.729l-.74-.93c5.25 1.782 3.86 5.897 8.38 8.591.86-.176 1.72-.351 2.57-.531 3.66 2.678 7.31 5.365 10.96 8.057 8.07 6.537 6.81 14.984 15.87 17.914 2.78 1.901.79-1.942.32-3.328l1.83-1.468c2.61 2.114 5.66 3.953 5.98 7.465l5.98 7.458c1.09-1.873.74-.906 1.07-2.404 1.58-4.808-5.29-12.41-4.99-17.457 1.65-2.957 1.78-1.167 5.14-1.066-.51-1.589-1.82-4.567-1.91-6.126-.7-2.088-.55-1.062-.57-2.597 5.11 2.504 5.69 2.658 9.29 7.862l1.82-1.466c-2.06-5.338-1.14-8.703-4.41-14.854 1.8-.607 2.05-.57 4.4-2.008 4.9 3.194 7.29 7.015 12.12 13.257 1.67-2.89.55-2.478 3.07-5.522l2.99 3.726c1.17-3.194 1.25-.635-.42-4.269 3.58-1.538 1-1.641 4.24-.334 1.53-3.609-.04-8.081-2.18-12.054 4.32-1.6 2.65-.036 6.22-3.471 2.96 4.045 5 8.29 7.48 9.332l4.48 5.589 1.82-1.463-4.41-14.853c.67-2.343 3.85-2.265 3.82-4.595-.04-2.421-3.22-5.742-3.41-8 .33-1.504-.05-.524 1.08-2.4 4.97 2.455 6.77 4.149 10.04 8.792l2.74-2.198c-1.53-2.323-1.93-2.775-2.08-4.462-7.81-10.485-.84-18.481-1.43-27.977 3.14-1.114 3.95-.547 6.8-.866-.45-1.184-.89-2.359-1.33-3.531 4.89-.701 5.95 2.846 8.55 6.919 2.04-4.423.07-11.357-.93-16.112 3.67-.415 5.15 2.284 9.04 1.923 1.88 1.142.92.771 2.41 1.136a2523.09 2523.09 0 0 0-3.41-7.996c3.39-1.62 2.41-.928 5.15-1.069-1.43-4.122-4.71-9.201-4.58-13.182l-.75-.937 1.83-1.468c3.31 4.618 7.44 11.159 11.54 10.653l.75.94c2.73-6.086-4.54-23.89-9.57-30.645l-2.74 2.2c-6.81-8.67-13.27-13.8-19.18-18.32a7.537 7.537 0 0 1-.017-.013c-5.326-4.082-2.178-9.895-7.123-12.64-1.97.045-3.94.094-5.89.139-.86-.517-5.98-6.806-8.39-8.589-9.45-7.007-15.5-17.552-25.25-16.525l-2.98-3.727c2.81-.912 1.78-.854 4.23-.329l1.83-1.469c-8-7.998-12.27-2.431-20.6-12.587l2.74-2.203c-4.81-8.595-11.9-9.727-21.01-16.852-6.81-5.322-10.48-14.372-13.45-16.784-1.96-1.581-7.52-1.364-9.79-2.857l-6.73-8.395c-3.48-2.639-10.68-7.704-14.12-10.124-12.39-8.739-14.47-18.35-26.65-27.641-16.048-12.234-32.891-26.836-49.524-41.222.413-1.096.828-2.192 1.244-3.288 3.12-2.59 11.41-7.692 15.77-10.32a511.7 511.7 0 0 1 1.99 3.134l2.99-3.734c3.25-1.361 6.14-9.163 10.3-14.722 1.28 1.53 2.54 3.068 3.81 4.604l2.25-2.803c.62-4.155 5.77-4.864 6.72-8.387l-1.82-1.465c.45-1.182.89-2.359 1.33-3.531 3.86 2.041 2.46 2.038 5.89.126 8.94-3.093 13.57-12.259 22.5-18.712 1.16-.832 5.35-4.835 7.81-5.992 1.29-.609 4.03 1.421 5.14 1.064 5.32-1.689 17.12-15.615 20.09-17.583 1.13 1.874.74.897 1.08 2.408l.91.726c-6.54 5.688-12.71 13.706-17.52 18.114l2.73 2.198 1.5-1.866c8.12-2.481 23.95-25.442 34.47-33.629 4.66-3.628 7.59-5.842 12.45-9.92 1.68-2.737 3.38-5.469 5.07-8.201 2.53-1.254 6.6 1.125 9.95-1.196 3.26-2.252 5.51-8.52 6.56-10.059 1.91-2.751 4.71-1.121 6.48-2.462.94-1.798 1.88-3.591 2.82-5.393 11.13-8.261 29.11-18.52 37.79-34.031l1.82 1.465a57.185 57.185 0 0 0-.23 5.35c7.91-10.377 15.61-20.908 22.92-31.723a271.233 271.233 0 0 0-2.96-22.146A287.127 287.127 0 0 0 624.45 64.9c-9.09-14.83-19.35-28.824-30.61-42.064-8.21-7.575-16.92-14.682-25.97-21.36C564.26.876 560.63.388 557 0c-5.91.413-11.78 1.114-17.62 2.065-12.41 3.991-24.44 8.973-36.18 14.664-10.43 6.176-20.61 12.749-30.66 19.537 1.82.34 3.62.803 5.41 1.467l-5.23 6.525c-4.01 1.336-17.7 13.945-17.86 14.789l-.75.935c1.17.414 2.33.842 3.5 1.268 3.86-3.947 6.85-5.286 11.45-3.071 2.35.311 2.94 1.187 6.21 3.465-19.74 22.843-39.91 49.276-59.37 70.342l.15 1.666.91.731c3.85-3.554 7.71-7.101 11.55-10.658l1.83 1.465-2.25 2.801c-5.43 2.197-7.49 10.016-13.37 9.185.66-3.245.91-.316-.32-3.327l-1.49 1.867c-.02.006-15.88 14.69-17.7 16.451l1.82 1.466.75-.936c4.17-1.364 7.61-6.228 12.04-5.66.55-.061 1.11-.131 1.65-.196l-2.23 2.793c-6.43 2.071-10.03 11-11.96 14.918-1.63-.313-2.71-.502-4.24-.332-1.09-2.604-.92-3.885-2.31-6.462l-1.5 1.867c-6.22 1.707-8.87 10.097-15.28 15.314-11.55 9.416-20.296 22.38-32.051 32.504l1.827 1.468.743-.928c3.829-.423 3.572-2.638 7.056-5.068l1.826 1.468-4.485 5.594c-9.142 3.629-11.532 12.361-19.181 18.317-2.945 2.294-5.827 4.88-8.685 7.665-2.858-2.785-5.74-5.371-8.685-7.665-7.649-5.956-10.039-14.688-19.181-18.317l-4.485-5.594 1.826-1.468c3.484 2.43 3.227 4.646 7.056 5.068l.743.928 1.827-1.468c-11.755-10.124-20.503-23.088-32.053-32.504-6.406-5.217-9.055-13.607-15.28-15.314l-1.496-1.866c-1.392 2.576-1.224 3.857-2.314 6.461-1.53-.17-2.609.019-4.234.332-1.938-3.918-5.539-12.847-11.96-14.918l-2.239-2.793c.546.065 1.103.135 1.651.196 4.431-.568 7.87 4.297 12.04 5.66l.75.935 1.823-1.465c-1.815-1.761-17.676-16.445-17.695-16.451l-1.496-1.867c-1.229 3.011-.982.082-.32 3.327-5.88.831-7.941-6.988-13.368-9.185l-2.246-2.801 1.823-1.465c3.847 3.557 7.699 7.104 11.552 10.658l.908-.731c.05-.554.106-1.116.157-1.666-19.466-21.066-39.633-47.499-59.378-70.342 3.274-2.278 3.861-3.154 6.216-3.465 4.593-2.215 7.588-.875 11.453 3.071 1.162-.426 2.328-.854 3.49-1.268l-.75-.935c-.153-.844-13.844-13.453-17.855-14.789l-5.23-6.525c1.788-.664 3.592-1.127 5.406-1.467-10.041-6.788-20.222-13.361-30.66-19.537-11.733-5.691-23.768-10.673-36.172-14.664A193.799 193.799 0 0 0 85.003 0c-3.638.388-7.263.876-10.87 1.476-9.053 6.678-17.765 13.785-25.969 21.36C36.897 36.076 26.643 50.07 17.555 64.9a286.846 286.846 0 0 0-14.6 37.935 271.647 271.647 0 0 0-2.953 22.146c7.312 10.815 15.008 21.346 22.919 31.723a58.594 58.594 0 0 0-.229-5.35l1.822-1.465c8.68 15.511 26.652 25.77 37.781 34.031.943 1.802 1.885 3.595 2.827 5.393 1.772 1.341 4.566-.289 6.475 2.462 1.058 1.539 3.299 7.807 6.566 10.059 3.346 2.321 7.412-.059 9.95 1.196 1.689 2.733 3.382 5.465 5.071 8.201 4.852 4.078 7.789 6.292 12.449 9.92 10.516 8.187 26.346 31.148 34.468 33.629l1.496 1.866 2.736-2.198c-4.816-4.408-10.988-12.426-17.519-18.114l.903-.726c.343-1.511-.05-.534 1.08-2.408 2.976 1.968 14.768 15.894 20.095 17.583 1.103.357 3.852-1.673 5.142-1.064 2.46 1.157 6.643 5.16 7.807 5.992 8.928 6.453 13.555 15.619 22.5 18.712 3.428 1.912 2.029 1.915 5.887-.126.446 1.172.884 2.349 1.331 3.532l-1.822 1.464c.955 3.523 6.099 4.232 6.724 8.387l2.247 2.803c1.271-1.536 2.536-3.074 3.808-4.604 4.168 5.559 7.05 13.361 10.304 14.722l2.993 3.734c.658-1.049 1.319-2.086 1.986-3.134 4.358 2.628 12.646 7.73 15.772 10.32l1.241 3.29c-16.631 14.385-33.474 28.986-49.52 41.22-12.182 9.291-14.262 18.902-26.654 27.641-3.435 2.42-10.635 7.485-14.118 10.124l-6.73 8.395c-2.273 1.493-7.834 1.276-9.789 2.857-2.972 2.412-6.645 11.462-13.455 16.784-9.108 7.126-16.199 8.257-21.009 16.852l2.741 2.203c-8.327 10.156-12.596 4.589-20.593 12.587l1.826 1.469c2.447-.525 1.42-.583 4.231.329l-2.987 3.727c-9.748-1.027-15.792 9.518-25.242 16.525-2.417 1.783-7.533 8.072-8.389 8.589-1.958-.045-3.929-.094-5.893-.139-4.947 2.748-1.792 8.57-7.142 12.653-5.91 4.52-12.367 9.65-19.183 18.32-6.816 8.67 0 0 0 0zm302.951-110.642c1.983-1.86 3.668-3.872 5.143-5.955 1.474 2.083 3.16 4.095 5.143 5.955a83.868 83.868 0 0 0-2.262 3.33c-.998 1.545-1.7 4.16-2.881 5.877-.641-.932-1.14-2.129-1.624-3.276.125-.353.253-.749.438-1.274-.313.035-.627.072-.94.11-.24-.53-.487-1.022-.755-1.437a83.842 83.842 0 0 0-2.262-3.33zM466.38 504.66l-1.82 1.462c-13.34-11.09-27.37-24.959-39.44-34.23-3.97-3.049-5.62-10.099-8.06-11.924-11.72-8.76-31.12-25.273-43.93-39.83l2.74-2.201c5.57 6.218 16.24 12.498 21.92 16.122 6.49 4.133 5.62 11.001 14.21 17.723 8.4 6.577 19.42 14.917 27.31 20.971 8.04 6.18 7.84 17.668 18.85 21.653zm-282.539-10.254c11.007-3.985 10.811-15.473 18.852-21.653 7.885-6.054 18.911-14.394 27.306-20.971 8.595-6.722 7.718-13.59 14.208-17.723 5.683-3.624 16.35-9.904 21.923-16.122l2.739 2.201c-12.81 14.557-32.21 31.069-43.929 39.83-2.44 1.825-4.09 8.875-8.062 11.923-12.064 9.272-26.101 23.141-39.437 34.232l-1.82-1.463zm33.741-66.426c11.539-13.926 26.673-33.603 45.253-43.348l1.829 1.47-5.979 7.459c-4.891 1.818-7.905 10.249-12.878 14.186-10.653 8.433-17.351 10.954-25.485 22.436zm204.098 2.203c-8.14-11.482-14.83-14.003-25.49-22.436-4.97-3.937-7.98-12.368-12.87-14.186l-5.98-7.459 1.83-1.47c18.57 9.745 33.71 29.422 45.25 43.348zm-47.5-46.149c-4.35-4.173-8.69-8.349-13.04-12.525l2.73-2.198c2.16 2.747 4.04 5.115 6.16 5.797l5.98 7.46zm-108.188-1.466l5.981-7.46c2.114-.682 3.992-3.05 6.153-5.797l2.735 2.198c-4.346 4.176-8.689 8.352-13.046 12.525zM22.13 497.827l1.827 1.468.75-.935c1.93-.619 3.33-2.334 5.393-4.861-3.221-.608-.304-.899-3.323.398-1.763.564-2.654 1.648-4.647 3.93 0 0-.609-.49 0 0zm248.25-312.493l-1.825 1.467c-1.446-2.42-2.883-4.844-4.326-7.257.557.065 1.109.136 1.668.197.548.069 1.102.127 1.655.201l-.909.73zm104.98-4.662l-.91-.73c.55-.074 1.1-.132 1.65-.201.56-.061 1.11-.132 1.67-.198-1.44 2.414-2.88 4.838-4.33 7.258l-1.82-1.467zm131.86 429.169c-1.53-2.328-1.93-2.771-2.09-4.458.06-.555.12-1.114.17-1.67 1.72 1.077 2.55 1.611 4.65 3.93zm-375.17-2.198c2.096-2.319 2.931-2.853 4.651-3.93.048.556.105 1.115.164 1.67-.154 1.687-.556 2.131-2.081 4.458zm347.71-551.59c-2.01 1.953-2.26 1.982-3.9 2.993l-1.82-1.467 2.24-2.794c1.16.429 2.32.846 3.48 1.268 1.15.422 0 0 0 0zm-97.35 119.562l-1.82-1.467 1.49-1.867c.97-.92.79-1.435 4.07-1.328-.64 1.799-.65 2.068-2.08 4.454-.55.075-1.1.141-1.66.208-.55.067 0 0 0 0zm-124.484-.208c-1.429-2.386-1.436-2.655-2.076-4.455 3.277-.106 3.097.409 4.067 1.33l1.496 1.866-1.826 1.467c-.556-.067-1.112-.133-1.661-.208-.549-.075 0 0 0 0zM165.724 54.785l2.239 2.794-1.825 1.467c-1.637-1.011-1.893-1.04-3.894-2.993 1.156-.422 2.315-.839 3.48-1.268 1.164-.429 0 0 0 0zm117.859 141.408l2.987 3.726-1.826 1.468c-1.426-2.388-1.428-2.657-2.073-4.461zm71.847 3.726l2.987-3.726.912.733c-.645 1.803-.647 2.073-2.073 4.461zM223.7 317.92a784.51 784.51 0 0 0-.159 1.663c3.204 1.243.647 1.283 4.229-.333l-2.243-2.798-1.827 1.468zm-18.405 215.19l2.242-2.797c-3.405-.504-.868-1.028-4.069 1.329l1.827 1.468s-.747.931 0 0zM369.38 188.13l.92.737-1.5 1.868-.92-.738zm-95.261 1.867l-.918.738-1.497-1.868.918-.737zm8.552 6.929c-.645-1.803 0 0 0 0z" fill="#cdad7f"/></svg>