<svg xmlns="http://www.w3.org/2000/svg" width="263" height="498"><path d="M129.886 439.411l-51.812-21.974v-.21l-1.335-.568V199.85l-8.148-14.112-16.952-24.835 25.1-37.917V89.028h45.789l-.026 36.808-.052 1.047-20.327 33.7 20.346 35.627.055 2.017v194.261l7.362 2.851 4.504 1.744 10.785-4.012v-6.734l.089-.037V129.28h-11.925l10.42-40.252h47.29v327.55l-16.868 7.154-39.791 17.589zM263 50.329v336.665l-45.785 19.414V90.58h-11.928l15.716-40.251zM57.71 90.58H45.785v313.402L0 384.564V50.329h47.287zm39.419-65.296a.57.57 0 0 1-.166-.177c.077-.008.151-.019.225-.019h25.842c.313 0 .313 0 .409-.299.745-2.286 1.49-4.572 2.239-6.862.97-2.987 1.944-5.974 2.918-8.964l1.892-5.815.951-2.917c.019-.059.041-.118.081-.228.045.11.07.169.089.232 1.081 3.304 2.158 6.608 3.231 9.908.627 1.918 1.251 3.835 1.874 5.752.977 3.006 1.958 6.011 2.932 9.016.041.126.1.188.232.177.063-.007.126 0 .192 0h25.683c.093 0 .181.007.284.055-.052.041-.1.085-.154.126-2.472 1.792-4.947 3.591-7.418 5.387-2.836 2.058-5.673 4.112-8.509 6.169a2302.6 2302.6 0 0 1-5.065 3.673c-.129-.096-13.419 9.735-13.551 9.834-.897.66-1.8 1.313-2.704 1.969-2.228 1.619-4.459 3.234-6.687 4.853a5221.854 5221.854 0 0 1-4.91 3.562c-2.246 1.634-4.496 3.263-6.742 4.897-.048.037-.1.081-.148.122h-.033c.432-1.335.871-2.674 1.306-4.012a7558.95 7558.95 0 0 1 2.873-8.832l1.848-5.671c.694-2.135 1.387-4.274 2.084-6.412.048-.141.022-.218-.096-.303-1.896-1.368-3.784-2.74-5.676-4.111-1.601-1.162-3.202-2.32-4.799-3.478-2.493-1.81-4.987-3.617-7.477-5.424l-3.05-2.208s.059.044 0 0zm49.577 21.309c.963 2.957 1.925 5.911 2.884 8.868.635 1.936 1.266 3.876 1.896 5.816.458 1.404.911 2.806 1.369 4.21.018.06.029.119.011.203-.17-.118-.34-.236-.506-.357-3.636-2.637-7.27-5.277-10.906-7.914 0 0 3.083-13.628 3.427-16.426.61 1.865 1.217 3.733 1.825 5.6zm-1.815-6.095c.032.025.026.2-.01.495l-.071-.215c-.037-.122-.033-.195.081-.28zM78.163 492.107c.096.174.181.355.291.528 1.302 2.002 2.966 3.344 4.895 4.192 1.117.495 2.316.83 3.6 1.003.502.071 1.011.115 1.534.137.491.022.978.033 1.465.026 2.43-.034 4.813-.413 7.148-1.036a37.96 37.96 0 0 0 2.777-.856c1.254-.439 2.494-.911 3.737-1.39.789-.303 1.578-.609 2.368-.926 1.114-.446 2.231-.896 3.341-1.353.008-.007.019-.011.03-.015.797-.332 2.331-.977 4.411-1.851 4.751-1.995 9.491-4.004 14.238-6.01 5.341-2.253 10.674-4.503 16.012-6.763 5.274-2.235 10.545-4.477 15.82-6.711l12.419-5.266c.048-.018.092-.04.14-.059.933-.394 1.87-.793 2.806-1.191 2.317-.981 4.633-1.965 6.95-2.946.83-.354 1.66-.708 2.486-1.058.494-.214.992-.421 1.486-.631a.436.436 0 0 0-.302-.026c-1.579.421-3.153.841-4.732 1.258l-1.753.464a4.36 4.36 0 0 0-.176.048c-6.086 1.619-12.173 3.23-18.258 4.849-.528.14-1.059.284-1.586.424a84232.037 84232.037 0 0 1-51.96 13.795c-.019.007-.037.011-.052.015-3.047.804-6.112 1.346-9.262 1.165-.475-.03-.959-.07-1.438-.133-4.39-.575-7.68-3.794-8.177-8.168-.296-2.57.106-5.048.914-7.448.159-.476.332-.951.524-1.42.107-.265.24-.527.354-.793.627-1.441 1.328-2.868 2.04-4.41-1.863 2.157-3.67 4.226-5.444 6.317-2.715 3.2-5.19 6.567-7.06 10.343-1.785 3.592-3.065 7.323-2.84 11.42.085 1.589.483 3.097 1.254 4.476.771 1.38 0 0 0 0z" fill="#fff"/></svg>