<svg xmlns="http://www.w3.org/2000/svg" width="23" height="21"><path d="M.058 8.076l1.015.706 2.49 1.732 1.597 1.111 1.89 1.313c.039.027.048.052.033.097a703.8 703.8 0 0 0-.695 2.048l-.614 1.81-.957 2.822-.435 1.28h.011l.049-.038 2.245-1.564 1.634-1.138 2.227-1.55c.3-.209.601-.418.9-.629.044-.031 4.469-3.171 4.511-3.14.111.082-1.144 5.404-1.144 5.404l3.631 2.527.168.115a.106.106 0 0 0-.003-.065l-.456-1.345-.631-1.858-.96-2.832-.631-1.857c-.013-.039-.012-.062.026-.089.563-.39 1.124-.782 1.687-1.173l2.832-1.971 2.47-1.721c.018-.012.034-.027.051-.04a.219.219 0 0 0-.094-.017h-8.551c-.021 0-.042-.002-.063 0-.045.004-.064-.016-.078-.057l-.976-2.879-.623-1.837L11.538.076l-.03-.075-.027.074-.317.931c-.209.62-.42 1.239-.63 1.858l-.972 2.863-.744 2.191c-.033.096-.033.096-.136.096H.078c-.025 0-.05.004-.075.006a.173.173 0 0 0 .055.056" fill="#cdad7f"/></svg>