<svg xmlns="http://www.w3.org/2000/svg" width="25" height="47"><path d="M12.347 41.47l-4.925-2.073v-.02l-.127-.054V18.861L6.52 17.53 4.91 15.186l2.386-3.579V8.402h4.352l-.002 3.474-.005.099-1.933 3.18 1.935 3.363.005.19v18.334l.7.27.428.164 1.025-.379v-.635l.008-.004V12.201h-1.133l.99-3.799h4.496v30.914l-1.604.675-3.782 1.66zM25 4.75v31.773l-4.352 1.833V8.549h-1.134l1.494-3.8zM5.486 8.549H4.352v29.578L0 36.294V4.75h4.495zm3.747-6.163a.053.053 0 0 1-.016-.017l.021-.001h2.457c.03 0 .03 0 .039-.028l.213-.648.277-.846.18-.549.09-.275.008-.022c.004.01.007.016.008.022a705.616 705.616 0 0 1 .486 1.478l.278.851c.004.012.01.018.022.017h2.46a.06.06 0 0 1 .027.005l-.015.012-.705.508-.809.582-.481.347c-.012-.009-1.276.919-1.288.928l-.257.186-.636.458-.466.336-.641.462a.354.354 0 0 0-.014.012h-.004l.125-.379c.09-.278.181-.556.273-.833l.175-.535.198-.606c.005-.013.003-.02-.009-.028l-.54-.388-.455-.328-.711-.512-.29-.209s.005.004 0 0zm4.713 2.011c.09.28.182.558.274.837l.18.55.13.397a.033.033 0 0 1 .001.019 2.067 2.067 0 0 1-.048-.034l-1.037-.747s.293-1.285.326-1.55l.173.528zm-.173-.575c.003.002.002.019-.001.047l-.007-.02c-.003-.012-.003-.019.008-.027zM7.458 46.494c.123.189.281.315.465.395a1.26 1.26 0 0 0 .488.108 2.794 2.794 0 0 0 .819-.095 3.53 3.53 0 0 0 .264-.081 12.224 12.224 0 0 0 .58-.219l.318-.127.002-.002.42-.175 1.353-.567 1.522-.638 1.504-.634 1.18-.496.014-.006.267-.112.66-.279.237-.1.14-.059a.043.043 0 0 0-.028-.002c-.15.04-.3.08-.45.118l-.166.044a.249.249 0 0 0-.017.005l-1.736.457-.15.04a8901.998 8901.998 0 0 1-4.945 1.304c-.29.076-.58.127-.88.11a1.939 1.939 0 0 1-.137-.013.872.872 0 0 1-.777-.77c-.028-.243.01-.477.087-.704.015-.045.032-.09.05-.134l.033-.075c.06-.136.127-.27.194-.416-.177.204-.349.4-.517.596a4.84 4.84 0 0 0-.671.977c-.17.339-.292.69-.27 1.077.008.15.046.293.119.423.01.016.017.033.028.05z" fill="#fff"/></svg>