<svg width="14" height="15" viewBox="0 0 14 15" xmlns="http://www.w3.org/2000/svg" xmlns:xlink="http://www.w3.org/1999/xlink" xmlns:figma="http://www.figma.com/figma/ns"><title>Instagram Icon</title><desc>Created using Figma</desc><g transform="translate(-791 -3057)" figma:type="canvas"><path fill="#FFF" d="M791 3057h14v15h-14z"/><mask id="a"><path d="M-130-2410h1280v5574H-130v-5574z" fill="#FFF"/></mask><g style="mix-blend-mode:normal" mask="url(#a)" figma:type="frame"><path d="M-130-2410h1280v5574H-130v-5574z" fill="#FFF"/><g style="mix-blend-mode:normal" figma:type="frame"><g style="mix-blend-mode:normal" figma:type="vector"><use xlink:href="#b" transform="translate(-130 2884.55)" fill="#F6F8F8" style="mix-blend-mode:normal"/><mask id="c"><use xlink:href="#b" fill="#fff" transform="translate(-130 2884.55)"/></mask><g mask="url(#c)"><use xlink:href="#d" transform="translate(-130 2884.55)" fill="#979797" style="mix-blend-mode:normal"/></g></g><use xlink:href="#e" transform="translate(791 3057.55)" fill="#939999" style="mix-blend-mode:normal" figma:type="vector-operation"/></g></g></g><defs><path id="b" fill-rule="evenodd" d="M0 0h1280v286H0V0z"/><path id="d" d="M0 0v-1h-1v1h1zm1280 0h1v-1h-1v1zm0 286v1h1v-1h-1zM0 286h-1v1h1v-1zM0 1h1280v-2H0v2zm1279-1v286h2V0h-2zm1 285H0v2h1280v-2zM1 286V0h-2v286h2z"/><path id="e" fill-rule="evenodd" d="M1.75 0h10.5C13.216 0 14 .784 14 1.75v10.5A1.75 1.75 0 0 1 12.25 14H1.75A1.75 1.75 0 0 1 0 12.25V1.75C0 .784.784 0 1.75 0zm7.875 2.625c0-.483.392-.875.875-.875h.875c.484 0 .875.392.875.875V3.5a.875.875 0 0 1-.875.875H10.5a.875.875 0 0 1-.875-.875v-.875zM8.75 7S8.612 5.25 7 5.25 5.25 7 5.25 7 5.199 8.75 7 8.75C8.802 8.75 8.75 7 8.75 7zm2.6 5.388c.484 0 1.038-.542 1.038-1.025V6.988c0-.484-.529-.975-1.013-.975h-.999c.072.28.124.683.124.987a3.5 3.5 0 1 1-7 0c0-.304.051-.719.124-1h-.999c-.484 0-1.038.517-1.038 1v4.375c0 .484.529 1.013 1.013 1.013h8.75z"/></defs></svg>