<svg width="16" height="14" viewBox="0 0 16 14" xmlns="http://www.w3.org/2000/svg" xmlns:xlink="http://www.w3.org/1999/xlink" xmlns:figma="http://www.figma.com/figma/ns"><title>Twitter Icon</title><desc>Created using Figma</desc><g transform="translate(-714 -3058)" figma:type="canvas"><path fill="#FFF" d="M714 3058h16v14h-16z"/><mask id="a"><path d="M-130-2410h1280v5574H-130v-5574z" fill="#FFF"/></mask><g style="mix-blend-mode:normal" mask="url(#a)" figma:type="frame"><path d="M-130-2410h1280v5574H-130v-5574z" fill="#FFF"/><g style="mix-blend-mode:normal" figma:type="frame"><g style="mix-blend-mode:normal" figma:type="vector"><use xlink:href="#b" transform="translate(-130 2884.55)" fill="#F6F8F8" style="mix-blend-mode:normal"/><mask id="c"><use xlink:href="#b" fill="#fff" transform="translate(-130 2884.55)"/></mask><g mask="url(#c)"><use xlink:href="#d" transform="translate(-130 2884.55)" fill="#979797" style="mix-blend-mode:normal"/></g></g><use xlink:href="#e" transform="translate(714 3058.55)" fill="#939999" style="mix-blend-mode:normal" figma:type="vector"/></g></g></g><defs><path id="b" fill-rule="evenodd" d="M0 0h1280v286H0V0z"/><path id="d" d="M0 0v-1h-1v1h1zm1280 0h1v-1h-1v1zm0 286v1h1v-1h-1zM0 286h-1v1h1v-1zM0 1h1280v-2H0v2zm1279-1v286h2V0h-2zm1 285H0v2h1280v-2zM1 286V0h-2v286h2z"/><path id="e" fill-rule="evenodd" d="M16.001 1.489a6.763 6.763 0 0 1-1.886.501A3.211 3.211 0 0 0 15.559.233a6.727 6.727 0 0 1-2.085.77A3.33 3.33 0 0 0 11.078 0C9.265 0 7.796 1.422 7.796 3.175c0 .249.028.492.085.724A9.43 9.43 0 0 1 1.114.582 3.085 3.085 0 0 0 .67 2.178c0 1.101.579 2.073 1.46 2.642a3.34 3.34 0 0 1-1.486-.397l-.001.04c0 1.538 1.131 2.822 2.633 3.113a3.366 3.366 0 0 1-1.482.055c.418 1.261 1.63 2.179 3.066 2.204a6.724 6.724 0 0 1-4.077 1.36c-.265 0-.526-.015-.783-.045a9.533 9.533 0 0 0 5.033 1.427c6.037 0 9.339-4.838 9.339-9.033 0-.138-.003-.275-.009-.411a6.561 6.561 0 0 0 1.638-1.644z"/></defs></svg>