<svg width="7" height="17" viewBox="0 0 7 17" xmlns="http://www.w3.org/2000/svg" xmlns:xlink="http://www.w3.org/1999/xlink" xmlns:figma="http://www.figma.com/figma/ns"><title>Facebook Icon</title><desc>Created using Figma</desc><g transform="translate(-685 -3056)" figma:type="canvas"><path fill="#FFF" d="M685 3056h7v17h-7z"/><mask id="a"><path d="M-130-2410h1280v5574H-130v-5574z" fill="#FFF"/></mask><g style="mix-blend-mode:normal" mask="url(#a)" figma:type="frame"><path d="M-130-2410h1280v5574H-130v-5574z" fill="#FFF"/><g style="mix-blend-mode:normal" figma:type="frame"><g style="mix-blend-mode:normal" figma:type="vector"><use xlink:href="#b" transform="translate(-130 2884.55)" fill="#F6F8F8" style="mix-blend-mode:normal"/><mask id="c"><use xlink:href="#b" fill="#fff" transform="translate(-130 2884.55)"/></mask><g mask="url(#c)"><use xlink:href="#d" transform="translate(-130 2884.55)" fill="#979797" style="mix-blend-mode:normal"/></g></g><use xlink:href="#e" transform="translate(685 3056.55)" fill="#939999" style="mix-blend-mode:normal" figma:type="vector"/></g></g></g><defs><path id="b" fill-rule="evenodd" d="M0 0h1280v286H0V0z"/><path id="d" d="M0 0v-1h-1v1h1zm1280 0h1v-1h-1v1zm0 286v1h1v-1h-1zM0 286h-1v1h1v-1zM0 1h1280v-2H0v2zm1279-1v286h2V0h-2zm1 285H0v2h1280v-2zM1 286V0h-2v286h2z"/><path id="e" fill-rule="evenodd" d="M4.569 5.24l.004-1.38c0-.718.063-1.104 1.014-1.104h1.27V0H4.824C2.382 0 1.523 1.338 1.523 3.585V5.24H0v2.757h1.523v7.997h3.046V7.997h2.033l.269-2.757H4.569z"/></defs></svg>