<svg width="16" height="16" viewBox="0 0 16 16" xmlns="http://www.w3.org/2000/svg" xmlns:xlink="http://www.w3.org/1999/xlink" xmlns:figma="http://www.figma.com/figma/ns"><title>google</title><desc>Created using Figma</desc><g transform="translate(-753 -3057)" figma:type="canvas"><path fill="#FFF" d="M753 3057h16v16h-16z"/><mask id="a"><path d="M-130-2410h1280v5574H-130v-5574z" fill="#FFF"/></mask><g style="mix-blend-mode:normal" mask="url(#a)" figma:type="frame"><path d="M-130-2410h1280v5574H-130v-5574z" fill="#FFF"/><g style="mix-blend-mode:normal" figma:type="frame"><g style="mix-blend-mode:normal" figma:type="vector"><use xlink:href="#b" transform="translate(-130 2884.55)" fill="#F6F8F8" style="mix-blend-mode:normal"/><mask id="c"><use xlink:href="#b" fill="#fff" transform="translate(-130 2884.55)"/></mask><g mask="url(#c)"><use xlink:href="#d" transform="translate(-130 2884.55)" fill="#979797" style="mix-blend-mode:normal"/></g></g><use xlink:href="#e" transform="translate(753 3057.55)" fill="#939999" style="mix-blend-mode:normal" figma:type="vector-operation"/></g></g></g><defs><path id="b" fill-rule="evenodd" d="M0 0h1280v286H0V0z"/><path id="d" d="M0 0v-1h-1v1h1zm1280 0h1v-1h-1v1zm0 286v1h1v-1h-1zM0 286h-1v1h1v-1zM0 1h1280v-2H0v2zm1279-1v286h2V0h-2zm1 285H0v2h1280v-2zM1 286V0h-2v286h2z"/><path id="e" fill-rule="evenodd" d="M7.817 8.597l-.001-.002C7.39 8.298 6.575 7.58 6.575 7.157c0-.496.144-.74.905-1.322.781-.598 1.333-1.438 1.333-2.415 0-1.164-.529-2.298-1.521-2.672h1.496l.618-.259S6.306 0 5.126 0C3.011 0 1.02 1.57 1.02 3.39c0 1.859 1.442 3.36 3.594 3.36.149 0 .295-.003.437-.012-.14.261-.239.557-.239.864 0 .516.283.936.642 1.277-.13 0-.26.002-.39.004h-.008c-.136.002-.275.004-.419.004C2.016 8.887 0 10.522 0 12.218c0 1.67 2.21 2.716 4.83 2.716 2.987 0 4.637-1.662 4.637-3.332 0-1.34-.403-2.141-1.65-3.005zm5.722-4.925H16v-.734h-2.461l.002-2.449H12.8v2.449h-2.462v.734H12.8v2.203l.741.023-.002-2.226zM7.116 3.51C6.906 1.945 5.751.689 4.535.654c-1.215-.036-2.03 1.16-1.82 2.727.21 1.564 1.365 2.86 2.581 2.897 1.214.035 2.029-1.204 1.82-2.768zM5.134 9.315a4.01 4.01 0 0 1 1.174.184c.127.087.25.168.367.247.79.528 1.348.9 1.52 1.566.037.156.058.315.058.477 0 1.349-.887 2.404-3.433 2.404-1.811 0-3.119-1.123-3.119-2.473 0-1.322 1.622-2.424 3.433-2.405z"/></defs></svg>