<svg width="29" height="25" viewBox="0 0 29 25" xmlns="http://www.w3.org/2000/svg" xmlns:xlink="http://www.w3.org/1999/xlink" xmlns:figma="http://www.figma.com/figma/ns"><title>Diamond Copy</title><desc>Created using Figma</desc><g transform="translate(-453 292)" figma:type="canvas"><path fill="#FFF" d="M453-292h29v25h-29z"/><mask id="a"><path d="M-130-2410h1280v5574H-130v-5574z" fill="#FFF"/></mask><g style="mix-blend-mode:normal" mask="url(#a)" figma:type="frame"><path d="M-130-2410h1280v5574H-130v-5574z" fill="#FFF"/><use xlink:href="#b" transform="translate(453 -292)" fill="#C8A17D" style="mix-blend-mode:normal" figma:type="vector-operation"/></g></g><defs><path id="b" fill-rule="evenodd" d="M5.36.626L5.767 0h16.978l.407.626 4.792 7.353.569.871-.698.78-12.543 14.043-1.015 1.137-1.017-1.137L.697 9.63 0 8.85l.568-.871L5.36.626zM7.24 2.74L3.427 8.592l10.83 12.124 10.83-12.124-3.814-5.853H7.24z"/></defs></svg>