<svg width="74" height="20" viewBox="0 0 74 20" xmlns="http://www.w3.org/2000/svg" xmlns:xlink="http://www.w3.org/1999/xlink"><title>Logo</title><use xlink:href="#a" fill="#40454C" style="mix-blend-mode:normal"/><defs><path id="a" fill-rule="evenodd" d="M51.032 14.426h-.054v.108l-2.592 5.228h4l1.032-2.065h9.556l1.01 2.065h4L58.185 0l-7.153 14.426zm10.317 0h-6.301l.264-.532 2.873-5.842 2.9 5.842.264.532zm7.339 2.613c0-1.438 1.189-2.604 2.656-2.604S74 15.601 74 17.04c0 1.437-1.189 2.603-2.656 2.603s-2.656-1.166-2.656-2.603zM40.089.026H35.82v19.736h11.652v-3.737h-7.383v-16zm-28.168 0h4.242v12c0 4.394-2.578 7.973-8.082 7.973-5.503 0-8.081-3.58-8.081-7.973v-12h4.215v12h.027c0 2.079 1.396 4.21 3.839 4.21 2.417 0 3.84-2.131 3.84-4.21v-12zm9.981 14.4l.265-.532 2.872-5.842 2.9 5.842.265.532h-6.302zm10.291 0h.012v.024l2.634 5.312h-4.001l-1.01-2.065h-9.556l-1.032 2.065h-4L25.039 0l7.154 14.426z"/></defs></svg>