<svg width="52" height="15" viewBox="0 0 52 15" xmlns="http://www.w3.org/2000/svg" xmlns:xlink="http://www.w3.org/1999/xlink"><title>Logo</title><use xlink:href="#a" fill="#fff" style="mix-blend-mode:normal"/><defs><path id="a" fill-rule="evenodd" d="M35.724 10.099h-.038v.075l-1.814 3.66h2.8l.723-1.446h6.689l.707 1.446h2.8L40.731 0l-5.007 10.099zm7.222 0h-4.41l.184-.373 2.011-4.09 2.03 4.09.185.373zm5.138 1.829c0-1.007.832-1.823 1.86-1.823 1.026 0 1.859.816 1.859 1.823 0 1.006-.833 1.822-1.86 1.822-1.027 0-1.859-.816-1.859-1.822zM28.064.018h-2.989v13.816h8.157v-2.616h-5.168V.018zm-19.719 0h2.97v8.4C11.315 11.496 9.51 14 5.657 14 1.805 14 0 11.495 0 8.419v-8.4h2.95v8.4h.02c0 1.455.977 2.947 2.687 2.947 1.692 0 2.688-1.492 2.688-2.947v-8.4zm6.987 10.08l.186-.372 2.01-4.09 2.03 4.09.186.373h-4.412zm7.204 0h.009v.018l1.843 3.718h-2.8l-.707-1.446h-6.69l-.722 1.446h-2.8L17.529 0l5.007 10.099z"/></defs></svg>