<svg width="77" height="77" viewBox="0 0 77 77" xmlns="http://www.w3.org/2000/svg" xmlns:xlink="http://www.w3.org/1999/xlink"><title>Play</title><g transform="translate(-255 940)" fill="transparent"><path d="M-130-2410h1280v5574H-130v-5574z"/><use xlink:href="#a" transform="translate(256 -939)" fill="#fff" style="mix-blend-mode:normal"/><use xlink:href="#b" transform="translate(285 -917)" fill="#fff" style="mix-blend-mode:normal"/></g><defs><path id="a" d="M37.5 76C58.763 76 76 58.763 76 37.5h-2C74 57.658 57.658 74 37.5 74v2zM76 37.5C76 16.237 58.763-1 37.5-1v2C57.658 1 74 17.342 74 37.5h2zM37.5-1C16.237-1-1 16.237-1 37.5h2C1 17.342 17.342 1 37.5 1v-2zM-1 37.5C-1 58.763 16.237 76 37.5 76v-2C17.342 74 1 57.658 1 37.5h-2z"/><path id="b" fill-rule="evenodd" d="M17.508 11.672c2.375 1.583 2.375 5.073 0 6.656l-11.29 7.526C3.562 27.626 0 25.721 0 22.526V7.474c0-3.195 3.56-5.1 6.219-3.328l11.289 7.526z"/></defs></svg>