<svg width="283" height="248" viewBox="0 0 283 248" xmlns="http://www.w3.org/2000/svg" xmlns:xlink="http://www.w3.org/1999/xlink"><title>78529E4A-301D-4CA4-BDF5-084501FCF19F</title><defs><path id="a" d="M91.651 166.401H0v-166h91.651v166z"/><path id="c" d="M.185 155.686h208.149V.949H.184z"/></defs><g fill="none" fill-rule="evenodd"><g transform="translate(-15 81.27)"><mask id="b" fill="#fff"><use xlink:href="#a"/></mask><path d="M85.427 76.19c-3.424-6.012-8.092-15.686-10.374-21.498-2.282-5.811-8.818-13.846-14.524-17.854-5.705-4.008-7.386-11.059-3.734-15.668 3.651-4.61 6.639-11.168 6.639-14.575 0-3.406-2.8-6.194-6.224-6.194-3.424 0-10.974 5.431-16.778 12.069l-14.58 16.672C20.049 35.78 15.3 43.342 15.3 45.947c0 2.606 2.083 11.336 4.63 19.4l13.978 44.277c2.547 8.065 2.459 21.24-.194 29.278l-4.461 13.519a13.197 13.197 0 0 0-.542 2.304l-5.247 11.683L0 218.65h56.235l11.539-51.63 2.408-10.774-.681-.064a16.155 16.155 0 0 0 1.79-3.832l5.034-16.292c2.496-8.077 6.965-16.981 9.932-19.787 2.967-2.806 5.394-10.512 5.394-17.125 0-6.614-2.801-16.944-6.224-22.955" fill="#F4C6A1" mask="url(#b)"/></g><path d="M281.64 181.482c0 8.368-6.814 15.216-15.143 15.216H48.021c-8.329 0-15.144-6.848-15.144-15.216V16.61c0-8.369 6.815-15.216 15.144-15.216h218.476c8.329 0 15.144 6.847 15.144 15.216v164.87" fill="#3A3A39"/><path d="M281.64 181.482c0 8.368-6.814 15.216-15.143 15.216H48.021c-8.329 0-15.144-6.848-15.144-15.216V16.61c0-8.369 6.815-15.216 15.144-15.216h218.476c8.329 0 15.144 6.847 15.144 15.216v164.87z" stroke="#3A3A39" stroke-width="1.287"/><g transform="translate(53 20)"><mask id="d" fill="#fff"><use xlink:href="#c"/></mask><use fill="#FFF" xlink:href="#c"/><g mask="url(#d)"><path fill="#6ABFEA" d="M-.449 137.128h208.857V1H-.449z"/><path fill="#E46D5B" d="M-.449 22.815h19.145V5.363H-.449z"/><path fill="#DBD6D4" d="M18.696 22.815h43.512V5.363H18.696z"/><path fill="#C3BEB5" d="M61.338 24.56h42.642V6.237H61.338z"/><path fill="#CFD7CB" d="M-.449 137.128h208.857V12.344H-.449z"/><path d="M190.133 18.824c0 .758-.613 1.374-1.37 1.374H20.067c-.756 0-1.37-.616-1.37-1.374v-2.489c0-.758.614-1.373 1.37-1.373h168.698c.756 0 1.37.615 1.37 1.373v2.49" fill="#FFF"/><path d="M8.809 17.608c0 1.138-.92 2.06-2.057 2.06a2.057 2.057 0 0 1-2.053-2.06c0-1.138.919-2.061 2.053-2.061a2.06 2.06 0 0 1 2.057 2.06m6.849.427c0 1.138-.921 2.06-2.056 2.06a2.057 2.057 0 0 1-2.055-2.06c0-1.138.92-2.061 2.055-2.061 1.135 0 2.056.923 2.056 2.06" fill="#C0B7B8"/><path fill="#FFF" d="M-.89 137.51h209.45V30.271H-.89z"/><path fill="#E46E5B" d="M-.449 34.585h208.857V22.37H-.449z"/><path fill="#FFF" d="M26.555 29.927H65.22v-2.703H26.555zm-15.762-.139h10.79v-2.692h-10.79zm56.149.139h14.792v-2.692H66.942zm16.259 0h14.792v-2.692H83.2z"/><path fill="#ECE9E6" d="M180.569 29.327h17.984v-2.703h-17.984z"/><path fill="#EBE9E6" d="M163.698 29.532h3.017v-3.029h-3.017zm5.432 0h3.017v-3.029h-3.018zm5.431 0h3.018v-3.029h-3.018z"/><path fill="#FFF" d="M11.502 100.797h40.83v-4.902h-40.83z"/><path fill="#8A9397" d="M91.598 51.192h24.296v-4.904H91.598z"/><path d="M48.71 96.116h17.705" fill="#00A196"/><path fill="#C4C4C4" d="M11.126 76.443h186.966V58.99H11.126z"/><path fill="#FFC107" d="M158.843 71.693h33.07V63.96h-33.07z"/><path fill="#00A196" d="M29.315 69.738h33.154V66.17H29.315z"/><path fill="#383838" d="M76.165 69.738h55.201V66.17h-55.2z"/><path fill="#00A196" d="M16.638 71.14h6.614v-6.627h-6.614z"/><path fill="#C4C4C4" d="M11.126 96.877h186.966V79.425H11.126z"/><path fill="#FFC107" d="M158.843 92.128h33.07v-7.733h-33.07z"/><path fill="#00A196" d="M29.315 90.172h33.154v-3.567H29.315z"/><path fill="#383838" d="M76.165 90.172h55.201v-3.567h-55.2z"/><path fill="#00A196" d="M16.638 91.575h6.614v-6.627h-6.614z"/><path fill="#C4C4C4" d="M11.126 117.312h186.966V99.86H11.126z"/><path fill="#FFC107" d="M158.843 112.562h33.07v-7.732h-33.07z"/><path fill="#00A196" d="M29.315 110.607h33.154v-3.568H29.315z"/><path fill="#383838" d="M76.165 110.607h55.201v-3.568h-55.2z"/><path fill="#00A196" d="M16.638 112.01h6.614v-6.628h-6.614z"/></g></g><path d="M18.415 158.184c-4.917-3.06-4.11-10.391 1.795-16.293l.727-.727c5.906-5.902 15.44-15.685 21.19-21.741l8.254-8.695c5.749-6.056 12.798-8.587 15.665-5.625 2.866 2.962 2.827 9.256-.088 13.986-2.915 4.731-8.94 11.396-13.39 14.812-4.45 3.416-9.254 9.344-10.675 13.174-1.422 3.83-5.273 9.147-8.56 11.817-3.287 2.67-10 2.35-14.918-.708" fill="#F4C6A1"/><path d="M60.829 106.38s4.317 3.7 3.206 6.157c0 0-2.557 3.584-5.113 3.195l-4.351-6.729s4.89-3.99 6.258-2.622M8.024 116.668s-10.937 8.31-2.104 27.26c.458 1.405-4.662-19.505 2.104-27.26" fill="#F9DFC4"/></g></svg>