<svg width="1300" height="122" viewBox="0 0 1300 122" xmlns="http://www.w3.org/2000/svg" xmlns:xlink="http://www.w3.org/1999/xlink"><title>A0A3099A-AA2A-40F0-83BC-A6B3D03D93B2</title><defs><path id="a" d="M0 0h1440v130H0z"/></defs><g transform="translate(-70 -8)" fill="none" fill-rule="evenodd"><mask id="b" fill="#fff"><use xlink:href="#a"/></mask><g mask="url(#b)"><path fill="#F5C23F" d="M681.01 220h-81.678V79.231h81.678z"/><path fill="#D75248" d="M599.332 220v-17.596h47.14-47.14v-17.596h47.14-47.14V167.21h47.14-47.14v-17.595h47.14-47.14V79.23 220"/><path fill="#EA9D38" d="M663.99 132.02h-64.658v-14.163h64.658zm0-17.596h-64.658V100.26h64.658zm0-17.597h-64.658V79.23h64.658z"/><path fill="#DC6C2C" d="M663.99 117.857h-64.658v-3.433h64.658zm0-17.597h-64.658v-3.433h64.658zm7.606 31.76h-7.606v-14.163h7.606zm0-17.596h-7.606V100.26h7.606z"/><path fill="#D14D2A" d="M671.596 117.857h-7.606v-3.433h7.606z"/><path fill="#DC6C2C" d="M681.01 96.827h-17.02V79.23h17.02z"/><path fill="#D14D2A" d="M663.99 100.26h7.606v-3.433h9.414-17.02v3.434"/><path fill="#F5C23F" d="M753.273 220h-81.677V96.827h81.677z"/><path d="M736.09 117.857h-64.494v-3.434h64.494v3.434zm17.183 0h-.164v-3.434h.164v3.434zm-.163 14.163h-17.02v-14.163h17.02zm0-17.597h-17.02V96.827h17.02z" fill="#E5842E"/><path fill="#D75C2B" d="M753.11 117.857h-17.02v-3.434h17.02z"/><path fill="#F5C23F" d="M916.628 220H834.95V114.423h81.678z"/><path fill="#E5842E" d="M916.628 132.02h-17.02v-17.597h17.02z"/><path fill="#F5C23F" d="M834.95 220h-81.677V61.634h81.677z"/><path fill="#E5842E" d="M817.93 82.664h-64.657v-3.433h64.657zm0 17.596h-64.657v-3.433h64.657zm0 17.597h-64.657v-3.434h64.657zm17.02-38.626h-17.02V61.634h17.02zm0 17.596h-17.02V82.664h17.02zm0 17.596h-17.02V100.26h17.02zm0 17.597h-17.02v-14.163h17.02z"/><path fill="#D75C2B" d="M834.95 82.664h-17.02v-3.433h17.02zm0 17.596h-17.02v-3.433h17.02zm0 17.597h-17.02v-3.434h17.02z"/><path fill="#F5C23F" d="M598.538 220h81.678V79.231h-81.678z"/><path fill="#D75248" d="M680.216 220v-17.596h-47.14 47.14v-17.596h-47.14 47.14V167.21h-47.14 47.14v-17.595h-47.14 47.14V79.23 220"/><path fill="#EA9D38" d="M615.558 132.02h64.658v-14.163h-64.658zm0-17.596h64.658V100.26h-64.658zm0-17.597h64.658V79.23h-64.658z"/><path fill="#DC6C2C" d="M615.558 117.857h64.658v-3.433h-64.658zm0-17.597h64.658v-3.433h-64.658zm-7.606 31.76h7.606v-14.163h-7.606zm0-17.596h7.606V100.26h-7.606z"/><path fill="#D14D2A" d="M607.952 117.857h7.606v-3.433h-7.606z"/><path fill="#DC6C2C" d="M598.538 96.827h17.02V79.23h-17.02z"/><path fill="#D14D2A" d="M615.558 100.26h-7.606v-3.433h-9.414 17.02v3.434"/><path fill="#F5C23F" d="M526.275 220h81.677V96.827h-81.677z"/><path d="M543.458 117.857h64.494v-3.434h-64.494v3.434zm-17.183 0h.164v-3.434h-.164v3.434zm.164 14.163h17.02v-14.163h-17.02zm0-17.597h17.02V96.827h-17.02z" fill="#E5842E"/><path fill="#D75C2B" d="M526.439 117.857h17.02v-3.434h-17.02z"/><path fill="#F5C23F" d="M362.92 220h81.678V114.423H362.92z"/><path fill="#E5842E" d="M362.92 132.02h17.02v-17.597h-17.02z"/><path fill="#F5C23F" d="M444.598 220h81.677V61.634h-81.677z"/><path fill="#E5842E" d="M461.618 82.664h64.657v-3.433h-64.657zm0 17.596h64.657v-3.433h-64.657zm0 17.597h64.657v-3.434h-64.657zm-17.02-38.626h17.02V61.634h-17.02zm0 17.596h17.02V82.664h-17.02zm0 17.596h17.02V100.26h-17.02zm0 17.597h17.02v-14.163h-17.02z"/><path fill="#D75C2B" d="M444.598 82.664h17.02v-3.433h-17.02zm0 17.596h17.02v-3.433h-17.02zm0 17.597h17.02v-3.434h-17.02z"/><path fill="#F5C23F" d="M1287.727 220h81.677V96.827h-81.677z"/><path d="M1304.91 117.857h64.494v-3.434h-64.494v3.434zm-17.183 0h.164v-3.434h-.164v3.434zm.163 14.163h17.02v-14.163h-17.02zm0-17.597h17.02V96.827h-17.02z" fill="#E5842E"/><path fill="#D75C2B" d="M1287.89 117.857h17.02v-3.434h-17.02z"/><path fill="#F5C23F" d="M1124.372 220h81.678V114.423h-81.678z"/><path fill="#E5842E" d="M1124.372 132.02h17.02v-17.597h-17.02z"/><path fill="#F5C23F" d="M1206.05 220h81.677V61.634h-81.677z"/><path fill="#E5842E" d="M1223.07 82.664h64.657v-3.433h-64.657zm0 17.596h64.657v-3.433h-64.657zm0 17.597h64.657v-3.434h-64.657zm-17.02-38.626h17.02V61.634h-17.02zm0 17.596h17.02V82.664h-17.02zm0 17.596h17.02V100.26h-17.02zm0 17.597h17.02v-14.163h-17.02z"/><path fill="#D75C2B" d="M1206.05 82.664h17.02v-3.433h-17.02zm0 17.596h17.02v-3.433h-17.02zm0 17.597h17.02v-3.434h-17.02z"/><path fill="#F5C23F" d="M306.03 220h81.677V79.231H306.03z"/><path fill="#D75248" d="M387.707 220v-17.596h-47.14 47.14v-17.596h-47.14 47.14V167.21h-47.14 47.14v-17.595h-47.14 47.14V79.23 220"/><path fill="#EA9D38" d="M323.05 132.02h64.657v-14.163H323.05zm0-17.596h64.657V100.26H323.05zm0-17.597h64.657V79.23H323.05z"/><path fill="#DC6C2C" d="M323.05 117.857h64.657v-3.433H323.05zm0-17.597h64.657v-3.433H323.05zm-7.606 31.76h7.606v-14.163h-7.606zm0-17.596h7.606V100.26h-7.606z"/><path fill="#D14D2A" d="M315.444 117.857h7.606v-3.433h-7.606z"/><path fill="#DC6C2C" d="M306.03 96.827h17.02V79.23h-17.02z"/><path fill="#D14D2A" d="M323.05 100.26h-7.606v-3.433h-9.414 17.02v3.434"/><path fill="#F5C23F" d="M233.766 220h81.678V96.827h-81.678z"/><path d="M250.95 117.857h64.494v-3.434H250.95v3.434zm-17.184 0h.164v-3.434h-.164v3.434zm.164 14.163h17.02v-14.163h-17.02zm0-17.597h17.02V96.827h-17.02z" fill="#E5842E"/><path fill="#D75C2B" d="M233.93 117.857h17.02v-3.434h-17.02z"/><path fill="#F5C23F" d="M70.412 220h81.677V114.423H70.412z"/><path fill="#E5842E" d="M70.412 132.02h17.02v-17.597h-17.02z"/><path fill="#F5C23F" d="M152.089 220h81.677V61.634H152.09z"/><path fill="#E5842E" d="M169.11 82.664h64.656v-3.433H169.11zm0 17.596h64.656v-3.433H169.11zm0 17.597h64.656v-3.434H169.11zm-17.021-38.626h17.02V61.634h-17.02zm0 17.596h17.02V82.664h-17.02zm0 17.596h17.02V100.26h-17.02zm0 17.597h17.02v-14.163h-17.02z"/><path fill="#D75C2B" d="M152.089 82.664h17.02v-3.433h-17.02zm0 17.596h17.02v-3.433h-17.02zm0 17.597h17.02v-3.434h-17.02z"/><path fill="#F5C23F" d="M1085.89 220h81.678V8.846h-81.678z"/><path fill="#E1782C" d="M1102.91 79.231h64.658V65.068h-64.658zm0-17.597h64.658V47.472h-64.658zm0-17.595h64.658V29.876h-64.658zm0-17.597h64.658V8.846h-64.658zm0 70.385h30.12V82.664h-30.12z"/><path fill="#D5562A" d="M1133.03 82.664h-30.12v-3.433h64.658-34.538v3.433m-30.12-17.596h64.658v-3.434h-64.658zm0-17.596h64.658v-3.433h-64.658zm0-17.596h64.658v-3.434h-64.658zm-17.02 66.951h17.02V82.664h-17.02zm0-17.596h17.02V65.068h-17.02zm0-17.597h17.02V47.472h-17.02zm0-17.595h17.02V29.876h-17.02zm0-17.597h17.02V8.846h-17.02z"/><path fill="#CA402B" d="M1085.89 82.664h17.02v-3.433h-17.02zm0-17.596h17.02v-3.434h-17.02zm0-17.596h17.02v-3.433h-17.02zm0-17.596h17.02v-3.434h-17.02z"/><path fill="#F5C23F" d="M1133.03 220h81.677V79.231h-81.677z"/><path fill="#D75248" d="M1214.707 220v-17.596h-47.14 47.14v-17.596h-47.14 47.14V167.21h-47.14 47.14v-17.595h-47.14 47.14V79.23 220"/><path fill="#EA9D38" d="M1150.05 132.02h64.657v-14.163h-64.657zm0-17.596h64.657V100.26h-64.657zm0-17.597h64.657V79.23h-64.657z"/><path fill="#DC6C2C" d="M1150.05 117.857h64.657v-3.433h-64.657zm0-17.597h64.657v-3.433h-64.657zm-7.606 31.76h7.606v-14.163h-7.606zm0-17.596h7.606V100.26h-7.606z"/><path fill="#D14D2A" d="M1142.444 117.857h7.606v-3.433h-7.606z"/><path fill="#DC6C2C" d="M1133.03 96.827h17.02V79.23h-17.02z"/><path fill="#D14D2A" d="M1150.05 100.26h-7.606v-3.433h-9.414 17.02v3.434"/><path fill="#F5C23F" d="M1060.766 220h81.678V96.827h-81.678z"/><path d="M1077.95 117.857h64.494v-3.434h-64.494v3.434zm-17.184 0h.164v-3.434h-.164v3.434zm.164 14.163h17.02v-14.163h-17.02zm0-17.597h17.02V96.827h-17.02z" fill="#E5842E"/><path fill="#D75C2B" d="M1060.93 117.857h17.02v-3.434h-17.02z"/><path fill="#F5C23F" d="M897.412 220h81.677V114.423h-81.677z"/><path fill="#E5842E" d="M897.412 132.02h17.02v-17.597h-17.02z"/><path fill="#F5C23F" d="M979.089 220h81.677V61.634H979.09z"/><path fill="#E5842E" d="M996.11 82.664h64.656v-3.433H996.11zm0 17.596h64.656v-3.433H996.11zm0 17.597h64.656v-3.434H996.11zm-17.021-38.626h17.02V61.634h-17.02zm0 17.596h17.02V82.664h-17.02zm0 17.596h17.02V100.26h-17.02zm0 17.597h17.02v-14.163h-17.02z"/><path fill="#D75C2B" d="M979.089 82.664h17.02v-3.433h-17.02zm0 17.596h17.02v-3.433h-17.02zm0 17.597h17.02v-3.434h-17.02z"/></g></g></svg>