<svg width="202" height="409" viewBox="0 0 202 409" xmlns="http://www.w3.org/2000/svg" xmlns:xlink="http://www.w3.org/1999/xlink"><title>4DA31714-F5FA-4B21-89BC-17AE29AD67D2</title><defs><path id="a" d="M0 408.031h201.88V.294H0z"/></defs><g fill="none" fill-rule="evenodd"><g transform="translate(0 .088)"><path d="M180.288 288.93H21.592c-2.524 0-4.59-2.063-4.59-4.584v-54.755c0-2.52 2.066-4.583 4.59-4.583h158.696c2.524 0 4.59 2.063 4.59 4.583v54.755c0 2.52-2.066 4.583-4.59 4.583z" fill="#4C4A46"/><mask id="b" fill="#fff"><use xlink:href="#a"/></mask><path fill="#302F2C" mask="url(#b)" d="M17.003 257.772h167.875v-9.853H17.003zm154.743-32.764H30.134c-7.222 0-13.131 5.653-13.131 12.563v2.464h167.875v-2.464c0-6.91-5.91-12.563-13.132-12.563"/><path d="M170.459 186.807c-.1-4.392-3.319-9.638-5.1-13.543-3.09-6.78-6.1-13.897-6.1-21.413H42.622c0 7.516-3.01 14.634-6.1 21.413-1.781 3.905-5 9.15-5.1 13.543 0 0-.773 33.78 0 37.314.772 3.535 3.475 9.82 3.475 9.82v54.988h132.086v-54.988s2.703-6.285 3.476-9.82c.772-3.535 0-37.313 0-37.314" fill="#3F3D39" mask="url(#b)"/><path d="M171.212 312.7H30.669c-.743 0-1.35-.607-1.35-1.349v-21.074c0-.741.607-1.348 1.35-1.348h140.543c.742 0 1.35.607 1.35 1.348v21.074c0 .742-.608 1.349-1.35 1.349" fill="#5B5955" mask="url(#b)"/><path d="M197.863 177.29H4.018A4.027 4.027 0 0 1 0 173.28v-38.25a4.027 4.027 0 0 1 4.018-4.012h193.845a4.027 4.027 0 0 1 4.017 4.012v38.249a4.027 4.027 0 0 1-4.017 4.012" fill="#33A8E4" mask="url(#b)"/><path fill="#302F2C" mask="url(#b)" d="M63.615 313.535h74.65v-32.544h-74.65z"/><path fill="#302F2C" mask="url(#b)" d="M63.615 391.147h26.988v-89.105H63.615zm47.663 0h26.988v-89.105h-26.988z"/><path d="M61.85 379.358c.213 0-3.4 4.419-3.982 4.87-2.453 1.903-5.282 3.112-7.94 4.588-4.356 2.417-11.17 7.552-10.535 14.041.486 4.955 4.349 4.387 7.893 4.688 7.033.6 13.732.723 20.75-.08l7.491-2.556c3.561.598 7.137 1.153 10.734 1.405 8.095.566 5.988-12.069 5.875-18.195l.02-8.761H61.85zm78.18 0c-.212 0 3.4 4.419 3.982 4.87 2.454 1.903 5.282 3.112 7.942 4.588 4.355 2.417 11.168 7.552 10.534 14.041-.486 4.955-4.35 4.387-7.893 4.688-7.034.6-13.733.723-20.75-.08l-7.492-2.556c-3.56.598-7.136 1.153-10.733 1.405-8.096.566-5.989-12.069-5.876-18.195l-.02-8.761h30.306z" fill="#725D4C" mask="url(#b)"/><path d="M147.461 188.911c-1.463-.76-10.535-4.29-13.62-5.486H68.04c-3.085 1.195-12.157 4.725-13.62 5.486-1.77.919-2.145 2.473-2.145 2.473l.233 3.686 7.49 93.337h81.884l7.49-93.337.233-3.686s-.375-1.554-2.144-2.473" fill="#8A8D99" mask="url(#b)"/><path d="M48.305 257.329a9.456 9.456 0 0 1-1.832-.18c-5.092-1.005-8.403-5.942-7.396-11.027l9.966-50.335c1.006-5.084 5.962-8.394 11.041-7.386 5.093 1.006 8.403 5.942 7.397 11.027l-9.966 50.335c-.885 4.47-4.814 7.566-9.21 7.566m105.27 0c.604 0 1.218-.059 1.832-.18 5.093-1.005 8.403-5.942 7.397-11.027l-9.967-50.335c-1.006-5.084-5.961-8.394-11.04-7.386-5.093 1.006-8.404 5.942-7.398 11.027l9.967 50.335c.884 4.47 4.814 7.566 9.209 7.566" fill="#8A8D99" mask="url(#b)"/><path d="M50.664 282.201l-9.632-3.509c28.273-77.388 11.529-90.816 11.355-90.943.172.126.277.168.277.168l4.92-8.983c4.288 2.342 24.11 18.327-6.92 103.267m100.553 0l9.63-3.509c-28.272-77.388-11.528-90.816-11.354-90.943a1.4 1.4 0 0 1-.277.168l-4.919-8.983c-4.288 2.342-24.112 18.327 6.92 103.267" fill="#3F3D39" mask="url(#b)"/><path d="M49.325 258.285a9.372 9.372 0 0 1-6.383-1.71c-4.22-3.017-5.191-8.88-2.168-13.094l12.336-17.205c3.021-4.216 8.892-5.183 13.112-2.167a9.375 9.375 0 0 1 2.169 13.093l-12.337 17.206a9.376 9.376 0 0 1-6.729 3.877" fill="#8A8D99" mask="url(#b)"/><path d="M73.956 225.715c0 6.174-5.012 11.179-11.194 11.179-6.183 0-11.195-5.005-11.195-11.179 0-6.173 5.012-11.178 11.195-11.178 6.182 0 11.194 5.005 11.194 11.178" fill="#F4D09A" mask="url(#b)"/><path d="M152.556 258.285a9.371 9.371 0 0 0 6.382-1.71c4.22-3.017 5.191-8.88 2.17-13.094l-12.338-17.205c-3.02-4.216-8.89-5.183-13.111-2.167-4.22 3.017-5.192 8.879-2.17 13.093l12.337 17.206a9.378 9.378 0 0 0 6.73 3.877" fill="#8A8D99" mask="url(#b)"/><path d="M127.925 225.715c0 6.174 5.012 11.179 11.194 11.179 6.182 0 11.194-5.005 11.194-11.179 0-6.173-5.012-11.178-11.194-11.178-6.182 0-11.194 5.005-11.194 11.178m-10.75-39.385c0 8.953-7.268 16.212-16.235 16.212-8.966 0-16.235-7.259-16.235-16.213s7.269-16.212 16.235-16.212c8.967 0 16.235 7.258 16.235 16.212" fill="#F4D09A" mask="url(#b)"/><path fill="#302F2C" mask="url(#b)" d="M14.825 177.29h6.133v-46.272h-6.133zm165.586 0h6.133v-46.272h-6.133z"/></g><path d="M70.676 177.885s-6.366-6.424-12.487-20.35c-1.372-3.12-3.326-6.104-4.977-9.99-.304-.714-2.336-5.428-2.457-6.169-2.659-16.188-3.18-41.685 4.828-58.308 8.006-16.622 8.63-28.72 46.807-28.72 38.178 0 40.062 18.931 40.062 18.931s1.413 9.696 2.826 14.776c1.412 5.079 9.105 26.78 5.808 46.634-1.304 7.854-6.132 13.932-9.005 21.035-4.39 10.852-9.052 20.92-20.703 25.206-22.76 8.374-30.411 4.886-33.087 4.466-11.161-1.756-17.615-7.51-17.615-7.51" fill="#F4D09A"/><path d="M149.595 146.714s2.512 2.718 5.652-1.672 4.396-16.306 4.396-16.306-.02-3.295.432-7.857c.235-2.372.615-8.657.405-10.33-.209-1.672 0-4.18-2.093-3.135s-7.061 16.723-7.061 16.723-2.778 20.905-1.731 22.577m-99.705-.817s-4.02 1.548-6.06-3.625c-2.042-5.174-3.455-7.683-3.926-11.759-.47-4.076-.942-7.212 0-10.974.942-3.763-1.329-8.31-.544-10.035.785-1.724 1.268-1.577 3.37.628 3.14 3.292 2.826 7.995 3.768 10.504.942 2.508 2.525 4.027 2.54 5.543.014 1.516 3.27 19.847.852 19.718" fill="#F4D09A"/><path d="M100.197 163.073c-15.113-.014-21.828-11.08-21.828-11.08s14.128.028 21.828 0c7.704.028 23.388 0 23.388 0s-8.271 11.066-23.388 11.08m51.201-38.772c-1.07 5.817-7.657 18.67-11.86 21.561-3.464 2.383-5.39 2.573-7.797.525-3.917-3.331-6.205-5.442-9.412-5.84-13.94-1.73-11.145 1.171-22.132 3.763-5.089-1.908-11.54-4.39-17.903-3.92-2.279.169-3.693-.314-6.28 1.882-9.42 7.996-8.635 8.936-15.7 0-2.925-3.7-10.265-12.255-11.316-17.971-.36-1.951.836 20.423 10.673 40.012 6.993 13.924 16.789 22.49 40.525 22.957 22.755-.448 32.153-10.415 39.338-22.957 10.853-18.946 12.232-42.02 11.864-40.012" fill="#392F33"/><path d="M39.8 107.518s.774.185-.608-7.107l-1.486-7.839s-2.198-26.026 0-33.551c2.198-7.526 1.664-9.93-2.069-11.184-3.733-1.255 4.267-4.808 5.837-4.181 1.57.627-5.338-5.644-2.282-10.661 1.416-2.325 1.968-1.882 1.968-1.882s2.003 2.613 3.828 1.046c1.824-1.568 7.895-14.633 18.78-16.724 8.878-1.705 6.594-9.72 11.304-8.466 4.71 1.254 11.932 2.134 15.7 1.067 3.768-1.067 2.51 1.128 5.024 2.069 2.512.94 7.222-4.181 8.164-8.257.942-4.077 7.118 1.254 7.432 5.016.314 3.763 2.616 3.554 5.756 3.868 3.14.313 5.652-7.212 6.908-9.093 1.256-1.882 3.56 3.553 2.512 7.525-.975 3.702 4.082-1.568 4.082-1.568-.732 1.575 6.274 11.3 11.41 14.947 6.188 4.396 9.266 7.107 12.89 13.797 2.998 5.533 1.03 7.525 1.03 7.525s3.305 4.808 3.305 6.062c0 2.403 1.945 7.108 1.256 10.243-.689 3.136 1.405 8.57 1.405 8.57s-1.212 5.357-.62 10.808c1.404 12.96.934 25.776-1.727 26.82-2.934 1.154-6.882 10.916-7.84 16.436-.96 5.52.582-12.2-4.768-27.957-5.35-15.758-4.285-21.494-5.087-23.352-.803-1.858-7.204-14.413-27.598-16.423-20.394-2.01-35.927 1.26-40.033 3.629-4.106 2.368-12.675 7.856-19.283 28.232-6.608 20.376-5.952 39.246-5.952 39.246s-3.223-6.114-3.223-8.567c0-1.99-.827-7.48-6.015-10.094" fill="#241D27"/><path d="M69.932 107.864c-.01-3.344 3.192-6.061 7.15-6.069 3.957-.008 7.174 2.696 7.183 6.04.01 3.344-3.192 6.061-7.15 6.069-3.958.008-7.174-2.697-7.183-6.04" fill="#337208"/><path d="M72.463 109.298c-.005-1.747 2.068-3.167 4.628-3.172 2.562-.005 4.641 1.407 4.646 3.154.005 1.747-2.067 3.167-4.628 3.171-2.561.006-4.641-1.406-4.646-3.153" fill="#418C11"/><path d="M74.232 107.855c-.004-1.337 1.276-2.424 2.86-2.427 1.583-.003 2.87 1.078 2.873 2.416.004 1.337-1.277 2.424-2.86 2.427-1.583.003-2.87-1.079-2.873-2.416" fill="#000"/><path d="M73.944 107.371c-.002-.668.638-1.212 1.43-1.213.791-.002 1.434.539 1.436 1.208.002.668-.638 1.212-1.43 1.213-.791.002-1.435-.539-1.436-1.208" fill="#FFF"/><path d="M86.492 134.566c-.084 1.614 6.455 3.726 13.303 4.078 6.849.353 12.67-1.585 12.753-3.199.045-.884-1.145-1.755-4.534-1.93-2.217-.114-5.404 3.27-8.5 3.11-3.295-.17-6.652-4.54-8.898-4.16-2.424.41-4.081 1.263-4.124 2.1" fill="#BC8C6C"/><path d="M117.078 107.864c-.01-3.344 3.192-6.061 7.15-6.069 3.958-.008 7.174 2.696 7.183 6.04.01 3.344-3.192 6.061-7.15 6.069-3.958.008-7.174-2.697-7.183-6.04" fill="#337208"/><path d="M119.61 109.298c-.006-1.747 2.067-3.167 4.627-3.172 2.562-.005 4.641 1.407 4.646 3.154.005 1.747-2.067 3.167-4.628 3.171-2.561.006-4.64-1.406-4.646-3.153" fill="#418C11"/><path d="M121.378 107.855c-.004-1.337 1.276-2.424 2.86-2.427 1.583-.003 2.87 1.078 2.873 2.416.004 1.337-1.277 2.424-2.86 2.427-1.583.003-2.87-1.079-2.873-2.416" fill="#000"/><path d="M121.09 107.371c-.002-.668.638-1.212 1.43-1.213.791-.002 1.434.539 1.436 1.208.002.668-.638 1.212-1.43 1.213-.791.002-1.434-.539-1.436-1.208" fill="#FFF"/><path d="M118.634 154.558s.179-.863-1.24-.787c-3.031.162-6.546.959-10.023 1.034-1.127.024-3.302-.56-4.446-.373-.854.139-1.563.27-2.488.32-.994.055-1.695-.216-2.674-.243-4.235-.12-9.728 1.09-14.072-.884-1.261-.111-1.586-.765-1.524.638.016.353 4.883 2.364 6.266 2.581.962.15 4.474.772 5.596.76 2.12-.022 9.2-.125 11.323-.21 2.335-.094 3.988-.597 5.639-.996.796-.193 3.759-1.031 5.383-1.257" fill="#D27A6C"/><path d="M93.768 95.438c3.187-6.018-22.987-6.829-33.33 2.751-7.505 6.952 8.503-1.86 15.595-1.371 7.093.488 15.046 3.697 17.735-1.38m12.382.471c-3.19-5.986 22.644-7.05 32.925 2.428 7.46 6.877-8.408-1.777-15.407-1.22-6.998.557-14.826 3.842-17.518-1.208" fill="#392F33"/></g></svg>