<svg width="298" height="394" viewBox="0 0 298 394" xmlns="http://www.w3.org/2000/svg" xmlns:xlink="http://www.w3.org/1999/xlink"><title>C9E081A9-B839-4101-BDBB-4BCCE4E64686</title><defs><path id="a" d="M0 392.647h297.582V.03H0z"/></defs><g fill="none" fill-rule="evenodd"><path fill="#515151" d="M116.706 297.083h80.801v-37.759h-80.8z"/><g transform="translate(0 .41)"><path d="M203.582 174.203c-1.544-.715-11.114-4.035-14.368-5.16H119.8c-3.254 1.125-12.824 4.445-14.369 5.16-1.866.864-2.261 2.326-2.261 2.326l.245 3.467 7.902 87.782h86.38l7.902-87.782.245-3.467s-.396-1.462-2.262-2.326z" fill="#2B2F30"/><path d="M182.35 164.712a9.485 9.485 0 0 0-.646-.485c-2.87-1.935-11.888-4.845-15.147-5.18-3.259-.337-8.438-.784-8.438-.784h-7.225s-5.178.447-8.437.783c-3.26.336-12.277 3.246-15.147 5.18-.21.142-.428.308-.647.486l27.844 69.282 27.844-69.282z" fill="#2B2F30"/><path fill="#1F2223" d="M150.584 179.155v26.206h7.494v-26.085z"/><path d="M173.077 169.596c0 5.346-8.36 9.68-18.672 9.68-10.312 0-18.672-4.334-18.672-9.68s8.36-9.679 18.672-9.679c10.313 0 18.672 4.333 18.672 9.68" fill="#FAD3A8"/><path d="M127.392 164.19a9.61 9.61 0 0 0-.669.498c-.866 4.049.89 7.5.89 7.5l12.836 18.418 14.058-11.427-18.32-18.584c-3.456 1.072-7.143 2.492-8.795 3.595m54.229 0c.217.144.442.315.67.498.865 4.049-.89 7.5-.89 7.5l-12.837 18.418-14.057-11.427 18.32-18.584c3.455 1.072 7.142 2.492 8.794 3.595" fill="#1F2223"/><path d="M156.315 182.875c0 .923-.838 1.672-1.872 1.672-1.034 0-1.872-.749-1.872-1.672 0-.923.838-1.67 1.872-1.67 1.034 0 1.872.747 1.872 1.67m0 14.365c0 .923-.838 1.671-1.872 1.671-1.034 0-1.872-.748-1.872-1.67 0-.924.838-1.672 1.872-1.672 1.034 0 1.872.748 1.872 1.671" fill="#F6F6F6"/><path d="M216.064 317.65h-81.637c-.6 0-1.09-.49-1.09-1.09v-19.023c0-.6.49-1.091 1.09-1.091h81.637c.6 0 1.09.49 1.09 1.09v19.024c0 .6-.49 1.09-1.09 1.09" fill="#4F5C84"/><mask id="b" fill="#fff"><use xlink:href="#a"/></mask><path fill="#4F5C84" mask="url(#b)" d="M168.776 385.567h12.939v-71.85h-12.939z"/><path d="M197.087 392.647h-43.683a1.192 1.192 0 0 1-1.189-1.19v-8.896c0-.655.535-1.19 1.189-1.19h43.683c.654 0 1.188.535 1.188 1.19v8.896c0 .655-.534 1.19-1.188 1.19" fill="#4F5C84" mask="url(#b)"/><path d="M90.206 338.403a12.71 12.71 0 0 1-8.143-2.94c-5.436-4.504-6.192-12.566-1.69-18.004l47.898-57.884a12.766 12.766 0 0 1 16.17-2.952l48.188 27.496c6.13 3.498 8.266 11.308 4.77 17.443-3.496 6.136-11.302 8.27-17.428 4.775l-38.864-22.177-41.054 49.61a12.746 12.746 0 0 1-9.847 4.633" fill="#444" mask="url(#b)"/><path d="M78.832 318.061c.154.12-4.38.575-4.997.503-2.604-.308-5.178-1.215-7.745-1.876-4.205-1.084-11.37-2.02-13.722 1.98-1.796 3.053 1.25 4.9 3.69 7.055 4.838 4.28 9.64 8.104 15.076 11.585l6.538 2.765c2.322 2.332 4.674 4.647 7.172 6.805 5.623 4.855 9.572-3.42 12.146-6.923l3.811-4.907-21.969-16.987" fill="#1F2223" mask="url(#b)"/><path d="M133.141 381.371c8.142 0 14.742-6.823 14.742-15.24v-70.29c0-8.417-6.6-15.24-14.742-15.24-8.142 0-14.743 6.823-14.743 15.24v70.29c0 8.417 6.6 15.24 14.743 15.24" fill="#515151" mask="url(#b)"/><path d="M115.883 368.36c.231 0-3.715 3.307-4.35 3.646-2.682 1.423-5.772 2.328-8.677 3.432-4.757 1.808-12.202 5.651-11.508 10.508.53 3.708 4.751 3.283 8.623 3.509 7.684.449 15.003.54 22.67-.061l8.184-1.913c3.891.448 7.797.863 11.727 1.051 8.844.424 6.543-9.03 6.42-13.616l.022-6.555h-33.111" fill="#1F2223" mask="url(#b)"/><path fill="#E0AB4F" mask="url(#b)" d="M20.512 392.647l2.563-152.027h-12.53l2.562 152.027zm263.964 0l2.562-152.027h-12.53l2.562 152.027z"/><path d="M297.232 246.962H.35a.352.352 0 0 1-.35-.35v-14.835c0-.194.158-.351.35-.351h296.882a.35.35 0 0 1 .35.35v14.835a.351.351 0 0 1-.35.351" fill="#E0AB4F" mask="url(#b)"/><path d="M61.521 228.412a8.627 8.627 0 0 1-6.764-3.256 8.658 8.658 0 0 1 1.365-12.161l48.485-38.732a8.64 8.64 0 0 1 12.151 1.366 8.658 8.658 0 0 1-1.364 12.161l-48.485 38.732a8.602 8.602 0 0 1-5.388 1.89" fill="#2B2F30" mask="url(#b)"/><path d="M89.81 201.648c0 4.816-3.5 8.72-7.816 8.72s-7.815-3.904-7.815-8.72c0-4.816 3.5-8.72 7.815-8.72 4.316 0 7.816 3.904 7.816 8.72m90.67 23.884c0 5.034-4.076 9.114-9.106 9.114s-9.106-4.08-9.106-9.114c0-5.033 4.077-9.113 9.106-9.113 5.03 0 9.106 4.08 9.106 9.113" fill="#FAD3A8" mask="url(#b)"/><path d="M221.35 234.187a8.643 8.643 0 0 1-7.719-4.744l-22.654-44.755a8.655 8.655 0 0 1 3.805-11.63 8.642 8.642 0 0 1 11.621 3.81l22.654 44.754a8.656 8.656 0 0 1-7.707 12.565" fill="#2B2F30" mask="url(#b)"/><path d="M220.464 234.186h-45.307c-4.774 0-8.646-3.875-8.646-8.654 0-4.778 3.872-8.653 8.646-8.653h45.307c4.775 0 8.647 3.875 8.647 8.653 0 4.779-3.872 8.654-8.647 8.654" fill="#FAD3A8" mask="url(#b)"/><path d="M220.464 216.879h-38.617v17.307h38.617c4.775 0 8.647-3.875 8.647-8.654 0-4.778-3.872-8.653-8.647-8.653" fill="#2B2F30" mask="url(#b)"/><path d="M187.461 151.84s6.298.952 8.632-5.632c2.252-6.353 2.294-6.406 5.941-22.723l-10.223-4.84-4.35 33.195zm-64.627 2.731s-5.686-.045-8.882-6.256c-3.196-6.21-8.957-21.714-8.957-21.714l9.46-6.165 8.379 34.135z" fill="#D19452" mask="url(#b)"/><path d="M108.772 124.128s11.177 46.57 41.822 46.57c30.645 0 39.298-14.794 45.788-42.577 6.49-27.783 5.408-51.236 1.802-62.06-3.605-10.825-20.55-28.505-39.658-28.505s-43.265 1.804-49.754 28.143c-6.49 26.34 0 58.429 0 58.429" fill="#F9E1C5" mask="url(#b)"/><path d="M108.772 124.128s-.36 3.031-2.884 2.069c-2.524-.962-6.37-3.127-9.013-13.47-2.645-10.344-3.846-15.155 0-15.396 3.845-.24 8.867 3.596 9.823 11.767m90.835 15.03s.36 3.031 2.884 2.069c2.524-.962 6.37-3.127 9.014-13.47 2.644-10.344 3.845-15.155 0-15.396-3.846-.24-8.868 3.596-9.824 11.767" fill="#F9E1C5" mask="url(#b)"/><path d="M154.2 55.115s-6.088-5.731-9.735-5.171c-9.284 1.425-13.94 9.983-13.94 9.983s-7.496-6.306-10.563-4.568c-2.436 1.38-3.368 7.022-4.1 8.175-4.834 7.633-4.645 7.565-4.645 7.565l-2.806 30.62-.655 7.423s-6.495 4.24-8.8 3.65c-2.195-.562-6.582-4.339-8.363-8.938C87.74 96.489 86.78 79.17 86.78 79.17S88.582.03 149.633.03c61.05 0 68.862 65.429 68.862 65.429s.774 33.569-3.365 37.165c-1.36 1.18-3.846 1.202-14.421 10.343-3.562 3.078-.142-23.214-2.984-27.625-4.796-7.443-8.314-14.11-8.314-14.11s1.967-12.611-7.69-18.642c-2.096-1.308-7.318 6.477-10.336 4.928-2.98-1.53-1.602-5.65-6.009-7.214" fill="#D19452" mask="url(#b)"/><path d="M140.915 124.447c-.082 1.584 6.322 3.657 13.03 4.003 6.709.347 12.41-1.556 12.492-3.14.045-.868-1.121-1.363-4.44-1.534-2.173-.112-5.295 2.127-8.328 1.97-3.226-.166-6.515-2.652-8.715-2.28-2.374.403-3.997.158-4.04.98" fill="#BC8C6C" mask="url(#b)"/><path d="M173.448 138.236c.393-.176.188-.294-1.35-.156-3.288.297-7.075-.004-10.914-.341-2.701-.237-3.625.455-5.54.756-.982.154-.268-.013-2.026.045-1.08.035-1.817-.325-2.883-.481-4.618-.676-10.414.83-14.713-.433-1.38-.44-2.6-.775-2.222-.466.378.309 5.505 5.237 6.946 6.156 1.916 1.222 3.98 1.637 5.17 1.916 4.317 1.014 9.545 1.014 13.278.64 2.525-.252 4.212-1.022 6.066-2.018 1.178-.633 3.09-1.328 5.77-3.943" fill="#DD8E7F" mask="url(#b)"/><path d="M144.512 154.08c3.414-6.019 14.706-5.927 18.328 0-5.284-2.79-13.047-2.803-18.328 0" fill="#E0BA9B" mask="url(#b)"/><path d="M126.81 91.647a6.502 6.502 0 0 0 6.5 6.505 6.502 6.502 0 0 0 6.499-6.505c0-3.59-2.91-6.503-6.5-6.503s-6.5 2.912-6.5 6.503" fill="#098BC4" mask="url(#b)"/><path d="M133.31 94.537a2.892 2.892 0 0 0 2.888-2.89 2.892 2.892 0 0 0-2.889-2.89 2.892 2.892 0 0 0-2.887 2.89 2.893 2.893 0 0 0 2.887 2.89" fill="#060209" mask="url(#b)"/><path d="M134.898 91.781a.964.964 0 1 0 1.928 0 .964.964 0 0 0-1.928 0" fill="#FFF" mask="url(#b)"/><path d="M167.861 91.647a6.502 6.502 0 0 0 6.5 6.505c3.59 0 6.5-2.913 6.5-6.505 0-3.59-2.91-6.503-6.5-6.503s-6.5 2.912-6.5 6.503" fill="#098BC4" mask="url(#b)"/><path d="M174.36 94.537a2.892 2.892 0 0 0 2.89-2.89 2.892 2.892 0 0 0-2.89-2.89 2.892 2.892 0 0 0-2.887 2.89 2.893 2.893 0 0 0 2.888 2.89" fill="#060209" mask="url(#b)"/><path d="M175.95 91.781a.964.964 0 1 0 1.927 0 .964.964 0 0 0-1.927 0" fill="#FFF" mask="url(#b)"/><path d="M116.693 84.11c.227-1.014 2.344-2.74 3.255-3.781-.29.331 3.726-2.769 5.77-3.47 2.953-1.012 4.377-.7 5.948-.838 1.57-.139 5.119.41 6.67.703 1.288.244 4.11.863 5.047 1.759.715.682 1.276 2.542.933 3.34-.163.38-.878.635-1.293.704-1.046.173-4.146-.528-4.146-.528l-5.589-.703s-4.452-.612-5.949-.48c-1.23.11-3.562.746-4.686 1.183-.744.29-2.885 1.359-2.885 1.359l-1.622.751s-1.54.388-1.453 0m73.871.001c-.227-1.014-2.344-2.74-3.256-3.781.29.331-3.725-2.769-5.768-3.47-2.954-1.012-4.378-.7-5.95-.838-1.57-.139-5.118.41-6.669.703-1.288.244-4.11.863-5.047 1.759-.715.682-1.276 2.542-.933 3.34.163.38.877.635 1.293.704 1.046.173 4.146-.528 4.146-.528l5.589-.703s4.452-.612 5.948-.48c1.231.11 3.563.746 4.687 1.183.744.29 2.885 1.359 2.885 1.359l1.622.751s1.54.388 1.453 0" fill="#AA7948" mask="url(#b)"/><path fill="#FFF" mask="url(#b)" d="M122.214 215.284l-9.015 4.933-.593-1.087 9.015-4.932zm-3.301-5.014l-8.15 4.459-.593-1.087 8.15-4.459zm-5.303-5.985l-5.018 2.745-.47-.861 5.017-2.745zm-2.905 8.45l3.281-1.796 3.282-1.795s-1.605-1.265-2.278-1.876c-.674-.611-1.492-2.306-1.492-2.306l-2.138 1.17-2.138 1.169s.984 1.605 1.134 2.502c.151.897.349 2.932.349 2.932m9.474.305c-.825-.124-1.3.058-1.64-.566a2.955 2.955 0 0 1-.361-1.187l-3.081 1.685-3.08 1.686s.462.321.803.945c.34.624-.069.926-.41 1.687-.341.762.218 1.213.218 1.213l4.227-2.312 4.226-2.312s-.077-.716-.902-.84m-11.515-7.781l3.416-1.87a3.095 3.095 0 0 0-4.347-3.897 3.1 3.1 0 0 0 .93 5.767"/><path d="M77.34 206.77c6.205-3.312 8.288 3.767 14.933 5.079 6.645 1.311 11.884-.617 14.386-4.195 2.503-3.578-.635-6.452-5.61-3.308-4.975 3.144-9.306.185-9.588-2.672-.364-3.68 4.121-7.913 9.065-7.045 4.944.869 10.272 7.865 12.803 3.834 2.242-3.57-11.222-13.568-18.392-9.483 0 0 10.434-8.229 6.988-11.13-2.898-2.439-7.167 2.414-7.167 2.414s1.79-3.715-1.29-4.846c-3.68-1.352-5.118 5.022-5.118 5.022s.823-4.462-2.729-4.251c-3.55.21-2.768 6.89-5.244 13.18-2.477 6.29-2.361 9.292-5.67 9.794l2.632 7.608z" fill="#FAD3A8" mask="url(#b)"/><path fill="#432918" mask="url(#b)" d="M160.594 231.25l-100.16.44v-6.26h100.16z"/><path fill="#C9B99E" mask="url(#b)" d="M60.434 225.43h100.16v-1.812H60.434z"/><path fill="#000" mask="url(#b)" d="M74.743 223.618h14.309v-1.811H74.743z"/><path fill="#FFF" mask="url(#b)" d="M89.052 223.618h14.308v-1.811H89.052zm-28.617 0h14.308v-1.811H60.435z"/><path fill="#000" mask="url(#b)" d="M103.36 223.618h14.309v-1.811H103.36z"/><path fill="#FFF" mask="url(#b)" d="M117.669 223.618h14.308v-1.811H117.67z"/><path fill="#000" mask="url(#b)" d="M131.977 223.618h14.309v-1.811h-14.309z"/><path fill="#FFF" mask="url(#b)" d="M146.286 223.618h14.308v-1.811h-14.308zM62.23 221.24h10.863v-1.309H62.229zm.52-6.18h9.822v-1.31H62.75zm.23 3.138c.702-.533 1.235-.606 1.235-1.358 0-.75-.266-1.284-.266-1.284h7.424s-.266.533-.266 1.284c0 .752.532.825 1.235 1.358.703.534.412 1.237.412 1.237H62.568s-.29-.703.412-1.237m9.015-4.945h-8.72s-.192-2.036-.871-3.079c0 0-1.792-3.442 0-7.03 1.791-3.587 5.328-3.223 5.328-3.223l1.526-1.164-.122 1.624s1.115 1.14 1.89 2.254c.775 1.115 1.817 1.915 1.817 2.304 0 .387-.824 1.503-1.405 1.211-.581-.29-.533-.848-.945-.896-.412-.05-1.308.339-1.744-.073-.436-.412-.848-1.382-.848-1.382s-.605 1.164.097 2.52c.703 1.359 3.343 2.45 3.682 4.037.34 1.588.315 2.897.315 2.897"/><path d="M134.923 212.056h8.418s-.903-2.116-1.238-3.083c-.335-.968-.23-6.29-.23-6.29h-5.484s.106 5.322-.229 6.29c-.335.967-1.237 3.083-1.237 3.083m-2.224 9.184h12.865v-1.55h-12.865zm.617-7.137h11.631v-1.55h-11.631zm1.543-11.918h8.546v-1.14h-8.546zm.645-1.636h7.255v-1.139h-7.255zm.824-1.635h5.608v-1.14h-5.608zm8.347 18.816c-.832-.633-1.463-.719-1.463-1.609s.315-1.521.315-1.521h-8.791s.315.631.315 1.521c0 .89-.631.976-1.462 1.608-.833.631-.488 1.464-.488 1.464h12.061s.344-.833-.487-1.464m-2.34-25.93h-2.007v-.776h-.64v-1.746h1.745v-1.115h-1.744v-1.745h-1.115v1.745h-1.743v1.115h1.743v1.746h-.639v.776h-2.007c-1.962 0-.145 1.745.4 2.788.544 1.042.35 2.69.35 2.69h4.906s-.194-1.648.351-2.69c.545-1.043 2.362-2.788.4-2.788" fill="#000" mask="url(#b)"/></g></g></svg>