<svg width="161" height="377" viewBox="0 0 161 377" xmlns="http://www.w3.org/2000/svg" xmlns:xlink="http://www.w3.org/1999/xlink"><title>048AD50D-C417-4CCF-89D6-44C0C7D51C2D</title><defs><path id="a" d="M.104 6.361h55.152V.396H.104V6.36z"/><path id="c" d="M.254 6.361h55.152V.396H.254z"/><path id="e" d="M0 376.651h160.683V0H0z"/></defs><g fill="none" fill-rule="evenodd"><path d="M97.352 143.09c0 9.515-7.686 13.568-17.167 13.568-9.481 0-18.383-4.053-18.383-13.568s8.902-17.23 18.383-17.23 17.167 7.715 17.167 17.23z" fill="#F4D09A"/><path d="M22.09 362.372c9.933-4.691 39.49-11.945 39.49-11.945 7.759 0 8.022 5.576 8.022 12.453v1.32c0 6.875-.263 12.451-8.022 12.451H25.72c-7.76 0-12.833-4.023-12.833-10.897" fill="#70332E"/><g transform="translate(13.945 370.29)"><mask id="b" fill="#fff"><use xlink:href="#a"/></mask><path d="M.104.396C1.5 5.163 5.468 6.36 12.18 6.36h35.456c5.077 0 6.935-2.393 7.621-5.965H.104z" fill="#6D6D6D" mask="url(#b)"/></g><path d="M138.218 362.372c-9.933-4.691-39.49-11.945-39.49-11.945-7.758 0-8.021 5.576-8.021 12.453v1.32c0 6.875.263 12.451 8.021 12.451h35.861c7.759 0 12.833-4.023 12.833-10.897" fill="#70332E"/><g transform="translate(90.853 370.29)"><mask id="d" fill="#fff"><use xlink:href="#c"/></mask><path d="M55.406.396C54.011 5.163 50.042 6.36 43.331 6.36H7.875C2.8 6.361.94 3.968.255.396h55.151z" fill="#6D6D6D" mask="url(#d)"/></g><mask id="f" fill="#fff"><use xlink:href="#e"/></mask><path fill="#2B3E61" mask="url(#f)" d="M40.716 277.863h78.938v-34.584H40.716z"/><path fill="#2B3E61" mask="url(#f)" d="M40.716 356.271h28.538V265.65H40.716zm50.4.407h28.537v-91.029H91.116z"/><path d="M7.394 214.048a9.936 9.936 0 0 1-1.823-.685c-4.93-2.422-6.97-8.395-4.557-13.342l23.889-48.973c2.412-4.946 8.378-6.993 13.294-4.572 4.93 2.423 6.969 8.395 4.556 13.342l-23.889 48.973a9.929 9.929 0 0 1-11.47 5.257m145.453.167a9.976 9.976 0 0 0 1.826-.678c4.938-2.405 6.999-8.37 4.603-13.326l-23.715-49.058c-2.395-4.955-8.353-7.023-13.277-4.62-4.939 2.405-7 8.37-4.604 13.326l23.716 49.058a9.929 9.929 0 0 0 11.45 5.298" fill="#B7B7B7" mask="url(#f)"/><path d="M62.547 146.209c3.561 9.326 28.204 13.629 33.31 1.474 1.475-3.509 1.809-5.206 1.809-5.206l.767 1.922s1.44-.061 0 6.208c-1.715 7.467-16.095 23.91-16.095 23.91s-19.709-17.98-20.851-21.443c-1.719-5.207-1.07-7.907-1.07-7.907l1.248-3.598s.237 2.95.882 4.64" fill="#F9CA2C" mask="url(#f)"/><path d="M63.018 137.946c.071 1.015-2.731 3.858.745 8.865 5.717 8.234 18.93 19.711 19.713 19.234 3.338-2.033 17.17-23.845 13.785-29.669 6.026 6.756 24.394 5.142 30.84 8.27 16.393 7.953-2.792 23.12-3.462 29.517-1.206 11.513.612 19.364.622 31.031.013 14.67 0 45.056-2.683 52.186-4.78 3.227-48.44 4.413-48.44 4.413-5.557.223-29.578-1.867-34.538-3.83-3.72-1.472-3.97-.87-4.334-4.827-4.436-48.212 1.28-60.631-.625-78.931-.652-6.276-9.835-19.832-7.914-25.747 1.457-4.485 14.074-6.202 18.668-8.861 3.951-2.285 14.974 1.663 18.368-2.463" fill="#B7B7B7" mask="url(#f)"/><path d="M113.563 130.243c-3.095-3.004-16.992-3.404-16.498-.253.123.779-.123 6.481 1.286 7.448 8.552 5.871-15.054 31.677-15.054 31.677s-.638 6.905-.81 6.805c1.347-.261 8.36-6.103 10.42-7.8 4.169-3.432 9.48-6.28 11.662-11.222 5.503-12.458 8.438-11.204 9.913-11.591 1.462-.385 1.808 1.069 3.54 1.162.98-1.738 2.38-9.589-4.46-16.226m-30.265 38.89s-12.494-11.35-18.469-20.73c-3.054-4.795-4.404-9.075-1.51-11.06 1.408-.967.888-8.164 1.01-8.943.494-3.151-7.595-3.2-11.79-2.222-4.043.944-7.7.348-11.276 2.632-3.195 2.04-2.751 4.672-1.506 7.61 1.489 3.514-1.424 5.206-.445 6.945 1.732-.094 1.938-.456 3.4-.072 1.475.388 11.328 3.175 19.313 13.217 3.36 4.225 7.493 7.789 11.662 11.22 2.06 1.697 7.857 7.947 9.203 8.208-.171.1.408-6.806.408-6.806M2.043 210.457A9.96 9.96 0 0 1 .1 203.72c.425-5.492 5.205-9.598 10.677-9.17l26.393 1.74c5.473.423 9.563 5.222 9.14 10.713-.426 5.491-5.205 9.597-10.677 9.17l-26.394-1.74a9.905 9.905 0 0 1-7.196-3.977m156.754.119a9.96 9.96 0 0 0 1.843-6.764c-.507-5.485-5.348-9.518-10.814-9.009l-26.364 2.077c-5.466.507-9.483 5.367-8.978 10.85.507 5.485 5.348 9.519 10.813 9.009l26.365-2.077a9.904 9.904 0 0 0 7.135-4.086" fill="#969392" mask="url(#f)"/><path d="M63.495 148.275c1.564 2.364 2.687 3.23 3.285 4.728 0 0 3.558 4.304 5.382 7.042.701 1.046 1.223 2.011 1.333 2.686.816 4.975-.58 16.082.58 25.574 1.157 9.492 8.107 23.058 8.107 23.058l-1.35 1.744s-8.577-10.323-9.654-21.123c-.782-7.858-.405-14.293-.25-19.349.146-4.918.076-8.533-1.487-10.875-1.82-2.732-3.25-5.19-4.367-7.353-3.44-6.661-4.44-11.27-4.44-11.27s1.996 3.314 2.861 5.138m33.807 4.357c.012 0 .018-.006.029-.012-.162.192-1.998 2.464-3.921 5.894-1.662 2.947-3.388 6.742-4.17 10.805-1.83 9.48 2.896 28.48 2.896 35.165 0 .942-.127 2.238-.342 3.772-1.343 9.352-6.139 27.586-6.759 28.778-.15.29-1.586-.29-2.455-.582-.869-.29 3.185-11.043 6.081-28.48 2.1-12.65-3.475-24.517-3.475-36.328 0-2.61.678-5.051 1.72-7.26 0-.006.006-.006.006-.006 3.209-6.823 9.851-11.386 10.39-11.746" fill="#969392" mask="url(#f)"/><path d="M67.025 151.04S82.388 167 83.476 166.045c1.089-.954 9.063-10.678 12.275-19.393 3.213-8.716 1.07-5.447 1.07-5.447l4.47-3.063s-.402 20.234-5.164 23.997c-4.763 3.762-13.64 9.66-13.64 9.66l-21.429-23.694 5.967 2.935z" fill="#969392" mask="url(#f)"/><path d="M31.573 56.692S27.318 0 77.463 0c50.144 0 50.448 56.692 50.448 56.692s1.368 34.311-1.52 44.07c-2.887 9.76-7.901 20.13-15.043 27.603-7.142 7.472-8.413 8.436-13.676 12.352-4.859 3.616-7.314 5.64-15.954 7.777-8.115 2.007-14.74-4.422-17.475-6.405-2.735-1.982-9.421-8.997-12.612-12.047-3.191-3.05-12.386-13.724-13.146-15.86-.76-2.134-4.785-13.267-5.089-19.976-.303-6.71-1.823-37.514-1.823-37.514" fill="#F8D9B5" mask="url(#f)"/><path d="M128.071 61.876s2.575-4.168 4.601-4.371c2.026-.204 4.356.305 5.065 4.371.71 4.067 1.028 9.252.42 11.895-.608 2.643-3.353 10.428-6.181 12.962-2.869 2.571-4.68 4.727-4.68 4.727l.775-29.584zm-96.128 0s-1.967-4.168-3.993-4.371c-2.026-.204-4.356.305-5.065 4.371-.709 4.067-1.027 9.252-.42 11.895.608 2.643 3.354 10.428 6.182 12.962 2.869 2.571 4.68 4.727 4.68 4.727l-1.384-29.584z" fill="#F4CEAE" mask="url(#f)"/><path d="M62.038 63.443c0 2.97-2.4 5.373-5.357 5.373-2.958 0-5.355-2.404-5.355-5.373 0-2.969 2.397-5.376 5.355-5.376 2.957 0 5.357 2.407 5.357 5.376" fill="#0095A5" mask="url(#f)"/><path d="M58.936 63.443a2.26 2.26 0 0 1-2.255 2.265 2.261 2.261 0 0 1-2.256-2.265 2.26 2.26 0 0 1 2.256-2.264 2.259 2.259 0 0 1 2.255 2.264" fill="#262524" mask="url(#f)"/><path d="M58.311 64.7a.628.628 0 0 1-1.254 0c0-.348.28-.631.626-.631a.63.63 0 0 1 .628.632" fill="#FFF" mask="url(#f)"/><path d="M108.563 63.443c0 2.97-2.4 5.373-5.357 5.373-2.958 0-5.356-2.404-5.356-5.373 0-2.969 2.398-5.376 5.356-5.376 2.957 0 5.357 2.407 5.357 5.376" fill="#0095A5" mask="url(#f)"/><path d="M105.46 63.443a2.26 2.26 0 0 1-2.255 2.265 2.261 2.261 0 0 1-2.255-2.265 2.26 2.26 0 0 1 2.255-2.264 2.259 2.259 0 0 1 2.256 2.264" fill="#262524" mask="url(#f)"/><path d="M104.836 64.7a.628.628 0 0 1-1.255 0c0-.348.28-.631.627-.631a.63.63 0 0 1 .628.632" fill="#FFF" mask="url(#f)"/><path d="M65.921 91.257c-.05.987 1.532.06 5.36.585 2.261.31 5.9 2.32 8.843 2.307 2.637-.012 5.654-1.84 8.517-2.457 3.253-.7 5.633-.163 5.678-1.044.044-.86-1.92-1.56-5.2-1.729-2.146-.111-6.27 2.2-9.268 2.045-3.187-.165-6.24-2.414-8.413-2.045-2.346.398-5.475 1.523-5.517 2.338" fill="#BC8C6C" mask="url(#f)"/><path d="M67.129 49.24s-12.855-2.949-24.363 4.702c0 0-3.095 3.06-3.598 5.124 0 0 17.325-10.079 32.968-4.297 0 0 2.41-2.115.844-4.09m20.224-1.439s12.854-2.949 24.363 4.702c0 0 3.095 3.06 3.598 5.124 0 0-17.325-10.079-32.968-4.297 0 0-2.411-2.115-.844-4.09" fill="#A5642F" mask="url(#f)"/><path d="M57.64 107.32c3.972 8.289 12.172 13.456 22.424 13.456 10.252 0 18.451-5.167 22.424-13.456H57.64z" fill="#FFF" mask="url(#f)"/><path d="M57.64 107.32c3.972 8.289 12.172 13.456 22.424 13.456 10.252 0 18.451-5.167 22.424-13.456H57.64z" stroke="#D6925F" stroke-width="1.927" mask="url(#f)"/><path d="M79.834 178.342a.838.838 0 0 0-.219.034l-8.218 2.493-8.552 2.583-7.979 2.418s-.557.205-.491.794l.914 8.337.99 8.966.942 8.515c.048.239.068.386.327.65l6.464 4.734 6.744 4.932 6.074 4.446c.466.221.918.193 1.365.102l7.086-4 7.78-4.384 7.379-4.165c.354-.161.417-.457.437-.774l.505-9.179.54-9.734.497-9.055c.082-.818-.675-.897-.675-.897l-6.792-2.145-7.508-2.363-7.146-2.254s-.234-.06-.464-.054" fill="#F6F6F6" mask="url(#f)"/><path d="M80.026 178.72l6.254 1.97-7.342 2.533-6.38-2.346 7.153-2.164s.192-.032.315.006zm7.342 2.34l6.42 2.022-7.383 2.854-6.384-2.346zm-16.054.22l6.38 2.344-7.343 2.53-6.344-2.665zm23.557 2.174l6.42 2.022-7.422 3.177-6.38-2.345zm-32.104.438l6.344 2.665-7.347 2.533-6.304-2.988zm16.005.156l6.383 2.345-7.382 2.853-6.343-2.664z" fill="#FF0" mask="url(#f)"/><path fill="#F00" mask="url(#f)" d="M101.813 186.372l-.46 8.319-7.163 3.367.204-8.513z"/><path fill="#FF0" mask="url(#f)" d="M86.234 186.817l6.38 2.345-7.418 3.173-6.344-2.665z"/><path fill="#6C3" mask="url(#f)" d="M54.894 186.973l6.304 2.989.667 8.075-6.127-3.398z"/><path fill="#FF0" mask="url(#f)" d="M70.18 187.035l6.344 2.67-7.382 2.85-6.304-2.986z"/><path fill="#F00" mask="url(#f)" d="M93.151 190.099l-.203 8.513-7.166 3.365-.049-8.705z"/><path fill="#FF0" mask="url(#f)" d="M77.598 190.183l6.34 2.665-7.418 3.173-6.305-2.985z"/><path fill="#6C3" mask="url(#f)" d="M62.255 190.505l6.304 2.985.487 8.487-6.127-3.397z"/><path fill="#F00" mask="url(#f)" d="M84.478 193.83l.05 8.704-7.163 3.365-.309-8.896z"/><path fill="#6C3" mask="url(#f)" d="M69.613 194.033l6.304 2.985.306 8.9-6.124-3.401zm-13.745 1.94l6.123 3.398.667 8.075-5.946-3.807z"/><path fill="#F00" mask="url(#f)" d="M101.297 196.116l-.46 8.32-6.91 3.562.204-8.514z"/><path fill="#6C3" mask="url(#f)" d="M63.018 199.984l6.124 3.398.486 8.487-5.946-3.81z"/><path fill="#F00" mask="url(#f)" d="M92.937 200.072l-.208 8.51-6.909 3.56-.049-8.705z"/><path fill="#6C3" mask="url(#f)" d="M70.165 203.992l6.127 3.397.305 8.9-5.946-3.81z"/><path fill="#F00" mask="url(#f)" d="M84.561 204.025l.05 8.706-6.91 3.558-.305-8.896z"/><path fill="#6C3" mask="url(#f)" d="M56.843 204.974l5.946 3.806.664 8.079-5.766-4.223z"/><path d="M100.78 205.864l-.438 7.877c.062.365-.096.566-.405.657l-6.272 3.539.207-8.514 6.909-3.559z" fill="#F00" mask="url(#f)"/><path fill="#6C3" mask="url(#f)" d="M63.778 209.464l5.946 3.806.486 8.487-5.765-4.218z"/><path fill="#F00" mask="url(#f)" d="M92.717 210.043l-.207 8.514-6.652 3.75-.05-8.705z"/><path fill="#6C3" mask="url(#f)" d="M70.717 213.954l5.946 3.806.309 8.9-5.769-4.223z"/><path fill="#F00" mask="url(#f)" d="M84.641 214.225l.052 8.705-6.652 3.75-.309-8.896z"/><path d="M118.529 195.918c-2.894-4.19-16.533-13.505-18.77-9.861-1.778 2.894 8.16 4.483 5.834 7.71-2.581 3.581-20.75.4-20.629 4.715.137 4.89 12.2-.424 14.554 2.741 2.28 3.067-19.34-2.222-19.035 2.907.306 5.129 20.236 1.383 17.588 4.134-2.552 2.652-15.84-1.559-15.694 3.11.162 5.208 19.686 1.986 17.47 2.989-5.35 2.418-11.92-.644-12.022 3.434-.06 2.41 6.817 3.712 14.286 2.623 6.603-.965 13.321-3.027 16.39-6.072 6.454-6.406 5.21-10.928.028-18.43m-79.341-1.221c2.894-4.19 16.939-11.877 19.177-8.234 1.776 2.895-5.002 4.041-5.835 6.49-1.423 4.185 20.343-1.634 20.222 2.681-.137 4.89-10.887 2.403-14.553 4.37-3.363 1.803 19.34-1.817 19.034 3.312-.305 5.13-12.822 1.658-17.588 3.728-3.498 1.52 15.84-.746 15.695 3.923-.162 5.209-15.293.133-18.686 2.175-4.098 2.469 13.136-.237 13.238 3.842.06 2.41-6.818 3.305-14.285 2.215-6.604-.964-13.323-3.026-16.39-6.071-6.456-6.407-5.21-10.929-.03-18.43" fill="#FAD3A8" mask="url(#f)"/><path d="M65.683 186.025c.023-.19-.154-.212-.154-.212l-1.573-.526-1.74-.58-1.656-.553s-.054-.015-.108-.015a.184.184 0 0 0-.051.008l-1.924.548-2.002.568-1.868.532s-.13.045-.118.183l.18 1.946.196 2.092.186 1.987c.01.056.015.09.074.153l1.487 1.128 1.559.768 1.459-2.6a.482.482 0 0 0 .318.029l5.735-5.456zm31.192 4.885c.104.021.21.028.318-.024l1.415 2.625 1.571-.742 1.506-1.103c.06-.061.065-.096.076-.151l.466-1.968.106-2.151.091-1.896c.016-.137-.114-.185-.114-.185l-1.86-.563-1.992-.602-1.914-.58a.179.179 0 0 0-.05-.009.42.42 0 0 0-.11.013l-1.664.525-1.749.55-1.582.5s-.177.019-.158.209l5.644 5.552z" fill="#F6F6F6" mask="url(#f)"/><path fill="#FF0" mask="url(#f)" d="M94.871 183.454l6.42 2.022-7.422 3.177-6.38-2.345zm-32.104.438l6.344 2.665-7.347 2.533-6.304-2.988z"/><path fill="#F00" mask="url(#f)" d="M101.813 186.372l-.46 8.319-7.163.927.204-6.073z"/><path fill="#6C3" mask="url(#f)" d="M54.894 186.973l6.304 2.989.262 4.414-5.722.263z"/><path d="M71.037 130.262c3.278-6.666 14.117-6.564 17.595 0-5.072-3.09-12.525-3.104-17.595 0" fill="#E0BA9B" mask="url(#f)"/></g></svg>