<svg width="330" height="194" viewBox="0 0 330 194" xmlns="http://www.w3.org/2000/svg"><title>2072156B-E47F-46C3-8783-A2EF5C30D4D6</title><g fill="none" fill-rule="evenodd"><path d="M294.268 185.673H35.064c-4.14 0-7.497-3.351-7.497-7.485V7.484C27.567 3.351 30.924 0 35.064 0h259.204c4.141 0 7.498 3.35 7.498 7.484v170.704c0 4.134-3.357 7.485-7.498 7.485" fill="#414342"/><path d="M8.087 193.745h313.16c4.465 0 8.085-3.614 8.085-8.072 0-4.459-3.62-8.073-8.086-8.073H8.086C3.622 177.6 0 181.214 0 185.673c0 4.458 3.62 8.072 8.087 8.072" fill="#696A68"/><path fill="#FFF" d="M42.696 164.39h244.426V16.328H42.696zM166.872 7.935a2.203 2.203 0 0 1-2.206 2.202 2.203 2.203 0 0 1-2.205-2.202c0-1.216.987-2.202 2.205-2.202 1.219 0 2.206.986 2.206 2.202"/><path fill="#6ABFEA" d="M43.008 165.106h243.984V16.511H43.008z"/><path fill="#E46D5B" d="M43.008 42.3h22.18V21.423h-22.18z"/><path fill="#DBD6D4" d="M65.188 42.3h50.522V21.423H65.188z"/><path fill="#C3BEB5" d="M114.478 43.528H165V22.651h-50.522z"/><path fill="#CFD7CB" d="M43.008 165.106h243.984V30.02H43.008z"/><path d="M266.044 37.013c0 .886-.72 1.603-1.608 1.603H66.796a1.605 1.605 0 0 1-1.608-1.603v-2.935c0-.885.72-1.603 1.608-1.603h197.64c.889 0 1.608.718 1.608 1.603v2.935" fill="#FFF"/><path d="M52.762 36.108a2.41 2.41 0 0 1-2.413 2.405 2.408 2.408 0 0 1-2.412-2.405 2.408 2.408 0 0 1 2.412-2.404 2.41 2.41 0 0 1 2.413 2.404m8.627 0a2.41 2.41 0 0 1-2.414 2.405 2.41 2.41 0 0 1-2.413-2.405 2.41 2.41 0 0 1 2.413-2.404 2.41 2.41 0 0 1 2.414 2.404" fill="#C0B7B8"/><path fill="#FFF" d="M42.991 165.09H287.06V49.652H42.99z"/><path fill="#8A9397" d="M149.933 73.093h28.608V67.31h-28.608z"/><path fill="#C4C4C4" d="M55.18 102.86h220.145V82.286H55.179z"/><path fill="#FFC107" d="M229.11 97.26h38.94v-9.115h-38.94z"/><path fill="#00A196" d="M76.596 94.955h39.037V90.75H76.596z"/><path fill="#383838" d="M131.76 94.955h64.998V90.75H131.76z"/><path fill="#00A196" d="M61.67 96.61h7.787v-7.814H61.67z"/><path fill="#C4C4C4" d="M55.18 126.95h220.145v-20.575H55.179z"/><path fill="#FFC107" d="M229.11 121.35h38.94v-9.115h-38.94z"/><path fill="#00A196" d="M76.596 119.045h39.037v-4.206H76.596z"/><path fill="#383838" d="M131.76 119.045h64.998v-4.206H131.76z"/><path fill="#00A196" d="M61.67 120.699h7.787v-7.813H61.67z"/><path fill="#C4C4C4" d="M55.18 151.039h220.145v-20.574H55.179z"/><path fill="#FFC107" d="M229.11 145.44h38.94v-9.116h-38.94z"/><path fill="#00A196" d="M76.596 143.135h39.037v-4.206H76.596z"/><path fill="#383838" d="M131.76 143.135h64.998v-4.206H131.76z"/><path fill="#00A196" d="M61.67 144.788h7.787v-7.813H61.67z"/><path fill="#E46E5B" d="M43.008 55.809h243.984V41.072H43.008z"/><path fill="#FFF" d="M76.834 50.896h52.986v-3.684H76.834zm-21.6-.007H70.02v-3.67H55.234zm76.946.007h20.27v-3.669h-20.27zm22.282 0h20.27v-3.669h-20.27z"/><path fill="#ECE9E6" d="M252.218 50.08h24.645v-3.685h-24.645z"/><path fill="#EBE9E6" d="M229.098 50.357h4.135V46.23h-4.135zm7.443 0h4.136V46.23h-4.136zm7.444 0h4.135V46.23h-4.135z"/></g></svg>