<svg id="logo" xmlns="http://www.w3.org/2000/svg" viewBox="0 0 698.77 150.5"><defs><style>.green{fill:#0f9d58}</style></defs><title>logo</title><path class="green" d="M-40.83 388.91l.39 17a38.82 38.82 0 0 1 14.57-14.22A40.08 40.08 0 0 1-6.45 387q24.86 0 31.56 20.31a39.37 39.37 0 0 1 15.05-15A41.83 41.83 0 0 1 60.95 387q33.8 0 34.48 36.75v69.83H83.77v-69q-.1-14-6.07-20.8T58.23 397a31 31 0 0 0-21.17 8.08 28.5 28.5 0 0 0-9.61 19.2v69.25H15.79v-69.8q-.1-13.44-6.36-20.07T-9.85 397a29.39 29.39 0 0 0-18.84 6.24q-7.87 6.24-11.65 18.52v71.77H-52V388.91h11.17zm232 104.65q-1.75-4.93-2.23-14.6a40.5 40.5 0 0 1-15.59 12.24 47.91 47.91 0 0 1-20.06 4.3q-15.15 0-24.52-8.41a27.36 27.36 0 0 1-9.37-21.28q0-15.28 12.77-24.18t35.59-8.9h21.07v-11.9q0-11.22-6.94-17.65t-20.25-6.43q-12.14 0-20.1 6.19t-8 14.9l-11.65-.1q0-12.48 11.65-21.62t28.71-9.12q17.58 0 27.73 8.75t10.44 24.42v49.52q0 15.19 3.2 22.73v1.16h-12.43zm-36.52-8.32a39.14 39.14 0 0 0 20.83-5.61 33.05 33.05 0 0 0 13.35-15v-23h-20.76q-17.38.19-27.19 6.34t-9.81 16.88a18.68 18.68 0 0 0 6.56 14.6q6.56 5.8 17 5.8zm94.79-123.13v26.79h21.75v9.48h-21.73v69.74q0 8.7 3.16 13t10.54 4.26a72.59 72.59 0 0 0 9.42-1l.49 9.48q-4.56 1.64-12.43 1.64-11.95 0-17.38-6.92t-5.44-20.36v-69.83h-19.34v-9.48h19.32v-26.79h11.65zm130.45 80.19q0 24.47-10.88 38.83t-29.23 14.37q-21.95 0-33.21-16.25l-.49 14.31H295.2V345h11.56v59.1q11.07-17.1 32.82-17.1 18.65 0 29.48 14.17t10.83 39.41v1.74zm-11.65-2q0-20.7-8.06-32T337.45 397q-11.17 0-18.94 5.46t-11.75 16v47.2q8.74 19.73 30.88 19.73 14.37 0 22.48-11.32t8.11-33.85zm78 55.23a45.76 45.76 0 0 1-24.24-6.61 44.89 44.89 0 0 1-16.85-18.33 57 57 0 0 1-6-26.36v-4.16A61.37 61.37 0 0 1 405 412.9a46.61 46.61 0 0 1 16.36-19 40.49 40.49 0 0 1 22.73-6.9q19.13 0 30.35 13t11.22 35.55V442h-75v2.22q0 17.8 10.25 29.65a32.65 32.65 0 0 0 25.79 11.85 38 38 0 0 0 16.46-3.39 36.48 36.48 0 0 0 13-10.83l7.28 5.51q-12.82 18.47-37.2 18.47zm-2.14-98.66a29.11 29.11 0 0 0-22.1 9.55q-9 9.58-10.93 25.73h63v-1.26q-.49-15.09-8.64-24.57t-21.37-9.48zm82.26-34.72v26.79h21.74v9.48h-21.75v69.74q0 8.7 3.16 13t10.49 4.18a72.59 72.59 0 0 0 9.42-1l.49 9.48q-4.56 1.64-12.43 1.64-11.95 0-17.38-6.92t-5.44-20.36v-69.79h-19.3v-9.48h19.33v-26.79h11.65zM635.12 467a16.47 16.47 0 0 0-6.94-13.83q-6.94-5.22-20.93-8.17t-21.71-6.77q-7.72-3.82-11.46-9.33a23.22 23.22 0 0 1-3.74-13.35q0-12.38 10.39-20.46t26.61-8.09q17.58 0 28.21 8.66a27.74 27.74 0 0 1 10.63 22.58h-11.64q0-9.19-7.72-15.28t-19.47-6.09q-11.46 0-18.4 5.08T582 415.12q0 7.83 5.78 12.14t21.07 7.88q15.3 3.58 22.92 7.64t11.31 9.77a26.79 26.79 0 0 1-7 35q-10.73 7.93-28 7.93-18.36 0-29.77-8.85t-11.41-22.39h11.6a20.1 20.1 0 0 0 8.6 15.81q7.92 5.66 20.93 5.66 12.14 0 19.62-5.32t7.47-13.39zm0 0" transform="translate(52 -345)"/></svg>