<svg xmlns="http://www.w3.org/2000/svg" width="800" height="751" viewBox="0 -51 800 751"><circle fill="#383838" cx="674.5" cy="341.5" r="4.5"/><circle fill="#383838" cx="795.5" cy="386.5" r="4.5"/><path fill="none" stroke="#383838" stroke-width="2" stroke-linejoin="round" stroke-dasharray="2,3" d="M675 342s12 60 121 45"/><circle fill="#383838" cx="498" cy="93" r="4.5"/><circle fill="#383838" cx="795.5" cy="210.5" r="4.5"/><path fill="none" stroke="#383838" stroke-width="2" stroke-linejoin="round" stroke-dasharray="2,3" d="M499 94s188 132 297 117"/><circle fill="#383838" cx="674.5" cy="149.5" r="4.5"/><circle fill="#383838" cx="795.5" cy="4.5" r="4.5"/><path fill="none" stroke="#383838" stroke-width="2" stroke-linejoin="round" stroke-dasharray="2,3" d="M675 148S716 5 793 5"/><circle fill="#383838" cx="131.5" cy="163.5" r="4.5"/><circle fill="#383838" cx="517.5" cy="46.5" r="4.5"/><path fill="none" stroke="#383838" stroke-width="2" stroke-linejoin="round" stroke-dasharray="2,3" d="M133 163s259 4 384-117M7 6s192-28 375 57"/><circle fill="#383838" cx="4.5" cy="6.5" r="4.5"/><circle fill="#383838" cx="381.5" cy="63.5" r="4.5"/></svg>