<svg xmlns="http://www.w3.org/2000/svg" width="369" height="751" viewBox="0 0 369 751"><path fill="#6ABFEA" d="M.776 508.945h367.463V0H.776z"/><path fill="#E46D5B" d="M.776 38.44H34.46V7.688H.776z"/><path fill="#DBD6D4" d="M34.46 38.44h76.555V7.688H34.46z"/><path fill="#C3BEB5" d="M109.484 41.515h75.023V9.226h-75.023z"/><path fill="#CFD7CB" d="M.776 535.705h367.463V19.989H.776z"/><path fill="#FFF" d="M336.085 31.407a2.415 2.415 0 0 1-2.409 2.42H36.87a2.415 2.415 0 0 1-2.41-2.42v-4.385c0-1.336 1.08-2.42 2.41-2.42h296.806a2.415 2.415 0 0 1 2.409 2.42v4.385"/><path fill="#C0B7B8" d="M17.063 29.264c0 2.005-1.62 3.63-3.618 3.63-1.997 0-3.613-1.625-3.613-3.63s1.617-3.632 3.613-3.632a3.625 3.625 0 0 1 3.618 3.632m12.05.48c0 2.005-1.62 3.63-3.616 3.63s-3.615-1.625-3.615-3.63 1.619-3.632 3.615-3.632 3.616 1.626 3.616 3.632"/><path fill="#ECE9E6" d="M0 750.954h368.504V51.307H0z"/><path fill="#00A196" d="M.776 154.628h367.463V39.308H.776z"/><path fill="#E46E5B" d="M.776 58.909h367.463V37.382H.776z"/><path fill="#FFF" d="M48.286 50.971h68.027v-4.763H48.286zm-27.732-.244h18.985v-4.744H20.554zm98.789.244h26.025v-4.743h-26.025zm28.607 0h26.024v-4.743H147.95z"/><path fill="#ECE9E6" d="M319.258 49.914h31.641v-4.763h-31.641z"/><path fill="#EBE9E6" d="M289.575 50.274h5.309v-5.336h-5.309zm9.556 0h5.31v-5.336h-5.31zm9.557 0h5.31v-5.336h-5.31z"/><path opacity=".5" fill="#C4C4C4" d="M.776 154.25h367.463v-21.527H.776z"/><path fill="#FFF" d="M45.538 124.31h18.984v-2.038H45.538zm0 4.18h18.984v-2.037H45.538z"/><path fill="#494949" d="M20.554 136.903h20.995v-21.946H20.554z"/><path fill="#EBE9E6" d="M142.348 149.511h11.061v-11.563h-11.061zm18.737 0h11.061v-11.563h-11.061zm18.738 0h11.061v-11.563h-11.061zm17.697 0h11.061v-11.563H197.52zm18.737 0h11.061v-11.563h-11.061z"/><path fill="#C4C4C4" d="M21.595 260.221h72.868v-73.155H21.595zm.191 85.904h72.869v-73.154H21.786zm0 364.567h72.869v-67.654H21.786zm170.529-450.465h72.868v-73.155h-72.868zm0 85.708h72.868V272.78h-72.868zm-85.36-85.714h72.868v-73.155h-72.868z"/><path fill="#FFF" d="M153.798 178.119h62.459v-4.18h-62.459z"/><path fill="#C4C4C4" d="M106.043 346.125h72.869v-73.154h-72.869zm-.915 364.567h72.868v-67.654h-72.868zm172.546-450.465h72.868v-73.155h-72.868zm0 85.708h72.868V272.78h-72.868z"/><path fill="#3D5389" d="M21.595 449.114h157.983V381.46H21.595zm.38 181.992h156.146v-67.654H21.975zm-.38-103.083h157.983v-67.654H21.595zm170.97-78.909h157.982V381.46H192.565z"/><path fill="#FA7777" d="M194.888 631.106h156.146v-67.654H194.888z"/><path fill="#FFF" d="M198.508 618.182h24.498v-1.383h-24.498zm0 3.014h24.498v-1.383h-24.498z"/><path fill="#3D5389" d="M285.04 570.858h17.735v17.773H285.04zm22.168 0h17.734v17.773h-17.734z"/><path fill="#0F9D58" d="M329.376 570.858h17.735v17.773h-17.735z"/><path fill="#3D5389" d="M192.565 528.023h157.982v-67.654H192.565z"/><path fill="#FA7777" d="M194.888 710.309h156.146v-67.655H194.888z"/><path fill="#FFF" d="M198.508 697.383h24.498V696h-24.498zm0 3.014h24.498v-1.382h-24.498z"/><path fill="#3D5389" d="M285.04 650.06h17.735v17.773H285.04zm22.168 0h17.734v17.773h-17.734z"/><path fill="#0F9D58" d="M329.376 650.06h17.735v17.773h-17.735z"/><path fill="#00A196" d="M168.373 359.514h33.31v-6.27h-33.31zm0 182.37h33.31v-6.271h-33.31zm-.086 182.578h33.31v-6.271h-33.31z"/><path fill="#FFF" d="M153.798 374.145h62.459v-4.18h-62.459zm-.291 183.12h62.458v-4.18h-62.458z"/></svg>