<svg width="322" height="190" viewBox="0 0 322 190" xmlns="http://www.w3.org/2000/svg" xmlns:xlink="http://www.w3.org/1999/xlink" xmlns:figma="http://www.figma.com/figma/ns"><title>error_illustration</title><desc>Created using Figma</desc><g figma:type="canvas"><g style="mix-blend-mode:normal" figma:type="frame"><g style="mix-blend-mode:normal" figma:type="frame"><use xlink:href="#a" transform="translate(27 .125)" fill="#424442" style="mix-blend-mode:normal" figma:type="vector"/><use xlink:href="#b" transform="translate(.1 174.062)" fill="#696A68" style="mix-blend-mode:normal" figma:type="vector"/><use xlink:href="#c" transform="translate(41.8 16.116)" fill="#FFFFFE" style="mix-blend-mode:normal" figma:type="vector"/><use xlink:href="#d" transform="translate(158.6 5.74)" fill="#FFFFFE" style="mix-blend-mode:normal" figma:type="vector"/><g style="mix-blend-mode:normal;isolation:isolate" opacity=".276" figma:type="frame"><use xlink:href="#e" transform="translate(42.1 16.295)" fill="#6ABFEA" style="mix-blend-mode:normal" figma:type="vector"/><use xlink:href="#f" transform="translate(42.1 21.106)" fill="#E46D5B" style="mix-blend-mode:normal" figma:type="vector"/><use xlink:href="#g" transform="translate(63.7 21.106)" fill="#DBD6D3" style="mix-blend-mode:normal" figma:type="vector"/><use xlink:href="#g" transform="translate(111.8 22.309)" fill="#C2BEB5" style="mix-blend-mode:normal" figma:type="vector"/><use xlink:href="#h" transform="translate(42.1 29.525)" fill="#CFD6CB" style="mix-blend-mode:normal" figma:type="vector"/><use xlink:href="#i" transform="translate(63.7 31.931)" fill="#FFFFFE" style="mix-blend-mode:normal" figma:type="vector"/><use xlink:href="#j" transform="translate(46.9 33.133)" fill="#C0B6B8" style="mix-blend-mode:normal" figma:type="vector"/><use xlink:href="#k" transform="translate(55.3 33.133)" fill="#C0B6B8" style="mix-blend-mode:normal" figma:type="vector"/><use xlink:href="#l" transform="translate(42.1 48.753)" fill="#FFF" style="mix-blend-mode:normal" figma:type="vector"/><use xlink:href="#m" transform="translate(42.1 40.35)" fill="#E46E5B" style="mix-blend-mode:normal" figma:type="vector"/><use xlink:href="#n" transform="translate(75.1 46.364)" fill="#FFFFFE" style="mix-blend-mode:normal" figma:type="vector"/><use xlink:href="#o" transform="translate(54 46.371)" fill="#FFFFFE" style="mix-blend-mode:normal" figma:type="vector"/><use xlink:href="#p" transform="translate(129.1 46.378)" fill="#FFFFFE" style="mix-blend-mode:normal" figma:type="vector"/><use xlink:href="#p" transform="translate(150.8 46.378)" fill="#FFFFFE" style="mix-blend-mode:normal" figma:type="vector"/><use xlink:href="#q" transform="translate(246.2 45.563)" fill="#EBE9E6" style="mix-blend-mode:normal" figma:type="vector"/><use xlink:href="#r" transform="translate(223.6 45.401)" fill="#EBE9E6" style="mix-blend-mode:normal" figma:type="vector"/><use xlink:href="#r" transform="translate(230.9 45.401)" fill="#EBE9E6" style="mix-blend-mode:normal" figma:type="vector"/><use xlink:href="#r" transform="translate(238.2 45.401)" fill="#EBE9E6" style="mix-blend-mode:normal" figma:type="vector"/><use xlink:href="#s" transform="translate(230.5 49.545)" fill="#7CC242" style="mix-blend-mode:normal" figma:type="vector"/><use xlink:href="#t" transform="translate(144.9 113.67)" fill="#0F9D58" style="mix-blend-mode:normal" figma:type="vector"/><use xlink:href="#u" transform="translate(235.9 58.664)" fill="#FFFFFE" style="mix-blend-mode:normal" figma:type="vector"/><use xlink:href="#u" transform="translate(235.9 70.92)" fill="#FFFFFE" style="mix-blend-mode:normal" figma:type="vector"/><use xlink:href="#u" transform="translate(235.9 66.962)" fill="#FFFFFE" style="mix-blend-mode:normal" figma:type="vector"/><use xlink:href="#u" transform="translate(235.9 79.628)" fill="#FFFFFE" style="mix-blend-mode:normal" figma:type="vector"/><use xlink:href="#u" transform="translate(235.9 55.087)" fill="#FFFFFE" style="mix-blend-mode:normal" figma:type="vector"/><use xlink:href="#u" transform="translate(235.9 63.003)" fill="#FFFFFE" style="mix-blend-mode:normal" figma:type="vector"/><use xlink:href="#u" transform="translate(235.9 75.67)" fill="#FFFFFE" style="mix-blend-mode:normal" figma:type="vector"/><g style="mix-blend-mode:normal;isolation:isolate"><use xlink:href="#v" transform="translate(43.6 138.82)" fill="#A3A3A3" style="mix-blend-mode:normal" opacity=".5" figma:type="vector"/></g><g style="mix-blend-mode:normal;isolation:isolate"><use xlink:href="#v" transform="translate(65 139.003)" fill="#A3A3A3" style="mix-blend-mode:normal" opacity=".5" figma:type="vector"/></g><g style="mix-blend-mode:normal;isolation:isolate"><use xlink:href="#v" transform="translate(86.3 139.003)" fill="#A3A3A3" style="mix-blend-mode:normal" opacity=".5" figma:type="vector"/></g><g style="mix-blend-mode:normal;isolation:isolate"><use xlink:href="#v" transform="translate(107.7 139.003)" fill="#A3A3A3" style="mix-blend-mode:normal" opacity=".5" figma:type="vector"/></g><g style="mix-blend-mode:normal;isolation:isolate"><use xlink:href="#v" transform="translate(129.1 139.003)" fill="#A3A3A3" style="mix-blend-mode:normal" opacity=".5" figma:type="vector"/></g><g style="mix-blend-mode:normal;isolation:isolate"><use xlink:href="#v" transform="translate(150.4 139.005)" fill="#A3A3A3" style="mix-blend-mode:normal" opacity=".5" figma:type="vector"/></g><g style="mix-blend-mode:normal;isolation:isolate"><use xlink:href="#v" transform="translate(171.8 139.003)" fill="#A3A3A3" style="mix-blend-mode:normal" opacity=".5" figma:type="vector"/></g><g style="mix-blend-mode:normal;isolation:isolate"><use xlink:href="#v" transform="translate(193.1 139.003)" fill="#A3A3A3" style="mix-blend-mode:normal" opacity=".5" figma:type="vector"/></g><g style="mix-blend-mode:normal;isolation:isolate"><use xlink:href="#v" transform="translate(214.5 139.003)" fill="#A3A3A3" style="mix-blend-mode:normal" opacity=".5" figma:type="vector"/></g><g style="mix-blend-mode:normal;isolation:isolate"><use xlink:href="#v" transform="translate(235.9 139.003)" fill="#A3A3A3" style="mix-blend-mode:normal" opacity=".5" figma:type="vector"/></g><g style="mix-blend-mode:normal;isolation:isolate"><use xlink:href="#v" transform="translate(257.2 139.003)" fill="#A3A3A3" style="mix-blend-mode:normal" opacity=".5" figma:type="vector"/></g><use xlink:href="#w" transform="translate(105.3 78.045)" fill="#CDCDCD" style="mix-blend-mode:normal" figma:type="vector"/><use xlink:href="#x" transform="translate(105.4 95.462)" fill="#CDCDCD" style="mix-blend-mode:normal" figma:type="vector"/><use xlink:href="#x" transform="translate(105.4 100.212)" fill="#CDCDCD" style="mix-blend-mode:normal" figma:type="vector"/></g></g><g style="mix-blend-mode:normal" figma:type="frame"><g figma:type="frame"><use xlink:href="#y" transform="rotate(-120 131.877 25.19)" fill="#FF5722" style="mix-blend-mode:normal" figma:type="vector"/></g><use xlink:href="#z" transform="rotate(-120 117.365 6.29)" fill="#FF8761" style="mix-blend-mode:normal" figma:type="vector"/></g></g></g><defs><path id="a" fill-rule="evenodd" d="M260.235 181.845H7.315c-4.04 0-7.315-3.282-7.315-7.331V7.33C0 3.282 3.275 0 7.315 0h252.92c4.041 0 7.316 3.282 7.316 7.33v167.184c0 4.049-3.275 7.331-7.316 7.331z"/><path id="b" fill-rule="evenodd" d="M7.89 15.813h305.568c4.358 0 7.89-3.54 7.89-7.906 0-4.367-3.532-7.907-7.89-7.907H7.891C3.533 0 0 3.54 0 7.907c0 4.366 3.533 7.906 7.89 7.906z"/><path id="c" fill-rule="evenodd" d="M0 145.009h238.501V0H0v145.009z"/><path id="d" fill-rule="evenodd" d="M4.304 2.156a2.154 2.154 0 0 1-2.152 2.157A2.154 2.154 0 0 1 0 2.156C0 .966.963 0 2.152 0s2.152.965 2.152 2.156z"/><path id="e" fill-rule="evenodd" d="M0 145.532h238.07V0H0v145.532z"/><path id="f" fill-rule="evenodd" d="M0 20.447h21.643V0H0v20.447z"/><path id="g" fill-rule="evenodd" d="M0 20.447h49.297V0H0v20.447z"/><path id="h" fill-rule="evenodd" d="M0 132.302h238.07V0H0v132.302z"/><path id="i" fill-rule="evenodd" d="M195.987 4.444a1.57 1.57 0 0 1-1.569 1.57H1.569A1.57 1.57 0 0 1 0 4.444V1.57C0 .702.702 0 1.57 0h192.848c.867 0 1.569.702 1.569 1.57v2.874z"/><path id="j" fill-rule="evenodd" d="M4.708 2.355a2.355 2.355 0 1 1-4.71 0 2.355 2.355 0 0 1 4.71 0z"/><path id="k" fill-rule="evenodd" d="M4.71 2.355a2.355 2.355 0 1 1-4.709 0 2.355 2.355 0 0 1 4.709 0z"/><path id="l" fill-rule="evenodd" d="M0 113.058h238.152V0H0v113.058z"/><path id="m" fill-rule="evenodd" d="M0 14.433h238.07V0H0v14.433z"/><path id="n" fill-rule="evenodd" d="M0 3.608h51.702V0H0v3.608z"/><path id="o" fill-rule="evenodd" d="M0 3.593h14.428V0H0v3.593z"/><path id="p" fill-rule="evenodd" d="M0 3.593h19.779V0H0v3.593z"/><path id="q" fill-rule="evenodd" d="M0 3.608h24.047V0H0v3.608z"/><path id="r" fill-rule="evenodd" d="M0 4.043h4.035V0H0v4.043z"/><path id="s" fill-rule="evenodd" d="M0 35.625h39.678V0H0v35.625z"/><path id="t" fill-rule="evenodd" d="M0 7.81a3 3 0 0 0 3 3h25.235a3 3 0 0 0 3-3V3a3 3 0 0 0-3-3H3a3 3 0 0 0-3 3v4.81z"/><path id="u" fill-rule="evenodd" d="M0 1.203h26.9V0H0v1.203z"/><path id="v" fill-rule="evenodd" d="M0 20.583h20.57V0H0v20.583z"/><path id="w" fill-rule="evenodd" d="M0 14.433h110.035V0H0v14.433z"/><path id="x" fill-rule="evenodd" d="M0 2.405h110.035V0H0v2.405z"/><path id="y" fill-rule="evenodd" d="M116.505 21.318a6.024 6.024 0 0 1-8.522.024l-4.845-4.822a6.032 6.032 0 0 1-.026-8.527l7.295-7.342c-6.366-1.705-13.44-.063-18.42 4.95a18.966 18.966 0 0 0-4.176 6.353l-51.19.15a18.966 18.966 0 0 0-4.208-6.318c-7.448-7.41-19.49-7.376-26.896.077-4.98 5.013-6.58 12.1-4.836 18.462l7.292-7.343a6.023 6.023 0 0 1 8.522-.024l4.845 4.822a6.03 6.03 0 0 1 .025 8.526l-7.294 7.34c6.365 1.707 13.44.066 18.42-4.946a18.957 18.957 0 0 0 4.175-6.357l51.19-.146a19.01 19.01 0 0 0 4.208 6.318c7.449 7.409 19.491 7.374 26.896-.077 4.979-5.014 6.58-12.102 4.838-18.463l-7.293 7.343z"/><path id="z" fill-rule="evenodd" d="M48.198 3.304a3.314 3.314 0 0 1-3.302 3.324l-41.576.12A3.313 3.313 0 0 1 0 3.443 3.312 3.312 0 0 1 3.3.12L44.878 0a3.314 3.314 0 0 1 3.321 3.304z"/></defs></svg>