<svg width="1440" height="281" viewBox="0 0 1440 281" xmlns="http://www.w3.org/2000/svg"><title>4267764C-8433-4F6E-A0DC-78EDEFA6F2DC</title><g stroke-width="2.5" stroke="#FFF" fill="#F5F5F5" fill-rule="evenodd"><path d="M761.642 304.814s8.201-26.584 0-34.781c-7.172-7.174-23.26 7.174-30.435 0-7.172-7.174-7.172-23.264 0-30.438 7.175-7.174 23.263 7.174 30.435 0 8.201-8.197 0-34.78 0-34.78s-26.584 8.198-34.781 0c-7.174-7.173 7.174-23.263 0-30.435-7.174-7.173-23.262-7.173-30.436 0-7.174 7.172 7.174 23.262 0 30.436-8.197 8.197-34.781 0-34.781 0s-8.199 26.582 0 34.779c7.174 7.174 23.262-7.174 30.435 0 7.174 7.174 7.174 23.264 0 30.438-7.173 7.174-23.261-7.174-30.435 0-8.199 8.197 0 34.78 0 34.78h99.998zm700.233.309h-99.999s8.199-26.582 0-34.779c-7.174-7.174-23.262 7.174-30.436 0-7.174-7.174-7.174-23.264 0-30.438 7.174-7.174 23.262 7.174 30.436 0 8.199-8.197 0-34.779 0-34.779s26.583-8.197 34.781 0c7.172 7.174-7.176 23.26 0 30.433 7.172 7.174 23.261 7.174 30.435 0 7.174-7.173-7.174-23.259 0-30.433 8.199-8.197 34.783 0 34.783 0v99.996z"/><path d="M1461.875 205.127s-26.584-8.197-34.783 0c-7.174 7.174 7.174 23.26 0 30.434-7.174 7.173-23.263 7.173-30.435 0-7.176-7.174 7.172-23.26 0-30.434-8.198-8.197-34.781 0-34.781 0s-8.198-26.586 0-34.783c7.173-7.174 23.259 7.172 30.433 0 7.176-7.174 7.176-23.262 0-30.436-7.174-7.173-23.26 7.174-30.433 0-8.198-8.197 0-34.783 0-34.783s26.583 8.199 34.781 0c7.172-7.172-7.176-23.262 0-30.433 7.172-7.174 23.261-7.174 30.435 0 7.174 7.17-7.174 23.26 0 30.433 8.199 8.199 34.783 0 34.783 0v100.002z"/><path d="M1461.875 105.125s-26.584 8.199-34.783 0c-7.174-7.172 7.174-23.262 0-30.434-7.174-7.173-23.263-7.173-30.435 0-7.176 7.172 7.172 23.262 0 30.434-8.198 8.199-34.781 0-34.781 0s8.199-26.586 0-34.781c-7.174-7.176-23.262 7.172-30.436 0-7.174-7.176-7.174-23.262 0-30.436 7.174-7.174 23.262 7.174 30.436 0 8.199-8.197 0-34.783 0-34.783s26.583-8.197 34.781 0c7.172 7.174-7.176 23.262 0 30.435 7.172 7.174 23.261 7.174 30.435 0 7.174-7.173-7.174-23.261 0-30.435 8.199-8.197 34.783 0 34.783 0v100zm-499.565 200s8.202-26.584 0-34.781c-7.173-7.174-23.257 7.174-30.431 0-7.173-7.174-7.173-23.264 0-30.438 7.173-7.174 23.257 7.174 30.431 0 8.202-8.197 0-34.779 0-34.779s26.585-8.197 34.786 0c7.174 7.174-7.174 23.26 0 30.434 7.174 7.173 23.262 7.173 30.436 0 7.17-7.174-7.174-23.26 0-30.434 8.197-8.197 34.78 0 34.78 0s-8.2 26.582 0 34.779c7.175 7.174 23.263-7.174 30.436 0 7.173 7.174 7.173 23.264 0 30.438-7.174 7.174-23.262-7.174-30.437 0-8.2 8.197 0 34.781 0 34.781h-100zm-201 0s8.202-26.584 0-34.781c-7.173-7.174-23.257 7.174-30.431 0-7.173-7.174-7.173-23.264 0-30.438 7.173-7.174 23.257 7.174 30.432 0 8.2-8.197 0-34.779 0-34.779s26.583-8.197 34.784 0c7.174 7.174-7.173 23.26 0 30.434 7.174 7.173 23.262 7.173 30.437 0 7.17-7.174-7.175-23.26 0-30.434 8.197-8.197 34.78 0 34.78 0s-8.2 26.582 0 34.779c7.174 7.174 23.262-7.174 30.435 0 7.175 7.174 7.175 23.264 0 30.438-7.173 7.174-23.26-7.174-30.435 0-8.2 8.197 0 34.781 0 34.781H761.31z"/><path d="M1062.312 305.125s-8.201-26.584 0-34.781c7.174-7.174 23.262 7.174 30.436 0 7.174-7.174 7.174-23.264 0-30.438-7.174-7.174-23.262 7.174-30.436 0-8.201-8.197 0-34.779 0-34.779s26.585 8.197 34.782 0c7.174-7.174-7.174-23.264 0-30.436 7.174-7.173 23.261-7.173 30.435 0 7.174 7.172-7.174 23.262 0 30.436 8.197 8.197 34.781 0 34.781 0s8.201 26.582 0 34.779c-7.172 7.174-23.262-7.174-30.432 0-7.173 7.174-7.173 23.264 0 30.438 7.17 7.174 23.26-7.174 30.432 0 8.201 8.197 0 34.781 0 34.781h-99.998zm200 0s-8.2-26.584 0-34.781c7.174-7.174 23.258 7.174 30.435 0 7.17-7.174 7.17-23.264 0-30.438-7.174-7.174-23.262 7.174-30.436 0-8.198-8.197 0-34.779 0-34.779s26.583 8.197 34.78 0c7.174-7.174-7.172-23.264 0-30.436 7.174-7.173 23.263-7.173 30.437 0 7.172 7.172-7.174 23.262 0 30.436 8.198 8.197 34.782 0 34.782 0s8.2 26.582 0 34.779c-7.174 7.174-23.262-7.174-30.436 0-7.174 7.174-7.174 23.264 0 30.438 7.174 7.174 23.262-7.174 30.436 0 8.2 8.197 0 34.779 0 34.779-33.333.002-66.666.002-99.998.002zm-1301.187-.002h99.999s-8.199-26.582 0-34.779c7.174-7.174 23.262 7.174 30.436 0 7.174-7.174 7.174-23.264 0-30.438-7.174-7.174-23.262 7.174-30.436 0-8.199-8.197 0-34.779 0-34.779s-26.583-8.197-34.781 0c-7.172 7.174 7.176 23.26 0 30.433-7.172 7.174-23.261 7.174-30.435 0-7.174-7.173 7.174-23.259 0-30.433-8.199-8.197-34.783 0-34.783 0v99.996z"/><path d="M-38.875 205.127s26.584-8.197 34.783 0c7.174 7.174-7.174 23.26 0 30.434 7.174 7.173 23.263 7.173 30.435 0 7.176-7.174-7.172-23.26 0-30.434 8.198-8.197 34.781 0 34.781 0s8.198-26.586 0-34.783c-7.173-7.174-23.259 7.172-30.433 0-7.176-7.174-7.176-23.262 0-30.436 7.174-7.173 23.26 7.174 30.433 0 8.198-8.197 0-34.783 0-34.783s-26.583 8.199-34.781 0c-7.172-7.172 7.176-23.262 0-30.433-7.172-7.174-23.261-7.174-30.435 0-7.174 7.17 7.174 23.26 0 30.433-8.199 8.199-34.783 0-34.783 0v100.002z"/><path d="M-38.875 105.125s26.584 8.199 34.783 0c7.174-7.172-7.174-23.262 0-30.434 7.174-7.173 23.263-7.173 30.435 0 7.176 7.172-7.172 23.262 0 30.434 8.198 8.199 34.781 0 34.781 0s-8.199-26.586 0-34.781c7.174-7.176 23.262 7.172 30.436 0 7.174-7.176 7.174-23.262 0-30.436-7.174-7.174-23.262 7.174-30.436 0-8.199-8.197 0-34.783 0-34.783s-26.583-8.197-34.781 0c-7.172 7.174 7.176 23.262 0 30.435-7.172 7.174-23.261 7.174-30.435 0-7.174-7.173 7.174-23.261 0-30.435-8.199-8.197-34.783 0-34.783 0v100zm599.996 200s8.201-26.584 0-34.781c-7.172-7.174-23.26 7.174-30.435 0-7.172-7.174-7.172-23.264 0-30.438 7.175-7.174 23.263 7.174 30.435 0 8.201-8.197 0-34.779 0-34.779s-26.584 8.197-34.781 0c-7.174-7.174 7.174-23.264 0-30.436-7.174-7.173-23.262-7.173-30.436 0-7.174 7.172 7.174 23.262 0 30.436-8.197 8.197-34.781 0-34.781 0s-8.199 26.582 0 34.779c7.174 7.174 23.262-7.174 30.435 0 7.174 7.174 7.174 23.264 0 30.438-7.173 7.174-23.261-7.174-30.435 0-8.199 8.197 0 34.781 0 34.781h99.998z"/><path d="M460.69 305.125s-8.202-26.584 0-34.781c7.173-7.174 23.257 7.174 30.431 0 7.173-7.174 7.173-23.264 0-30.438-7.173-7.174-23.257 7.174-30.431 0-8.202-8.197 0-34.779 0-34.779s-26.584-8.197-34.786 0c-7.173 7.174 7.175 23.26 0 30.434-7.173 7.173-23.262 7.173-30.435 0-7.17-7.174 7.173-23.26 0-30.434-8.197-8.197-34.78 0-34.78 0s8.2 26.582 0 34.779c-7.175 7.174-23.264-7.174-30.437 0-7.173 7.174-7.173 23.264 0 30.438 7.173 7.174 23.262-7.174 30.436 0 8.2 8.197 0 34.781 0 34.781H460.69zm-300.001-99.998s-8.197-26.586 0-34.783c7.174-7.174 23.262 7.172 30.436 0 7.173-7.174 7.173-23.262 0-30.436-7.174-7.173-23.262 7.174-30.436 0-8.197-8.197 0-34.783 0-34.783s-26.582-8.197-34.78 0c-7.174 7.174 7.172 23.262 0 30.436-7.174 7.174-23.263 7.174-30.437 0-7.171-7.174 7.175-23.262 0-30.436-8.197-8.197-34.781 0-34.781 0s8.197 26.586 0 34.783c-7.174 7.174-23.261-7.173-30.438 0-7.172 7.174-7.172 23.262 0 30.436 7.177 7.172 23.264-7.174 30.438 0 8.197 8.197 0 34.783 0 34.783s26.584 8.197 34.781 0c7.175-7.174-7.171-23.264 0-30.435 7.175-7.174 23.264-7.174 30.438 0 7.172 7.17-7.174 23.26 0 30.435 8.197 8.197 34.779 0 34.779 0z"/><path d="M260.69 305.125s-8.201-26.584 0-34.781c7.172-7.174 23.262 7.174 30.432 0 7.173-7.174 7.173-23.264 0-30.438-7.17-7.174-23.26 7.174-30.432 0-8.201-8.197 0-34.779 0-34.779s-26.584-8.197-34.783 0c-7.175 7.174 7.172 23.26 0 30.434-7.175 7.173-23.26 7.173-30.433 0-7.176-7.174 7.173-23.26 0-30.434-8.202-8.197-34.786 0-34.786 0s8.2 26.582 0 34.779c-7.173 7.174-23.257-7.174-30.435 0-7.17 7.174-7.17 23.264 0 30.438 7.174 7.174 23.262-7.174 30.435 0 8.2 8.197 0 34.781 0 34.781H260.69z"/><path d="M160.689 305.125s8.198-26.584 0-34.781c-7.174-7.174-23.258 7.174-30.435 0-7.17-7.174-7.17-23.264 0-30.438 7.173-7.174 23.26 7.174 30.435 0 8.198-8.197 0-34.779 0-34.779s-26.582 8.197-34.78 0c-7.174-7.174 7.172-23.264 0-30.436-7.174-7.173-23.263-7.173-30.437 0-7.171 7.172 7.175 23.262 0 30.436-8.197 8.197-34.781 0-34.781 0s-8.201 26.582 0 34.779c7.174 7.174 23.261-7.174 30.435 0 7.174 7.174 7.174 23.264 0 30.438-7.174 7.174-23.261-7.174-30.436 0-8.2 8.197 0 34.779 0 34.779 33.334.002 66.667.002 99.999.002z"/></g></svg>