<svg width="532" height="240" viewBox="0 0 532 240" xmlns="http://www.w3.org/2000/svg" xmlns:xlink="http://www.w3.org/1999/xlink" xmlns:figma="http://www.figma.com/figma/ns"><title>Group</title><desc>Created using Figma</desc><g figma:type="canvas"><g style="mix-blend-mode:normal" figma:type="frame"><g style="mix-blend-mode:normal" figma:type="frame"><use xlink:href="#a" transform="translate(98)" fill="#424442" style="mix-blend-mode:normal" figma:type="vector"/><use xlink:href="#b" transform="translate(64 219.71)" fill="#696A68" style="mix-blend-mode:normal" figma:type="vector"/><use xlink:href="#c" transform="translate(116.66 20.2)" fill="#FFFFFE" style="mix-blend-mode:normal" figma:type="vector"/><use xlink:href="#d" transform="translate(264.4 7.09)" fill="#FFFFFE" style="mix-blend-mode:normal" figma:type="vector"/><g style="mix-blend-mode:normal" figma:type="frame"><use xlink:href="#e" transform="translate(117.04 20.43)" fill="#6ABFEA" style="mix-blend-mode:normal" figma:type="vector"/><use xlink:href="#f" transform="translate(117.04 26.5)" fill="#E46D5B" style="mix-blend-mode:normal" figma:type="vector"/><use xlink:href="#g" transform="translate(144.4 26.5)" fill="#DBD6D3" style="mix-blend-mode:normal" figma:type="vector"/><use xlink:href="#g" transform="translate(205.19 28.02)" fill="#C2BEB5" style="mix-blend-mode:normal" figma:type="vector"/><use xlink:href="#h" transform="translate(117.04 37.14)" fill="#CFD6CB" style="mix-blend-mode:normal" figma:type="vector"/><use xlink:href="#i" transform="translate(144.4 40.18)" fill="#FFFFFE" style="mix-blend-mode:normal" figma:type="vector"/><use xlink:href="#j" transform="translate(123.12 41.7)" fill="#C0B6B8" style="mix-blend-mode:normal" figma:type="vector"/><use xlink:href="#k" transform="translate(133.76 41.7)" fill="#C0B6B8" style="mix-blend-mode:normal" figma:type="vector"/><use xlink:href="#l" transform="translate(117.02 61.43)" fill="#E5E5E5" style="mix-blend-mode:normal" figma:type="vector"/><use xlink:href="#m" transform="translate(117.04 50.81)" fill="#E46E5B" style="mix-blend-mode:normal" figma:type="vector"/><use xlink:href="#n" transform="translate(158.76 58.41)" fill="#FFFFFE" style="mix-blend-mode:normal" figma:type="vector"/><use xlink:href="#o" transform="translate(132.12 58.42)" fill="#FFFFFE" style="mix-blend-mode:normal" figma:type="vector"/><use xlink:href="#p" transform="translate(227.02 58.43)" fill="#FFFFFE" style="mix-blend-mode:normal" figma:type="vector"/><use xlink:href="#p" transform="translate(254.5 58.43)" fill="#FFFFFE" style="mix-blend-mode:normal" figma:type="vector"/><use xlink:href="#q" transform="translate(375.1 57.4)" fill="#EBE9E6" style="mix-blend-mode:normal" figma:type="vector"/><use xlink:href="#r" transform="translate(346.6 57.19)" fill="#EBE9E6" style="mix-blend-mode:normal" figma:type="vector"/><use xlink:href="#r" transform="translate(355.7 57.19)" fill="#EBE9E6" style="mix-blend-mode:normal" figma:type="vector"/><use xlink:href="#r" transform="translate(364.9 57.19)" fill="#EBE9E6" style="mix-blend-mode:normal" figma:type="vector"/><use xlink:href="#s" transform="translate(247 143.43)" fill="#0F9D58" style="mix-blend-mode:normal" figma:type="vector"/><g style="mix-blend-mode:normal;isolation:isolate"><use xlink:href="#t" transform="translate(119.02 175.19)" fill="#A3A3A3" style="mix-blend-mode:normal" opacity=".5" figma:type="vector"/></g><g style="mix-blend-mode:normal;isolation:isolate"><use xlink:href="#t" transform="translate(146 175.43)" fill="#A3A3A3" style="mix-blend-mode:normal" opacity=".5" figma:type="vector"/></g><g style="mix-blend-mode:normal;isolation:isolate"><use xlink:href="#t" transform="translate(173 175.43)" fill="#A3A3A3" style="mix-blend-mode:normal" opacity=".5" figma:type="vector"/></g><g style="mix-blend-mode:normal;isolation:isolate"><use xlink:href="#t" transform="translate(200 175.43)" fill="#A3A3A3" style="mix-blend-mode:normal" opacity=".5" figma:type="vector"/></g><g style="mix-blend-mode:normal;isolation:isolate"><use xlink:href="#t" transform="translate(227 175.43)" fill="#A3A3A3" style="mix-blend-mode:normal" opacity=".5" figma:type="vector"/></g><g style="mix-blend-mode:normal;isolation:isolate"><use xlink:href="#t" transform="translate(254 175.43)" fill="#A3A3A3" style="mix-blend-mode:normal" opacity=".5" figma:type="vector"/></g><g style="mix-blend-mode:normal;isolation:isolate"><use xlink:href="#t" transform="translate(281 175.43)" fill="#A3A3A3" style="mix-blend-mode:normal" opacity=".5" figma:type="vector"/></g><g style="mix-blend-mode:normal;isolation:isolate"><use xlink:href="#t" transform="translate(308 175.43)" fill="#A3A3A3" style="mix-blend-mode:normal" opacity=".5" figma:type="vector"/></g><g style="mix-blend-mode:normal;isolation:isolate"><use xlink:href="#t" transform="translate(335 175.43)" fill="#A3A3A3" style="mix-blend-mode:normal" opacity=".5" figma:type="vector"/></g><g style="mix-blend-mode:normal;isolation:isolate"><use xlink:href="#t" transform="translate(362 175.43)" fill="#A3A3A3" style="mix-blend-mode:normal" opacity=".5" figma:type="vector"/></g><g style="mix-blend-mode:normal;isolation:isolate"><use xlink:href="#t" transform="translate(389 175.43)" fill="#A3A3A3" style="mix-blend-mode:normal" opacity=".5" figma:type="vector"/></g><use xlink:href="#u" transform="translate(197.02 98.43)" fill="#CDCDCD" style="mix-blend-mode:normal" figma:type="vector"/><use xlink:href="#v" transform="translate(197.07 120.43)" fill="#CDCDCD" style="mix-blend-mode:normal" figma:type="vector"/><use xlink:href="#v" transform="translate(197.07 126.43)" fill="#CDCDCD" style="mix-blend-mode:normal" figma:type="vector"/></g></g><use xlink:href="#w" transform="translate(0 113)" fill="#383838" style="mix-blend-mode:normal" figma:type="vector"/><use xlink:href="#w" transform="translate(233 55)" fill="#383838" style="mix-blend-mode:normal" figma:type="vector"/><use xlink:href="#w" transform="translate(523 113)" fill="#383838" style="mix-blend-mode:normal" figma:type="vector"/><use xlink:href="#w" transform="translate(263 55)" fill="#383838" style="mix-blend-mode:normal" figma:type="vector"/><use xlink:href="#x" transform="translate(6 59)" fill="#383838" style="mix-blend-mode:normal" figma:type="vector"/><use xlink:href="#y" transform="translate(269 61)" fill="#383838" style="mix-blend-mode:normal" figma:type="vector"/></g></g><defs><path id="a" fill-rule="evenodd" d="M328.931 229.698H9.246c-5.106 0-9.246-4.145-9.246-9.259V9.259C0 4.145 4.14 0 9.246 0h319.685c5.107 0 9.247 4.145 9.247 9.259v211.18c0 5.114-4.14 9.259-9.247 9.259"/><path id="b" fill-rule="evenodd" d="M9.974 19.974h386.23c5.508 0 9.972-4.47 9.972-9.987 0-5.515-4.464-9.987-9.972-9.987H9.974C4.466 0 0 4.472 0 9.987c0 5.516 4.466 9.987 9.974 9.987"/><path id="c" fill-rule="evenodd" d="M0 183.169h301.459V0H0v183.169z"/><path id="d" fill-rule="evenodd" d="M5.44 2.724a2.722 2.722 0 0 1-2.72 2.724A2.722 2.722 0 0 1 0 2.724 2.722 2.722 0 0 1 2.72 0c1.503 0 2.72 1.22 2.72 2.724"/><path id="e" fill-rule="evenodd" d="M0 183.83h300.915V0H0v183.83z"/><path id="f" fill-rule="evenodd" d="M0 25.827h27.356V0H0v25.827z"/><path id="g" fill-rule="evenodd" d="M0 25.827h62.31V0H0v25.827z"/><path id="h" fill-rule="evenodd" d="M0 167.118h300.915V0H0v167.118z"/><path id="i" fill-rule="evenodd" d="M247.723 5.614a1.983 1.983 0 0 1-1.984 1.982H1.983A1.982 1.982 0 0 1 0 5.614V1.983C0 .887.888 0 1.983 0H245.74c1.096 0 1.984.887 1.984 1.983v3.63"/><path id="j" fill-rule="evenodd" d="M5.951 2.975A2.976 2.976 0 1 1 0 2.972a2.976 2.976 0 0 1 5.951.003"/><path id="k" fill-rule="evenodd" d="M5.953 2.975a2.977 2.977 0 0 1-5.953 0 2.976 2.976 0 0 1 5.953 0"/><path id="l" fill-rule="evenodd" d="M0 142.81h301.018V0H0v142.81z"/><path id="m" fill-rule="evenodd" d="M0 18.231h300.915V0H0v18.231z"/><path id="n" fill-rule="evenodd" d="M0 4.558h65.35V0H0v4.558z"/><path id="o" fill-rule="evenodd" d="M0 4.54h18.237V0H0v4.54z"/><path id="p" fill-rule="evenodd" d="M0 4.54h25V0H0v4.54z"/><path id="q" fill-rule="evenodd" d="M0 4.558h30.395V0H0v4.558z"/><path id="r" fill-rule="evenodd" d="M0 5.106h5.1V0H0v5.106z"/><path id="s" fill-rule="evenodd" d="M0 10.656a3 3 0 0 0 3 3h33.48a3 3 0 0 0 3-3V3a3 3 0 0 0-3-3H3a3 3 0 0 0-3 3v7.656z"/><path id="t" fill-rule="evenodd" d="M0 26h26V0H0v26z"/><path id="u" fill-rule="evenodd" d="M0 18.231h139.081V0H0v18.231z"/><path id="v" fill-rule="evenodd" d="M0 3.039h139.081V0H0v3.039z"/><path id="w" fill-rule="evenodd" d="M4.5 9a4.5 4.5 0 1 0 0-9 4.5 4.5 0 0 0 0 9z"/><path id="x" d="M0 59l.096.995H.1l.011-.001.044-.004.174-.018c.154-.015.384-.038.686-.07L.81 57.914A178.47 178.47 0 0 1-.04 58l-.042.004-.01.001h-.003L0 59zm4.02.577c.61-.069 1.288-.146 2.03-.232l-.23-1.987c-.741.086-1.415.163-2.022.231l.223 1.988zm5.027-.59c.619-.075 1.269-.155 1.947-.24l-.248-1.984-1.94.24.24 1.985zm4.93-.618l2.024-.265-.262-1.982-2.018.263.256 1.984zm4.968-.659l2.035-.279-.274-1.981c-.692.096-1.369.188-2.03.278l.269 1.982zm4.966-.69c.661-.094 1.335-.19 2.02-.29l-.286-1.979c-.684.1-1.355.195-2.015.289l.281 1.98zm4.964-.72c.655-.096 1.32-.195 1.994-.297l-.297-1.977c-.673.1-1.336.2-1.99.296l.293 1.979zm4.97-.748l1.966-.304-.308-1.977-1.96.304.303 1.976zm4.987-.78a895.18 895.18 0 0 0 1.936-.31l-.318-1.974c-.65.105-1.295.208-1.932.309l.314 1.975zm4.912-.794l2.005-.332-.329-1.973c-.673.112-1.34.223-2 .331l.324 1.974zm4.928-.824c.658-.111 1.321-.224 1.989-.34l-.339-1.97-1.984.339.334 1.971zm4.963-.855l1.952-.343-.349-1.97-1.948.343.345 1.97zm4.93-.875l1.987-.36-.358-1.968-1.985.36.355 1.968zm4.91-.898l1.978-.369-.369-1.966-1.973.368.365 1.967zm4.958-.933a981.11 981.11 0 0 0 1.943-.372l-.379-1.964c-.65.125-1.296.25-1.939.372l.375 1.964zm4.892-.945l1.99-.392-.389-1.962c-.665.132-1.326.262-1.985.39l.384 1.964zm4.92-.978c.65-.13 1.302-.262 1.956-.395l-.398-1.96-1.952.395.395 1.96zm4.918-1.002l1.975-.41-.408-1.958-1.971.41.404 1.958zm4.89-1.023c.652-.138 1.305-.277 1.961-.418l-.419-1.955c-.654.14-1.306.279-1.956.416l.415 1.957zm4.927-1.058c.646-.14 1.295-.282 1.945-.425l-.428-1.953c-.65.143-1.297.284-1.942.424l.425 1.954zm4.866-1.07a937.83 937.83 0 0 0 1.961-.44l-.439-1.95-1.957.438.435 1.952zm4.917-1.11c.643-.146 1.288-.294 1.934-.444l-.45-1.948-1.93.443.446 1.95zm4.854-1.122l1.959-.46-.46-1.947-1.955.46.456 1.947zm4.897-1.16l1.934-.466-.47-1.944-1.93.465.466 1.945zm4.85-1.177l1.955-.482-.482-1.941c-.651.161-1.301.322-1.95.481l.477 1.942zm4.881-1.212l1.93-.488-.492-1.939c-.643.163-1.285.326-1.926.487l.488 1.94zm4.84-1.232l1.948-.504-.503-1.936c-.649.169-1.297.336-1.944.503l.499 1.937zm4.864-1.268l1.927-.51-.514-1.933-1.922.51.509 1.933zm4.828-1.287l1.941-.526-.526-1.93-1.936.525.521 1.93zm4.849-1.325c.64-.176 1.281-.354 1.922-.533l-.538-1.926-1.916.532.532 1.927zm4.812-1.345l1.933-.549-.549-1.923-1.928.548.544 1.924zm4.834-1.383c.638-.184 1.276-.37 1.915-.557l-.561-1.92c-.637.187-1.274.372-1.91.556l.556 1.921zm4.795-1.404l1.924-.573-.573-1.916c-.641.191-1.28.382-1.919.571l.568 1.918zm4.815-1.444l1.91-.582-.585-1.912c-.636.194-1.27.388-1.905.58l.58 1.914zm4.778-1.466c.638-.198 1.276-.398 1.915-.598l-.598-1.908-1.91.596.593 1.91zm4.791-1.506c.636-.202 1.272-.405 1.908-.61l-.611-1.903c-.635.203-1.269.406-1.903.607l.606 1.906zm4.763-1.532c.635-.206 1.271-.414 1.906-.623l-.625-1.9c-.633.208-1.266.415-1.9.621l.619 1.902zm4.766-1.57c.634-.21 1.27-.423 1.904-.637l-.637-1.895-1.899.635.632 1.898zm4.746-1.6c.632-.215 1.264-.432 1.896-.65l-.652-1.89-1.889.647.645 1.893zm4.74-1.636l1.896-.666-.665-1.886-1.891.664.66 1.888zm4.726-1.672c.628-.225 1.257-.451 1.885-.678l-.68-1.881c-.626.226-1.252.452-1.879.676l.674 1.883zm4.712-1.707c.628-.23 1.257-.462 1.884-.695l-.694-1.875c-.626.232-1.252.462-1.878.692l.688 1.878zm4.702-1.746c.625-.235 1.25-.47 1.875-.708l-.71-1.87c-.623.237-1.245.472-1.868.706l.703 1.872zm4.684-1.782c.624-.24 1.248-.481 1.871-.724l-.725-1.864c-.621.242-1.243.482-1.865.722l.719 1.866zm4.673-1.822c.621-.245 1.243-.491 1.864-.739l-.741-1.858c-.619.247-1.237.492-1.857.737l.734 1.86zm4.655-1.86c.619-.25 1.239-.503 1.857-.756l-.756-1.851c-.617.252-1.234.503-1.852.753l.751 1.854zm4.64-1.902c.617-.256 1.235-.514 1.851-.772l-.773-1.845c-.615.258-1.229.514-1.845.77l.767 1.847zm4.622-1.943c.615-.262 1.23-.525 1.844-.79l-.79-1.837c-.612.264-1.224.525-1.837.787l.783 1.84zm4.604-1.986l.918-.402-.804-1.832-.915.401.801 1.833z"/><path id="y" d="M0 0l-.753.659h.002a9.626 9.626 0 0 0 .16.179c.101.115.257.287.462.51L1.342-.008a51.62 51.62 0 0 1-.588-.65H.753L0 0zm2.015 3.6c.422.43.894.907 1.412 1.42l1.409-1.418a145.69 145.69 0 0 1-1.391-1.4L2.015 3.6zm3.571 3.525c.466.445.958.912 1.474 1.394l1.367-1.46a177.16 177.16 0 0 1-1.458-1.38L5.586 7.126zm3.74 3.479c.468.424.954.86 1.455 1.306l1.329-1.495c-.497-.442-.977-.872-1.442-1.294l-1.343 1.483zm3.785 3.345c.482.416.978.84 1.484 1.269l1.293-1.526c-.503-.426-.992-.844-1.47-1.257l-1.307 1.514zm3.848 3.243c.5.412 1.011.83 1.531 1.25l1.259-1.554c-.517-.418-1.022-.83-1.518-1.24l-1.272 1.544zm3.904 3.145c.525.414 1.061.832 1.604 1.253l1.225-1.581c-.54-.418-1.07-.832-1.59-1.243l-1.239 1.571zm3.98 3.068c.54.407 1.09.818 1.645 1.23l1.191-1.606c-.553-.41-1.095-.816-1.632-1.22l-1.204 1.596zm4.064 3c.538.388 1.084.78 1.637 1.171l1.157-1.63c-.549-.39-1.089-.777-1.623-1.163l-1.171 1.621zm4.153 2.934c.537.371 1.082.745 1.631 1.118l1.124-1.655c-.546-.37-1.084-.74-1.618-1.108l-1.137 1.645zm4.146 2.804c.568.376 1.143.753 1.723 1.13l1.09-1.677c-.576-.375-1.145-.747-1.709-1.12l-1.104 1.667zm4.229 2.737c.563.357 1.134.715 1.708 1.072l1.056-1.698c-.57-.355-1.134-.709-1.694-1.063l-1.07 1.69zm4.328 2.68c.561.338 1.128.678 1.698 1.017l1.022-1.72c-.567-.336-1.127-.672-1.684-1.009l-1.035 1.711zm4.3 2.541c.584.338 1.175.677 1.77 1.014l.986-1.74c-.59-.335-1.175-.67-1.756-1.005l-1 1.731zm4.404 2.487c.58.32 1.167.64 1.756.959l.952-1.76c-.586-.316-1.165-.633-1.742-.95l-.966 1.75zm4.439 2.388c.6.316 1.207.631 1.816.945l.916-1.779c-.606-.311-1.206-.623-1.803-.937l-.93 1.771zm4.48 2.295c.596.298 1.199.596 1.803.892l.88-1.797a238.89 238.89 0 0 1-1.79-.885l-.894 1.79zm4.554 2.217c.604.286 1.214.572 1.826.856l.842-1.814a238.65 238.65 0 0 1-1.811-.85l-.857 1.808zm4.554 2.102c.61.275 1.227.549 1.845.82l.805-1.83c-.614-.27-1.223-.541-1.83-.814l-.82 1.824zm4.654 2.034c.61.26 1.226.518 1.843.774l.767-1.847c-.614-.255-1.222-.51-1.828-.768l-.782 1.841zm4.627 1.91c.623.249 1.251.498 1.88.744l.729-1.863c-.626-.245-1.246-.49-1.865-.738l-.744 1.856zm4.738 1.84c.62.233 1.243.465 1.868.695l.69-1.878a242.45 242.45 0 0 1-1.853-.689l-.705 1.872zm4.7 1.714c.632.224 1.27.446 1.91.666l.65-1.892c-.636-.218-1.266-.438-1.895-.66l-.666 1.886zm4.808 1.641c.63.207 1.264.413 1.899.617l.61-1.905a244.27 244.27 0 0 1-1.883-.612l-.626 1.9zm4.769 1.516c.642.197 1.288.392 1.935.584l.57-1.917c-.643-.191-1.281-.384-1.919-.58l-.586 1.913zm4.868 1.435c.641.182 1.287.362 1.934.54l.529-1.93c-.643-.176-1.281-.354-1.918-.534l-.545 1.924zm4.836 1.315c.648.17 1.3.336 1.954.5l.488-1.939c-.649-.163-1.294-.328-1.938-.496l-.504 1.935zm4.914 1.225c.654.156 1.314.31 1.974.461l.446-1.95a216 216 0 0 1-1.957-.456l-.463 1.945zm4.899 1.112c.653.14 1.311.28 1.969.416l.405-1.959c-.654-.135-1.303-.272-1.952-.412l-.422 1.955zm4.948 1.012c.665.129 1.335.255 2.005.38l.363-1.968c-.666-.123-1.327-.248-1.988-.375l-.38 1.963zm4.961.905c.656.113 1.317.223 1.977.33l.322-1.973c-.657-.107-1.309-.216-1.961-.328l-.338 1.971zm4.969.798c.668.1 1.34.198 2.011.293l.28-1.98a236.79 236.79 0 0 1-1.995-.29l-.296 1.977zm5.019.697c.658.084 1.32.166 1.982.245l.237-1.986c-.657-.078-1.311-.16-1.965-.243l-.254 1.984zm4.978.584c.668.07 1.341.14 2.013.206l.195-1.99a236.27 236.27 0 0 1-1.996-.205l-.212 1.989zm5.055.484c.665.057 1.334.11 2.003.162l.153-1.994c-.665-.051-1.325-.104-1.986-.16l-.17 1.992zm4.995.373c.667.043 1.338.083 2.009.12l.112-1.997c-.667-.037-1.33-.077-1.993-.12l-.128 1.997zm5.045.27c.676.03 1.357.056 2.037.08l.069-2a236.85 236.85 0 0 1-2.02-.078l-.086 1.998zm5.045.165c.665.014 1.333.027 2.001.036l.028-2a258.79 258.79 0 0 1-1.984-.036l-.045 2zm5.02.06c.673 0 1.35 0 2.027-.005l-.013-2c-.673.004-1.341.006-2.01.005l-.004 2zm5.086-.045c.665-.012 1.332-.028 2-.046l-.054-1.999c-.664.018-1.323.033-1.984.046l.038 2zm4.997-.145c.667-.026 1.338-.055 2.009-.087l-.094-1.997c-.667.031-1.33.06-1.994.086l.079 1.998zm5.042-.248a203.8 203.8 0 0 0 2.034-.13l-.134-1.995c-.675.046-1.347.088-2.018.128l.118 1.997zm5.048-.35a254.36 254.36 0 0 0 1.988-.166l-.174-1.993c-.659.058-1.315.113-1.972.165l.158 1.993zm4.987-.446a240.41 240.41 0 0 0 2.01-.207l-.213-1.989c-.667.072-1.331.14-1.995.206l.198 1.99zm5.042-.55c.673-.08 1.351-.163 2.027-.248l-.251-1.984c-.673.085-1.343.167-2.012.247l.236 1.986zm4.984-.64c.658-.091 1.32-.186 1.981-.282l-.289-1.98c-.658.097-1.312.19-1.966.28l.274 1.982zm4.968-.736c.665-.104 1.333-.212 2.001-.323l-.326-1.973c-.664.11-1.325.217-1.987.32l.312 1.976zm5.019-.84c.657-.116 1.317-.235 1.977-.357l-.363-1.966c-.656.12-1.309.239-1.963.354l.349 1.97zm4.912-.915c.654-.128 1.31-.259 1.966-.392l-.398-1.96a280.5 280.5 0 0 1-1.952.39l.384 1.962zm4.93-1.011c.659-.142 1.322-.287 1.984-.434l-.434-1.952c-.658.146-1.314.29-1.97.43l.42 1.956zm4.975-1.115c.644-.15 1.291-.304 1.937-.46l-.468-1.944c-.643.155-1.283.306-1.924.456l.455 1.948zm4.839-1.175a264.53 264.53 0 0 0 1.944-.496l-.502-1.936c-.645.167-1.287.331-1.93.493l.488 1.94zm4.871-1.271c.652-.176 1.307-.355 1.961-.537l-.535-1.927c-.651.18-1.299.358-1.947.533l.521 1.931zm4.914-1.372c.635-.184 1.273-.37 1.911-.559l-.567-1.918c-.635.188-1.267.372-1.899.555l.555 1.922zm4.77-1.42a305.64 305.64 0 0 0 1.913-.593l-.598-1.908c-.635.2-1.268.395-1.901.59l.586 1.911zm4.795-1.511c.642-.208 1.286-.42 1.929-.633l-.629-1.898c-.64.212-1.278.421-1.916.628l.616 1.903zm4.834-1.61l.972-.335-.654-1.89-.965.332.647 1.892z"/></defs></svg>