<svg width="703" height="242" viewBox="0 0 705 244" xmlns="http://www.w3.org/2000/svg"><title>856B818C-1A73-4221-A2C6-E73D82495123</title><g fill="none" fill-rule="evenodd"><path d="M501.93 229.698H182.247c-5.107 0-9.246-4.145-9.246-9.26V9.259C173 4.146 177.14 0 182.246 0H501.93c5.107 0 9.247 4.145 9.247 9.259v211.18c0 5.114-4.14 9.26-9.247 9.26" fill="#414342"/><path d="M148.974 239.685h386.23c5.508 0 9.972-4.471 9.972-9.987 0-5.515-4.464-9.987-9.972-9.987h-386.23c-5.508 0-9.974 4.472-9.974 9.987 0 5.516 4.466 9.987 9.974 9.987" fill="#696A68"/><path fill="#FFF" d="M191.658 203.369h301.459V20.2H191.658zM344.809 9.816a2.722 2.722 0 0 1-2.72 2.724 2.722 2.722 0 0 1-2.72-2.724 2.722 2.722 0 0 1 2.72-2.723 2.722 2.722 0 0 1 2.72 2.723"/><path fill="#6ABFEA" d="M192.043 204.255h300.914V20.425H192.043z"/><path fill="#E46D5B" d="M192.043 52.33h27.355V26.503h-27.355z"/><path fill="#DBD6D4" d="M219.398 52.33h62.311V26.503H219.4z"/><path fill="#C3BEB5" d="M280.19 53.85h62.31V28.021h-62.31z"/><path fill="#CFD7CB" d="M192.043 204.255h300.914V37.137H192.043z"/><path d="M467.121 45.79a1.982 1.982 0 0 1-1.983 1.982H221.382a1.982 1.982 0 0 1-1.984-1.983v-3.63c0-1.096.888-1.983 1.984-1.983h243.756c1.096 0 1.983.887 1.983 1.982v3.631" fill="#FFF"/><path d="M204.073 44.67a2.976 2.976 0 1 1-5.952-.003 2.976 2.976 0 0 1 5.952.003m10.64 0a2.977 2.977 0 0 1-5.953 0 2.976 2.976 0 0 1 5.953 0" fill="#C0B7B8"/><path fill="#E5E5E5" d="M192.023 204.235H493.04V61.425H192.023z"/><path fill="#E46E5B" d="M192.043 69.042h300.914V50.81H192.043z"/><path fill="#FFF" d="M233.762 62.965h65.35v-4.558h-65.35zm-26.64-.01h18.237v-4.539h-18.237zm94.901.01h25v-4.54h-25zm27.48 0h25v-4.54h-25z"/><path fill="#ECE9E6" d="M450.069 61.954h30.395v-4.558H450.07z"/><path fill="#EBE9E6" d="M421.554 62.298h5.1V57.19h-5.1zm9.18 0h5.1V57.19h-5.1zm9.181 0h5.1V57.19h-5.1z"/><path fill="#7CC242" d="M430.22 107.426h50.153v-45H430.22z"/><path d="M322.023 154.085a2.994 2.994 0 0 0 3 2.996h33.48c1.657 0 3-1.334 3-2.996v-7.663a2.994 2.994 0 0 0-3-2.996h-33.48c-1.657 0-3 1.334-3 2.996v7.663z" fill="#0F9D58"/><path fill="#FFF" d="M437.023 75.464h34v-1.52h-34zm0 15.481h34v-1.52h-34zm0-5h34v-1.52h-34zm0 16h34v-1.52h-34zm0-31h34v-1.52h-34zm0 10h34v-1.52h-34zm0 16h34v-1.52h-34z"/><path fill="#A3A3A3" opacity=".5" d="M194.023 201.194h26v-26h-26zm26.977.232h26v-26h-26zm27 0h26v-26h-26zm27 0h26v-26h-26zm27 0h26v-26h-26zm27 .002h26v-26h-26zm27-.002h26v-26h-26zm27 0h26v-26h-26zm27 0h26v-26h-26zm27 0h26v-26h-26zm27.023 0h26v-26h-26z"/><path fill="#CDCDCD" d="M272.023 116.657h139.081V98.426H272.023zm.046 6.807H411.15v-3.038H272.069zm0 6H411.15v-3.038H272.069z"/><circle fill="#383838" cx="79.5" cy="20.5" r="4.5"/><circle fill="#383838" cx="312.5" cy="59.5" r="4.5"/><circle fill="#383838" cx="617.5" cy="237.5" r="4.5"/><circle fill="#383838" cx="470.5" cy="90.5" r="4.5"/><circle fill="#383838" cx="698.5" cy="25.5" r="4.5"/><circle fill="#383838" cx="470.5" cy="69.5" r="4.5"/><circle fill="#383838" cx="4.5" cy="207.5" r="4.5"/><circle fill="#383838" cx="342.5" cy="59.5" r="4.5"/><path d="M82 21S242 2 314 60m302 176S604 85 471 90m225-64S569-10 470 70M7 208s86 48 335-147" stroke="#383838" stroke-width="2" stroke-linejoin="round" stroke-dasharray="2,3"/></g></svg>