<svg id="logo" xmlns="http://www.w3.org/2000/svg" viewBox="0 0 703 152"><title>Mellroot Logo</title><defs><style>.green{fill:#0f9d58}</style></defs><path class="green" d="M11.879 44.336l.39 17.187c3.907-6.38 8.79-11.165 14.649-14.355 5.86-3.19 12.37-4.785 19.531-4.785 16.667 0 27.246 6.836 31.739 20.508 3.776-6.576 8.821-11.638 15.136-15.186 6.315-3.548 13.281-5.322 20.899-5.322 22.656 0 34.212 12.37 34.668 37.11V150h-11.72V80.371c-.064-9.44-2.099-16.439-6.103-20.996-4.004-4.557-10.53-6.836-19.58-6.836-8.398.13-15.494 2.848-21.289 8.154-5.794 5.306-9.017 11.768-9.668 19.385V150H68.812V79.492c-.065-9.05-2.197-15.804-6.396-20.263-4.2-4.46-10.66-6.69-19.385-6.69-7.357 0-13.672 2.1-18.945 6.299-5.274 4.2-9.18 10.433-11.719 18.701V150H.648V44.336h11.23zm207.52 107.617c-8.985 0-17.107-2.213-24.366-6.64-7.259-4.428-12.907-10.596-16.943-18.506-4.037-7.91-6.055-16.78-6.055-26.612v-4.199c0-10.156 1.97-19.303 5.908-27.441 3.94-8.138 9.424-14.535 16.455-19.19 7.032-4.655 14.649-6.982 22.852-6.982 12.826 0 22.998 4.378 30.518 13.135 7.52 8.756 11.279 20.719 11.279 35.888v6.543h-75.39v2.246c0 11.98 3.433 21.957 10.302 29.932 6.869 7.975 15.511 11.963 25.928 11.963 6.25 0 11.767-1.14 16.552-3.418 4.786-2.279 9.131-5.925 13.038-10.938l7.324 5.567c-8.594 12.435-21.061 18.652-37.403 18.652zm-2.149-99.61c-8.79 0-16.195 3.223-22.217 9.669-6.022 6.445-9.684 15.104-10.986 25.976h63.379v-1.27c-.326-10.156-3.223-18.424-8.692-24.804-5.468-6.38-12.63-9.57-21.484-9.57zM294.887 150h-11.719V0h11.719v150zm44.824 0h-11.719V0h11.719v150zm80.566-95.703c-2.474-.456-5.11-.684-7.91-.684-7.292 0-13.46 2.035-18.506 6.104-5.045 4.069-8.642 9.977-10.79 17.724V150h-11.622V44.336h11.426l.195 16.797c6.185-12.5 16.114-18.75 29.785-18.75 3.256 0 5.827.423 7.715 1.27l-.293 10.644zm10.059 41.308c0-10.156 1.97-19.303 5.908-27.44 3.939-8.139 9.505-14.47 16.7-18.995 7.193-4.525 15.348-6.787 24.462-6.787 14.063 0 25.456 4.931 34.18 14.795 8.724 9.863 13.086 22.933 13.086 39.209v2.441c0 10.222-1.97 19.417-5.908 27.588-3.94 8.17-9.49 14.47-16.65 18.897-7.162 4.427-15.333 6.64-24.512 6.64-13.998 0-25.375-4.931-34.131-14.795-8.757-9.863-13.135-22.933-13.135-39.209v-2.344zm11.719 3.223c0 12.63 3.271 22.998 9.814 31.104 6.543 8.105 15.12 12.158 25.733 12.158 10.546 0 19.091-4.053 25.634-12.158 6.543-8.106 9.815-18.8 9.815-32.08v-2.247c0-8.072-1.498-15.462-4.492-22.168-2.995-6.705-7.194-11.897-12.598-15.576-5.404-3.678-11.589-5.517-18.555-5.517-10.416 0-18.912 4.085-25.488 12.256-6.576 8.17-9.863 18.863-9.863 32.08v2.148zm100.293-3.223c0-10.156 1.969-19.303 5.908-27.44 3.939-8.139 9.505-14.47 16.7-18.995 7.193-4.525 15.347-6.787 24.462-6.787 14.063 0 25.456 4.931 34.18 14.795 8.724 9.863 13.086 22.933 13.086 39.209v2.441c0 10.222-1.97 19.417-5.909 27.588-3.938 8.17-9.489 14.47-16.65 18.897-7.161 4.427-15.332 6.64-24.512 6.64-13.997 0-25.374-4.931-34.13-14.795-8.757-9.863-13.135-22.933-13.135-39.209v-2.344zm11.718 3.223c0 12.63 3.272 22.998 9.815 31.104 6.543 8.105 15.12 12.158 25.732 12.158 10.547 0 19.092-4.053 25.635-12.158 6.543-8.106 9.814-18.8 9.814-32.08v-2.247c0-8.072-1.497-15.462-4.492-22.168-2.994-6.705-7.194-11.897-12.597-15.576-5.404-3.678-11.589-5.517-18.555-5.517-10.417 0-18.913 4.085-25.488 12.256-6.576 8.17-9.864 18.863-9.864 32.08v2.148zM678.97 17.285v27.05h21.875v9.571H678.97v70.41c0 5.86 1.058 10.222 3.174 13.086 2.115 2.865 5.647 4.297 10.595 4.297 1.953 0 5.11-.325 9.473-.976l.488 9.57c-3.06 1.107-7.226 1.66-12.5 1.66-8.008 0-13.834-2.327-17.48-6.982-3.646-4.655-5.469-11.507-5.469-20.557V53.906h-19.434v-9.57h19.434v-27.05h11.719z"/></svg>