<svg width="800" height="751" viewBox="0 0 800 751" xmlns="http://www.w3.org/2000/svg"><title>4B677539-FBAA-4235-8CD5-EB4B50690B32</title><g fill="none" fill-rule="evenodd"><path fill="#6ABFEA" d="M332.97 508.945h367.463V0H332.97z"/><path fill="#E46D5B" d="M332.97 38.44h33.684V7.688H332.97z"/><path fill="#DBD6D4" d="M366.654 38.44h76.555V7.688h-76.555z"/><path fill="#C3BEB5" d="M441.678 41.515H516.7V9.225h-75.023z"/><path fill="#CFD7CB" d="M332.97 535.705h367.463V19.989H332.97z"/><path d="M668.28 31.407c0 1.336-1.08 2.42-2.41 2.42H369.064a2.416 2.416 0 0 1-2.41-2.42v-4.385c0-1.336 1.08-2.42 2.41-2.42H665.87c1.33 0 2.41 1.084 2.41 2.42v4.385" fill="#FFF"/><path d="M349.258 29.264c0 2.005-1.62 3.63-3.618 3.63a3.621 3.621 0 0 1-3.614-3.63 3.623 3.623 0 0 1 3.614-3.632 3.625 3.625 0 0 1 3.618 3.632m12.049.479c0 2.006-1.62 3.63-3.616 3.63a3.623 3.623 0 0 1-3.615-3.63 3.624 3.624 0 0 1 3.615-3.631 3.625 3.625 0 0 1 3.616 3.631" fill="#C0B7B8"/><path fill="#ECE9E6" d="M332.194 750.954h368.504V51.307H332.194z"/><path fill="#00A196" d="M332.97 154.628h367.463V39.308H332.97z"/><path fill="#E46E5B" d="M332.97 58.909h367.463V37.382H332.97z"/><path fill="#FFF" d="M380.48 50.971h68.027v-4.763H380.48zm-27.732-.245h18.985v-4.743h-18.985zm98.789.245h26.024v-4.744h-26.024zm28.606 0h26.025v-4.744h-26.025z"/><path fill="#ECE9E6" d="M651.452 49.914h31.64v-4.763h-31.64z"/><path fill="#EBE9E6" d="M621.769 50.274h5.309v-5.336h-5.31zm9.556 0h5.31v-5.336h-5.31zm9.557 0h5.31v-5.336h-5.31z"/><path fill="#C4C4C4" opacity=".5" d="M332.97 154.25h367.463v-21.527H332.97z"/><path fill="#FFF" d="M377.732 124.31h18.984v-2.038h-18.984zm0 4.18h18.984v-2.037h-18.984z"/><path fill="#494949" d="M352.748 136.903h20.995v-21.946h-20.995z"/><path d="M474.542 149.51h11.06v-11.562h-11.06zm18.738 0h11.06v-11.562h-11.06zm18.737 0h11.06v-11.562h-11.06zm17.696 0h11.061v-11.562h-11.06zm18.737 0h11.062v-11.562H548.45z" fill="#EBE9E6"/><path d="M419.46 167.598h31.15" fill="#00A196"/><path fill="#C4C4C4" d="M353.79 260.22h72.867v-73.154H353.79zm.19 85.905h72.868v-73.154H353.98zm0 364.567h72.868v-67.654H353.98zm170.529-450.465h72.868v-73.155h-72.868zm0 85.708h72.868V272.78h-72.868zm-85.36-85.715h72.868v-73.154h-72.868z"/><path fill="#FFF" d="M485.993 178.12h62.458v-4.181h-62.458z"/><path fill="#C4C4C4" d="M438.238 346.125h72.868v-73.154h-72.868zm-.916 364.567h72.868v-67.654h-72.868zm172.546-450.465h72.868v-73.155h-72.868zm0 85.708h72.868V272.78h-72.868z"/><path fill="#3D5389" d="M353.79 449.115h157.982V381.46H353.789zm.378 181.992h156.146v-67.655H354.168zm-.378-103.084h157.982V460.37H353.789zm170.969-78.908H682.74V381.46H524.76z"/><path fill="#FA7777" d="M527.082 631.107h156.146v-67.655H527.082z"/><path fill="#FFF" d="M550.702 618.181H565.2V616.8h-14.498zm0 3.015H565.2v-1.383h-14.498z"/><path fill="#9C9C9C" d="M531.516 626.663h16.032v-14.888h-16.032z"/><path fill="#3D5389" d="M617.233 570.859h17.735v17.774h-17.735zm22.169 0h17.735v17.774h-17.735z"/><path fill="#0F9D58" d="M661.57 570.859h17.735v17.774H661.57z"/><path fill="#3D5389" d="M524.759 528.023H682.74V460.37H524.76z"/><path fill="#FA7777" d="M527.082 710.308h156.146v-67.654H527.082z"/><path fill="#FFF" d="M550.702 697.383H565.2V696h-14.498zm0 3.014H565.2v-1.382h-14.498z"/><path fill="#9C9C9C" d="M531.516 705.865h16.032v-14.889h-16.032z"/><path fill="#3D5389" d="M617.233 650.06h17.735v17.773h-17.735zm22.169 0h17.735v17.773h-17.735z"/><path fill="#0F9D58" d="M661.57 650.06h17.735v17.773H661.57z"/><path fill="#00A196" d="M500.566 359.514h33.311v-6.27h-33.31zm0 182.37h33.311v-6.27h-33.31zm-.086 182.578h33.311v-6.27H500.48z"/><path fill="#FFF" d="M485.993 374.145h62.458v-4.18h-62.458zm-.292 183.12h62.458v-4.18h-62.458z"/><circle fill="#383838" cx="674.5" cy="392.5" r="4.5"/><circle fill="#383838" cx="795.5" cy="437.5" r="4.5"/><path d="M675 393s12 60 121 45" stroke="#383838" stroke-width="2" stroke-linejoin="round" stroke-dasharray="2,3"/><circle fill="#383838" cx="498" cy="144" r="4.5"/><circle fill="#383838" cx="795.5" cy="261.5" r="4.5"/><path d="M499 145s188 132 297 117" stroke="#383838" stroke-width="2" stroke-linejoin="round" stroke-dasharray="2,3"/><circle fill="#383838" cx="674.5" cy="200.5" r="4.5"/><circle fill="#383838" cx="795.5" cy="55.5" r="4.5"/><path d="M675 199S716 56 793 56" stroke="#383838" stroke-width="2" stroke-linejoin="round" stroke-dasharray="2,3"/><circle fill="#383838" cx="131.5" cy="214.5" r="4.5"/><circle fill="#383838" cx="517.5" cy="97.5" r="4.5"/><path d="M133 214s259 4 384-117" stroke="#383838" stroke-width="2" stroke-linejoin="round" stroke-dasharray="2,3"/><circle fill="#383838" cx="4.5" cy="57.5" r="4.5"/><circle fill="#383838" cx="381.5" cy="114.5" r="4.5"/><path d="M7 57s192-28 375 57" stroke="#383838" stroke-width="2" stroke-linejoin="round" stroke-dasharray="2,3"/></g></svg>