<svg width="100" height="100" viewBox="0 0 100 100" xmlns="http://www.w3.org/2000/svg" xmlns:xlink="http://www.w3.org/1999/xlink" xmlns:figma="http://www.figma.com/figma/ns"><title>user_avatar</title><desc>Created using Figma</desc><g figma:type="canvas"><g style="mix-blend-mode:normal" figma:type="frame"><use xlink:href="#a" fill="#D8D8D8" style="mix-blend-mode:normal" figma:type="vector"/><use xlink:href="#b" transform="translate(28.05 51.553)" fill="#8A9397" style="mix-blend-mode:normal" figma:type="vector"/><use xlink:href="#c" transform="translate(34.76 26.011)" fill="#8A9397" style="mix-blend-mode:normal" figma:type="vector"/><use xlink:href="#d" transform="translate(37.01 16)" fill="#8A9397" style="mix-blend-mode:normal" figma:type="vector"/></g></g><defs><path id="a" fill-rule="evenodd" d="M0 0h100v100H0V0z"/><path id="b" fill-rule="evenodd" d="M32.695 0c-2.645 3.169-5.978 5.354-9.745 5.354-3.768 0-7.1-2.185-9.746-5.354L3.253 2.988A4.583 4.583 0 0 0 0 7.384v13.808c0 12.766 0 11.116 22.95 11.116s22.95 1.65 22.95-11.116V7.384a4.583 4.583 0 0 0-3.253-4.396L32.695 0z"/><path id="c" fill-rule="evenodd" d="M1.559 16.393c.884 1.122 2.01 1.797 3.086 1.777 2.429 5.61 6.71 10.428 11.602 10.428 4.89 0 9.173-4.817 11.602-10.428 1.075.02 2.201-.655 3.085-1.777a7.174 7.174 0 0 0 1.154-2.107c.526-1.52.518-3.027.104-4.183-.325-.906-.896-1.603-1.695-1.886-.13.043-.26.09-.402.101a1.724 1.724 0 0 1-.13.005c-.26 0-.5-.08-.727-.19-.43-.21-.78-.577-.922-1.06-.034-.115-.905-2.84-6.05-2.84-.494 0-1.018.025-1.57.075 0 0-.537.049-1.367.049-2.744 0-6.44-.478-8.463-2.75A5.3 5.3 0 0 1 9.88 0C7.978 1.217 5.243 3.517 4.19 7.13c-.133.456-.45.8-.842 1.012a1.67 1.67 0 0 1-.798.225 1.52 1.52 0 0 1-.202-.013c-.138-.017-.261-.07-.387-.119-.78.292-1.339.975-1.66 1.868-.414 1.156-.421 2.663.104 4.183a7.176 7.176 0 0 0 1.154 2.107z"/><path id="d" fill-rule="evenodd" d="M8.988 7.338c-.52 4.783 5.448 5.307 8.091 5.307.742 0 1.222-.042 1.222-.042a18.35 18.35 0 0 1 1.715-.083c6.691 0 7.7 4.114 7.7 4.114l.415-3.098c.872-6.509-3.624-12.51-10.076-13.454a7.822 7.822 0 0 0-6.863 2.42l-.114.122a7.41 7.41 0 0 0-7.398.693 8.767 8.767 0 0 0-3.669 7.59l.287 5.748c1.946-6.677 8.69-9.317 8.69-9.317z"/></defs></svg>